<svg width="326" height="88" fill="none" xmlns="http://www.w3.org/2000/svg"><path d="M2.52 18c-.348 0-.63-.102-.846-.306-.204-.216-.306-.498-.306-.846V6.444c0-.336.102-.606.306-.81.216-.216.498-.324.846-.324h6.714c.336 0 .606.084.81.252a.82.82 0 01.306.666.873.873 0 01-.306.684c-.204.168-.474.252-.81.252h-5.58v3.078h3.024c1.38 0 2.436.318 3.168.954.744.636 1.116 1.572 1.116 2.808 0 .804-.18 1.506-.54 2.106-.348.6-.852 1.068-1.512 1.404-.648.324-1.422.486-2.322.486H2.52zm3.78-1.8c.804 0 1.416-.192 1.836-.576.42-.384.63-.924.63-1.62 0-.684-.198-1.182-.594-1.494-.384-.324-.984-.486-1.8-.486H3.654V16.2H6.3zm10.538 1.944c-.9 0-1.692-.186-2.376-.558a3.876 3.876 0 01-1.566-1.602c-.372-.696-.558-1.506-.558-2.43 0-.924.186-1.728.558-2.412a3.876 3.876 0 011.566-1.602c.684-.372 1.476-.558 2.376-.558.9 0 1.686.186 2.358.558a3.737 3.737 0 011.566 1.602c.372.684.558 1.488.558 2.412 0 .924-.186 1.734-.558 2.43a3.737 3.737 0 01-1.566 1.602c-.672.372-1.458.558-2.358.558zm-.018-1.746c.732 0 1.29-.24 1.674-.72.384-.48.576-1.188.576-2.124 0-.924-.192-1.626-.576-2.106-.384-.492-.936-.738-1.656-.738-.72 0-1.278.246-1.674.738-.384.48-.576 1.182-.576 2.106 0 .936.192 1.644.576 2.124.384.48.936.72 1.656.72zm9.102-4.608c0 1.836-.228 3.24-.684 4.212-.456.96-1.11 1.644-1.962 2.052-.132.06-.288.09-.468.09a.915.915 0 01-.648-.234.855.855 0 01-.252-.63c0-.18.048-.348.144-.504.096-.168.24-.306.432-.414.516-.288.87-.768 1.062-1.44.204-.672.306-1.698.306-3.078v-1.512c-.012-.348.078-.624.27-.828.192-.204.456-.306.792-.306h4.752c.348-.012.624.078.828.27.204.192.306.456.306.792v6.786c0 .324-.102.582-.306.774-.204.192-.48.288-.828.288-.336 0-.606-.096-.81-.288-.204-.192-.306-.45-.306-.774V10.89h-2.628v.9zm14.136 3.798c.204 0 .366.078.486.234.132.156.198.366.198.63 0 .372-.222.684-.666.936-.408.228-.87.414-1.386.558a5.957 5.957 0 01-1.476.198c-1.416 0-2.538-.408-3.366-1.224-.828-.816-1.242-1.932-1.242-3.348 0-.9.18-1.698.54-2.394a3.945 3.945 0 011.512-1.62c.66-.384 1.404-.576 2.232-.576.792 0 1.482.174 2.07.522a3.54 3.54 0 011.368 1.476c.324.636.486 1.386.486 2.25 0 .516-.228.774-.684.774h-5.31c.072.828.306 1.44.702 1.836.396.384.972.576 1.728.576.384 0 .72-.048 1.008-.144.3-.096.636-.228 1.008-.396.36-.192.624-.288.792-.288zm-3.114-5.022c-.612 0-1.104.192-1.476.576-.36.384-.576.936-.648 1.656h4.068c-.024-.732-.204-1.284-.54-1.656-.336-.384-.804-.576-1.404-.576zm12.676 5.022c.204 0 .366.078.486.234.132.156.198.366.198.63 0 .372-.222.684-.666.936-.408.228-.87.414-1.386.558a5.957 5.957 0 01-1.476.198c-1.416 0-2.538-.408-3.366-1.224-.828-.816-1.242-1.932-1.242-3.348 0-.9.18-1.698.54-2.394a3.945 3.945 0 011.512-1.62c.66-.384 1.404-.576 2.232-.576.792 0 1.482.174 2.07.522a3.54 3.54 0 011.368 1.476c.324.636.486 1.386.486 2.25 0 .516-.228.774-.684.774h-5.31c.072.828.306 1.44.702 1.836.396.384.972.576 1.728.576.384 0 .72-.048 1.008-.144.3-.096.636-.228 1.008-.396.36-.192.624-.288.792-.288zm-3.114-5.022c-.612 0-1.104.192-1.476.576-.36.384-.576.936-.648 1.656h4.068c-.024-.732-.204-1.284-.54-1.656-.336-.384-.804-.576-1.404-.576zm205.812 65.61c.42.156.756.366 1.008.63.264.264.57.708.918 1.332l.792 1.368c.108.192.162.378.162.558a.956.956 0 01-.342.738 1.126 1.126 0 01-.774.288c-.408 0-.72-.192-.936-.576l-1.134-2.016c-.252-.42-.498-.714-.738-.882-.24-.168-.588-.252-1.044-.252h-.702v2.664c0 .336-.102.6-.306.792-.204.192-.48.288-.828.288s-.624-.096-.828-.288c-.192-.192-.288-.456-.288-.792V73.08c0-.324.102-.582.306-.774.204-.192.474-.288.81-.288.348 0 .624.096.828.288.204.192.306.45.306.774v2.61h.81l2.574-3.204c.24-.312.522-.468.846-.468.252 0 .468.09.648.27.18.18.27.396.27.648s-.096.498-.288.738l-2.07 2.502zm7.774-1.386c0 1.836-.228 3.24-.684 4.212-.456.96-1.11 1.644-1.962 2.052-.132.06-.288.09-.468.09a.915.915 0 01-.648-.234.855.855 0 01-.252-.63c0-.18.048-.348.144-.504.096-.168.24-.306.432-.414.516-.288.87-.768 1.062-1.44.204-.672.306-1.698.306-3.078v-1.512c-.012-.348.078-.624.27-.828.192-.204.456-.306.792-.306h4.752c.348-.012.624.078.828.27.204.192.306.456.306.792v6.786c0 .324-.102.582-.306.774-.204.192-.48.288-.828.288-.336 0-.606-.096-.81-.288-.204-.192-.306-.45-.306-.774V73.89h-2.628v.9zm13.02-1.908c.24-.336.456-.564.648-.684.204-.12.48-.18.828-.18s.624.096.828.288c.216.192.324.45.324.774v6.93c0 .324-.102.588-.306.792-.192.204-.444.306-.756.306-.324 0-.588-.102-.792-.306-.192-.204-.288-.468-.288-.792v-5.076l-3.816 5.346c-.228.324-.45.546-.666.666-.204.108-.462.162-.774.162-.348 0-.624-.096-.828-.288-.204-.192-.306-.456-.306-.792v-6.93c0-.324.096-.582.288-.774.204-.204.468-.306.792-.306.312 0 .564.102.756.306.204.192.306.45.306.774v5.04l3.762-5.256zm11.874 5.706c.204 0 .366.078.486.234.132.156.198.366.198.63 0 .372-.222.684-.666.936-.408.228-.87.414-1.386.558a5.957 5.957 0 01-1.476.198c-1.416 0-2.538-.408-3.366-1.224-.828-.816-1.242-1.932-1.242-3.348 0-.9.18-1.698.54-2.394a3.945 3.945 0 011.512-1.62c.66-.384 1.404-.576 2.232-.576.792 0 1.482.174 2.07.522a3.54 3.54 0 011.368 1.476c.324.636.486 1.386.486 2.25 0 .516-.228.774-.684.774h-5.31c.072.828.306 1.44.702 1.836.396.384.972.576 1.728.576.384 0 .72-.048 1.008-.144.3-.096.636-.228 1.008-.396.36-.192.624-.288.792-.288zm-3.114-5.022c-.612 0-1.104.192-1.476.576-.36.384-.576.936-.648 1.656h4.068c-.024-.732-.204-1.284-.54-1.656-.336-.384-.804-.576-1.404-.576zm6.772 7.542c-.336 0-.606-.096-.81-.288-.204-.192-.306-.45-.306-.774V73.08c0-.324.102-.582.306-.774.204-.192.474-.288.81-.288.348 0 .624.096.828.288.204.192.306.45.306.774v2.538h3.852V73.08c0-.324.102-.582.306-.774.204-.192.474-.288.81-.288.348 0 .624.096.828.288.204.192.306.45.306.774l.018 6.876c0 .348-.108.63-.324.846-.204.204-.474.306-.81.306-.348 0-.624-.102-.828-.306-.204-.216-.306-.498-.306-.846v-2.592h-3.852v2.682c0 .324-.102.582-.306.774-.204.192-.48.288-.828.288zm12.67 0c-.348 0-.624-.096-.828-.288-.204-.192-.306-.45-.306-.774V73.89h-2.07a.915.915 0 01-.648-.234.828.828 0 01-.234-.612c0-.252.078-.456.234-.612a.915.915 0 01.648-.234h6.39c.264 0 .474.078.63.234.168.156.252.36.252.612a.796.796 0 01-.252.612c-.156.156-.366.234-.63.234h-2.07v6.156c0 .324-.102.582-.306.774-.204.192-.474.288-.81.288zm9.337.036c-.9 0-1.692-.186-2.376-.558a3.876 3.876 0 01-1.566-1.602c-.372-.696-.558-1.506-.558-2.43 0-.924.186-1.728.558-2.412a3.876 3.876 0 011.566-1.602c.684-.372 1.476-.558 2.376-.558.9 0 1.686.186 2.358.558a3.737 3.737 0 011.566 1.602c.372.684.558 1.488.558 2.412 0 .924-.186 1.734-.558 2.43a3.737 3.737 0 01-1.566 1.602c-.672.372-1.458.558-2.358.558zm-.018-1.746c.732 0 1.29-.24 1.674-.72.384-.48.576-1.188.576-2.124 0-.924-.192-1.626-.576-2.106-.384-.492-.936-.738-1.656-.738-.72 0-1.278.246-1.674.738-.384.48-.576 1.182-.576 2.106 0 .936.192 1.644.576 2.124.384.48.936.72 1.656.72zM318.07 81c-.348.012-.624-.078-.828-.27-.204-.192-.306-.456-.306-.792v-6.606c-.012-.348.078-.624.27-.828.192-.204.456-.306.792-.306h3.33c.996 0 1.776.198 2.34.594.576.396.864.954.864 1.674 0 .444-.132.846-.396 1.206s-.642.624-1.134.792c.564.132.996.372 1.296.72.312.348.468.792.468 1.332 0 .708-.3 1.302-.9 1.782-.588.468-1.416.702-2.484.702h-3.312zm2.88-5.202c.432 0 .768-.096 1.008-.288.24-.192.36-.456.36-.792 0-.672-.462-1.008-1.386-1.008h-1.764v2.088h1.782zm.054 3.69c1.008 0 1.512-.378 1.512-1.134 0-.756-.504-1.134-1.512-1.134h-1.836v2.268h1.836z" fill="#222"/><path d="M29.881 79.716c2.951 0 4.427 1.247 4.427 3.74 0 2.59-1.476 3.884-4.427 3.884H4.943c-3 0-4.5-1.295-4.5-3.885 0-2.492 1.5-3.739 4.5-3.739h7.673V46.29l-7.082 4.325c-.69.391-1.304.587-1.845.587-1.033 0-1.918-.44-2.656-1.32C.344 49.001 0 48.024 0 46.95c0-1.417.64-2.517 1.918-3.299l11.436-7.037c1.476-.88 2.878-1.32 4.206-1.32 1.377 0 2.484.416 3.32 1.246.836.831 1.254 1.98 1.254 3.446v39.731h7.747zM59.29 88c-6.148 0-10.845-2.248-14.092-6.744-3.246-4.545-4.87-11.143-4.87-19.793 0-8.6 1.624-15.15 4.87-19.646C48.445 37.273 53.142 35 59.29 35c6.149 0 10.846 2.273 14.092 6.817 3.247 4.496 4.87 11.045 4.87 19.646s-1.623 15.175-4.87 19.72C70.136 85.727 65.44 88 59.29 88zm0-7.404c3.345 0 5.78-1.515 7.305-4.545 1.525-3.079 2.287-7.941 2.287-14.588 0-6.695-.763-11.533-2.287-14.514-1.525-3.03-3.96-4.545-7.305-4.545-3.344 0-5.779 1.515-7.304 4.545-1.525 3.03-2.287 7.868-2.287 14.514 0 6.647.762 11.51 2.287 14.588 1.525 3.03 3.96 4.545 7.304 4.545zM123.56 88c-6.148 0-10.846-2.248-14.092-6.744-3.246-4.545-4.87-11.143-4.87-19.793 0-8.6 1.624-15.15 4.87-19.646C112.714 37.273 117.412 35 123.56 35c6.148 0 10.846 2.273 14.092 6.817 3.246 4.496 4.869 11.045 4.869 19.646s-1.623 15.175-4.869 19.72C134.406 85.727 129.708 88 123.56 88zm0-7.404c3.345 0 5.779-1.515 7.304-4.545 1.525-3.079 2.287-7.941 2.287-14.588 0-6.695-.762-11.533-2.287-14.514-1.525-3.03-3.959-4.545-7.304-4.545s-5.78 1.515-7.304 4.545c-1.525 3.03-2.288 7.868-2.288 14.514 0 6.647.763 11.51 2.288 14.588 1.524 3.03 3.959 4.545 7.304 4.545zM167.799 88c-6.148 0-10.845-2.248-14.092-6.744-3.246-4.545-4.869-11.143-4.869-19.793 0-8.6 1.623-15.15 4.869-19.646 3.247-4.544 7.944-6.817 14.092-6.817 6.149 0 10.846 2.273 14.092 6.817 3.247 4.496 4.87 11.045 4.87 19.646s-1.623 15.175-4.87 19.72C178.645 85.727 173.948 88 167.799 88zm0-7.404c3.345 0 5.78-1.515 7.304-4.545 1.525-3.079 2.288-7.941 2.288-14.588 0-6.695-.763-11.533-2.288-14.514-1.524-3.03-3.959-4.545-7.304-4.545s-5.779 1.515-7.304 4.545c-1.525 3.03-2.287 7.868-2.287 14.514 0 6.647.762 11.51 2.287 14.588 1.525 3.03 3.959 4.545 7.304 4.545zM212.038 88c-6.148 0-10.845-2.248-14.092-6.744-3.246-4.545-4.869-11.143-4.869-19.793 0-8.6 1.623-15.15 4.869-19.646C201.193 37.273 205.89 35 212.038 35c6.149 0 10.846 2.273 14.093 6.817C229.377 46.313 231 52.862 231 61.463s-1.623 15.175-4.869 19.72C222.884 85.727 218.187 88 212.038 88zm0-7.404c3.345 0 5.78-1.515 7.305-4.545 1.525-3.079 2.287-7.941 2.287-14.588 0-6.695-.762-11.533-2.287-14.514-1.525-3.03-3.96-4.545-7.305-4.545-3.344 0-5.779 1.515-7.304 4.545-1.525 3.03-2.287 7.868-2.287 14.514 0 6.647.762 11.51 2.287 14.588 1.525 3.03 3.96 4.545 7.304 4.545z" fill="#F81157"/></svg>