<svg width="124" height="88" fill="none" xmlns="http://www.w3.org/2000/svg"><path d="M11.286 5.22c.348 0 .624.108.828.324.204.204.306.48.306.828v10.566c0 .348-.108.63-.324.846-.204.216-.474.324-.81.324-.348 0-.624-.108-.828-.324-.204-.216-.306-.498-.306-.846v-4.446H3.654v4.446c0 .348-.108.63-.324.846-.204.216-.48.324-.828.324-.336 0-.612-.108-.828-.324-.204-.216-.306-.498-.306-.846V6.372c0-.348.102-.624.306-.828.204-.216.48-.324.828-.324s.624.108.828.324c.216.204.324.48.324.828v4.248h6.498V6.372c0-.348.102-.624.306-.828.204-.216.48-.324.828-.324zm7.481 3.762c1.224 0 2.13.306 2.718.918.6.6.9 1.518.9 2.754v4.392c0 .324-.096.582-.288.774-.192.18-.456.27-.792.27-.312 0-.57-.096-.774-.288-.192-.192-.288-.444-.288-.756v-.396a2.335 2.335 0 01-.972 1.098c-.432.264-.936.396-1.512.396-.588 0-1.122-.12-1.602-.36a2.85 2.85 0 01-1.134-.99 2.501 2.501 0 01-.414-1.404c0-.648.162-1.158.486-1.53.336-.372.876-.642 1.62-.81.744-.168 1.77-.252 3.078-.252h.45v-.414c0-.588-.126-1.014-.378-1.278-.252-.276-.66-.414-1.224-.414-.348 0-.702.054-1.062.162-.36.096-.786.24-1.278.432-.312.156-.54.234-.684.234a.704.704 0 01-.54-.234c-.132-.156-.198-.36-.198-.612a.92.92 0 01.144-.522c.108-.156.282-.3.522-.432a5.88 5.88 0 011.494-.54 7.875 7.875 0 011.728-.198zm-.558 7.542c.6 0 1.086-.198 1.458-.594.384-.408.576-.93.576-1.566v-.378h-.324c-.804 0-1.428.036-1.872.108-.444.072-.762.198-.954.378-.192.18-.288.426-.288.738 0 .384.132.702.396.954.276.24.612.36 1.008.36zm15.049-7.506c.348 0 .624.096.828.288.204.192.306.45.306.774v6.984c0 .3-.096.552-.288.756a1 1 0 01-.738.288c-.3 0-.552-.096-.756-.288a1.061 1.061 0 01-.288-.756l.018-4.536-1.8 3.348a1.348 1.348 0 01-.432.468c-.18.108-.378.162-.594.162-.456 0-.804-.21-1.044-.63l-1.8-3.348.018 4.536c0 .3-.102.552-.306.756a1 1 0 01-.738.288 1 1 0 01-.738-.288 1.061 1.061 0 01-.288-.756v-6.912c0-.348.09-.624.27-.828.192-.204.456-.306.792-.306.324 0 .594.054.81.162.216.096.408.306.576.63l2.448 4.626 2.358-4.482c.192-.348.384-.588.576-.72.204-.144.474-.216.81-.216zM41.6 20.394c-.312 0-.564-.096-.756-.288-.18-.18-.27-.438-.27-.774v-1.89c-.011-.348.079-.624.27-.828.192-.204.444-.306.756-.306h.198a6.523 6.523 0 00.72-2.106c.145-.78.216-1.704.216-2.772v-1.098c-.012-.348.078-.624.27-.828.193-.204.457-.306.793-.306h4.446c.347-.012.623.078.828.27.204.192.306.456.306.792v6.048h.287c.349-.012.624.078.828.27.205.192.306.456.306.792v1.962c0 .336-.096.594-.288.774-.18.192-.425.288-.737.288-.325 0-.577-.096-.757-.288-.18-.18-.27-.438-.27-.774V18h-6.102v1.332c0 .336-.096.594-.288.774-.18.192-.431.288-.756.288zm5.544-9.504H44.68v.54c0 1.14-.09 2.13-.27 2.97-.169.84-.408 1.476-.72 1.908h3.456V10.89zm8.981 7.254c-.9 0-1.692-.186-2.376-.558a3.876 3.876 0 01-1.566-1.602c-.372-.696-.558-1.506-.558-2.43 0-.924.186-1.728.558-2.412A3.876 3.876 0 0153.75 9.54c.684-.372 1.476-.558 2.376-.558.9 0 1.686.186 2.358.558a3.737 3.737 0 011.566 1.602c.372.684.558 1.488.558 2.412 0 .924-.186 1.734-.558 2.43a3.737 3.737 0 01-1.566 1.602c-.672.372-1.458.558-2.358.558zm-.018-1.746c.732 0 1.29-.24 1.674-.72.384-.48.576-1.188.576-2.124 0-.924-.192-1.626-.576-2.106-.384-.492-.936-.738-1.656-.738-.72 0-1.278.246-1.674.738-.384.48-.576 1.182-.576 2.106 0 .936.192 1.644.576 2.124.384.48.936.72 1.656.72zM63.545 18c-.348.012-.624-.078-.828-.27-.204-.192-.306-.456-.306-.792v-6.606c-.012-.348.078-.624.27-.828.192-.204.456-.306.792-.306h3.33c.996 0 1.776.198 2.34.594.576.396.864.954.864 1.674 0 .444-.132.846-.396 1.206s-.642.624-1.134.792c.564.132.996.372 1.296.72.312.348.468.792.468 1.332 0 .708-.3 1.302-.9 1.782-.588.468-1.416.702-2.484.702h-3.312zm2.88-5.202c.432 0 .768-.096 1.008-.288.24-.192.36-.456.36-.792 0-.672-.462-1.008-1.386-1.008h-1.764v2.088h1.782zm.054 3.69c1.008 0 1.512-.378 1.512-1.134 0-.756-.504-1.134-1.512-1.134h-1.836v2.268h1.836zm12.585-.9c.204 0 .366.078.486.234.132.156.198.366.198.63 0 .372-.222.684-.666.936-.408.228-.87.414-1.386.558a5.957 5.957 0 01-1.476.198c-1.416 0-2.538-.408-3.366-1.224-.828-.816-1.242-1.932-1.242-3.348 0-.9.18-1.698.54-2.394a3.945 3.945 0 011.512-1.62c.66-.384 1.404-.576 2.232-.576.792 0 1.482.174 2.07.522a3.54 3.54 0 011.368 1.476c.324.636.486 1.386.486 2.25 0 .516-.228.774-.684.774h-5.31c.072.828.306 1.44.702 1.836.396.384.972.576 1.728.576.384 0 .72-.048 1.008-.144.3-.096.636-.228 1.008-.396.36-.192.624-.288.792-.288zm-3.114-5.022c-.612 0-1.104.192-1.476.576-.36.384-.576.936-.648 1.656h4.068c-.024-.732-.204-1.284-.54-1.656-.336-.384-.804-.576-1.404-.576zm10.768-1.584c.756 0 1.428.192 2.016.576.6.384 1.062.93 1.386 1.638.336.696.504 1.5.504 2.412 0 .912-.168 1.71-.504 2.394-.324.684-.78 1.212-1.368 1.584-.588.372-1.266.558-2.034.558-.624 0-1.182-.132-1.674-.396a2.779 2.779 0 01-1.134-1.098v3.672c0 .312-.102.558-.306.738-.204.18-.474.27-.81.27-.336 0-.612-.096-.828-.288-.204-.192-.306-.444-.306-.756V10.08c0-.324.096-.582.288-.774.204-.192.474-.288.81-.288.336 0 .606.096.81.288.204.192.306.45.306.774v.45a2.72 2.72 0 011.134-1.134c.504-.276 1.074-.414 1.71-.414zm-.594 7.416c.708 0 1.26-.24 1.656-.72.396-.492.594-1.182.594-2.07 0-.912-.198-1.62-.594-2.124-.396-.504-.948-.756-1.656-.756-.72 0-1.278.246-1.674.738-.384.492-.576 1.194-.576 2.106 0 .9.192 1.596.576 2.088.396.492.954.738 1.674.738zm12.755 1.71c-.348 0-.624-.096-.828-.288-.192-.192-.288-.456-.288-.792V15.03h-.612c-.792 0-1.398.318-1.818.954l-1.224 1.728c-.252.36-.576.54-.972.54a1.08 1.08 0 01-.738-.288.928.928 0 01-.306-.702c0-.24.066-.456.198-.648l.396-.612c.288-.444.6-.816.936-1.116.348-.3.696-.492 1.044-.576-.744-.168-1.302-.456-1.674-.864-.36-.42-.54-.936-.54-1.548 0-.852.276-1.512.828-1.98.564-.48 1.338-.72 2.322-.72h3.276c.336-.012.606.078.81.27.204.192.306.45.306.774v6.786c0 .336-.102.6-.306.792-.192.192-.462.288-.81.288zm-1.116-7.344h-1.62c-.516 0-.912.108-1.188.324-.264.204-.396.54-.396 1.008 0 .492.15.846.45 1.062.312.216.696.324 1.152.324h1.602v-2.718zm12.4 7.38c-1.212 0-2.19-.336-2.934-1.008-.732-.672-1.17-1.602-1.314-2.79h-1.494v2.7c0 .324-.102.582-.306.774-.192.192-.456.288-.792.288s-.606-.096-.81-.288c-.192-.192-.288-.45-.288-.774V10.08c0-.324.096-.582.288-.774.204-.192.474-.288.81-.288.336 0 .6.096.792.288.204.192.306.45.306.774v2.574h1.494c.168-1.164.618-2.064 1.35-2.7.744-.648 1.71-.972 2.898-.972 1.356 0 2.418.414 3.186 1.242.78.816 1.17 1.926 1.17 3.33 0 1.416-.39 2.538-1.17 3.366-.768.816-1.83 1.224-3.186 1.224zm0-1.746c.72 0 1.248-.234 1.584-.702.348-.48.522-1.194.522-2.142 0-1.896-.702-2.844-2.106-2.844s-2.106.948-2.106 2.844c0 .948.168 1.662.504 2.142.348.468.882.702 1.602.702zm9.293 1.71c-.348 0-.624-.096-.828-.288-.204-.192-.306-.45-.306-.774V10.89h-2.07a.915.915 0 01-.648-.234.828.828 0 01-.234-.612c0-.252.078-.456.234-.612a.915.915 0 01.648-.234h6.39c.264 0 .474.078.63.234.168.156.252.36.252.612a.796.796 0 01-.252.612c-.156.156-.366.234-.63.234h-2.07v6.156c0 .324-.102.582-.306.774-.204.192-.474.288-.81.288zM96.266 74.79c0 1.836-.228 3.24-.684 4.212-.456.96-1.11 1.644-1.962 2.052-.132.06-.288.09-.468.09a.915.915 0 01-.648-.234.855.855 0 01-.252-.63c0-.18.048-.348.144-.504.096-.168.24-.306.432-.414.516-.288.87-.768 1.062-1.44.204-.672.306-1.698.306-3.078v-1.512c-.012-.348.078-.624.27-.828.192-.204.456-.306.792-.306h4.752c.348-.012.624.078.828.27.204.192.306.456.306.792v6.786c0 .324-.102.582-.306.774-.204.192-.48.288-.828.288-.336 0-.606-.096-.81-.288-.204-.192-.306-.45-.306-.774V73.89h-2.628v.9zm14.136 3.798c.204 0 .366.078.486.234.132.156.198.366.198.63 0 .372-.222.684-.666.936-.408.228-.87.414-1.386.558a5.957 5.957 0 01-1.476.198c-1.416 0-2.538-.408-3.366-1.224-.828-.816-1.242-1.932-1.242-3.348 0-.9.18-1.698.54-2.394a3.945 3.945 0 011.512-1.62c.66-.384 1.404-.576 2.232-.576.792 0 1.482.174 2.07.522a3.54 3.54 0 011.368 1.476c.324.636.486 1.386.486 2.25 0 .516-.228.774-.684.774h-5.31c.072.828.306 1.44.702 1.836.396.384.972.576 1.728.576.384 0 .72-.048 1.008-.144.3-.096.636-.228 1.008-.396.36-.192.624-.288.792-.288zm-3.114-5.022c-.612 0-1.104.192-1.476.576-.36.384-.576.936-.648 1.656h4.068c-.024-.732-.204-1.284-.54-1.656-.336-.384-.804-.576-1.404-.576zm8.719 7.542c-.348 0-.624-.096-.828-.288-.204-.192-.306-.45-.306-.774V73.89h-2.07a.915.915 0 01-.648-.234.828.828 0 01-.234-.612c0-.252.078-.456.234-.612a.915.915 0 01.648-.234h6.39c.264 0 .474.078.63.234.168.156.252.36.252.612a.796.796 0 01-.252.612c-.156.156-.366.234-.63.234h-2.07v6.156c0 .324-.102.582-.306.774-.204.192-.474.288-.81.288z" fill="#222"/><path d="M29.7 79.733c2.934 0 4.4 1.254 4.4 3.764 0 2.608-1.466 3.912-4.4 3.912H4.914C1.931 87.41.44 86.105.44 83.497c0-2.51 1.491-3.764 4.473-3.764h7.627v-33.66L5.5 50.427c-.684.393-1.295.59-1.833.59-1.027 0-1.907-.443-2.64-1.329C.342 48.804 0 47.82 0 46.737c0-1.427.636-2.535 1.907-3.322l11.367-7.086c1.466-.886 2.86-1.329 4.18-1.329 1.369 0 2.469.418 3.3 1.255S22 38.248 22 39.725v40.008h7.7zm31.946-25.615c3.227 0 6.063.714 8.507 2.141 2.493 1.378 4.425 3.322 5.794 5.831C77.315 64.6 78 67.48 78 70.727c0 3.396-.782 6.397-2.347 9.006-1.515 2.608-3.69 4.65-6.527 6.126C66.34 87.286 63.113 88 59.446 88c-3.031 0-6.013-.492-8.947-1.476-2.884-1.034-5.353-2.412-7.407-4.134-1.124-.984-1.686-2.14-1.686-3.47 0-1.082.293-1.992.88-2.73.635-.788 1.369-1.182 2.2-1.182.489 0 .953.099 1.393.296.44.147.954.418 1.54.812 1.956 1.377 3.863 2.436 5.72 3.174 1.858.738 3.838 1.107 5.94 1.107 3.227 0 5.696-.812 7.407-2.436 1.712-1.624 2.567-3.937 2.567-6.939 0-2.903-.88-5.191-2.64-6.865-1.711-1.722-4.082-2.583-7.113-2.583-1.907 0-3.618.27-5.134.812-1.467.541-2.982 1.451-4.547 2.731-.929.64-1.882.96-2.86.96s-1.809-.296-2.493-.886c-.685-.59-1.027-1.378-1.027-2.362v-23.03c0-1.379.391-2.462 1.174-3.249.782-.787 1.882-1.18 3.3-1.18h24.42c2.934 0 4.4 1.23 4.4 3.69s-1.466 3.69-4.4 3.69H52.48v14.026c2.494-1.772 5.55-2.658 9.167-2.658z" fill="#015AFE"/></svg>