<svg width="257" height="88" fill="none" xmlns="http://www.w3.org/2000/svg"><path d="M11.286 5.22c.348 0 .624.108.828.324.204.204.306.48.306.828v10.566c0 .348-.108.63-.324.846-.204.216-.474.324-.81.324-.348 0-.624-.108-.828-.324-.204-.216-.306-.498-.306-.846v-4.446H3.654v4.446c0 .348-.108.63-.324.846-.204.216-.48.324-.828.324-.336 0-.612-.108-.828-.324-.204-.216-.306-.498-.306-.846V6.372c0-.348.102-.624.306-.828.204-.216.48-.324.828-.324s.624.108.828.324c.216.204.324.48.324.828v4.248h6.498V6.372c0-.348.102-.624.306-.828.204-.216.48-.324.828-.324zm7.481 3.762c1.224 0 2.13.306 2.718.918.6.6.9 1.518.9 2.754v4.392c0 .324-.096.582-.288.774-.192.18-.456.27-.792.27-.312 0-.57-.096-.774-.288-.192-.192-.288-.444-.288-.756v-.396a2.335 2.335 0 01-.972 1.098c-.432.264-.936.396-1.512.396-.588 0-1.122-.12-1.602-.36a2.85 2.85 0 01-1.134-.99 2.501 2.501 0 01-.414-1.404c0-.648.162-1.158.486-1.53.336-.372.876-.642 1.62-.81.744-.168 1.77-.252 3.078-.252h.45v-.414c0-.588-.126-1.014-.378-1.278-.252-.276-.66-.414-1.224-.414-.348 0-.702.054-1.062.162-.36.096-.786.24-1.278.432-.312.156-.54.234-.684.234a.704.704 0 01-.54-.234c-.132-.156-.198-.36-.198-.612a.92.92 0 01.144-.522c.108-.156.282-.3.522-.432a5.88 5.88 0 011.494-.54 7.875 7.875 0 011.728-.198zm-.558 7.542c.6 0 1.086-.198 1.458-.594.384-.408.576-.93.576-1.566v-.378h-.324c-.804 0-1.428.036-1.872.108-.444.072-.762.198-.954.378-.192.18-.288.426-.288.738 0 .384.132.702.396.954.276.24.612.36 1.008.36zm77.767 59.224c-.108.192-.24.336-.396.432a.823.823 0 01-1.044-.09.805.805 0 01-.234-.594c0-.204.06-.408.18-.612l6.552-11.322c.108-.192.24-.336.396-.432a.887.887 0 01.468-.144c.216 0 .402.078.558.234a.775.775 0 01.252.594c0 .204-.06.408-.18.612l-6.552 11.322zm-1.998-4.86c-1.008 0-1.794-.33-2.358-.99-.564-.66-.846-1.626-.846-2.898 0-1.26.282-2.22.846-2.88.564-.66 1.35-.99 2.358-.99s1.794.33 2.358.99c.576.66.864 1.62.864 2.88 0 1.272-.288 2.238-.864 2.898-.564.66-1.35.99-2.358.99zm0-1.458c.456 0 .786-.186.99-.558.216-.384.324-1.008.324-1.872 0-.84-.108-1.452-.324-1.836-.216-.384-.546-.576-.99-.576-.444 0-.774.192-.99.576-.204.372-.306.984-.306 1.836 0 .864.102 1.488.306 1.872.216.372.546.558.99.558zm9.054 6.696c-1.008 0-1.794-.33-2.358-.99-.564-.66-.846-1.632-.846-2.916 0-1.26.282-2.214.846-2.862.576-.66 1.362-.99 2.358-.99 1.008 0 1.794.33 2.358.99.564.66.846 1.62.846 2.88 0 1.272-.282 2.238-.846 2.898-.564.66-1.35.99-2.358.99zm0-1.458c.444 0 .774-.186.99-.558.216-.384.324-1.008.324-1.872 0-.84-.108-1.452-.324-1.836-.216-.384-.546-.576-.99-.576-.444 0-.774.192-.99.576-.216.384-.324.996-.324 1.836 0 .864.108 1.488.324 1.872.216.372.546.558.99.558zm14.216 1.476c-1.476 0-2.592-.48-3.348-1.44-.756-.96-1.134-2.256-1.134-3.888 0-1.32.126-2.412.378-3.276.264-.876.654-1.578 1.17-2.106.528-.54 1.212-.978 2.052-1.314.456-.192 1.032-.39 1.728-.594.78-.24 1.356-.426 1.728-.558.204-.06.366-.09.486-.09.264 0 .474.078.63.234a.783.783 0 01.234.576c0 .168-.06.342-.18.522a1.298 1.298 0 01-.504.432 7.337 7.337 0 01-1.044.45c-.396.132-.792.258-1.188.378-.504.144-.882.258-1.134.342-.888.288-1.542.714-1.962 1.278-.408.564-.636 1.386-.684 2.466a3.393 3.393 0 011.314-1.638 3.734 3.734 0 012.088-.612c1.236 0 2.196.378 2.88 1.134.684.756 1.026 1.824 1.026 3.204 0 .852-.186 1.62-.558 2.304a4.111 4.111 0 01-1.584 1.62c-.684.384-1.482.576-2.394.576zm0-1.746c.744 0 1.308-.252 1.692-.756.396-.516.594-1.158.594-1.926 0-.876-.192-1.53-.576-1.962-.384-.444-.906-.666-1.566-.666-.732 0-1.302.246-1.71.738-.396.48-.594 1.116-.594 1.908 0 .804.174 1.452.522 1.944.36.48.906.72 1.638.72zm10.403 1.746c-.9 0-1.692-.186-2.376-.558a3.876 3.876 0 01-1.566-1.602c-.372-.696-.558-1.506-.558-2.43 0-.924.186-1.728.558-2.412a3.876 3.876 0 011.566-1.602c.684-.372 1.476-.558 2.376-.558.9 0 1.686.186 2.358.558a3.737 3.737 0 011.566 1.602c.372.684.558 1.488.558 2.412 0 .924-.186 1.734-.558 2.43a3.737 3.737 0 01-1.566 1.602c-.672.372-1.458.558-2.358.558zm-.018-1.746c.732 0 1.29-.24 1.674-.72.384-.48.576-1.188.576-2.124 0-.924-.192-1.626-.576-2.106-.384-.492-.936-.738-1.656-.738-.72 0-1.278.246-1.674.738-.384.48-.576 1.182-.576 2.106 0 .936.192 1.644.576 2.124.384.48.936.72 1.656.72zm9.102-4.608c0 1.836-.228 3.24-.684 4.212-.456.96-1.11 1.644-1.962 2.052-.132.06-.288.09-.468.09a.915.915 0 01-.648-.234.855.855 0 01-.252-.63c0-.18.048-.348.144-.504.096-.168.24-.306.432-.414.516-.288.87-.768 1.062-1.44.204-.672.306-1.698.306-3.078v-1.512c-.012-.348.078-.624.27-.828.192-.204.456-.306.792-.306h4.752c.348-.012.624.078.828.27.204.192.306.456.306.792v6.786c0 .324-.102.582-.306.774-.204.192-.48.288-.828.288-.336 0-.606-.096-.81-.288-.204-.192-.306-.45-.306-.774V68.89h-2.628v.9zm8.249 6.21c-.348.012-.624-.078-.828-.27-.204-.192-.306-.456-.306-.792V68.08c0-.324.102-.582.306-.774.204-.192.474-.288.81-.288.348 0 .624.096.828.288.204.192.306.45.306.774v2.034h1.674c2.292 0 3.438.948 3.438 2.844 0 .66-.168 1.218-.504 1.674a2.97 2.97 0 01-1.296 1.026 4.396 4.396 0 01-1.728.342h-2.7zm2.196-1.548c.492 0 .912-.114 1.26-.342.348-.24.522-.612.522-1.116 0-.504-.162-.852-.486-1.044-.324-.192-.756-.288-1.296-.288h-1.098v2.79h1.098zM153.826 76c-.348.012-.624-.078-.828-.27-.204-.192-.306-.456-.306-.792V68.08c0-.324.096-.582.288-.774.204-.192.474-.288.81-.288.348 0 .624.096.828.288.204.192.306.45.306.774v6.228h2.736V68.08c0-.324.09-.582.27-.774.192-.192.456-.288.792-.288.348 0 .624.096.828.288.204.192.306.45.306.774v6.228h2.736V68.08c0-.324.096-.582.288-.774.204-.192.474-.288.81-.288.348 0 .624.096.828.288.204.192.306.45.306.774v6.786c0 .348-.096.624-.288.828-.192.204-.45.306-.774.306h-9.936zm20.248-2.412c.204 0 .366.078.486.234.132.156.198.366.198.63 0 .372-.222.684-.666.936-.408.228-.87.414-1.386.558a5.959 5.959 0 01-1.477.198c-1.415 0-2.537-.408-3.365-1.224-.828-.816-1.242-1.932-1.242-3.348 0-.9.18-1.698.54-2.394a3.945 3.945 0 011.512-1.62c.66-.384 1.404-.576 2.232-.576.792 0 1.482.174 2.07.522a3.54 3.54 0 011.368 1.476c.324.636.486 1.386.486 2.25 0 .516-.228.774-.684.774h-5.31c.072.828.306 1.44.702 1.836.396.384.972.576 1.728.576.384 0 .72-.048 1.008-.144.3-.096.636-.228 1.008-.396.36-.192.624-.288.792-.288zm-3.114-5.022c-.612 0-1.104.192-1.476.576-.36.384-.576.936-.648 1.656h4.068c-.024-.732-.204-1.284-.54-1.656-.336-.384-.804-.576-1.404-.576zm11.659 7.542c-.336 0-.606-.096-.81-.288-.204-.192-.306-.45-.306-.774v-6.714c-.012-.348.078-.624.27-.828.192-.204.456-.306.792-.306h6.03c.348-.012.624.078.828.27.204.192.306.456.306.792v6.786c0 .324-.102.582-.306.774-.204.192-.474.288-.81.288-.348 0-.624-.096-.828-.288-.204-.192-.306-.45-.306-.774V68.89h-3.726v6.156c0 .324-.102.582-.306.774-.204.192-.48.288-.828.288zm14.455-9.126c.756 0 1.428.192 2.016.576.6.384 1.062.93 1.386 1.638.336.696.504 1.5.504 2.412 0 .912-.168 1.71-.504 2.394-.324.684-.78 1.212-1.368 1.584-.588.372-1.266.558-2.034.558-.624 0-1.182-.132-1.674-.396a2.779 2.779 0 01-1.134-1.098v3.672c0 .312-.102.558-.306.738-.204.18-.474.27-.81.27-.336 0-.612-.096-.828-.288-.204-.192-.306-.444-.306-.756V68.08c0-.324.096-.582.288-.774.204-.192.474-.288.81-.288.336 0 .606.096.81.288.204.192.306.45.306.774v.45a2.72 2.72 0 011.134-1.134c.504-.276 1.074-.414 1.71-.414zm-.594 7.416c.708 0 1.26-.24 1.656-.72.396-.492.594-1.182.594-2.07 0-.912-.198-1.62-.594-2.124-.396-.504-.948-.756-1.656-.756-.72 0-1.278.246-1.674.738-.384.492-.576 1.194-.576 2.106 0 .9.192 1.596.576 2.088.396.492.954.738 1.674.738zm10.36 1.746c-.9 0-1.692-.186-2.376-.558a3.876 3.876 0 01-1.566-1.602c-.372-.696-.558-1.506-.558-2.43 0-.924.186-1.728.558-2.412a3.876 3.876 0 011.566-1.602c.684-.372 1.476-.558 2.376-.558.9 0 1.686.186 2.358.558a3.737 3.737 0 011.566 1.602c.372.684.558 1.488.558 2.412 0 .924-.186 1.734-.558 2.43a3.737 3.737 0 01-1.566 1.602c-.672.372-1.458.558-2.358.558zm-.018-1.746c.732 0 1.29-.24 1.674-.72.384-.48.576-1.188.576-2.124 0-.924-.192-1.626-.576-2.106-.384-.492-.936-.738-1.656-.738-.72 0-1.278.246-1.674.738-.384.48-.576 1.182-.576 2.106 0 .936.192 1.644.576 2.124.384.48.936.72 1.656.72zm6.394 3.996c-.312 0-.564-.096-.756-.288-.18-.18-.27-.438-.27-.774v-1.89c-.012-.348.078-.624.27-.828.192-.204.444-.306.756-.306h.198a6.523 6.523 0 00.72-2.106c.144-.78.216-1.704.216-2.772v-1.098c-.012-.348.078-.624.27-.828.192-.204.456-.306.792-.306h4.446c.348-.012.624.078.828.27.204.192.306.456.306.792v6.048h.288c.348-.012.624.078.828.27.204.192.306.456.306.792v1.962c0 .336-.096.594-.288.774-.18.192-.426.288-.738.288-.324 0-.576-.096-.756-.288-.18-.18-.27-.438-.27-.774V76h-6.102v1.332c0 .336-.096.594-.288.774-.18.192-.432.288-.756.288zm5.544-9.504h-2.466v.54c0 1.14-.09 2.13-.27 2.97-.168.84-.408 1.476-.72 1.908h3.456V68.89zm9.011-1.908c1.224 0 2.13.306 2.718.918.6.6.9 1.518.9 2.754v4.392c0 .324-.096.582-.288.774-.192.18-.456.27-.792.27-.312 0-.57-.096-.774-.288-.192-.192-.288-.444-.288-.756v-.396a2.335 2.335 0 01-.972 1.098c-.432.264-.936.396-1.512.396-.588 0-1.122-.12-1.602-.36a2.85 2.85 0 01-1.134-.99 2.501 2.501 0 01-.414-1.404c0-.648.162-1.158.486-1.53.336-.372.876-.642 1.62-.81.744-.168 1.77-.252 3.078-.252h.45v-.414c0-.588-.126-1.014-.378-1.278-.252-.276-.66-.414-1.224-.414-.348 0-.702.054-1.062.162-.36.096-.786.24-1.278.432-.312.156-.54.234-.684.234a.704.704 0 01-.54-.234c-.132-.156-.198-.36-.198-.612a.92.92 0 01.144-.522c.108-.156.282-.3.522-.432a5.88 5.88 0 011.494-.54 7.875 7.875 0 011.728-.198zm-.558 7.542c.6 0 1.086-.198 1.458-.594.384-.408.576-.93.576-1.566v-.378h-.324c-.804 0-1.428.036-1.872.108-.444.072-.762.198-.954.378-.192.18-.288.426-.288.738 0 .384.132.702.396.954.276.24.612.36 1.008.36zm12.151 1.584c-.324 0-.588-.102-.792-.306-.204-.204-.306-.474-.306-.81v-2.718h-.702c-.444 0-.792.12-1.044.36-.24.24-.468.6-.684 1.08l-.72 1.71a1.137 1.137 0 01-.414.522 1.01 1.01 0 01-.558.162c-.3 0-.564-.096-.792-.288a.974.974 0 01-.342-.756c0-.144.036-.294.108-.45l.558-1.26c.276-.624.552-1.098.828-1.422a2.325 2.325 0 011.08-.702l-1.8-2.646a1.12 1.12 0 01-.198-.612c0-.264.096-.486.288-.666a.995.995 0 01.702-.288c.384 0 .684.186.9.558l2.052 3.204h.738v-2.646c0-.336.102-.606.306-.81.204-.204.468-.306.792-.306s.582.102.774.306c.204.192.306.456.306.792v2.664h.738l2.034-3.186c.24-.372.552-.558.936-.558.264 0 .492.09.684.27a.802.802 0 01.306.648c0 .204-.066.408-.198.612l-1.818 2.664c.456.144.816.378 1.08.702.276.312.552.786.828 1.422l.558 1.278c.06.132.09.276.09.432 0 .3-.12.552-.36.756a1.17 1.17 0 01-.774.288 1.01 1.01 0 01-.558-.162.974.974 0 01-.378-.504l-.738-1.728c-.204-.468-.432-.822-.684-1.062-.24-.252-.582-.378-1.026-.378h-.72v2.718c0 .336-.102.606-.306.81-.192.204-.45.306-.774.306zm13.855-8.226c.24-.336.456-.564.648-.684.204-.12.48-.18.828-.18s.624.096.828.288c.216.192.324.45.324.774v6.93c0 .324-.102.588-.306.792-.192.204-.444.306-.756.306-.324 0-.588-.102-.792-.306-.192-.204-.288-.468-.288-.792v-5.076l-3.816 5.346c-.228.324-.45.546-.666.666-.204.108-.462.162-.774.162-.348 0-.624-.096-.828-.288-.204-.192-.306-.456-.306-.792v-6.93c0-.324.096-.582.288-.774.204-.204.468-.306.792-.306.312 0 .564.102.756.306.204.192.306.45.306.774v5.04l3.762-5.256z" fill="#222"/><path d="M26.977 60.804c3.078.782 5.424 2.272 7.037 4.471 1.661 2.15 2.492 4.838 2.492 8.064 0 4.447-1.637 7.99-4.911 10.63-3.275 2.638-7.697 3.958-13.269 3.958a28.8 28.8 0 01-9.163-1.466c-2.932-.978-5.424-2.346-7.477-4.105C.562 81.378 0 80.23 0 78.91c0-1.075.293-1.98.88-2.712.635-.782 1.368-1.173 2.199-1.173.489 0 .928.098 1.32.293.39.147.928.416 1.612.806 2.053 1.369 4.007 2.42 5.865 3.153 1.857.733 3.885 1.1 6.084 1.1 3.225 0 5.62-.636 7.184-1.907 1.564-1.32 2.346-3.299 2.346-5.938 0-2.59-.831-4.496-2.493-5.717-1.613-1.271-4.13-1.906-7.55-1.906h-4.179c-1.124 0-2.003-.367-2.639-1.1a4.289 4.289 0 01-.88-2.639c0-1.026.294-1.906.88-2.639.636-.733 1.515-1.1 2.64-1.1H16.2c6.695 0 10.042-2.516 10.042-7.55 0-2.346-.708-4.154-2.125-5.425-1.418-1.27-3.372-1.906-5.865-1.906-3.567 0-7.38 1.418-11.436 4.252-.684.391-1.221.684-1.612.88-.391.146-.831.22-1.32.22-.83 0-1.564-.367-2.199-1.1-.586-.782-.88-1.71-.88-2.785 0-.734.123-1.344.367-1.833.293-.538.733-1.075 1.32-1.613 2.052-1.71 4.495-3.054 7.33-4.032A26.056 26.056 0 0118.62 35c5.082 0 9.114 1.246 12.095 3.739 3.03 2.492 4.545 5.815 4.545 9.97-.049 2.834-.806 5.326-2.273 7.476-1.417 2.102-3.42 3.641-6.01 4.619zM63.014 88c-6.109 0-10.776-2.248-14.001-6.744-3.226-4.545-4.838-11.143-4.838-19.793 0-8.6 1.612-15.15 4.838-19.646C52.238 37.273 56.905 35 63.014 35c6.109 0 10.776 2.273 14.002 6.817 3.225 4.496 4.838 11.045 4.838 19.646s-1.613 15.175-4.838 19.72C73.79 85.727 69.123 88 63.014 88zm0-7.404c3.323 0 5.742-1.515 7.258-4.545 1.514-3.079 2.272-7.941 2.272-14.588 0-6.695-.757-11.533-2.272-14.514-1.516-3.03-3.935-4.545-7.258-4.545s-5.742 1.515-7.257 4.545c-1.515 3.03-2.273 7.868-2.273 14.514 0 6.647.758 11.51 2.273 14.588 1.515 3.03 3.934 4.545 7.257 4.545z" fill="#F81157"/></svg>