<svg width="71" height="41" fill="none" xmlns="http://www.w3.org/2000/svg"><circle cx="50.5" cy="20.5" r="20.5" fill="#0EBAB9"/><path d="M3.78 16.558c.72 0 1.422.138 2.106.414l-.252 1.44-.234.054c-.624-.42-1.236-.63-1.836-.63-.36 0-.648.096-.864.288a.928.928 0 00-.306.702c0 .3.12.54.36.72.252.18.636.378 1.152.594a8.89 8.89 0 011.134.576c.3.18.552.42.756.72.216.3.324.672.324 1.116 0 .456-.12.888-.36 1.296-.24.396-.594.714-1.062.954-.468.24-1.032.36-1.692.36-.828 0-1.668-.186-2.52-.558l.216-1.53.198-.126c.348.3.732.54 1.152.72.42.168.804.252 1.152.252.384 0 .69-.102.918-.306.24-.216.36-.468.36-.756a.81.81 0 00-.36-.702c-.24-.18-.618-.39-1.134-.63a10.223 10.223 0 01-1.152-.576c-.3-.18-.558-.426-.774-.738-.204-.312-.306-.696-.306-1.152 0-.732.27-1.332.81-1.8.54-.468 1.278-.702 2.214-.702zm7.254-.018c.828 0 1.482.198 1.962.594.48.396.72.948.72 1.656 0 .216-.036.936-.108 2.16-.072 1.2-.108 1.902-.108 2.106 0 .228.036.39.108.486.084.084.222.126.414.126.12 0 .3-.024.54-.072l.162.126-.18 1.008a2.73 2.73 0 01-1.134.396c-.372-.036-.672-.168-.9-.396-.228-.24-.366-.552-.414-.936h-.126c-.612.648-1.236 1.098-1.872 1.35-.828-.012-1.482-.228-1.962-.648-.468-.42-.702-.99-.702-1.71 0-1.068.582-1.734 1.746-1.998l2.844-.63.018-.972c0-.444-.114-.78-.342-1.008-.216-.228-.534-.342-.954-.342-.408 0-.816.096-1.224.288-.408.18-.858.468-1.35.864l-.144-.09-.234-1.278c1.056-.72 2.136-1.08 3.24-1.08zm-1.35 5.238c-.216.048-.372.132-.468.252-.096.108-.144.282-.144.522 0 .36.096.642.288.846.204.204.474.306.81.306.564 0 1.164-.366 1.8-1.098l.054-1.386-2.34.558zm8.617-.432L18.427 25H16.59l.126-3.492-.108-9 1.836-.144-.144 8.982zm8.89-.414l-5.058.018c.012.912.234 1.608.666 2.088.432.468 1.044.702 1.836.702.828 0 1.638-.246 2.43-.738l.18.108-.27 1.476c-.876.384-1.728.576-2.556.576-1.236 0-2.208-.378-2.916-1.134-.696-.768-1.044-1.812-1.044-3.132 0-1.332.348-2.388 1.044-3.168.696-.78 1.638-1.17 2.826-1.17 1.008 0 1.782.276 2.322.828.552.552.828 1.332.828 2.34 0 .276-.03.606-.09.99l-.198.216zm-1.368-1.422c0-.564-.132-.99-.396-1.278-.252-.288-.624-.432-1.116-.432-.552 0-1.008.18-1.368.54-.36.348-.6.846-.72 1.494l3.564-.072.036-.252z" fill="#2B4352"/></svg>