<svg width="198" height="24" fill="none" xmlns="http://www.w3.org/2000/svg"><path d="M6.357 5.616c1.045 0 1.968.235 2.768.704L8.82 7.776l-.16.048c-.715-.555-1.504-.832-2.368-.832-.939 0-1.659.32-2.16.96-.49.63-.736 1.573-.736 2.832 0 1.29.25 2.272.752 2.944.501.672 1.216 1.008 2.144 1.008.448 0 .89-.075 1.328-.224a4.71 4.71 0 001.232-.656l.16.096-.128 1.504c-.918.448-1.824.672-2.72.672-1.44 0-2.55-.448-3.328-1.344-.779-.896-1.168-2.17-1.168-3.824 0-1.707.405-3.024 1.216-3.952.821-.928 1.978-1.392 3.472-1.392zm13.114 7.152L19.519 16H17.87l.08-3.088-.064-5.92h-2.368l-.08.816c-.192 2.09-.416 3.712-.672 4.864-.246 1.152-.56 1.995-.944 2.528-.374.533-.864.864-1.472.992l-.464.032-.304-1.328a2.18 2.18 0 001.2-.96c.298-.47.538-1.195.72-2.176.192-.981.368-2.395.528-4.24l.176-1.76-.016-.032h5.36l-.08 7.04zm10.87 1.824l.096.144L30.325 16h-6.064l.112-3.088-.112-7.184h6.096l.096.144-.128 1.264-2.432-.064-1.952.016-.048 2.992 1.856.032 1.696-.048.112.128-.128 1.264-1.808-.048-1.744.032-.016 1.328.048 1.888 1.952.016 2.48-.08zm12.563.048v3.328l-1.232.112-.24-2.08h-6.864l-.224 1.968-1.248.112v-3.44h.848c.448-.245.8-.619 1.056-1.12.256-.501.464-1.21.624-2.128.16-.917.315-2.208.464-3.872l.176-1.792h5.296l-.064 7.04.032 1.872h1.376zm-2.928-1.728l-.064-5.92h-2.304l-.08.816c-.181 2.048-.41 3.584-.688 4.608-.277 1.013-.672 1.755-1.184 2.224h4.272l.048-1.728zm14.08-7.168l-2.975 7.088c-.406.896-.78 1.563-1.12 2a2.872 2.872 0 01-1.184.944c-.449.181-1.067.299-1.857.352l-.144-.016a8.816 8.816 0 01-.288-1.28l.08-.16c.822-.096 1.425-.219 1.809-.368.383-.16.698-.416.944-.768l-3.904-7.792 1.776-.016.367 1.008 2.384 5.04h.176l2-5.12.305-.912h1.632zm11.06-.144c1.313 0 2.326.443 3.04 1.328.715.875 1.073 2.117 1.073 3.728 0 1.75-.384 3.104-1.152 4.064-.758.95-1.84 1.424-3.248 1.424-1.227 0-2.192-.4-2.896-1.2-.704-.81-1.099-1.952-1.184-3.424l-.896-.016-.816.016-.016 1.248.064 3.232H57.42l.08-3.088-.08-7.184h1.68l-.048 4.432.88.016.832-.016c.117-1.472.55-2.597 1.296-3.376.746-.79 1.765-1.184 3.056-1.184zm-.143 9.264c.864 0 1.504-.31 1.92-.928.416-.63.624-1.616.624-2.96 0-1.397-.208-2.416-.624-3.056-.406-.65-1.04-.976-1.904-.976-.864 0-1.504.31-1.92.928-.406.619-.608 1.584-.608 2.896 0 1.419.202 2.459.608 3.12.405.65 1.04.976 1.904.976zm21.436-.224v3.328l-1.232.112-.24-2.08H73.193l.08-3.088-.08-7.184h1.664l-.08 7.04.032 1.872h3.504l.048-1.728-.08-7.184h1.68l-.08 7.04.032 1.872h3.52l.032-1.728-.064-7.184h1.664l-.096 7.04L85 14.64h1.408zM97.659 16h-1.696l-.24-1.152-.448-1.424-2.176-.048-1.968.048-.48 1.344L90.395 16h-1.648l3.664-10.272h1.936L97.659 16zm-2.8-3.92l-1.472-4.736h-.112l-1.68 4.736 1.616.032 1.648-.032zm12.193.832l.08 3.088h-1.648l.064-3.232v-.432h-1.728a51.536 51.536 0 01-2.16 3.68l-.192.128a5.454 5.454 0 01-1.568-.336l-.016-.192a61.528 61.528 0 002.672-3.648c-1.397-.619-2.096-1.616-2.096-2.992 0-.64.15-1.205.448-1.696.299-.501.72-.89 1.264-1.168.544-.277 1.168-.416 1.872-.416l3.088.032-.08 7.184zm-1.52-1.936l-.048-3.92-1.344-.048c-.618.01-1.104.181-1.456.512-.341.33-.512.81-.512 1.44 0 .555.134 1.003.4 1.344.278.341.699.587 1.264.736l1.696-.064zm14.418-5.36c1.046 0 1.968.235 2.768.704l-.304 1.456-.16.048c-.714-.555-1.504-.832-2.368-.832-.938 0-1.658.32-2.16.96-.49.63-.736 1.573-.736 2.832 0 1.29.251 2.272.752 2.944.502.672 1.216 1.008 2.144 1.008.448 0 .891-.075 1.328-.224.448-.16.859-.379 1.232-.656l.16.096-.128 1.504c-.917.448-1.824.672-2.72.672-1.44 0-2.549-.448-3.328-1.344-.778-.896-1.168-2.17-1.168-3.824 0-1.707.406-3.024 1.216-3.952.822-.928 1.979-1.392 3.472-1.392zm12.554.256l-.096 1.248-1.856-.096h-.864l-.08 5.744.08 3.232h-1.664l.096-3.088-.08-5.888h-.864l-1.888.096-.112-.144.128-1.248h7.104l.096.144zM142.628 16h-1.696l-.24-1.152-.448-1.424-2.176-.048-1.968.048-.48 1.344-.256 1.232h-1.648l3.664-10.272h1.936L142.628 16zm-2.8-3.92l-1.472-4.736h-.112l-1.68 4.736 1.616.032 1.648-.032zm11.408-6.208l-.096 1.248-1.856-.096h-.864l-.08 5.744.08 3.232h-1.664l.096-3.088-.08-5.888h-.864l-1.888.096-.112-.144.128-1.248h7.104l.096.144zm7.095 3.984c1.013 0 1.781.24 2.304.72.523.47.784 1.152.784 2.048 0 1.067-.368 1.899-1.104 2.496-.725.587-1.749.88-3.072.88h-2.672l.08-3.072-.08-7.2h1.664l-.048 4.128h2.144zm-.544 4.976c.629-.085 1.104-.299 1.424-.64.331-.341.496-.795.496-1.36 0-.576-.165-1.019-.496-1.328-.32-.31-.789-.459-1.408-.448l-1.632.016-.016 1.712.032 1.984 1.6.064zm12.965-1.92l.08 3.088h-1.648l.064-3.232v-.432h-1.728a51.536 51.536 0 01-2.16 3.68l-.192.128a5.457 5.457 0 01-1.568-.336l-.016-.192a61.44 61.44 0 002.672-3.648c-1.397-.619-2.096-1.616-2.096-2.992 0-.64.15-1.205.448-1.696.299-.501.72-.89 1.264-1.168.544-.277 1.168-.416 1.872-.416l3.088.032-.08 7.184zm-1.52-1.936l-.048-3.92-1.344-.048c-.618.01-1.104.181-1.456.512-.341.33-.512.81-.512 1.44 0 .555.134 1.003.4 1.344.278.341.699.587 1.264.736l1.696-.064z" fill="#0D2839"/><path d="M189 6l7.653 6L189 18" stroke="#0D2839" stroke-linecap="round" stroke-linejoin="round"/></svg>