<svg width="82" height="24" fill="none" xmlns="http://www.w3.org/2000/svg"><path d="M33.368 13.768L33.416 17h-1.648l.08-3.088-.016-1.392-2.624-.016-2.4.016-.016 1.248.064 3.232h-1.632l.064-3.088-.064-7.184h1.648l-.048 4.416 2.512.032 2.48-.032-.048-4.416h1.68l-.08 7.04zM45.783 17h-1.696l-.24-1.152-.448-1.424-2.176-.048-1.968.048-.48 1.344L38.519 17h-1.648l3.664-10.272h1.936L45.783 17zm-2.8-3.92l-1.472-4.736h-.112l-1.68 4.736 1.616.032 1.648-.032zm10.124-1.44c1.397.352 2.096 1.173 2.096 2.464 0 .939-.358 1.68-1.072 2.224-.715.544-1.686.816-2.912.816a6.381 6.381 0 01-1.584-.192 4.136 4.136 0 01-1.28-.544l.304-1.44.144-.048a3.854 3.854 0 002.4.848c.693 0 1.253-.165 1.68-.496.437-.33.656-.763.656-1.296 0-.427-.134-.779-.4-1.056-.267-.277-.64-.464-1.12-.56h-2.16l-.128-.128.112-1.136 2.064.032c.341-.15.613-.379.816-.688.213-.31.32-.65.32-1.024 0-.917-.598-1.376-1.792-1.376-.832 0-1.691.272-2.576.816l-.192-.08.144-1.456a5.44 5.44 0 012.688-.704c1.056 0 1.888.23 2.496.688.608.448.912 1.067.912 1.856 0 .544-.144 1.035-.432 1.472a2.687 2.687 0 01-1.184 1.008zM66.796 17h-1.697l-.24-1.152-.447-1.424-2.177-.048-1.968.048-.48 1.344L59.532 17h-1.648l3.663-10.272h1.937L66.796 17zm-2.8-3.92l-1.473-4.736h-.112l-1.68 4.736 1.616.032 1.648-.032zm14.78 2.56v3.328l-1.233.112-.24-2.08H70.44l-.224 1.968-1.248.112v-3.44h.848c.448-.245.8-.619 1.056-1.12.256-.501.464-1.21.624-2.128.16-.917.315-2.208.464-3.872l.176-1.792h5.296l-.064 7.04.032 1.872h1.376zm-2.929-1.728l-.064-5.92H73.48l-.08.816c-.181 2.048-.41 3.584-.688 4.608-.277 1.013-.672 1.755-1.184 2.224H75.8l.048-1.728z" fill="#0D2839"/><path d="M8.648 6L1 12l7.648 6" stroke="#0D2839" stroke-linecap="round" stroke-linejoin="round"/></svg>