<svg width="96" height="24" fill="none" xmlns="http://www.w3.org/2000/svg"><path d="M10.45 15.64v3.328l-1.232.112-.24-2.08H2.114l-.224 1.968-1.248.112v-3.44h.848c.448-.245.8-.619 1.056-1.12.256-.501.464-1.21.624-2.128.16-.917.315-2.208.464-3.872l.176-1.792h5.296l-.064 7.04.032 1.872h1.376zm-2.928-1.728l-.064-5.92H5.154l-.08.816c-.181 2.048-.41 3.584-.688 4.608-.277 1.013-.672 1.755-1.184 2.224h4.272l.048-1.728zM21.842 17h-1.695l-.24-1.152-.448-1.424-2.176-.048-1.968.048-.48 1.344L14.579 17H12.93l3.664-10.272h1.936L21.843 17zm-2.8-3.92l-1.471-4.736h-.112l-1.68 4.736 1.616.032 1.648-.032zm12.812.688L31.902 17h-1.648l.08-3.088-.064-5.92h-2.368l-.08.816c-.192 2.09-.416 3.712-.672 4.864-.245 1.152-.56 1.995-.944 2.528-.373.533-.864.864-1.472.992l-.464.032-.304-1.328a2.18 2.18 0 001.2-.96c.299-.47.539-1.195.72-2.176.192-.981.368-2.395.528-4.24l.176-1.76-.016-.032h5.36l-.08 7.04zm8.567-2.912c1.013 0 1.781.24 2.304.72.523.47.784 1.152.784 2.048 0 1.067-.368 1.899-1.104 2.496-.725.587-1.75.88-3.072.88h-2.672l.08-3.072-.08-7.2h1.664l-.048 4.128h2.144zm-.544 4.976c.63-.085 1.104-.299 1.424-.64.33-.341.496-.795.496-1.36 0-.576-.165-1.019-.496-1.328-.32-.31-.79-.459-1.408-.448l-1.632.016-.016 1.712.032 1.984 1.6.064zm19.035-2.064L58.976 17h-11.84l.08-3.088-.08-7.184H48.8l-.08 7.04.032 1.872h3.504l.048-1.728-.08-7.184h1.68l-.08 7.04.032 1.872h3.52l.032-1.728-.064-7.184h1.664l-.096 7.04zm10.872 1.824l.096.144L69.768 17h-6.064l.112-3.088-.112-7.184H69.8l.096.144-.128 1.264-2.432-.064-1.952.016-.048 2.992 1.856.032 1.696-.048.112.128-.128 1.264-1.808-.048-1.744.032-.016 1.328.048 1.888 1.952.016 2.48-.08z" fill="#0D2839"/><path d="M87.352 6L95 12l-7.648 6" stroke="#0D2839" stroke-linecap="round" stroke-linejoin="round"/></svg>