<svg width="209" height="24" fill="none" xmlns="http://www.w3.org/2000/svg"><path d="M32.693 12.768L32.74 16h-1.632l.064-3.088-.048-5.888h-4.256l-.064 5.744.064 3.232H25.22l.08-3.088-.08-7.184h7.552l-.08 7.04zm8.256-7.056c1.035 0 1.83.267 2.384.8.565.523.848 1.28.848 2.272 0 1.152-.357 2.064-1.072 2.736-.704.672-1.675 1.008-2.912 1.008h-1.136v.24l.08 3.232h-1.68l.112-3.088-.112-7.184 3.488-.016zm-.272 5.536c.587-.117 1.03-.368 1.328-.752.31-.395.464-.917.464-1.568 0-.64-.165-1.115-.496-1.424-.32-.31-.81-.475-1.472-.496l-1.36.048-.064 4.16 1.6.032zm13.23 3.344l.096.144L53.89 16h-6.064l.112-3.088-.112-7.184h6.096l.096.144-.128 1.264-2.432-.064-1.952.016-.048 2.992 1.856.032 1.696-.048.112.128-.128 1.264-1.808-.048-1.744.032-.016 1.328.048 1.888 1.952.016 2.48-.08zm12.563.048v3.328l-1.232.112-.24-2.08h-6.864l-.224 1.968-1.248.112v-3.44h.848c.448-.245.8-.619 1.056-1.12.256-.501.464-1.21.624-2.128.16-.917.314-2.208.464-3.872l.176-1.792h5.296l-.064 7.04.032 1.872h1.376zm-2.928-1.728l-.064-5.92h-2.304l-.08.816c-.182 2.048-.411 3.584-.688 4.608-.278 1.013-.672 1.755-1.184 2.224h4.272l.048-1.728zm9.968-3.056c.928 0 1.637.24 2.128.72.501.47.752 1.152.752 2.048 0 1.067-.347 1.899-1.04 2.496-.694.587-1.67.88-2.928.88H69.91l.08-3.072-.08-7.2h1.664l-.048 4.128h1.984zm5.84 2.912L79.43 16h-1.68l.112-3.088-.112-7.184h1.696l-.096 7.04zm-6.384 2.064c.555-.085.981-.299 1.28-.64.299-.341.448-.795.448-1.36 0-.576-.15-1.019-.448-1.328-.299-.31-.72-.459-1.264-.448l-1.472.016-.016 1.712.032 1.984 1.44.064zm19.672-.192v3.328l-1.232.112-.24-2.08h-6.864l-.224 1.968-1.248.112v-3.44h.848c.448-.245.8-.619 1.056-1.12.256-.501.464-1.21.624-2.128.16-.917.315-2.208.464-3.872l.176-1.792h5.296l-.064 7.04.032 1.872h1.376zm-2.928-1.728l-.064-5.92h-2.304l-.08.816c-.181 2.048-.41 3.584-.688 4.608-.277 1.013-.672 1.755-1.184 2.224h4.272l.048-1.728zm14.081-7.168l-2.976 7.088c-.406.896-.779 1.563-1.12 2a2.872 2.872 0 01-1.184.944c-.448.181-1.067.299-1.856.352l-.144-.016a8.79 8.79 0 01-.288-1.28l.08-.16c.82-.096 1.424-.219 1.808-.368.384-.16.698-.416.944-.768L95.15 5.744l1.776-.016.368 1.008 2.384 5.04h.176l2-5.12.304-.912h1.632zm16.58 8.896v3.328l-1.232.112-.24-2.08h-11.744l.08-3.088-.08-7.184h1.664l-.08 7.04.032 1.872h3.504l.048-1.728-.08-7.184h1.68l-.08 7.04.032 1.872h3.52l.032-1.728-.064-7.184h1.664l-.096 7.04.032 1.872h1.408zm11.25 1.36h-1.696l-.24-1.152-.448-1.424-2.176-.048-1.968.048-.48 1.344-.256 1.232h-1.648l3.664-10.272h1.936L131.621 16zm-2.8-3.92l-1.472-4.736h-.112l-1.68 4.736 1.616.032 1.648-.032zm12.193.832l.08 3.088h-1.648l.064-3.232v-.432h-1.728a51.536 51.536 0 01-2.16 3.68l-.192.128a5.457 5.457 0 01-1.568-.336l-.016-.192a61.44 61.44 0 002.672-3.648c-1.397-.619-2.096-1.616-2.096-2.992 0-.64.15-1.205.448-1.696.299-.501.72-.89 1.264-1.168.544-.277 1.168-.416 1.872-.416l3.088.032-.08 7.184zm-1.52-1.936l-.048-3.92-1.344-.048c-.618.01-1.104.181-1.456.512-.341.33-.512.81-.512 1.44 0 .555.134 1.003.4 1.344.278.341.699.587 1.264.736l1.696-.064zm14.419-5.36c1.045 0 1.968.235 2.768.704l-.304 1.456-.16.048c-.715-.555-1.504-.832-2.368-.832-.939 0-1.659.32-2.16.96-.491.63-.736 1.573-.736 2.832 0 1.29.25 2.272.752 2.944.501.672 1.216 1.008 2.144 1.008.448 0 .89-.075 1.328-.224a4.72 4.72 0 001.232-.656l.16.096-.128 1.504c-.918.448-1.824.672-2.72.672-1.44 0-2.55-.448-3.328-1.344-.779-.896-1.168-2.17-1.168-3.824 0-1.707.405-3.024 1.216-3.952.821-.928 1.978-1.392 3.472-1.392zm12.554.256l-.096 1.248-1.856-.096h-.864l-.08 5.744.08 3.232h-1.664l.096-3.088-.08-5.888h-.864l-1.888.096-.112-.144.128-1.248h7.104l.096.144zM176.59 16h-1.696l-.24-1.152-.448-1.424-2.176-.048-1.968.048-.48 1.344-.256 1.232h-1.648l3.664-10.272h1.936L176.59 16zm-2.8-3.92l-1.472-4.736h-.112l-1.68 4.736 1.616.032 1.648-.032zm11.408-6.208l-.096 1.248-1.856-.096h-.864l-.08 5.744.08 3.232h-1.664l.096-3.088-.08-5.888h-.864l-1.888.096-.112-.144.128-1.248h7.104l.096.144zm7.095 3.984c1.014 0 1.782.24 2.304.72.523.47.784 1.152.784 2.048 0 1.067-.368 1.899-1.104 2.496-.725.587-1.749.88-3.072.88h-2.672l.08-3.072-.08-7.2h1.664l-.048 4.128h2.144zm-.544 4.976c.63-.085 1.104-.299 1.424-.64.331-.341.496-.795.496-1.36 0-.576-.165-1.019-.496-1.328-.32-.31-.789-.459-1.408-.448l-1.632.016-.016 1.712.032 1.984 1.6.064zm12.965-1.92l.08 3.088h-1.648l.064-3.232v-.432h-1.728a51.536 51.536 0 01-2.16 3.68l-.192.128a5.457 5.457 0 01-1.568-.336l-.016-.192a61.44 61.44 0 002.672-3.648c-1.397-.619-2.096-1.616-2.096-2.992 0-.64.15-1.205.448-1.696.299-.501.72-.89 1.264-1.168.544-.277 1.168-.416 1.872-.416l3.088.032-.08 7.184zm-1.52-1.936l-.048-3.92-1.344-.048c-.618.01-1.104.181-1.456.512-.341.33-.512.81-.512 1.44 0 .555.134 1.003.4 1.344.278.341.699.587 1.264.736l1.696-.064z" fill="#0D2839"/><path d="M8.653 6L1 12l7.653 6" stroke="#0D2839" stroke-linecap="round" stroke-linejoin="round"/></svg>