<svg width="55" height="55" fill="none" xmlns="http://www.w3.org/2000/svg"><path d="M49.979 24.315a5.722 5.722 0 010 5.723l-.77 1.335a5.711 5.711 0 00-.768 2.861v1.542a5.724 5.724 0 01-2.86 4.956l-1.336.77a5.723 5.723 0 00-2.094 2.095l-.772 1.335a5.723 5.723 0 01-4.956 2.862h-1.541a5.723 5.723 0 00-2.862.766l-1.334.772a5.725 5.725 0 01-5.724 0l-1.334-.772a5.723 5.723 0 00-2.861-.766h-1.542a5.722 5.722 0 01-4.956-2.862l-.771-1.335a5.722 5.722 0 00-2.094-2.095l-1.336-.77a5.724 5.724 0 01-2.861-4.956v-1.542a5.712 5.712 0 00-.767-2.86l-.77-1.336a5.722 5.722 0 010-5.723l.77-1.335c.503-.87.767-1.857.767-2.862v-1.541a5.724 5.724 0 012.861-4.956l1.336-.77a5.724 5.724 0 002.094-2.096l.771-1.334a5.722 5.722 0 014.956-2.862h1.542a5.723 5.723 0 002.861-.767l1.334-.77a5.724 5.724 0 015.724 0l1.334.77c.87.503 1.857.767 2.862.767h1.54A5.723 5.723 0 0141.38 9.42l.772 1.334a5.724 5.724 0 002.094 2.096l1.335.77a5.723 5.723 0 012.861 4.956v1.541a5.71 5.71 0 00.768 2.862l.77 1.335z" fill="#FC6"/><path d="M51.764 3.235a2.587 2.587 0 11.002 5.175 2.587 2.587 0 01-.002-5.175zM6.47 46.588a3.882 3.882 0 110 7.765 3.882 3.882 0 010-7.765z" fill="#68CA44"/><path d="M27.823 12.31c8.211 0 14.866 6.657 14.866 14.866 0 8.21-6.655 14.866-14.866 14.866-8.21 0-14.864-6.656-14.864-14.866s6.654-14.865 14.864-14.865z" fill="#32438C"/><path d="M30.411 26.53v9.705a2.587 2.587 0 11-5.176 0V26.53a2.588 2.588 0 015.176 0zm-.758-9.595a2.58 2.58 0 01.758 1.83 2.58 2.58 0 01-.758 1.83 2.588 2.588 0 110-3.66z" fill="#BCE4FF"/><path d="M54.03 37.53a.97.97 0 110 1.94.97.97 0 010-1.94zm-9.06 13.588a.97.97 0 11.002 1.94.97.97 0 01-.001-1.94zM43.03 0a.97.97 0 110 1.94.97.97 0 010-1.94zM17.794 50.47a.97.97 0 110 1.94.97.97 0 010-1.94zM13.264 0a.97.97 0 11.002 1.94.97.97 0 01-.002-1.94zM3.558 36.882a.97.97 0 11.001 1.94.97.97 0 010-1.94zM.97 13.588a.97.97 0 11.002 1.94.97.97 0 01-.001-1.94zM27.823 42.69c-8.553 0-15.511-6.96-15.511-15.513 0-8.554 6.958-15.513 15.511-15.513 8.554 0 15.513 6.959 15.513 15.513 0 8.553-6.959 15.512-15.513 15.512zm0-29.732c-7.84 0-14.217 6.378-14.217 14.219 0 7.84 6.378 14.218 14.217 14.218 7.84 0 14.219-6.378 14.219-14.219 0-7.84-6.379-14.218-14.219-14.218z" fill="#000"/><path d="M20.058 35.59a.645.645 0 01-.458-.19c-4.534-4.534-4.534-11.912 0-16.447a.647.647 0 01.915.915 10.268 10.268 0 00-3.027 7.309c0 2.76 1.075 5.356 3.027 7.308a.647.647 0 01-.457 1.105zm15.532 0a.647.647 0 01-.457-1.105 10.268 10.268 0 003.027-7.308 10.27 10.27 0 00-3.027-7.309.647.647 0 11.915-.915 11.554 11.554 0 013.406 8.224c0 3.106-1.21 6.027-3.406 8.223a.645.645 0 01-.457.19z" fill="#000"/><path d="M27.824 50.745a6.382 6.382 0 01-3.185-.853l-1.335-.771a5.08 5.08 0 00-2.537-.68h-1.542a6.388 6.388 0 01-5.517-3.186l-.77-1.334a5.081 5.081 0 00-1.858-1.858l-1.335-.77a6.389 6.389 0 01-3.185-5.517v-1.542c0-.89-.235-1.768-.68-2.537l-.771-1.336a6.386 6.386 0 010-6.37l.77-1.335a5.07 5.07 0 00.68-2.538v-1.541a6.388 6.388 0 013.186-5.517l1.335-.77a5.083 5.083 0 001.857-1.858l.772-1.335a6.387 6.387 0 015.516-3.186h1.541c.89 0 1.769-.234 2.538-.679l1.334-.771a6.383 6.383 0 013.186-.854c1.116 0 2.218.295 3.185.854l1.335.771c.77.445 1.647.68 2.537.68h1.542a6.387 6.387 0 015.517 3.186l.77 1.334a5.08 5.08 0 001.858 1.858l1.335.77a6.388 6.388 0 013.185 5.517v1.541c0 .891.235 1.769.68 2.538l.771 1.336a6.385 6.385 0 010 6.37l-.77 1.334a5.071 5.071 0 00-.68 2.538v1.542a6.389 6.389 0 01-3.185 5.517l-1.336.77a5.083 5.083 0 00-1.857 1.858l-.772 1.334a6.387 6.387 0 01-5.516 3.186h-1.541a5.08 5.08 0 00-2.538.68l-1.334.77a6.382 6.382 0 01-3.186.855zm-8.599-43.54a5.09 5.09 0 00-4.396 2.54l-.771 1.334a6.377 6.377 0 01-2.33 2.332l-1.337.77a5.09 5.09 0 00-2.537 4.396v1.541c0 1.119-.295 2.22-.855 3.186l-.769 1.334a5.09 5.09 0 000 5.076L7 31.05c.559.965.854 2.066.854 3.184v1.542a5.09 5.09 0 002.538 4.396l1.335.77a6.379 6.379 0 012.33 2.332l.772 1.334a5.09 5.09 0 004.396 2.54h1.542c1.117 0 2.218.294 3.184.852l1.335.772a5.084 5.084 0 005.077 0L31.697 48a6.376 6.376 0 013.185-.853h1.54a5.09 5.09 0 004.397-2.539l.771-1.334a6.376 6.376 0 012.331-2.332l1.336-.77a5.09 5.09 0 002.537-4.396v-1.542c0-1.118.296-2.22.855-3.185l.77-1.334a5.089 5.089 0 000-5.076l-.77-1.336a6.366 6.366 0 01-.855-3.185v-1.541a5.09 5.09 0 00-2.538-4.396l-1.335-.77a6.38 6.38 0 01-2.33-2.332l-.772-1.334a5.09 5.09 0 00-4.396-2.54h-1.541a6.377 6.377 0 01-3.185-.852l-1.335-.772a5.086 5.086 0 00-5.076 0l-1.334.771a6.377 6.377 0 01-3.186.854h-1.54zm32.54 1.854a3.239 3.239 0 01-3.236-3.235 3.239 3.239 0 013.236-3.236A3.239 3.239 0 0155 5.824a3.239 3.239 0 01-3.235 3.235zm0-5.177c-1.07 0-1.942.871-1.942 1.942a1.942 1.942 0 101.942-1.942zM6.47 55a4.535 4.535 0 01-4.529-4.53 4.535 4.535 0 014.53-4.529 4.535 4.535 0 014.53 4.53A4.535 4.535 0 016.47 55zm0-7.765a3.239 3.239 0 00-3.234 3.236 3.239 3.239 0 003.235 3.235 3.239 3.239 0 003.235-3.235 3.239 3.239 0 00-3.235-3.236z" fill="#000"/><path d="M27.824 39.47a3.239 3.239 0 01-3.236-3.235V26.53a3.239 3.239 0 013.236-3.235c.863 0 1.676.337 2.287.948s.948 1.424.948 2.287v9.706a3.239 3.239 0 01-3.235 3.236zm0-14.882c-1.07 0-1.942.871-1.942 1.941v9.706a1.942 1.942 0 003.882.001v-9.707c0-.518-.201-1.005-.568-1.372a1.928 1.928 0 00-1.372-.569zm0-2.588a3.239 3.239 0 01-3.236-3.235c0-.864.337-1.677.948-2.288a3.214 3.214 0 012.288-.948c.863 0 1.676.337 2.287.948.611.612.948 1.424.948 2.288 0 .863-.337 1.676-.948 2.287a3.214 3.214 0 01-2.287.948zm0-5.177c-.519 0-1.006.203-1.373.57a1.928 1.928 0 00-.569 1.372 1.943 1.943 0 003.314 1.372c.367-.367.569-.854.569-1.372 0-.518-.202-1.006-.57-1.373a1.928 1.928 0 00-1.371-.569z" fill="#000"/></svg>