<svg width="481" height="211" viewBox="0 0 481 211" fill="none" xmlns="http://www.w3.org/2000/svg">
<path d="M96.0938 51.5039C96.7773 59.2188 96.1914 65.7129 94.3359 70.9863C93.1641 74.4043 91.5527 77.334 89.502 79.7754C87.1582 82.3145 84.4727 84.1211 81.4453 85.1953C87.0117 82.0703 90.6738 77.1387 92.4316 70.4004C93.7012 65.2246 93.9941 58.9746 93.3105 51.6504C92.7246 44.2285 92.627 37.7344 93.0176 32.168C93.4082 28.457 93.9453 25.2344 94.6289 22.5C95.8008 18.4961 97.2656 15.6152 99.0234 13.8574C97.4609 16.1035 96.4355 19.082 95.9473 22.793C95.459 25.625 95.2148 28.7988 95.2148 32.3145C95.2148 38.4668 95.5078 44.8633 96.0938 51.5039ZM25.9277 21.1816C23.877 24.1113 21.9727 27.627 20.2148 31.7285C19.043 34.2676 17.627 38.0762 15.9668 43.1543L14.3555 49.1602L12.5977 55.0195C12.6953 50.2344 13.1348 46.1328 13.916 42.7148C14.7949 38.3203 16.0156 34.2676 17.5781 30.5566C19.5312 26.1621 21.7773 22.5977 24.3164 19.8633C26.1719 17.8125 27.832 16.4453 29.2969 15.7617C31.543 14.5898 33.5938 14.1016 35.4492 14.2969C32.3242 14.7852 29.1504 17.0801 25.9277 21.1816ZM151.025 96.6211C150.342 67.0312 146.582 44.082 139.746 27.7734C131.934 9.21875 120.41 0.0390625 105.176 0.234375C87.5977 0.527344 80.4199 18.1543 83.6426 53.1152C84.3262 60.8301 83.5938 66.6895 81.4453 70.6934C79.3945 74.3066 76.3184 76.0645 72.2168 75.9668C67.627 75.8691 64.4043 74.0625 62.5488 70.5469C60.5957 67.1289 59.7656 61.6113 60.0586 53.9941C60.8398 35.3418 59.1309 22.0605 54.9316 14.1504C51.123 6.82617 44.6289 3.16406 35.4492 3.16406C27.1484 3.16406 19.9219 7.80273 13.7695 17.0801C7.71484 26.2598 3.66211 38.418 1.61133 53.5547C-0.732422 70.1562 -0.488281 84.4141 2.34375 96.3281C4.58984 106.191 8.83789 115.176 15.0879 123.281C21.9238 132.07 31.6895 136.953 44.3848 137.93C48.4863 138.32 53.1738 138.271 58.4473 137.783C59.3262 137.686 60.3027 137.539 61.377 137.344L62.6953 137.197L64.0137 137.051C65.9668 136.855 67.3828 136.758 68.2617 136.758C72.2656 136.465 75.4883 137.979 77.9297 141.299C81.1523 145.596 82.8125 152.578 82.9102 162.246C83.0078 178.359 86.084 190.518 92.1387 198.721C97.5098 205.947 104.98 209.707 114.551 210C140.82 210.684 152.979 172.891 151.025 96.6211ZM425.684 51.5039C426.367 59.2188 425.781 65.7129 423.926 70.9863C422.754 74.4043 421.143 77.334 419.092 79.7754C416.748 82.3145 414.062 84.1211 411.035 85.1953C416.602 82.0703 420.264 77.1387 422.021 70.4004C423.291 65.2246 423.584 58.9746 422.9 51.6504C422.314 44.2285 422.217 37.7344 422.607 32.168C422.998 28.457 423.535 25.2344 424.219 22.5C425.391 18.4961 426.855 15.6152 428.613 13.8574C427.051 16.1035 426.025 19.082 425.537 22.793C425.049 25.625 424.805 28.7988 424.805 32.3145C424.805 38.4668 425.098 44.8633 425.684 51.5039ZM355.518 21.1816C353.467 24.1113 351.562 27.627 349.805 31.7285C348.633 34.2676 347.217 38.0762 345.557 43.1543L343.945 49.1602L342.188 55.0195C342.285 50.2344 342.725 46.1328 343.506 42.7148C344.385 38.3203 345.605 34.2676 347.168 30.5566C349.121 26.1621 351.367 22.5977 353.906 19.8633C355.762 17.8125 357.422 16.4453 358.887 15.7617C361.133 14.5898 363.184 14.1016 365.039 14.2969C361.914 14.7852 358.74 17.0801 355.518 21.1816ZM480.615 96.6211C479.932 67.0312 476.172 44.082 469.336 27.7734C461.523 9.21875 450 0.0390625 434.766 0.234375C417.188 0.527344 410.01 18.1543 413.232 53.1152C413.916 60.8301 413.184 66.6895 411.035 70.6934C408.984 74.3066 405.908 76.0645 401.807 75.9668C397.217 75.8691 393.994 74.0625 392.139 70.5469C390.186 67.1289 389.355 61.6113 389.648 53.9941C390.43 35.3418 388.721 22.0605 384.521 14.1504C380.713 6.82617 374.219 3.16406 365.039 3.16406C356.738 3.16406 349.512 7.80273 343.359 17.0801C337.305 26.2598 333.252 38.418 331.201 53.5547C328.857 70.1562 329.102 84.4141 331.934 96.3281C334.18 106.191 338.428 115.176 344.678 123.281C351.514 132.07 361.279 136.953 373.975 137.93C378.076 138.32 382.764 138.271 388.037 137.783C388.916 137.686 389.893 137.539 390.967 137.344L392.285 137.197L393.604 137.051C395.557 136.855 396.973 136.758 397.852 136.758C401.855 136.465 405.078 137.979 407.52 141.299C410.742 145.596 412.402 152.578 412.5 162.246C412.598 178.359 415.674 190.518 421.729 198.721C427.1 205.947 434.57 209.707 444.141 210C470.41 210.684 482.568 172.891 480.615 96.6211Z" fill="#015AFE"/>
<path d="M259.863 139.98C258.203 143.301 256.104 145.938 253.564 147.891C250.732 150.137 247.705 151.455 244.482 151.846C250.049 149.014 254.297 144.619 257.227 138.662C259.57 134.17 261.182 128.164 262.061 120.645C263.623 127.285 262.891 133.73 259.863 139.98ZM241.26 140.859C237.646 141.934 234.131 140.859 230.713 137.637C227.295 134.414 225 130.02 223.828 124.453C222.656 118.789 222.9 113.613 224.561 108.926C226.318 104.141 229.004 101.211 232.617 100.137C236.23 99.0625 239.697 100.137 243.018 103.359C246.436 106.484 248.73 110.879 249.902 116.543C251.074 122.207 250.83 127.383 249.17 132.07C247.412 136.855 244.775 139.785 241.26 140.859ZM195.996 35.2441C191.699 41.2012 187.939 48.623 184.717 57.5098C182.178 64.7363 180.078 72.9395 178.418 82.1191C178.516 78.7988 178.955 74.5508 179.736 69.375C180.518 65.1758 181.494 61.0254 182.666 56.9238C185.205 48.1348 188.867 40.3223 193.652 33.4863C199.121 25.7715 205.566 20.1074 212.988 16.4941C216.895 14.6387 220.996 13.2715 225.293 12.3926C229.785 11.709 234.082 11.5137 238.184 11.8066C228.711 12.4902 220.654 14.6875 214.014 18.3984C206.982 22.4023 200.977 28.0176 195.996 35.2441ZM254.297 1.8457C227.344 -3.23242 205.811 3.55469 189.697 22.207C175.439 38.8086 167.627 61.3672 166.26 89.8828C164.99 117.617 169.971 142.764 181.201 165.322C193.408 189.736 210.156 204.238 231.445 208.828C251.367 213.125 269.141 205.801 284.766 186.855C299.121 169.57 308.447 147.109 312.744 119.473C317.139 91.1523 314.844 66.2988 305.859 44.9121C295.605 20.791 278.418 6.43555 254.297 1.8457Z" fill="#F81157"/>
</svg>
