<svg width="40" height="40" viewBox="0 0 40 40" fill="none" xmlns="http://www.w3.org/2000/svg">
<path d="M22.7827 16.1514H10.6584C9.97921 16.1514 9.42859 15.6008 9.42859 14.9216V7.87774C9.42859 3.85696 12.6998 0.585861 16.7205 0.585861C20.7412 0.585861 24.0124 3.85696 24.0124 7.87774V14.9216C24.0125 15.6008 23.4619 16.1514 22.7827 16.1514ZM11.8883 13.6918H21.5528V7.87781C21.5528 5.21336 19.385 3.04563 16.7205 3.04563C14.0559 3.04563 11.8882 5.21336 11.8882 7.87781V13.6918H11.8883Z" fill="#F9A825"/>
<path d="M29.3415 16.1514H17.2173C16.5381 16.1514 15.9874 15.6008 15.9874 14.9216V7.87774C15.9874 3.85696 19.2586 0.585861 23.2793 0.585861C27.3 0.585861 30.5713 3.85696 30.5713 7.87774V14.9216C30.5713 15.6008 30.0207 16.1514 29.3415 16.1514ZM18.4471 13.6918H28.1117V7.87781C28.1117 5.21336 25.9438 3.04563 23.2794 3.04563C20.6149 3.04563 18.4471 5.21336 18.4471 7.87781V13.6918Z" fill="#FFCA28"/>
<path d="M36.1653 34.9863L32.8727 11.1674C32.7611 10.3601 32.071 9.75883 31.256 9.75883H8.7438C7.9288 9.75883 7.23864 10.3601 7.12708 11.1674L3.8345 34.9863C3.51091 37.3269 5.32942 39.4141 7.69231 39.4141H32.3075C34.6704 39.4141 36.4889 37.3269 36.1653 34.9863Z" fill="#4FC3F7"/>
<path d="M7.74075 34.9863L11.0333 11.1674C11.145 10.3601 11.835 9.75883 12.65 9.75883H8.7438C7.9288 9.75883 7.23864 10.3601 7.12708 11.1674L3.8345 34.9863C3.51091 37.3269 5.32942 39.4141 7.69231 39.4141H11.5986C9.23567 39.4141 7.41716 37.3269 7.74075 34.9863Z" fill="#46ADDB"/>
<path d="M3.72879 31.4725L3.25418 34.9061C3.07676 36.1895 3.46317 37.4859 4.31426 38.4628C5.16543 39.4398 6.39668 40 7.69238 40H32.3075C33.6032 40 34.8345 39.4398 35.6857 38.4628C36.5368 37.4859 36.9232 36.1895 36.7457 34.9061L34.2839 17.0975C34.2396 16.7769 33.9437 16.553 33.6233 16.5972C33.3028 16.6415 33.0788 16.9374 33.1232 17.258L35.585 35.0665C35.716 36.0143 35.4306 36.9715 34.8021 37.693C34.1736 38.4144 33.2643 38.8281 32.3075 38.8281H7.69238C6.73559 38.8281 5.82637 38.4144 5.19777 37.693C4.56926 36.9715 4.28395 36.0143 4.41488 35.0665L4.88949 31.6329C4.93379 31.3123 4.70988 31.0165 4.38934 30.9722C4.06863 30.928 3.77309 31.1519 3.72879 31.4725Z" fill="black"/>
<path d="M31.2561 10.3448C31.7757 10.3448 32.2213 10.7329 32.2924 11.2477L32.7992 14.9141C32.8435 15.2347 33.1392 15.4587 33.4599 15.4144C33.7804 15.3701 34.0044 15.0742 33.96 14.7537L33.4532 11.0872C33.3024 9.99586 32.3578 9.17289 31.256 9.17289H31.1573V7.87781C31.1574 3.53398 27.6234 0 23.2795 0C22.1095 0 20.9986 0.256719 19.9994 0.716172C18.9681 0.241172 17.8667 0 16.7205 0C12.3766 0 8.84267 3.53398 8.84267 7.87781V9.17289H8.74392C7.6422 9.17289 6.69767 9.99586 6.54674 11.0872L4.05283 29.1287C4.00853 29.4493 4.23244 29.7451 4.55299 29.7894C4.58017 29.7931 4.6072 29.7949 4.63392 29.7949C4.92197 29.7949 5.17306 29.5825 5.21361 29.2891L7.70759 11.2477C7.77877 10.7329 8.22431 10.3448 8.74392 10.3448H31.2561ZM11.3023 7.87781V9.17289H10.0145V7.87781C10.0145 4.18016 13.0228 1.17188 16.7205 1.17188C17.4018 1.17188 18.0645 1.27172 18.7012 1.46953C18.277 1.77305 17.8822 2.12078 17.5265 2.50219C17.5215 2.50758 17.5161 2.51258 17.5111 2.51797C17.2488 2.47922 16.984 2.45969 16.7204 2.45969C13.7329 2.45961 11.3023 4.89023 11.3023 7.87781ZM15.4017 7.87781V9.17289H12.4742V7.87781C12.4742 5.56156 14.3386 3.67375 16.6454 3.63344C15.8585 4.85914 15.4017 6.31617 15.4017 7.87781ZM20.9669 9.17289H19.0332V7.87781C19.0332 6.8568 19.3956 5.91891 19.9984 5.1857C20.6186 5.94141 20.967 6.89484 20.967 7.87781V9.17289H20.9669ZM23.4265 9.17289H22.1388V7.87781C22.1388 6.60055 21.6799 5.36164 20.8622 4.38977C20.9055 4.35969 20.9493 4.33055 20.9936 4.30211C21.3209 4.09211 21.6782 3.92672 22.0504 3.81367C22.9402 4.97875 23.4265 6.40828 23.4265 7.87781V9.17289ZM27.5259 9.17289H24.5984V7.87781C24.5984 6.36812 24.1613 4.89469 23.3531 3.63336C25.6606 3.67289 27.526 5.56102 27.526 7.87781V9.17289H27.5259ZM29.9855 9.17289H28.6978V7.87781C28.6978 4.89023 26.2671 2.45961 23.2795 2.45961C21.9368 2.45961 20.5864 2.98812 19.6019 3.90305C19.5995 3.90523 19.5974 3.90781 19.5951 3.91C18.5296 4.90008 17.8613 6.31203 17.8613 7.87781V9.17289H16.5735V7.87781C16.5735 6.19992 17.1944 4.66523 18.2166 3.48789C18.7717 2.84828 19.4475 2.31484 20.1991 1.92422C21.1222 1.44461 22.1693 1.17188 23.2795 1.17188C26.9772 1.17188 29.9855 4.18016 29.9855 7.87781V9.17289Z" fill="black"/>
</svg>
