<svg width="44" height="28" viewBox="0 0 44 28" fill="none" xmlns="http://www.w3.org/2000/svg">
<path d="M36.3695 1.40723H2.59308C1.51697 1.40723 0.644531 2.2651 0.644531 3.32344V6.37718L19.4813 8.34875L38.318 6.37718V3.32344C38.3181 2.2651 37.4456 1.40723 36.3695 1.40723Z" fill="#4FC3F7"/>
<path d="M3.22266 6.37706V3.32332C3.22266 2.26507 4.09501 1.4071 5.1712 1.4071H2.59308C1.51697 1.4071 0.644531 2.26498 0.644531 3.32332V6.37706L19.4812 8.34863L20.7703 8.21366L3.22266 6.37706Z" fill="#46ADDB"/>
<path d="M19.4812 8.34863L0.644531 10.3202V22.5449C0.644531 23.6031 1.51688 24.4611 2.59308 24.4611H36.3695C37.4456 24.4611 38.3181 23.6032 38.3181 22.5449V10.3202L19.4812 8.34863Z" fill="#4FC3F7"/>
<path d="M3.22266 22.5448V10.3202L20.7703 8.4836L19.4812 8.34863L0.644531 10.3202V22.5449C0.644531 23.6031 1.51688 24.461 2.59308 24.461H5.1712C4.09501 24.461 3.22266 23.603 3.22266 22.5448Z" fill="#46ADDB"/>
<path d="M9.20562 12.5825H5.66277C5.09824 12.5825 4.64062 13.0325 4.64062 13.5877V15.8464C4.64062 16.4015 5.09824 16.8515 5.66277 16.8515H9.20562C9.77015 16.8515 10.2278 16.4015 10.2278 15.8464V13.5877C10.2278 13.0325 9.77015 12.5825 9.20562 12.5825Z" fill="#FFCA28"/>
<path d="M38.3178 6.37744H0.644531V10.3205H38.3178V6.37744Z" fill="#424242"/>
<path d="M42.5887 11.9259C38.058 11.7346 35.7855 9.87727 34.8151 8.75056C34.499 8.38344 33.9188 8.38344 33.6026 8.75056C32.6322 9.87727 30.3598 11.7346 25.8291 11.9259C25.3895 11.9445 25.0471 12.3072 25.063 12.7396C25.1589 15.332 26.0883 23.5536 33.8732 27.0542C34.0861 27.1499 34.3315 27.1499 34.5444 27.0542C42.3293 23.5536 43.2587 15.332 43.3546 12.7396C43.3707 12.3073 43.0283 11.9445 42.5887 11.9259Z" fill="#FFCA28"/>
<path d="M34.2096 24.6505C31.7467 23.3711 29.9089 21.3574 28.7412 18.6554C28.0137 16.9723 27.6761 15.3345 27.5215 14.0885C29.5231 13.8232 32.1075 13.1298 34.2096 11.3944C36.3116 13.1297 38.8963 13.8232 40.8977 14.0885C40.7431 15.3345 40.4054 16.9723 39.6779 18.6554C38.5104 21.3572 36.6725 23.371 34.2096 24.6505Z" fill="white"/>
<path d="M34.2404 11.4191C34.2303 11.4108 34.22 11.4028 34.2098 11.3944C34.1251 11.4647 34.0393 11.5327 33.9531 11.5996C34.0492 11.5411 34.145 11.4813 34.2404 11.4191Z" fill="#E6E6E6"/>
<path d="M30.4599 18.6929C29.8097 16.906 29.4713 15.1632 29.2964 13.7562C28.6751 13.9084 28.0759 14.015 27.5215 14.0884C27.6761 15.3345 28.0137 16.9722 28.7412 18.6554C29.9089 21.3573 31.7467 23.3711 34.2096 24.6505C34.2404 24.6344 34.27 24.617 34.3007 24.6007C32.6412 23.1267 31.354 21.1497 30.4599 18.6929Z" fill="#E6E6E6"/>
<path d="M3.22266 6.37744H0.644531V10.3205H3.22266V6.37744Z" fill="#333333"/>
<path d="M5.66285 17.4855H9.20571C10.1247 17.4855 10.8725 16.7501 10.8725 15.8464V13.5877C10.8725 12.6839 10.1248 11.9486 9.20571 11.9486H5.66285C4.74384 11.9486 3.99609 12.6839 3.99609 13.5877V15.8464C3.99609 16.7501 4.74375 17.4855 5.66285 17.4855ZM5.28516 13.5878C5.28516 13.383 5.45454 13.2164 5.66285 13.2164H9.20571C9.41394 13.2164 9.58341 13.3829 9.58341 13.5878V15.8464C9.58341 16.0512 9.41402 16.2179 9.20571 16.2179H5.66285C5.45462 16.2179 5.28516 16.0512 5.28516 15.8464V13.5878Z" fill="black"/>
<path d="M4.64063 20.8502H8.29074C8.64669 20.8502 8.93527 20.5664 8.93527 20.2164C8.93527 19.8663 8.64669 19.5825 8.29074 19.5825H4.64063C4.28467 19.5825 3.99609 19.8663 3.99609 20.2164C3.99609 20.5664 4.28467 20.8502 4.64063 20.8502Z" fill="black"/>
<path d="M10.5625 20.2164C10.5625 20.5664 10.8511 20.8502 11.207 20.8502H14.8571C15.2131 20.8502 15.5017 20.5664 15.5017 20.2164C15.5017 19.8663 15.2131 19.5825 14.8571 19.5825H11.207C10.8511 19.5825 10.5625 19.8663 10.5625 20.2164Z" fill="black"/>
<path d="M17.7715 20.8502H21.4216C21.7775 20.8502 22.0661 20.5664 22.0661 20.2164C22.0661 19.8663 21.7775 19.5825 21.4216 19.5825H17.7715C17.4155 19.5825 17.127 19.8663 17.127 20.2164C17.127 20.5664 17.4155 20.8502 17.7715 20.8502Z" fill="black"/>
<path d="M33.7952 10.9091C31.7576 12.5912 29.212 13.2249 27.4355 13.4604C27.0858 13.5067 26.839 13.8209 26.8818 14.1653C27.0907 15.8484 27.5167 17.4425 28.148 18.9033C29.3739 21.74 31.3121 23.8621 33.9085 25.2109C34.0953 25.308 34.3239 25.308 34.5106 25.2109C37.1071 23.8621 39.0453 21.7399 40.2712 18.9033C40.9026 17.4423 41.3287 15.8482 41.5375 14.1652C41.5802 13.8208 41.3334 13.5066 40.9838 13.4603C39.2072 13.2249 36.6617 12.5911 34.624 10.909C34.3844 10.7113 34.0349 10.7113 33.7952 10.9091ZM39.0848 18.4076C38.026 20.8574 36.3869 22.713 34.2096 23.9281C32.0323 22.7131 30.3932 20.8575 29.3344 18.4075C28.8264 17.2323 28.4618 15.9607 28.2476 14.62C30.0088 14.32 32.2626 13.6573 34.2096 12.2052C36.1566 13.6573 38.4105 14.32 40.1716 14.62C39.9576 15.9606 39.5928 17.2322 39.0848 18.4076Z" fill="black"/>
<path d="M32.3588 16.9669C32.2355 16.6385 31.865 16.4707 31.5308 16.5919C31.1969 16.7131 31.0261 17.0776 31.1495 17.406C31.1495 17.406 32.1686 20.1203 32.1689 20.1211C32.3186 20.5197 32.8394 20.6622 33.1769 20.396L38.1871 16.4428C38.4648 16.2237 38.5093 15.8247 38.2866 15.5518C38.0638 15.2788 37.6581 15.2349 37.3805 15.4541L33.0683 18.8565L32.3588 16.9669Z" fill="black"/>
<path d="M2.59299 25.0949H29.7155C30.7835 26.0681 32.0657 26.9383 33.6054 27.6307C33.7961 27.7165 33.9993 27.76 34.2091 27.76C34.419 27.76 34.6221 27.7164 34.8128 27.6307C42.9617 23.9665 43.9043 15.3243 43.999 12.7628C44.0277 11.9857 43.4076 11.3263 42.6166 11.2928C41.1199 11.2296 39.8876 10.9771 38.879 10.6318C38.932 10.5397 38.9626 10.4335 38.9626 10.3202V3.32337C38.9626 1.91726 37.7993 0.773315 36.3695 0.773315H2.59299C1.16325 0.7734 0 1.91735 0 3.32345V22.5448C0 23.9509 1.16325 25.0949 2.59299 25.0949ZM42.5612 12.5593C42.6467 12.5629 42.7138 12.6335 42.7108 12.7167C42.6625 14.0191 42.4074 16.6072 41.2399 19.3085C39.8025 22.6344 37.4598 25.0465 34.2766 26.4779C34.234 26.4971 34.1839 26.497 34.1414 26.4779C32.7956 25.8742 31.5144 25.0596 30.4525 24.0421C29.0427 22.6915 27.9476 21.0888 27.1782 19.3085C26.0867 16.7829 25.7927 14.3566 25.7197 12.9873C25.7143 12.8868 25.6967 12.7868 25.7095 12.6862C25.7214 12.6169 25.7822 12.5625 25.857 12.5593C28.5809 12.4436 31.4501 11.6746 33.4909 9.78342C33.7042 9.58567 33.8989 9.37439 34.0947 9.16041C34.1561 9.0933 34.2651 9.09254 34.3248 9.16184C34.5131 9.38047 34.7159 9.58753 34.9279 9.78393C36.9423 11.6499 39.7514 12.4248 42.4589 12.5547C42.493 12.5563 42.5271 12.5579 42.5612 12.5593ZM1.28906 7.01094H8.02948C8.38543 7.01094 8.67401 6.72715 8.67401 6.3771C8.67401 6.03221 8.37959 5.74327 8.02948 5.74327H1.28906V3.32337C1.28906 2.61626 1.87404 2.04099 2.59299 2.04099H36.3695C37.0886 2.04099 37.6735 2.61626 37.6735 3.32337V5.74327C37.6735 5.74327 10.611 5.74327 10.6076 5.74327C10.2598 5.74327 9.96307 6.03044 9.96307 6.3771C9.96307 6.72715 10.2517 7.01094 10.6076 7.01094H37.6735V9.68632H36.8874C36.3012 9.31303 35.7597 8.86529 35.3072 8.34107C35.0338 8.02364 34.6336 7.84152 34.209 7.84152C33.5087 7.84152 33.14 8.35577 32.6835 8.78915C32.6811 8.79143 32.6785 8.79379 32.6761 8.79616C32.3238 9.12778 31.9401 9.42577 31.5308 9.68632H1.28906V7.01094ZM1.28906 10.9541H28.4029C28.1689 11.0079 27.9264 11.0571 27.6731 11.1C27.0575 11.2052 26.432 11.2678 25.8077 11.2925C25.8056 11.2926 25.8037 11.2927 25.8016 11.2928C25.0106 11.3263 24.3904 11.9856 24.4191 12.7628C24.4228 12.863 24.4332 12.9641 24.4332 13.0643C24.5107 14.5082 24.8136 16.9852 25.8948 19.5825H24.3374C23.9815 19.5825 23.6929 19.8663 23.6929 20.2164C23.6929 20.5664 23.9815 20.8502 24.3374 20.8502H26.4847C27.0085 21.8649 27.6618 22.8751 28.4802 23.8271H2.59299C1.87395 23.8271 1.28906 23.2519 1.28906 22.5447V10.9541Z" fill="black"/>
</svg>
