<svg width="25" height="24" viewBox="0 0 25 24" fill="none" xmlns="http://www.w3.org/2000/svg">
<g clip-path="url(#clip0)">
<path d="M15.6566 5.74091C15.2567 5.74091 14.8853 5.48511 14.7573 5.08411L14.0421 2.84399C14.0357 2.82385 14.0298 2.80353 14.0249 2.78302C13.9457 2.46204 13.6591 2.23773 13.328 2.23773H11.0997C10.7686 2.23773 10.482 2.46204 10.4028 2.78302C10.3978 2.80353 10.392 2.82385 10.3856 2.84399L9.67035 5.08429C9.51195 5.5805 8.98081 5.85443 8.48377 5.69623C7.98692 5.53802 7.71264 5.00738 7.87105 4.51117L8.57764 2.29797C8.87686 1.15009 9.90888 0.351562 11.0997 0.351562H13.328C14.5186 0.351562 15.5506 1.15009 15.8498 2.29797L16.5566 4.51117C16.715 5.00738 16.4406 5.53784 15.9437 5.69623C15.8484 5.72644 15.7518 5.74091 15.6566 5.74091Z" fill="#BEBEBF"/>
<path d="M2.07099 9.91113C1.74098 9.91113 1.50703 10.2327 1.60915 10.5461L1.90708 11.462C1.97217 11.6618 2.15863 11.7973 2.3691 11.7973H5.36837V9.91113H2.07099Z" fill="#DFDFE0"/>
<path d="M22.3569 9.91113C22.687 9.91113 22.9209 10.2327 22.819 10.5461L22.5209 11.462C22.4558 11.6618 22.2693 11.7973 22.0588 11.7973H19.0596V9.91113H22.3569Z" fill="#DFDFE0"/>
<path d="M12.2141 5.71967L3.66016 7.56903L5.46276 22.1391C5.59843 23.0079 6.34756 23.6484 7.22796 23.6484H17.2C18.0804 23.6484 18.8296 23.0079 18.9652 22.1391L20.7678 7.56903L12.2141 5.71967Z" fill="#BEBEBF"/>
<path d="M12.2141 9.91113C11.6115 9.91113 11.123 10.3989 11.123 11.0006V19.5095C11.123 20.1114 11.6115 20.5992 12.2141 20.5992C12.8166 20.5992 13.305 20.1114 13.305 19.5095V11.0006C13.305 10.3989 12.8166 9.91113 12.2141 9.91113Z" fill="#DFDFE0"/>
<path d="M8.06451 9.91113C7.46205 9.91113 6.97363 10.3989 6.97363 11.0006V19.5095C6.97363 20.1114 7.46205 20.5992 8.06451 20.5992C8.66715 20.5992 9.15557 20.1114 9.15557 19.5095V11.0006C9.15557 10.3989 8.66715 9.91113 8.06451 9.91113Z" fill="#DFDFE0"/>
<path d="M16.3635 9.91113C16.966 9.91113 17.4544 10.3989 17.4544 11.0006V19.5095C17.4544 20.1114 16.966 20.5992 16.3635 20.5992C15.7609 20.5992 15.2725 20.1114 15.2725 19.5095V11.0006C15.2725 10.3989 15.7609 9.91113 16.3635 9.91113Z" fill="#DFDFE0"/>
<path d="M3.66016 7.56903L3.83415 8.97528H20.5939L20.7678 7.56903L12.2141 5.71967L3.66016 7.56903Z" fill="#B2B2B3"/>
<path d="M8.48482 5.69623C8.98167 5.85443 9.51281 5.58051 9.6714 5.08411L10.3866 2.84399C10.393 2.82385 10.3987 2.80353 10.4038 2.78302C10.4341 2.65997 10.495 2.55139 10.5771 2.46405H8.5257L7.8721 4.51117C7.71351 5.00739 7.98797 5.53784 8.48482 5.69623Z" fill="#B2B2B3"/>
<path d="M14.025 2.78302C14.03 2.80353 14.0358 2.82385 14.0421 2.84399L14.7573 5.08411C14.8854 5.48511 15.2567 5.74109 15.6567 5.74109C15.7519 5.74109 15.8485 5.72644 15.9438 5.69623C16.4407 5.53803 16.715 5.00739 16.5566 4.51117L15.903 2.46405H13.8516C13.9337 2.55139 13.9946 2.65997 14.025 2.78302Z" fill="#B2B2B3"/>
<path d="M21.5081 6.61743L21.2954 5.7843C21.008 4.65839 19.9924 3.8703 18.829 3.8703H5.59856C4.43508 3.8703 3.41975 4.65839 3.13227 5.7843L2.91959 6.61743C2.79639 7.09991 3.16142 7.56903 3.65992 7.56903H20.7676C21.2661 7.56903 21.6311 7.09991 21.5081 6.61743Z" fill="#DFDFE0"/>
<path d="M13.6574 19.5095V11.0006C13.6574 10.2059 13.0101 9.55957 12.2146 9.55957C11.4189 9.55957 10.7715 10.2059 10.7715 11.0006V19.5095C10.7715 20.3042 11.4189 20.9507 12.2146 20.9507C13.0101 20.9507 13.6574 20.3042 13.6574 19.5095ZM11.4755 19.5095V11.0006C11.4755 10.5938 11.807 10.2627 12.2146 10.2627C12.6219 10.2627 12.9534 10.5938 12.9534 11.0006V19.5095C12.9534 19.9166 12.6219 20.2476 12.2146 20.2476C11.807 20.2476 11.4755 19.9166 11.4755 19.5095Z" fill="#222222"/>
<path d="M9.50706 19.5095V11.0006C9.50706 10.2059 8.85968 9.55957 8.06398 9.55957C7.26829 9.55957 6.62109 10.2059 6.62109 11.0006V19.5095C6.62109 20.3042 7.26829 20.9507 8.06398 20.9507C8.85968 20.9507 9.50706 20.3042 9.50706 19.5095ZM7.32512 19.5095V11.0006C7.32512 10.5938 7.6566 10.2627 8.06398 10.2627C8.47155 10.2627 8.80303 10.5938 8.80303 11.0006V19.5095C8.80303 19.9166 8.47155 20.2476 8.06398 20.2476C7.6566 20.2476 7.32512 19.9166 7.32512 19.5095Z" fill="#222222"/>
<path d="M17.8069 19.5095V11.0006C17.8069 10.2059 17.1595 9.55957 16.364 9.55957C15.5683 9.55957 14.9209 10.2059 14.9209 11.0006V19.5095C14.9209 20.3042 15.5683 20.9507 16.364 20.9507C17.1595 20.9507 17.8069 20.3042 17.8069 19.5095ZM15.6249 19.5095V11.0006C15.6249 10.5938 15.9564 10.2627 16.364 10.2627C16.7714 10.2627 17.1028 10.5938 17.1028 11.0006V19.5095C17.1028 19.9166 16.7714 20.2476 16.364 20.2476C15.9564 20.2476 15.6249 19.9166 15.6249 19.5095Z" fill="#222222"/>
<path d="M8.91158 4.87628C8.71706 4.87628 8.55957 5.03375 8.55957 5.22784V5.82495C8.55957 6.01904 8.71706 6.17651 8.91158 6.17651C9.10593 6.17651 9.2636 6.01904 9.2636 5.82495V5.22784C9.2636 5.03375 9.10593 4.87628 8.91158 4.87628Z" fill="#222222"/>
<path d="M15.5171 4.87628C15.3227 4.87628 15.165 5.03375 15.165 5.22784V5.82495C15.165 6.01904 15.3227 6.17651 15.5171 6.17651C15.7116 6.17651 15.8691 6.01904 15.8691 5.82495V5.22784C15.8691 5.03375 15.7116 4.87628 15.5171 4.87628Z" fill="#222222"/>
<path d="M13.2608 5.51862C13.1145 5.39081 12.8921 5.40583 12.7642 5.55195C12.6307 5.70447 12.4301 5.792 12.2141 5.792C11.998 5.792 11.7974 5.70447 11.6639 5.55195C11.536 5.40583 11.3136 5.39081 11.1673 5.51862C11.0208 5.64643 11.0059 5.86853 11.1339 6.01465C11.401 6.31989 11.7948 6.49512 12.2141 6.49512C12.6333 6.49512 13.0271 6.31989 13.2942 6.01465C13.4222 5.86853 13.4073 5.64643 13.2608 5.51862Z" fill="#222222"/>
<path d="M5.81141 22.0902L5.45921 19.2434C5.43538 19.0508 5.25956 18.9139 5.06668 18.9378C4.87381 18.9616 4.73667 19.1371 4.7605 19.3297L5.11343 22.1823C5.11398 22.1859 5.11435 22.1896 5.11508 22.1933C5.27844 23.2401 6.16691 24 7.2279 24H17.2C18.2608 24 19.1494 23.2401 19.313 22.1933C19.3135 22.1896 19.3141 22.1859 19.3144 22.1823L20.2009 15.0172C20.2247 14.8246 20.0876 14.6491 19.8947 14.6253C19.7017 14.6015 19.526 14.7383 19.5022 14.9309L18.6165 22.0902C18.5048 22.7896 17.9099 23.2969 17.2 23.2969H7.2279C6.51801 23.2969 5.92325 22.7896 5.81141 22.0902Z" fill="#222222"/>
<path d="M20.3747 13.611L20.5557 12.1489H22.0591C22.4232 12.1489 22.7433 11.9165 22.8559 11.5706C22.8559 11.5706 23.1538 10.6553 23.154 10.6549C23.3272 10.1219 22.9164 9.55957 22.3572 9.55957H20.876L21.0842 7.87537C21.3057 7.81055 21.5028 7.67761 21.6489 7.48993C21.862 7.21619 21.9349 6.86646 21.8491 6.53046L21.6365 5.69751C21.309 4.41467 20.1545 3.51874 18.829 3.51874H16.6093L16.1881 2.20001C15.8457 0.904175 14.671 0 13.328 0H11.0995C9.75655 0 8.5817 0.904175 8.2394 2.19983L7.81827 3.51874H5.59857C4.27302 3.51874 3.11852 4.41467 2.79107 5.69751C2.79107 5.69751 2.57858 6.52972 2.5784 6.53046C2.43228 7.10248 2.77586 7.70911 3.34311 7.87537L3.55139 9.55957C3.55139 9.55957 2.07128 9.55957 2.07036 9.55957C1.51007 9.55957 1.10031 10.1226 1.27356 10.6549L1.57168 11.5706C1.68406 11.9165 2.00436 12.1489 2.36829 12.1489H3.87187L4.58634 17.9235C4.60835 18.1016 4.76015 18.232 4.93524 18.232C4.94973 18.232 4.96421 18.2311 4.97888 18.2292C5.17175 18.2054 5.30889 18.03 5.28506 17.8372L4.05814 7.92059H20.3694L19.676 13.5247C19.6522 13.7175 19.7893 13.8929 19.9822 13.9167C20.1751 13.9407 20.3509 13.8038 20.3747 13.611ZM22.3572 10.2627C22.447 10.2627 22.5121 10.3522 22.4842 10.4376L22.1863 11.3533C22.1683 11.4086 22.1172 11.4457 22.0591 11.4457H20.6426L20.7891 10.2627H22.3572ZM8.91831 2.38641C9.17664 1.39545 10.0737 0.703125 11.0997 0.703125H13.328C14.3538 0.703125 15.2509 1.39545 15.5092 2.3866C15.5109 2.39264 15.8702 3.51874 15.8702 3.51874H14.627C14.627 3.51874 14.3698 2.71179 14.3666 2.69897C14.2486 2.22034 13.8216 1.88617 13.328 1.88617H11.0997C10.6061 1.88617 10.179 2.22034 10.0611 2.69879C10.0578 2.71179 9.80073 3.51874 9.80073 3.51874H8.55732C8.55732 3.51874 8.91666 2.39264 8.91831 2.38641ZM10.7446 2.86707C10.7849 2.70355 10.9308 2.58929 11.0995 2.58929H13.328C13.4967 2.58929 13.6426 2.70355 13.683 2.86725C13.6899 2.89526 13.8879 3.51874 13.8879 3.51874H10.5396C10.5396 3.51874 10.7376 2.89526 10.7446 2.86707ZM2.36847 11.4457C2.31036 11.4457 2.2592 11.4086 2.24124 11.3533C2.24124 11.3533 1.94349 10.4381 1.94312 10.4376C1.91636 10.3553 1.97924 10.2627 2.07036 10.2627H3.63847L3.78478 11.4457H2.36847ZM3.65992 7.21747C3.39555 7.21747 3.19571 6.95874 3.26061 6.70422L3.47328 5.87128C3.72116 4.90009 4.59514 4.22186 5.59857 4.22186H18.829C19.8324 4.22186 20.7064 4.90009 20.9543 5.87128C20.9543 5.87128 21.1667 6.70386 21.1669 6.70422C21.2294 6.94885 21.0435 7.21747 20.7674 7.21747C20.7676 7.21747 3.73418 7.21747 3.65992 7.21747Z" fill="#222222"/>
</g>
<defs>
<clipPath id="clip0">
<rect width="24.0308" height="24" fill="white" transform="translate(0.201172)"/>
</clipPath>
</defs>
</svg>
