<svg width="32" height="30" viewBox="0 0 32 30" fill="none" xmlns="http://www.w3.org/2000/svg">
<path d="M22.1452 21.9299V24.2648C19.6726 24.2648 4.66658 24.2648 2.1748 24.2648V21.9299H22.1452Z" fill="#32438C"/>
<path d="M30.1334 24.2648C30.1251 24.2648 22.1541 24.2648 22.1453 24.2648V21.93V20.2622V14.2583H27.4707C30.4637 22.2566 29.2206 18.8616 30.1334 20.9293V24.2648Z" fill="#4D5DB1"/>
<path d="M23.2583 24.2648C23.2583 24.2642 23.259 24.2648 23.259 24.2648C24.3555 23.375 25.9265 23.3749 27.0234 24.2648C27.7215 24.8305 28.1364 25.6813 28.1364 26.5997C28.1364 28.2574 26.7956 29.6016 25.1408 29.6016C23.4866 29.6016 22.1453 28.2574 22.1453 26.5997C22.1453 25.6801 22.561 24.8297 23.2583 24.2648Z" fill="#7D89AA"/>
<path d="M5.28489 24.2648C5.28489 24.2642 5.28556 24.2648 5.28556 24.2648C6.38207 23.375 7.95315 23.3749 9.04999 24.2648C9.74816 24.8305 10.163 25.6813 10.163 26.5997C10.163 28.2574 8.82233 29.6016 7.16744 29.6016C5.51322 29.6016 4.17188 28.2574 4.17188 26.5997C4.17188 25.6801 4.58766 24.8297 5.28489 24.2648Z" fill="#7D89AA"/>
<path d="M6.83437 0.916138C7.75367 0.916138 8.49857 1.66263 8.49857 2.58389C8.49857 3.50516 7.75367 4.25165 6.83437 4.25165C5.91573 4.25165 5.17017 3.50516 5.17017 2.58389C5.17017 1.66263 5.91573 0.916138 6.83437 0.916138Z" fill="#68CA44"/>
<path d="M27.8035 6.25305C28.5391 6.25305 29.1349 6.85011 29.1349 7.58726C29.1349 8.32441 28.5391 8.92146 27.8035 8.92146C27.0686 8.92146 26.4722 8.32441 26.4722 7.58726C26.4722 6.85011 27.0686 6.25305 27.8035 6.25305Z" fill="#68CA44"/>
<path d="M2.1748 20.2622H22.1452V21.93H2.1748V20.2622Z" fill="#2663F0"/>
<path d="M2.1748 9.16625C2.1748 8.10956 3.02954 7.25366 4.08331 7.25366H20.2374C21.2912 7.25366 22.1452 8.10956 22.1452 9.16625V20.2622H2.1748C2.1748 19.7021 2.1748 9.67018 2.1748 9.16625Z" fill="#4A78FF"/>
<path d="M12.1598 9.255C13.4465 9.255 14.6115 9.77801 15.4549 10.6226C16.2976 11.4678 16.8195 12.6352 16.8195 13.9247C16.8195 15.2142 16.2976 16.3817 15.4549 17.2269C14.6115 18.0714 13.4465 18.5944 12.1598 18.5944C10.8737 18.5944 9.70873 18.0714 8.86531 17.2269C8.02189 16.3817 7.5 15.2142 7.5 13.9247C7.5 12.6352 8.02189 11.4678 8.86531 10.6226C9.70873 9.77801 10.8737 9.255 12.1598 9.255Z" fill="#D0DCE7"/>
<path d="M28.469 16.9266L29.4675 19.5951H25.4735C24.7385 19.5951 24.1421 18.998 24.1421 18.2608C24.1421 17.8926 24.2912 17.559 24.5321 17.3176C24.7732 17.0761 25.106 16.9266 25.4735 16.9266H28.469Z" fill="#BCE4FF"/>
<path d="M19.4824 27.2667H14.157C14.157 26.3265 14.157 25.2021 14.157 24.2648H19.4824V27.2667Z" fill="#FF5987"/>
<path d="M30.4661 24.2648C31.0179 24.2648 31.4646 24.7131 31.4646 25.2654C31.4646 25.5416 31.3528 25.7918 31.1723 25.9726C30.992 26.154 30.7418 26.2661 30.4661 26.2661H28.1176C28.0291 25.4596 27.621 24.7491 27.0232 24.2648H30.1333H30.4661Z" fill="#414A56"/>
<path d="M22.1449 24.2648H23.2579C22.6602 24.7491 22.2521 25.4596 22.1635 26.2661H19.4828H19.4822V24.2648H22.1449Z" fill="#414A56"/>
<path d="M14.1569 24.2648V26.2661H10.1442C10.0556 25.4596 9.64759 24.7491 9.0498 24.2648H14.1569Z" fill="#414A56"/>
<path d="M5.28468 24.2648C4.6869 24.7491 4.27884 25.4596 4.1903 26.2661H1.84178C1.2906 26.2661 0.843262 25.8178 0.843262 25.2654C0.843262 24.7139 1.2906 24.2648 1.84178 24.2648H5.28468Z" fill="#414A56"/>
<path d="M25.1406 25.599C25.6925 25.599 26.1391 26.0473 26.1391 26.5997C26.1391 27.152 25.6925 27.6003 25.1406 27.6003C24.5894 27.6003 24.1421 27.152 24.1421 26.5997C24.1421 26.0473 24.5894 25.599 25.1406 25.599Z" fill="#5C6887"/>
<path d="M7.16722 25.599C7.71907 25.599 8.16574 26.0473 8.16574 26.5997C8.16574 27.152 7.71907 27.6003 7.16722 27.6003C6.61604 27.6003 6.1687 27.152 6.1687 26.5997C6.1687 26.0473 6.61604 25.599 7.16722 25.599Z" fill="#5C6887"/>
<path d="M29.634 13.9247C29.9103 13.9247 30.1333 14.1488 30.1333 14.425C30.1333 14.7012 29.9103 14.9253 29.634 14.9253C29.3584 14.9253 29.1348 14.7012 29.1348 14.425C29.1348 14.1488 29.3584 13.9247 29.634 13.9247Z" fill="black"/>
<path d="M28.9683 1.24976C29.2445 1.24976 29.4675 1.4739 29.4675 1.75008C29.4675 2.02626 29.2445 2.25041 28.9683 2.25041C28.6926 2.25041 28.469 2.02626 28.469 1.75008C28.469 1.4739 28.6926 1.24976 28.9683 1.24976Z" fill="black"/>
<path d="M24.6414 10.2556C24.9176 10.2556 25.1406 10.4798 25.1406 10.7559C25.1406 11.0321 24.9176 11.2563 24.6414 11.2563C24.3657 11.2563 24.1421 11.0321 24.1421 10.7559C24.1421 10.4798 24.3657 10.2556 24.6414 10.2556Z" fill="black"/>
<path d="M22.3115 4.25171C22.5878 4.25171 22.8108 4.47586 22.8108 4.75204C22.8108 5.02822 22.5878 5.25236 22.3115 5.25236C22.0359 5.25236 21.8123 5.02822 21.8123 4.75204C21.8123 4.47586 22.0359 4.25171 22.3115 4.25171Z" fill="black"/>
<path d="M13.9905 1.24976C14.2667 1.24976 14.4897 1.4739 14.4897 1.75008C14.4897 2.02626 14.2667 2.25041 13.9905 2.25041C13.7149 2.25041 13.4912 2.02626 13.4912 1.75008C13.4912 1.4739 13.7149 1.24976 13.9905 1.24976Z" fill="black"/>
<path d="M2.00829 4.91882C2.28455 4.91882 2.50755 5.14297 2.50755 5.41915C2.50755 5.69533 2.28455 5.91948 2.00829 5.91948C1.7327 5.91948 1.50903 5.69533 1.50903 5.41915C1.50903 5.14297 1.7327 4.91882 2.00829 4.91882Z" fill="black"/>
<path d="M29.4676 19.9286H25.4735C24.5559 19.9286 23.8093 19.1805 23.8093 18.2609C23.8093 17.8156 23.9825 17.3969 24.2969 17.0818C24.6113 16.7667 25.0292 16.5931 25.4735 16.5931H28.4691C28.6529 16.5931 28.8019 16.7424 28.8019 16.9267C28.8019 17.1109 28.6529 17.2602 28.4691 17.2602H25.4735C25.207 17.2602 24.9563 17.3644 24.7676 17.5535C24.5789 17.7426 24.475 17.9938 24.475 18.2609C24.475 18.8126 24.9229 19.2615 25.4735 19.2615H29.4676C29.6515 19.2615 29.8004 19.4108 29.8004 19.5951C29.8004 19.7793 29.6515 19.9286 29.4676 19.9286Z" fill="black"/>
<path d="M25.4736 21.9299H24.8079C24.6241 21.9299 24.4751 21.7806 24.4751 21.5964C24.4751 21.4121 24.6241 21.2628 24.8079 21.2628H25.4736C25.6575 21.2628 25.8065 21.4121 25.8065 21.5964C25.8065 21.7806 25.6575 21.9299 25.4736 21.9299Z" fill="black"/>
<path d="M14.157 24.5984H9.04988C8.86609 24.5984 8.71704 24.4491 8.71704 24.2648C8.71704 24.0806 8.86609 23.9313 9.04988 23.9313H14.157C14.3408 23.9313 14.4898 24.0806 14.4898 24.2648C14.4898 24.4491 14.3408 24.5984 14.157 24.5984Z" fill="black"/>
<path d="M22.1452 24.5984H19.4825C19.2986 24.5984 19.1497 24.4491 19.1497 24.2648C19.1497 24.0806 19.2986 23.9313 19.4825 23.9313H22.1452C22.3291 23.9313 22.4781 24.0806 22.4781 24.2648C22.4781 24.4491 22.3291 24.5984 22.1452 24.5984Z" fill="black"/>
<path d="M2.17464 24.5983C1.99084 24.5983 1.8418 24.449 1.8418 24.2648V20.2621C1.8418 20.0779 1.99084 19.9286 2.17464 19.9286C2.35843 19.9286 2.50748 20.0779 2.50748 20.2621V24.2648C2.50748 24.449 2.35843 24.5983 2.17464 24.5983Z" fill="black"/>
<path d="M30.1333 24.5983C29.9494 24.5983 29.8004 24.449 29.8004 24.2648V21.0081L29.1698 19.7443C29.1646 19.7339 29.16 19.7231 29.1559 19.7123L27.2399 14.5918H22.1451C21.9612 14.5918 21.8123 14.4424 21.8123 14.2582C21.8123 14.074 21.9612 13.9247 22.1451 13.9247H27.4705C27.6093 13.9247 27.7334 14.0109 27.7822 14.1411L29.7731 19.4616L30.431 20.7801C30.4541 20.8264 30.4661 20.8775 30.4661 20.9293V24.2648C30.4661 24.449 30.3171 24.5983 30.1333 24.5983Z" fill="black"/>
<path d="M22.1451 24.5983C21.9612 24.5983 21.8123 24.449 21.8123 24.2648V20.2621C21.8123 20.0779 21.9612 19.9286 22.1451 19.9286C22.329 19.9286 22.4779 20.0779 22.4779 20.2621V24.2648C22.4779 24.449 22.329 24.5983 22.1451 24.5983Z" fill="black"/>
<path d="M30.466 26.5997H28.1175C27.9337 26.5997 27.7846 26.4504 27.7846 26.2661C27.7846 26.0819 27.9337 25.9326 28.1175 25.9326H30.466C30.6441 25.9326 30.8112 25.8632 30.9364 25.7372C31.0625 25.6108 31.1317 25.4435 31.1317 25.2655C31.1317 24.8976 30.833 24.5984 30.466 24.5984H27.023C26.8392 24.5984 26.6902 24.4491 26.6902 24.2648C26.6902 24.0806 26.8392 23.9313 27.023 23.9313H30.466C31.2 23.9313 31.7974 24.5298 31.7974 25.2655C31.7974 25.6217 31.659 25.9565 31.4077 26.2084C31.157 26.4606 30.8224 26.5997 30.466 26.5997Z" fill="black"/>
<path d="M4.19105 26.5997H1.84186C1.10775 26.5997 0.510498 26.0012 0.510498 25.2655C0.510498 24.9087 0.649292 24.5737 0.901319 24.3221C1.15148 24.0704 1.48579 23.9313 1.84186 23.9313H5.28476C5.46855 23.9313 5.6176 24.0806 5.6176 24.2648C5.6176 24.4491 5.46855 24.5984 5.28476 24.5984H1.84186C1.66412 24.5984 1.4973 24.6678 1.37202 24.7938C1.24541 24.9202 1.17618 25.0874 1.17618 25.2655C1.17618 25.6333 1.4748 25.9326 1.84186 25.9326H4.19038C4.37417 25.9326 4.52355 26.0819 4.52355 26.2661C4.52355 26.4504 4.37484 26.5997 4.19105 26.5997Z" fill="black"/>
<path d="M23.2581 24.5984H22.1451C21.9612 24.5984 21.8123 24.4491 21.8123 24.2648C21.8123 24.0806 21.9612 23.9313 22.1451 23.9313H23.2581C23.4419 23.9313 23.591 24.0806 23.591 24.2648C23.591 24.4491 23.4418 24.5984 23.2581 24.5984Z" fill="black"/>
<path d="M22.1646 26.5997H19.4832C19.2994 26.5997 19.1504 26.4504 19.1504 26.2662C19.1504 26.0819 19.2994 25.9326 19.4832 25.9326H22.1639C22.3478 25.9326 22.4972 26.0819 22.4972 26.2662C22.4972 26.4504 22.3484 26.5997 22.1646 26.5997Z" fill="black"/>
<path d="M14.1571 26.5997H10.1444C9.96057 26.5997 9.81152 26.4504 9.81152 26.2662C9.81152 26.0819 9.96057 25.9326 10.1444 25.9326H14.1571C14.3409 25.9326 14.4899 26.0819 14.4899 26.2662C14.4899 26.4504 14.3409 26.5997 14.1571 26.5997Z" fill="black"/>
<path d="M25.1407 27.9338C24.4066 27.9338 23.8093 27.3353 23.8093 26.5996C23.8093 25.8639 24.4066 25.2654 25.1407 25.2654C25.8747 25.2654 26.472 25.8639 26.472 26.5996C26.472 27.3353 25.8747 27.9338 25.1407 27.9338ZM25.1407 25.9325C24.7736 25.9325 24.475 26.2317 24.475 26.5996C24.475 26.9674 24.7736 27.2667 25.1407 27.2667C25.5077 27.2667 25.8064 26.9674 25.8064 26.5996C25.8064 26.2317 25.5077 25.9325 25.1407 25.9325Z" fill="black"/>
<path d="M7.16754 27.9338C6.43343 27.9338 5.83618 27.3353 5.83618 26.5996C5.83618 25.8639 6.43343 25.2654 7.16754 25.2654C7.90165 25.2654 8.49889 25.8639 8.49889 26.5996C8.49889 27.3353 7.90165 27.9338 7.16754 27.9338ZM7.16754 25.9325C6.80048 25.9325 6.50186 26.2317 6.50186 26.5996C6.50186 26.9674 6.80048 27.2667 7.16754 27.2667C7.53459 27.2667 7.83322 26.9674 7.83322 26.5996C7.83322 26.2317 7.53459 25.9325 7.16754 25.9325Z" fill="black"/>
<path d="M28.4689 29.9352H1.50887C1.32507 29.9352 1.17603 29.7859 1.17603 29.6016C1.17603 29.4174 1.32507 29.2681 1.50887 29.2681H28.4689C28.6528 29.2681 28.8018 29.4174 28.8018 29.6016C28.8018 29.7859 28.6528 29.9352 28.4689 29.9352Z" fill="black"/>
<path d="M19.4823 27.6003H14.1568C13.973 27.6003 13.824 27.451 13.824 27.2668V24.2648C13.824 24.0806 13.973 23.9313 14.1568 23.9313H19.4823C19.6661 23.9313 19.8151 24.0806 19.8151 24.2648V27.2668C19.8151 27.451 19.6661 27.6003 19.4823 27.6003ZM14.4897 26.9332H19.1494V24.5984H14.4897V26.9332Z" fill="black"/>
<path d="M7.16727 29.9352C5.33199 29.9352 3.83887 28.4389 3.83887 26.5997C3.83887 26.4725 3.84586 26.3474 3.8597 26.2278C3.95549 25.355 4.38526 24.5669 5.06991 24.01C5.07677 24.0042 5.08382 23.9986 5.09108 23.9934C5.67781 23.523 6.41425 23.2642 7.16727 23.2642C7.92702 23.2642 8.66998 23.5275 9.25924 24.0056C9.94696 24.5627 10.3788 25.3526 10.475 26.2296C10.4887 26.3472 10.4957 26.4724 10.4957 26.5997C10.4957 28.4389 9.00256 29.9352 7.16727 29.9352ZM5.4819 24.5341C4.93857 24.9793 4.59761 25.6068 4.52119 26.3026C4.51007 26.3987 4.50455 26.4981 4.50455 26.5997C4.50455 28.071 5.69905 29.2681 7.16727 29.2681C8.6355 29.2681 9.83 28.071 9.83 26.5997C9.83 26.498 9.82447 26.3987 9.81356 26.3046C9.7364 25.6017 9.39092 24.9701 8.84053 24.5243C8.36923 24.1418 7.77504 23.9313 7.16727 23.9313C6.55984 23.9313 5.96592 24.1417 5.49482 24.524C5.49062 24.5275 5.4863 24.5308 5.4819 24.5341Z" fill="black"/>
<path d="M25.1407 29.9352C23.3054 29.9352 21.8123 28.4389 21.8123 26.5997C21.8123 26.4725 21.8192 26.3474 21.8331 26.2278C21.9289 25.355 22.3587 24.5669 23.0433 24.01C23.0502 24.0042 23.0572 23.9986 23.0645 23.9934C23.6512 23.523 24.3876 23.2642 25.1407 23.2642C25.9004 23.2642 26.6434 23.5275 27.2326 24.0056C27.9203 24.5627 28.3522 25.3526 28.4484 26.2296C28.4621 26.3472 28.4691 26.4724 28.4691 26.5997C28.4691 28.4389 26.9759 29.9352 25.1407 29.9352ZM23.4553 24.5341C22.912 24.9793 22.571 25.6068 22.4946 26.3026C22.4835 26.3987 22.4779 26.4981 22.4779 26.5997C22.4779 28.071 23.6724 29.2681 25.1407 29.2681C26.6089 29.2681 27.8034 28.071 27.8034 26.5997C27.8034 26.498 27.7978 26.3987 27.7869 26.3046C27.7098 25.6017 27.3643 24.9701 26.814 24.5243C26.3426 24.1418 25.7484 23.9313 25.1407 23.9313C24.5332 23.9313 23.9393 24.1417 23.4683 24.524C23.464 24.5275 23.4597 24.5308 23.4553 24.5341Z" fill="black"/>
<path d="M22.145 22.2635H2.17464C1.99084 22.2635 1.8418 22.1142 1.8418 21.93C1.8418 21.7457 1.99084 21.5964 2.17464 21.5964H22.145C22.3289 21.5964 22.4779 21.7457 22.4779 21.93C22.4779 22.1142 22.3289 22.2635 22.145 22.2635Z" fill="black"/>
<path d="M30.1333 23.2642H27.4705C27.2867 23.2642 27.1377 23.1149 27.1377 22.9306C27.1377 22.7463 27.2867 22.597 27.4705 22.597H30.1333C30.3171 22.597 30.4661 22.7463 30.4661 22.9306C30.4661 23.1149 30.3171 23.2642 30.1333 23.2642Z" fill="black"/>
<path d="M22.145 20.5958H2.17464C1.99084 20.5958 1.8418 20.4465 1.8418 20.2622V9.1663C1.8418 7.92776 2.84724 6.92017 4.08314 6.92017H20.2372C21.4727 6.92017 22.4779 7.92776 22.4779 9.1663V20.2622C22.4779 20.4465 22.3289 20.5958 22.145 20.5958ZM2.50748 19.9287H21.8122V9.1663C21.8122 8.2956 21.1057 7.58727 20.2372 7.58727H4.08314C3.2143 7.58727 2.50748 8.2956 2.50748 9.1663V19.9287Z" fill="black"/>
<path d="M12.1598 18.9279C10.8272 18.9279 9.5736 18.4076 8.63013 17.4628C7.68673 16.5173 7.16724 15.2609 7.16724 13.9246C7.16724 12.5884 7.68673 11.332 8.63 10.3866C9.5736 9.44173 10.8272 8.92139 12.1598 8.92139C13.4929 8.92139 14.7467 9.44173 15.6902 10.3865C16.6332 11.3323 17.1524 12.5888 17.1524 13.9246C17.1524 15.2605 16.6332 16.517 15.6904 17.4626C14.7467 18.4076 13.4929 18.9279 12.1598 18.9279ZM12.1598 9.58849C11.0049 9.58849 9.91849 10.0395 9.10064 10.8585C8.28318 11.6777 7.83292 12.7666 7.83292 13.9246C7.83292 15.0827 8.28318 16.1716 9.1007 16.991C9.91849 17.8098 11.0049 18.2608 12.1598 18.2608C13.3152 18.2608 14.4018 17.8098 15.2197 16.9908C16.0367 16.1715 16.4868 15.0824 16.4868 13.9246C16.4868 12.7668 16.0367 11.6779 15.2195 10.8582C14.4018 10.0395 13.3152 9.58849 12.1598 9.58849Z" fill="black"/>
<path d="M14.1565 15.259C14.1065 15.259 14.0557 15.2477 14.0079 15.2237L12.0109 14.2231C11.8981 14.1665 11.8269 14.0511 11.8269 13.9247V12.5905C11.8269 12.4063 11.976 12.257 12.1597 12.257C12.3435 12.257 12.4926 12.4063 12.4926 12.5905V13.7186L14.3056 14.6271C14.4701 14.7094 14.5367 14.9098 14.4545 15.0745C14.3962 15.1914 14.2786 15.259 14.1565 15.259Z" fill="black"/>
<path d="M12.1597 10.9227C11.9759 10.9227 11.8269 10.7733 11.8269 10.5891V9.25494C11.8269 9.07075 11.9759 8.92139 12.1597 8.92139C12.3435 8.92139 12.4926 9.07075 12.4926 9.25494V10.5891C12.4926 10.7733 12.3435 10.9227 12.1597 10.9227Z" fill="black"/>
<path d="M12.1597 18.9279C11.9759 18.9279 11.8269 18.7786 11.8269 18.5944V17.2602C11.8269 17.0759 11.9759 16.9266 12.1597 16.9266C12.3435 16.9266 12.4926 17.0759 12.4926 17.2602V18.5944C12.4926 18.7786 12.3435 18.9279 12.1597 18.9279Z" fill="black"/>
<path d="M14.5136 11.8994C14.4283 11.8994 14.3432 11.8668 14.2782 11.8017C14.1482 11.6714 14.1482 11.4602 14.2782 11.33L15.2194 10.3867C15.3494 10.2565 15.5601 10.2565 15.6901 10.3867C15.8201 10.517 15.8201 10.7282 15.6901 10.8584L14.7489 11.8017C14.6839 11.8668 14.5988 11.8994 14.5136 11.8994Z" fill="black"/>
<path d="M8.86536 17.5605C8.78015 17.5605 8.69501 17.5279 8.62998 17.4627C8.49997 17.3325 8.49997 17.1213 8.62998 16.9911L9.57125 16.0478C9.70132 15.9175 9.91201 15.9175 10.042 16.0478C10.172 16.178 10.172 16.3892 10.042 16.5194L9.10068 17.4627C9.03571 17.5279 8.9505 17.5605 8.86536 17.5605Z" fill="black"/>
<path d="M9.80663 11.8994C9.72143 11.8994 9.63629 11.8668 9.57125 11.8017L8.62998 10.8584C8.49997 10.7281 8.49997 10.5169 8.62998 10.3867C8.75998 10.2565 8.97067 10.2565 9.10068 10.3867L10.042 11.33C10.172 11.4603 10.172 11.6715 10.042 11.8017C9.97698 11.8668 9.89184 11.8994 9.80663 11.8994Z" fill="black"/>
<path d="M15.4548 17.5605C15.3696 17.5605 15.2845 17.5279 15.2194 17.4627L14.2782 16.5194C14.1482 16.3892 14.1482 16.178 14.2782 16.0478C14.4082 15.9175 14.6189 15.9175 14.7489 16.0478L15.6901 16.9911C15.8201 17.1213 15.8201 17.3325 15.6901 17.4627C15.6252 17.5279 15.54 17.5605 15.4548 17.5605Z" fill="black"/>
<path d="M16.8197 14.2583H15.4884C15.3046 14.2583 15.1555 14.1089 15.1555 13.9247C15.1555 13.7406 15.3046 13.5912 15.4884 13.5912H16.8197C17.0036 13.5912 17.1526 13.7406 17.1526 13.9247C17.1526 14.1089 17.0036 14.2583 16.8197 14.2583Z" fill="black"/>
<path d="M8.83144 14.2583H7.50008C7.31628 14.2583 7.16724 14.1089 7.16724 13.9247C7.16724 13.7406 7.31628 13.5912 7.50008 13.5912H8.83144C9.01524 13.5912 9.16428 13.7406 9.16428 13.9247C9.16428 14.1089 9.01524 14.2583 8.83144 14.2583Z" fill="black"/>
<path d="M22.1451 10.5892H17.8182C17.6343 10.5892 17.4854 10.4399 17.4854 10.2557C17.4854 10.0715 17.6343 9.92212 17.8182 9.92212H22.1451C22.329 9.92212 22.478 10.0715 22.478 10.2557C22.478 10.4399 22.329 10.5892 22.1451 10.5892Z" fill="black"/>
<path d="M6.50156 10.5892H2.17464C1.99084 10.5892 1.8418 10.4399 1.8418 10.2557C1.8418 10.0715 1.99084 9.92212 2.17464 9.92212H6.50156C6.68536 9.92212 6.8344 10.0715 6.8344 10.2557C6.8344 10.4399 6.68536 10.5892 6.50156 10.5892Z" fill="black"/>
<path d="M27.8034 9.25495C26.8857 9.25495 26.1392 8.50679 26.1392 7.58719C26.1392 6.66759 26.8857 5.91943 27.8034 5.91943C28.721 5.91943 29.4676 6.66759 29.4676 7.58719C29.4676 8.50679 28.721 9.25495 27.8034 9.25495ZM27.8034 6.58654C27.2528 6.58654 26.8048 7.03543 26.8048 7.58719C26.8048 8.13895 27.2528 8.58785 27.8034 8.58785C28.3539 8.58785 28.8019 8.13895 28.8019 7.58719C28.8019 7.03543 28.3539 6.58654 27.8034 6.58654Z" fill="black"/>
<path d="M6.83444 4.58526C5.73328 4.58526 4.8374 3.68747 4.8374 2.58395C4.8374 1.48043 5.73328 0.582642 6.83444 0.582642C7.93561 0.582642 8.83149 1.48043 8.83149 2.58395C8.83149 3.68747 7.93561 4.58526 6.83444 4.58526ZM6.83444 1.24974C6.10033 1.24974 5.50308 1.84827 5.50308 2.58395C5.50308 3.31963 6.10033 3.91816 6.83444 3.91816C7.56856 3.91816 8.1658 3.31963 8.1658 2.58395C8.1658 1.84827 7.56856 1.24974 6.83444 1.24974Z" fill="black"/>
</svg>
