<svg width="21" height="17" viewBox="0 0 21 17" fill="none" xmlns="http://www.w3.org/2000/svg">
<path d="M10.499 16.6428C16.1281 16.6428 20.6914 13.5675 20.6914 9.77395C20.6914 5.98037 16.1281 2.90506 10.499 2.90506C4.86993 2.90506 0.306641 5.98037 0.306641 9.77395C0.306641 13.5675 4.86993 16.6428 10.499 16.6428Z" fill="#E6E6E6"/>
<path d="M1.94727 9.77393C1.94727 6.16636 6.07389 3.20864 11.3193 2.92707C11.0487 2.91255 10.7752 2.90488 10.499 2.90488C4.86992 2.90488 0.306641 5.98027 0.306641 9.77393C0.306641 13.5676 4.86992 16.643 10.499 16.643C10.7752 16.643 11.0487 16.6353 11.3193 16.6208C6.07389 16.3392 1.94727 13.3815 1.94727 9.77393Z" fill="#CCCCCC"/>
<path d="M10.4999 14.1761C12.9311 14.1761 14.9021 12.2052 14.9021 9.77394C14.9021 7.34267 12.9311 5.37173 10.4999 5.37173C8.06859 5.37173 6.09766 7.34267 6.09766 9.77394C6.09766 12.2052 8.06859 14.1761 10.4999 14.1761Z" fill="#4FC3F7"/>
<path d="M10.5 6.94965C8.94025 6.94965 7.67578 8.21411 7.67578 9.77389C7.67578 11.3337 8.94025 12.5981 10.5 12.5981C12.0598 12.5981 13.3243 11.3337 13.3243 9.77389C13.3243 8.21411 12.0598 6.94965 10.5 6.94965Z" fill="#333333"/>
<path d="M10.501 10.7222C11.0247 10.7222 11.4493 10.2977 11.4493 9.77396C11.4493 9.25024 11.0247 8.82568 10.501 8.82568C9.97729 8.82568 9.55273 9.25024 9.55273 9.77396C9.55273 10.2977 9.97729 10.7222 10.501 10.7222Z" fill="#E6E6E6"/>
<path d="M18.6147 5.21116L20.3045 3.09689C20.4105 2.9642 20.3889 2.77061 20.2562 2.66454C20.1235 2.55848 19.9299 2.58005 19.8238 2.71282L18.1274 4.83542C18.046 4.77681 17.9636 4.71869 17.879 4.66164C17.0335 4.09181 16.0695 3.63198 15.0254 3.29192L15.7527 1.20677C15.8086 1.04635 15.7239 0.870972 15.5635 0.815027C15.4031 0.759081 15.2277 0.843779 15.1718 1.00419L14.4356 3.1149C13.294 2.80088 12.0696 2.62513 10.8075 2.60056V0.356964C10.8075 0.187077 10.6698 0.0493469 10.4999 0.0493469C10.33 0.0493469 10.1923 0.187077 10.1923 0.356964V2.60056C8.93029 2.62517 7.70581 2.80088 6.56426 3.1149L5.82807 1.00419C5.77213 0.843779 5.59679 0.75904 5.43633 0.815027C5.27592 0.870972 5.19122 1.0464 5.24717 1.20677L5.97442 3.29192C4.93032 3.63198 3.96637 4.09181 3.12084 4.66164C3.03622 4.71865 2.95382 4.77681 2.87241 4.83542L1.176 2.71282C1.06997 2.58013 0.87634 2.55852 0.743654 2.66454C0.610928 2.77061 0.589312 2.9642 0.695379 3.09689L2.38514 5.21116C0.840205 6.49052 0 8.08492 0 9.77395C0 11.7143 1.10837 13.5298 3.12096 14.8862C5.09631 16.2175 7.71688 16.9507 10.5 16.9507C13.2831 16.9507 15.9037 16.2175 17.879 14.8862C19.8916 13.5298 21 11.7143 21 9.77395C21 8.08492 20.1598 6.49052 18.6147 5.21116ZM10.5 16.3354C5.04952 16.3354 0.615234 13.3919 0.615234 9.77395C0.615234 6.5616 3.77073 4.64925 6.46423 3.78476C6.46665 3.78398 6.46911 3.78374 6.47153 3.78288C6.47227 3.78263 6.47292 3.78226 6.47366 3.78201C7.70417 3.41628 9.06683 3.21251 10.5 3.21251C11.9332 3.21251 13.2958 3.41628 14.5263 3.78201C14.5271 3.78226 14.5277 3.78263 14.5285 3.78288C14.5309 3.7837 14.5333 3.78398 14.5357 3.78476C17.0465 4.5883 19.8924 6.24459 20.333 9.10039C20.3674 9.32318 20.3848 9.54852 20.3848 9.77395C20.3848 13.3919 15.9505 16.3354 10.5 16.3354Z" fill="black"/>
<path d="M10.499 5.0639C9.36915 5.0639 8.27645 5.47012 7.42226 6.20771C7.29368 6.31878 7.27945 6.51298 7.39048 6.64161C7.50151 6.77023 7.69576 6.78438 7.82438 6.6734C8.56689 6.03224 9.51677 5.67914 10.499 5.67914C12.7569 5.67914 14.5938 7.51602 14.5938 9.77389C14.5938 12.0318 12.7569 13.8687 10.499 13.8687C8.24114 13.8687 6.40426 12.0318 6.40426 9.77393C6.40426 8.97544 6.63439 8.20151 7.06977 7.53587C7.16276 7.39367 7.12289 7.20303 6.98073 7.11005C6.83853 7.01707 6.64789 7.05693 6.55491 7.19909C6.0539 7.96514 5.78906 8.85547 5.78906 9.77393C5.78906 12.371 7.90194 14.4839 10.4991 14.4839C13.0962 14.4839 15.209 12.371 15.209 9.77393C15.209 7.17682 13.0961 5.0639 10.499 5.0639Z" fill="black"/>
<path d="M13.3243 9.77393C13.3243 8.21415 12.0598 6.94968 10.5 6.94968C8.94025 6.94968 7.67578 8.21415 7.67578 9.77393C7.67578 11.3337 8.94025 12.5982 10.5 12.5982C12.0598 12.5982 13.3243 11.3337 13.3243 9.77393ZM9.55167 9.77393C9.55167 9.25016 9.97627 8.82557 10.5 8.82557C11.0238 8.82557 11.4484 9.25016 11.4484 9.77393C11.4484 10.2977 11.0238 10.7223 10.5 10.7223C9.97627 10.7223 9.55167 10.2977 9.55167 9.77393Z" fill="#424242"/>
<path d="M10.501 12.9058C8.77405 12.9058 7.36914 11.5009 7.36914 9.77399C7.36914 8.04707 8.77409 6.64212 10.501 6.64212C12.2279 6.64212 13.6328 8.04707 13.6328 9.77399C13.6328 11.5009 12.2279 12.9058 10.501 12.9058ZM10.501 7.25727C9.11329 7.25727 7.98438 8.38623 7.98438 9.77391C7.98438 11.1616 9.11329 12.2905 10.501 12.2905C11.8887 12.2905 13.0176 11.1616 13.0176 9.77391C13.0176 8.38623 11.8887 7.25727 10.501 7.25727ZM10.501 11.0299C9.80842 11.0299 9.24499 10.4665 9.24499 9.77399C9.24499 9.0814 9.80842 8.51797 10.501 8.51797C11.1935 8.51797 11.757 9.0814 11.757 9.77399C11.757 10.4665 11.1935 11.0299 10.501 11.0299ZM10.501 9.1332C10.1477 9.1332 9.86022 9.42068 9.86022 9.77399C9.86022 10.1273 10.1477 10.4147 10.501 10.4147C10.8543 10.4147 11.1417 10.1273 11.1417 9.77399C11.1417 9.42064 10.8543 9.1332 10.501 9.1332Z" fill="black"/>
</svg>
