<svg width="21" height="19" viewBox="0 0 21 19" fill="none" xmlns="http://www.w3.org/2000/svg">
<path d="M10.1924 15.8329C15.8215 15.8329 20.3848 12.7576 20.3848 8.96401C20.3848 5.17043 15.8215 2.09512 10.1924 2.09512C4.56328 2.09512 0 5.17043 0 8.96401C0 12.7576 4.56328 15.8329 10.1924 15.8329Z" fill="#E6E6E6"/>
<path d="M18.6147 13.8346L20.3045 15.9489C20.4105 16.0816 20.3889 16.2752 20.2562 16.3812C20.1235 16.4873 19.9299 16.4657 19.8238 16.333L18.1274 14.2104C18.046 14.269 17.9636 14.3271 17.879 14.3841C17.0335 14.954 16.0695 15.4138 15.0254 15.7539L15.7527 17.839C15.8086 17.9994 15.7239 18.1748 15.5635 18.2307C15.4031 18.2867 15.2277 18.202 15.1718 18.0416L14.4356 15.9309C13.294 16.2449 12.0696 16.4206 10.8075 16.4452V18.6888C10.8075 18.8587 10.6698 18.9964 10.4999 18.9964C10.33 18.9964 10.1923 18.8587 10.1923 18.6888V16.4452C8.93029 16.4206 7.70581 16.2449 6.56426 15.9309L5.82807 18.0416C5.77213 18.202 5.59679 18.2867 5.43633 18.2307C5.27592 18.1748 5.19122 17.9994 5.24717 17.839L5.97442 15.7539C4.93032 15.4138 3.96637 14.954 3.12084 14.3841C3.03622 14.3271 2.95382 14.269 2.87241 14.2104L1.176 16.333C1.06997 16.4656 0.87634 16.4873 0.743654 16.3812C0.610928 16.2752 0.589312 16.0816 0.695379 15.9489L2.38514 13.8346C0.840205 12.5553 0 10.9609 0 9.27183C0 7.3315 1.10837 5.51595 3.12096 4.15956C5.09631 2.82828 7.71688 2.09512 10.5 2.09512C13.2831 2.09512 15.9037 2.82828 17.879 4.15956C19.8916 5.51595 21 7.3315 21 9.27183C21 10.9609 20.1598 12.5553 18.6147 13.8346ZM10.5 2.7104C5.04952 2.7104 0.615234 5.65384 0.615234 9.27183C0.615234 12.4842 3.77073 14.3965 6.46423 15.261C6.46665 15.2618 6.46911 15.262 6.47153 15.2629C6.47227 15.2631 6.47292 15.2635 6.47366 15.2638C7.70417 15.6295 9.06683 15.8333 10.5 15.8333C11.9332 15.8333 13.2958 15.6295 14.5263 15.2638C14.5271 15.2635 14.5277 15.2631 14.5285 15.2629C14.5309 15.2621 14.5333 15.2618 14.5357 15.261C17.0465 14.4575 19.8924 12.8012 20.333 9.94539C20.3674 9.72259 20.3848 9.49725 20.3848 9.27183C20.3848 5.65384 15.9505 2.7104 10.5 2.7104Z" fill="black"/>
</svg>
