<svg width="40" height="40" viewBox="0 0 40 40" fill="none" xmlns="http://www.w3.org/2000/svg">
<g clip-path="url(#clip0)">
<path d="M35.7579 16.8471L26.3854 15.4852L22.1939 6.99225C21.7788 6.151 20.9381 5.62842 20 5.62842C19.0618 5.62842 18.2211 6.151 17.806 6.99225L13.6145 15.4852L4.24203 16.8471C3.31367 16.982 2.55687 17.6201 2.26703 18.5122C1.9771 19.4044 2.21437 20.3655 2.88617 21.0202L9.66813 27.631L8.06712 36.9657C7.94298 37.6896 8.13251 38.3942 8.60071 38.9497C9.33681 39.8229 10.6077 40.0754 11.617 39.5448L20 35.1375C20 35.1375 28.3796 39.543 28.3829 39.5448C29.3978 40.0783 30.6594 39.8273 31.399 38.95C31.8675 38.3945 32.0571 37.6897 31.9329 36.9657L30.3319 27.631L37.1139 21.0202C37.7857 20.3655 38.0229 19.4044 37.733 18.5122C37.4431 17.62 36.6863 16.982 35.7579 16.8471ZM36.2958 20.1811L29.2933 27.0069C29.1552 27.1415 29.0922 27.3355 29.1248 27.5255L30.7779 37.1637C30.8428 37.5415 30.7452 37.9076 30.5033 38.1946C30.1136 38.6568 29.4626 38.7885 28.9283 38.5075C28.9283 38.5075 20.2735 33.9574 20.2728 33.957C20.1035 33.868 19.8967 33.8681 19.7275 33.957C19.7275 33.957 11.0762 38.5052 11.0718 38.5075C10.5644 38.7743 9.89485 38.6665 9.49688 38.1945C9.25501 37.9075 9.15743 37.5415 9.2222 37.1638L10.8753 27.5256C10.9079 27.3355 10.8449 27.1416 10.7068 27.007L3.70414 20.1811C3.34883 19.8348 3.22828 19.3463 3.38156 18.8743C3.53492 18.4024 3.91961 18.0781 4.41062 18.0067L14.088 16.6005C14.2788 16.5727 14.4438 16.4529 14.5292 16.2799L18.8569 7.51092C19.0765 7.066 19.5039 6.8003 20 6.8003C20.4962 6.8003 20.9235 7.06592 21.1432 7.51092L25.471 16.2801C25.5563 16.453 25.7213 16.5729 25.9121 16.6006L35.5895 18.0069C36.0805 18.0783 36.4652 18.4026 36.6186 18.8745C36.7718 19.3463 36.6512 19.8348 36.2958 20.1811Z" fill="black"/>
</g>
<defs>
<clipPath id="clip0">
<rect width="40" height="40" fill="white"/>
</clipPath>
</defs>
</svg>
