<svg width="40" height="40" viewBox="0 0 40 40" fill="none" xmlns="http://www.w3.org/2000/svg">

<path d="M35.6737 17.427L25.9964 16.0209L21.6686 7.25171C20.9861 5.86873 19.014 5.86873 18.3314 7.25171L14.0036 16.0208L4.32642 17.427C2.80025 17.6488 2.19087 19.5242 3.29517 20.6007L10.2977 27.4265L8.64456 37.0647C8.38385 38.5847 9.97925 39.7439 11.3443 39.0262L20 34.4757L28.6556 39.0262C30.0207 39.7439 31.6161 38.5847 31.3554 37.0647L29.7023 27.4265L36.7048 20.6007C37.8092 19.5243 37.1998 17.6488 35.6737 17.427Z" fill="#FFCA28"/>
<path d="M20 6.21448C19.3364 6.21448 18.6728 6.56018 18.3315 7.25167L14.0037 16.0208L4.32642 17.427C2.80025 17.6488 2.19087 19.5243 3.29517 20.6008L10.2977 27.4265L8.64456 37.0648C8.38385 38.5848 9.97925 39.7439 11.3443 39.0263L20 34.4757C10.1483 23.3283 20 6.21448 20 6.21448Z" fill="#E6B624"/>
<path d="M35.7579 16.8471L26.3854 15.4852L22.1939 6.99225C21.7788 6.151 20.9381 5.62842 20 5.62842C19.0618 5.62842 18.2211 6.151 17.806 6.99225L13.6145 15.4852L4.24203 16.8471C3.31367 16.982 2.55687 17.6201 2.26703 18.5122C1.9771 19.4044 2.21437 20.3655 2.88617 21.0202L9.66813 27.631L8.06712 36.9657C7.94298 37.6896 8.13251 38.3942 8.60071 38.9497C9.33681 39.8229 10.6077 40.0754 11.617 39.5448L20 35.1375C20 35.1375 28.3796 39.543 28.3829 39.5448C29.3978 40.0783 30.6594 39.8273 31.399 38.95C31.8675 38.3945 32.0571 37.6897 31.9329 36.9657L30.3319 27.631L37.1139 21.0202C37.7857 20.3655 38.0229 19.4044 37.733 18.5122C37.4431 17.62 36.6863 16.982 35.7579 16.8471ZM36.2958 20.1811L29.2933 27.0069C29.1552 27.1415 29.0922 27.3355 29.1248 27.5255L30.7779 37.1637C30.8428 37.5415 30.7452 37.9076 30.5033 38.1946C30.1136 38.6568 29.4626 38.7885 28.9283 38.5075C28.9283 38.5075 20.2735 33.9574 20.2728 33.957C20.1035 33.868 19.8967 33.8681 19.7275 33.957C19.7275 33.957 11.0762 38.5052 11.0718 38.5075C10.5644 38.7743 9.89485 38.6665 9.49688 38.1945C9.25501 37.9075 9.15743 37.5415 9.2222 37.1638L10.8753 27.5256C10.9079 27.3355 10.8449 27.1416 10.7068 27.007L3.70414 20.1811C3.34883 19.8348 3.22828 19.3463 3.38156 18.8743C3.53492 18.4024 3.91961 18.0781 4.41062 18.0067L14.088 16.6005C14.2788 16.5727 14.4438 16.4529 14.5292 16.2799L18.8569 7.51092C19.0765 7.066 19.5039 6.8003 20 6.8003C20.4962 6.8003 20.9235 7.06592 21.1432 7.51092L25.471 16.2801C25.5563 16.453 25.7213 16.5729 25.9121 16.6006L35.5895 18.0069C36.0805 18.0783 36.4652 18.4026 36.6186 18.8745C36.7718 19.3463 36.6512 19.8348 36.2958 20.1811Z" fill="black"/>
<path d="M8.31 11.8948C8.53234 11.8926 8.74836 11.7643 8.84437 11.5518C8.97758 11.2568 8.8464 10.9098 8.55148 10.7766L0.827169 7.28824C0.532246 7.15512 0.185214 7.28621 0.052011 7.58114C-0.0811924 7.87606 0.0499798 8.22309 0.344902 8.35629C0.344902 8.35629 8.06921 11.8447 8.0696 11.8449C8.14687 11.8797 8.22882 11.8956 8.31 11.8948Z" fill="black"/>
<path d="M11.71 0.283875C11.4456 0.470517 11.3826 0.836064 11.5692 1.10052C11.5692 1.10052 14.5547 5.32998 14.5592 5.33646C14.7355 5.58615 15.1081 5.66623 15.3759 5.47725C15.6402 5.29061 15.7033 4.92506 15.5166 4.6606L12.5266 0.424657C12.3399 0.160281 11.9743 0.0973907 11.71 0.283875Z" fill="black"/>
<path d="M39.1729 7.28828L31.4486 10.7767C31.1537 10.9099 31.0226 11.257 31.1557 11.5519C31.2868 11.8422 31.641 11.9756 31.9309 11.8448L39.6551 8.35633C39.95 8.22312 40.0811 7.87609 39.948 7.58117C39.8148 7.28625 39.4677 7.15507 39.1729 7.28828Z" fill="black"/>
<path d="M27.4735 0.424621L24.4835 4.66057C24.2968 4.92494 24.3599 5.29057 24.6242 5.47713C24.8735 5.65307 25.2502 5.60651 25.4409 5.33635L28.4309 1.1004C28.6175 0.836028 28.5545 0.470402 28.2901 0.283761C28.0257 0.0971984 27.66 0.160245 27.4735 0.424621Z" fill="black"/>

<clipPath id="clip0">
<rect width="40" height="40" fill="white"/>
</clipPath>

</svg>
