<svg width="25" height="25" viewBox="0 0 25 25" fill="none" xmlns="http://www.w3.org/2000/svg">
<path d="M12.5042 0.520676C6.19687 0.520676 4.99062 0.356092 3.41354 1.14255C1.96146 1.86547 0.91875 3.23318 0.654166 5.06547C0.572916 5.62484 0.55 5.73943 0.544791 8.60192C0.523958 19.1863 0.384375 19.9769 1.14479 21.554C1.77708 22.8696 2.98542 23.8582 4.40937 24.2269C5.54792 24.5207 6.30521 24.479 12.4792 24.479C17.6542 24.479 19.2635 24.5717 20.6062 24.2248C22.0385 23.854 23.225 22.8811 23.8708 21.5467C24.6375 19.9613 24.4573 18.8405 24.4573 12.4925C24.4573 6.41338 24.6625 5.06026 23.8583 3.42068C23.5833 2.8613 23.2781 2.44255 22.8354 2.01547C21.0354 0.29255 18.8917 0.525884 16.3969 0.520676H12.5042Z" fill="url(#paint0_linear)"/>
<path d="M12.5 18.2678C9.3198 18.2678 6.7323 15.6803 6.7323 12.5001C6.7323 9.31992 9.3198 6.73242 12.5 6.73242C15.6802 6.73242 18.2677 9.31992 18.2677 12.5001C18.2677 15.6803 15.6802 18.2678 12.5 18.2678Z" fill="white"/>
<path d="M19.124 6.78555C18.6229 6.78555 18.2146 6.37825 18.2146 5.87617C18.2146 5.37409 18.6219 4.9668 19.124 4.9668C19.6261 4.9668 20.0333 5.37409 20.0333 5.87617C20.0333 6.37825 19.625 6.78555 19.124 6.78555Z" fill="white"/>
<path d="M4.94792 25H20.0521C22.7802 25 25 22.7802 25 20.0521V4.94792C25 2.21979 22.7802 0 20.0521 0H4.94792C2.21979 0 0 2.21979 0 4.94792V20.0521C0 22.7802 2.21979 25 4.94792 25ZM1.5625 4.94792C1.5625 3.08125 3.08125 1.5625 4.94792 1.5625H20.0521C21.9187 1.5625 23.4375 3.08125 23.4375 4.94792V20.0521C23.4375 21.9187 21.9187 23.4375 20.0521 23.4375H4.94792C3.08125 23.4375 1.5625 21.9187 1.5625 20.0521V4.94792Z" fill="black"/>
<path d="M12.4999 18.8856C16.0208 18.8856 18.8853 16.021 18.8853 12.5002C18.8853 8.97933 16.0208 6.11475 12.4999 6.11475C8.97909 6.11475 6.1145 8.97933 6.1145 12.5002C6.1145 16.021 8.97909 18.8856 12.4999 18.8856ZM12.4999 7.67725C15.1593 7.67725 17.3228 9.84079 17.3228 12.5002C17.3228 15.1595 15.1593 17.3231 12.4999 17.3231C9.84054 17.3231 7.677 15.1595 7.677 12.5002C7.677 9.84079 9.84054 7.67725 12.4999 7.67725Z" fill="black"/>
<path d="M19.1229 7.66891C20.15 7.66891 20.9239 6.89808 20.9239 5.8762C20.9239 4.81058 20.1093 4.0835 19.1239 4.0835C18.0968 4.0835 17.3229 4.85433 17.3229 5.8762C17.3229 6.93974 18.1333 7.66891 19.1229 7.66891ZM19.3072 5.70433C19.6364 5.99495 18.8854 6.34808 18.8854 5.87725C18.8854 5.596 19.2677 5.66891 19.3072 5.70433Z" fill="black"/>
<defs>
<linearGradient id="paint0_linear" x1="2.09188" y1="22.9082" x2="24.3067" y2="3.67909" gradientUnits="userSpaceOnUse">
<stop stop-color="#FFDD55"/>
<stop offset="0.5" stop-color="#FF543E"/>
<stop offset="1" stop-color="#C837AB"/>
</linearGradient>
</defs>
</svg>
