<svg width="220" height="36" viewBox="0 0 220 36" fill="none" xmlns="http://www.w3.org/2000/svg">
<g opacity="0.95">
<path d="M105.985 29.9968C105.461 29.9968 104.907 29.8806 104.529 29.5902C104.296 29.387 103.975 28.9804 103.975 28.3126V14.4614H106.917V26.8316C106.917 27.0058 106.888 27.2962 107.121 27.4995C107.208 27.5576 107.383 27.6737 107.849 27.6737H116.412V29.9968H105.985Z" fill="#222222"/>
<path d="M121.188 16.0255C121.741 14.7188 122.353 14.2832 123.751 14.2832C125.091 14.2832 125.761 14.7188 126.314 16.0255L132.197 29.9928H129.11L127.508 26.0726H119.994L118.421 29.9928H115.334L121.188 16.0255ZM120.751 23.9819H126.751L124.217 17.6516C124.13 17.4193 123.984 17.0128 123.78 17.0128C123.576 17.0128 123.431 17.4483 123.343 17.6516L120.751 23.9819Z" fill="#222222"/>
<path d="M142.681 14.4614C143.525 14.4614 144.69 14.5485 145.506 15.3906C146.38 16.2908 146.496 17.7137 146.496 18.73C146.496 19.5721 146.438 20.4433 145.768 21.2563C145.331 21.779 144.865 22.0113 144.312 22.0694V22.1565C145.04 22.2146 145.652 22.563 146.03 22.9696C146.758 23.7826 146.758 24.8861 146.758 25.7572C146.758 26.7735 146.758 28.0222 145.855 29.0095C144.953 29.9968 143.962 29.9968 143.001 29.9968H135.545C134.759 29.9968 134.06 30.0839 133.419 29.387C133.274 29.2127 132.895 28.6901 132.895 27.8189V16.6974C132.895 16.1166 133.041 15.5068 133.39 15.1003C133.856 14.5485 134.555 14.4614 135.05 14.4614H142.681ZM135.807 20.9659H141.516C142.098 20.9659 142.71 20.9659 143.118 20.4142C143.234 20.269 143.438 19.8915 143.438 18.8462C143.438 18.4106 143.409 17.6556 142.914 17.191C142.477 16.7845 141.953 16.7845 141.458 16.7845H136.652C136.419 16.7845 136.157 16.7554 135.982 16.9587C135.807 17.162 135.778 17.4814 135.778 17.6556L135.807 20.9659ZM135.807 26.5122C135.807 27.0349 135.866 27.2962 135.982 27.4124C136.215 27.6737 136.71 27.6447 136.943 27.6447H141.574C142.04 27.6447 142.856 27.6156 143.292 27.093C143.613 26.6864 143.7 26.0186 143.7 25.5249C143.7 25.0893 143.642 24.3634 143.38 23.9569C143.205 23.7246 142.768 23.318 141.807 23.318H135.836L135.807 26.5122Z" fill="#222222"/>
<path d="M148.476 27.6737H157.126C158.524 27.6737 158.582 26.5122 158.582 25.9895C158.582 25.3797 158.436 24.6538 157.067 24.2472L150.922 22.3017C150.689 22.2436 149.699 21.8952 149.087 21.1402C148.388 20.2981 148.272 19.0785 148.272 18.2073C148.272 17.2781 148.388 16.1456 149.262 15.3326C150.077 14.5776 151.068 14.4614 151.825 14.4614H160.795V16.7845H152.844C152.437 16.7845 151.971 16.8135 151.621 17.1329C151.242 17.4814 151.213 18.0331 151.213 18.3235C151.213 19.0204 151.417 19.6883 152.67 20.0658L158.378 21.8661C159.426 22.1855 160.125 22.534 160.591 22.9696C161.523 23.8697 161.611 25.2345 161.611 25.9605C161.611 26.9478 161.465 28.0222 160.824 28.8352C160.038 29.8225 159.077 29.9387 158.028 29.9387H148.476V27.6737Z" fill="#222222"/>
<path d="M167.495 16.0245C168.049 14.7178 168.66 14.2822 170.058 14.2822C171.398 14.2822 172.068 14.7178 172.621 16.0245L178.504 29.9918H175.417L173.815 26.0717H166.301L164.728 29.9918H161.641L167.495 16.0245ZM167.058 23.9809H173.058L170.524 17.6506C170.437 17.4183 170.291 17.0118 170.087 17.0118C169.883 17.0118 169.738 17.4474 169.65 17.6506L167.058 23.9809Z" fill="#222222"/>
<path d="M181.184 29.9968C180.659 29.9968 180.106 29.8806 179.727 29.5902C179.494 29.387 179.174 28.9804 179.174 28.3126V14.4614H182.116V26.8316C182.116 27.0058 182.086 27.2962 182.319 27.4995C182.407 27.5576 182.582 27.6737 183.047 27.6737H191.61V29.9968H181.184Z" fill="#222222"/>
<path d="M194.872 29.9965C194.202 29.9965 193.59 29.9965 193.095 29.5029C192.571 28.9802 192.513 28.2833 192.513 27.6735V16.6681C192.513 16.0583 192.717 15.4194 193.037 15.0419C193.561 14.4902 194.318 14.4321 194.901 14.4321H204.891V16.7552H196.474C196.211 16.7552 195.891 16.7842 195.658 16.9875C195.425 17.2198 195.425 17.5102 195.425 17.7425V20.8786H204.687V23.2016H195.454V26.8314C195.454 27.0637 195.542 27.325 195.687 27.4412C195.862 27.6154 196.211 27.6444 196.677 27.6444H205.007V29.9675H194.872V29.9965Z" fill="#222222"/>
<path d="M206.552 27.6737H215.173C216.571 27.6737 216.629 26.5122 216.629 25.9895C216.629 25.3797 216.483 24.6538 215.114 24.2472L208.969 22.3017C208.736 22.2436 207.746 21.8952 207.134 21.1402C206.435 20.2981 206.319 19.0785 206.319 18.2073C206.319 17.2781 206.435 16.1456 207.309 15.3326C208.125 14.5776 209.115 14.4614 209.872 14.4614H218.842V16.7845H210.862C210.455 16.7845 209.989 16.8135 209.639 17.1329C209.26 17.4814 209.231 18.0331 209.231 18.3235C209.231 19.0204 209.435 19.6883 210.688 20.0658L216.396 21.8661C217.444 22.1855 218.143 22.534 218.609 22.9696C219.541 23.8697 219.629 25.2345 219.629 25.9605C219.629 26.9478 219.483 28.0222 218.842 28.8352C218.056 29.8225 217.095 29.9387 216.046 29.9387H206.464V27.6737H206.552Z" fill="#222222"/>
<path d="M97.9176 13.4736L92.7917 1.16152C92.6169 0.754988 92.4713 0.464608 92.2966 0.319418C92.0927 0.116152 91.8014 0 91.452 0C91.1025 0 90.8112 0.116152 90.6073 0.319418C90.4326 0.464608 90.287 0.754988 90.1122 1.16152L84.9863 13.5027V27.7313C84.9863 28.4863 85.132 29.009 85.4523 29.3574C85.7727 29.7059 86.2387 29.8511 86.8503 29.8511H96.0827C96.6944 29.8511 97.1603 29.6768 97.4807 29.3574C97.8011 29.009 97.9467 28.4863 97.9467 27.7313L97.9176 13.4736ZM96.6652 13.4736V15.6805C96.4614 15.5644 96.2284 15.4773 95.9662 15.4482C95.5294 15.3901 95.1216 15.5063 94.8013 15.7386L92.4131 13.2413C92.5004 13.0671 92.5587 12.8929 92.5878 12.7186C92.7043 11.7894 92.0636 10.9473 91.1316 10.8312C90.1996 10.715 89.355 11.3539 89.2385 12.2831C89.1802 12.8348 89.3841 13.3575 89.7627 13.735L88.6851 15.9709C88.6269 15.9709 88.5686 15.9419 88.5104 15.9419C88.2483 15.9128 87.957 15.9419 87.724 16.029L86.3552 13.2123L91.0442 1.39382C91.1607 1.10344 91.3063 0.958254 91.452 0.958254C91.5976 0.958254 91.7141 1.10344 91.8597 1.39382L96.6652 13.4736Z" fill="#222222"/>
<path d="M96.6654 18.5277V27.8198C96.6654 28.1683 96.6071 28.4006 96.4906 28.5168C96.3741 28.6329 96.1411 28.691 95.8208 28.691H87.0834C86.763 28.691 86.53 28.6329 86.4135 28.5168C86.297 28.4006 86.2388 28.1683 86.2388 27.8198V14.927L86.996 16.495C86.7921 16.7273 86.6756 17.0177 86.6174 17.3662C86.5009 18.2954 87.1416 19.1375 88.0736 19.2536C89.0056 19.3698 89.8502 18.731 89.9667 17.8017C90.025 17.25 89.8211 16.7273 89.4716 16.3789L90.5492 14.1429C90.6075 14.1429 90.6657 14.172 90.724 14.172C91.1317 14.2301 91.5395 14.1139 91.8598 13.9106L94.2772 16.4079C94.1898 16.5531 94.1607 16.7273 94.1315 16.9016C94.015 17.8308 94.6558 18.6729 95.5878 18.789C95.9664 18.8181 96.345 18.731 96.6654 18.5277Z" fill="#EA524E"/>
</g>
<path opacity="0.95" d="M5.404 30.112C4.47067 30.112 3.66333 29.9113 2.982 29.51C2.30067 29.0993 1.77333 28.516 1.4 27.76C1.036 26.9947 0.854 26.094 0.854 25.058C0.854 24.0313 1.036 23.14 1.4 22.384C1.77333 21.6187 2.30067 21.0353 2.982 20.634C3.66333 20.2233 4.47067 20.018 5.404 20.018C6.02933 20.018 6.61733 20.1207 7.168 20.326C7.728 20.522 8.21333 20.8067 8.624 21.18C8.77333 21.32 8.848 21.4833 8.848 21.67C8.848 21.8007 8.81067 21.9173 8.736 22.02C8.66133 22.1133 8.57267 22.16 8.47 22.16C8.358 22.16 8.22267 22.1087 8.064 22.006C7.588 21.6327 7.154 21.3713 6.762 21.222C6.37933 21.0727 5.936 20.998 5.432 20.998C4.34933 20.998 3.514 21.3527 2.926 22.062C2.34733 22.762 2.058 23.7607 2.058 25.058C2.058 26.3647 2.34733 27.3727 2.926 28.082C3.514 28.782 4.34933 29.132 5.432 29.132C5.92667 29.132 6.37 29.0573 6.762 28.908C7.154 28.7587 7.588 28.4973 8.064 28.124C8.22267 28.0213 8.358 27.97 8.47 27.97C8.57267 27.97 8.66133 28.0167 8.736 28.11C8.81067 28.2033 8.848 28.32 8.848 28.46C8.848 28.6467 8.77333 28.81 8.624 28.95C8.21333 29.3233 7.728 29.6127 7.168 29.818C6.61733 30.014 6.02933 30.112 5.404 30.112ZM10.1466 31.848C9.98794 31.848 9.85728 31.7967 9.75461 31.694C9.66128 31.6007 9.61461 31.47 9.61461 31.302V29.692C9.61461 29.5147 9.66128 29.3747 9.75461 29.272C9.84794 29.16 9.96928 29.104 10.1186 29.104H10.3706C10.7066 28.6187 10.9446 28.04 11.0846 27.368C11.2246 26.696 11.2946 25.8187 11.2946 24.736V23.77C11.2946 23.5927 11.3459 23.4527 11.4486 23.35C11.5513 23.238 11.6913 23.182 11.8686 23.182H15.3826C15.5599 23.182 15.6999 23.2333 15.8026 23.336C15.9146 23.4387 15.9706 23.5787 15.9706 23.756V29.104H16.4466C16.6239 29.104 16.7639 29.1553 16.8666 29.258C16.9786 29.3607 17.0346 29.5007 17.0346 29.678V31.302C17.0346 31.47 16.9879 31.6007 16.8946 31.694C16.8013 31.7967 16.6706 31.848 16.5026 31.848C16.3439 31.848 16.2133 31.7967 16.1106 31.694C16.0173 31.6007 15.9706 31.47 15.9706 31.302V30H10.6786V31.302C10.6786 31.47 10.6273 31.6007 10.5246 31.694C10.4313 31.7967 10.3053 31.848 10.1466 31.848ZM14.8506 24.078H12.3166V24.736C12.3166 26.7893 12.0179 28.2453 11.4206 29.104H14.8506V24.078ZM23.5409 28.418C23.6436 28.418 23.7322 28.46 23.8069 28.544C23.8816 28.628 23.9189 28.7353 23.9189 28.866C23.9189 29.0993 23.7556 29.314 23.4289 29.51C23.0929 29.706 22.7382 29.8553 22.3649 29.958C21.9916 30.0513 21.6276 30.098 21.2729 30.098C20.2182 30.098 19.3829 29.7853 18.7669 29.16C18.1602 28.5347 17.8569 27.6713 17.8569 26.57C17.8569 25.87 17.9922 25.254 18.2629 24.722C18.5336 24.1807 18.9116 23.7607 19.3969 23.462C19.8916 23.1633 20.4516 23.014 21.0769 23.014C21.9636 23.014 22.6682 23.3033 23.1909 23.882C23.7136 24.4607 23.9749 25.2447 23.9749 26.234C23.9749 26.4207 23.9376 26.556 23.8629 26.64C23.7882 26.724 23.6669 26.766 23.4989 26.766H18.9909C19.0749 28.3713 19.8356 29.174 21.2729 29.174C21.6369 29.174 21.9496 29.1273 22.2109 29.034C22.4722 28.9313 22.7522 28.796 23.0509 28.628C23.2936 28.488 23.4569 28.418 23.5409 28.418ZM21.0909 23.896C20.4936 23.896 20.0129 24.0827 19.6489 24.456C19.2942 24.8293 19.0842 25.3567 19.0189 26.038H22.9809C22.9622 25.3473 22.7896 24.82 22.4629 24.456C22.1362 24.0827 21.6789 23.896 21.0909 23.896ZM27.5217 24.89C27.5217 26.3553 27.3677 27.4847 27.0597 28.278C26.761 29.0713 26.2664 29.6593 25.5757 30.042C25.5104 30.07 25.431 30.084 25.3377 30.084C25.1977 30.084 25.081 30.042 24.9877 29.958C24.9037 29.874 24.8617 29.7667 24.8617 29.636C24.8617 29.5427 24.885 29.454 24.9317 29.37C24.9784 29.286 25.0484 29.2207 25.1417 29.174C25.4777 28.978 25.739 28.7167 25.9257 28.39C26.1217 28.0633 26.257 27.6293 26.3317 27.088C26.4157 26.5373 26.4577 25.8093 26.4577 24.904V23.77C26.4577 23.5833 26.509 23.4387 26.6117 23.336C26.7144 23.2333 26.8544 23.182 27.0317 23.182H30.7417C30.919 23.182 31.059 23.2333 31.1617 23.336C31.2737 23.4387 31.3297 23.5787 31.3297 23.756V29.524C31.3297 29.6827 31.2737 29.8133 31.1617 29.916C31.059 30.0187 30.9237 30.07 30.7557 30.07C30.5877 30.07 30.4524 30.0187 30.3497 29.916C30.247 29.8133 30.1957 29.6827 30.1957 29.524V24.078H27.5217V24.89ZM36.1837 23.014C37.8917 23.014 38.7457 23.91 38.7457 25.702V29.51C38.7457 29.678 38.6943 29.8133 38.5917 29.916C38.4983 30.0187 38.3677 30.07 38.1997 30.07C38.0317 30.07 37.8963 30.0187 37.7937 29.916C37.691 29.8133 37.6397 29.678 37.6397 29.51V28.838C37.4623 29.2393 37.1917 29.552 36.8277 29.776C36.4637 29.9907 36.0437 30.098 35.5677 30.098C35.129 30.098 34.723 30.0093 34.3497 29.832C33.9857 29.6547 33.6963 29.4073 33.4817 29.09C33.267 28.7727 33.1597 28.4227 33.1597 28.04C33.1597 27.5267 33.2903 27.13 33.5517 26.85C33.813 26.5607 34.2423 26.3553 34.8397 26.234C35.437 26.1033 36.2677 26.038 37.3317 26.038H37.6397V25.576C37.6397 25.016 37.523 24.6053 37.2897 24.344C37.0657 24.0827 36.697 23.952 36.1837 23.952C35.549 23.952 34.905 24.1247 34.2517 24.47C33.9997 24.6287 33.8223 24.708 33.7197 24.708C33.6077 24.708 33.5143 24.666 33.4397 24.582C33.365 24.498 33.3277 24.3907 33.3277 24.26C33.3277 24.1293 33.365 24.0173 33.4397 23.924C33.5237 23.8213 33.6543 23.7187 33.8317 23.616C34.1583 23.4293 34.527 23.2847 34.9377 23.182C35.3577 23.07 35.773 23.014 36.1837 23.014ZM35.7217 29.202C36.2817 29.202 36.739 29.0153 37.0937 28.642C37.4577 28.2593 37.6397 27.7693 37.6397 27.172V26.766H37.3877C36.5663 26.766 35.941 26.8033 35.5117 26.878C35.0823 26.9433 34.7743 27.06 34.5877 27.228C34.4103 27.3867 34.3217 27.6247 34.3217 27.942C34.3217 28.306 34.4523 28.6093 34.7137 28.852C34.9843 29.0853 35.3203 29.202 35.7217 29.202ZM41.3675 30.07C41.1902 30.07 41.0502 30.0233 40.9475 29.93C40.8448 29.8273 40.7935 29.692 40.7935 29.524V23.602C40.7935 23.434 40.8448 23.2987 40.9475 23.196C41.0502 23.0933 41.1902 23.042 41.3675 23.042C41.5355 23.042 41.6708 23.0933 41.7735 23.196C41.8762 23.2987 41.9275 23.434 41.9275 23.602V26.038H45.5955V23.602C45.5955 23.434 45.6468 23.2987 45.7495 23.196C45.8615 23.0933 46.0015 23.042 46.1695 23.042C46.3375 23.042 46.4728 23.0933 46.5755 23.196C46.6782 23.2987 46.7295 23.434 46.7295 23.602L46.7435 29.496C46.7435 29.6733 46.6922 29.8133 46.5895 29.916C46.4868 30.0187 46.3468 30.07 46.1695 30.07C46.0015 30.07 45.8615 30.0187 45.7495 29.916C45.6468 29.8133 45.5955 29.6733 45.5955 29.496V26.948H41.9275V29.524C41.9275 29.692 41.8762 29.8273 41.7735 29.93C41.6708 30.0233 41.5355 30.07 41.3675 30.07ZM51.6475 30.098C51.0035 30.098 50.4342 29.9533 49.9395 29.664C49.4542 29.3747 49.0762 28.964 48.8055 28.432C48.5442 27.8907 48.4135 27.2653 48.4135 26.556C48.4135 25.8467 48.5442 25.226 48.8055 24.694C49.0762 24.1527 49.4542 23.7373 49.9395 23.448C50.4342 23.1587 51.0035 23.014 51.6475 23.014C52.2915 23.014 52.8609 23.1587 53.3555 23.448C53.8502 23.7373 54.2282 24.1527 54.4895 24.694C54.7602 25.226 54.8955 25.8467 54.8955 26.556C54.8955 27.2653 54.7602 27.8907 54.4895 28.432C54.2282 28.964 53.8502 29.3747 53.3555 29.664C52.8609 29.9533 52.2915 30.098 51.6475 30.098ZM51.6475 29.16C52.3195 29.16 52.8329 28.9407 53.1875 28.502C53.5515 28.054 53.7335 27.4053 53.7335 26.556C53.7335 25.7253 53.5515 25.086 53.1875 24.638C52.8235 24.1807 52.3102 23.952 51.6475 23.952C50.9849 23.952 50.4715 24.1807 50.1075 24.638C49.7435 25.086 49.5615 25.7253 49.5615 26.556C49.5615 27.396 49.7389 28.04 50.0935 28.488C50.4575 28.936 50.9755 29.16 51.6475 29.16ZM60.7545 30C60.5772 30 60.4325 29.9487 60.3205 29.846C60.2179 29.7433 60.1665 29.608 60.1665 29.44V23.77C60.1665 23.5927 60.2179 23.4527 60.3205 23.35C60.4232 23.238 60.5632 23.182 60.7405 23.182H63.1625C63.9092 23.182 64.4879 23.3267 64.8985 23.616C65.3092 23.9053 65.5145 24.3393 65.5145 24.918C65.5145 25.254 65.4165 25.5667 65.2205 25.856C65.0245 26.1453 64.7259 26.36 64.3245 26.5C64.7445 26.5747 65.0759 26.752 65.3185 27.032C65.5705 27.312 65.6965 27.6667 65.6965 28.096C65.6965 28.4133 65.6079 28.7167 65.4305 29.006C65.2625 29.2953 64.9919 29.5333 64.6185 29.72C64.2452 29.9067 63.7785 30 63.2185 30H60.7545ZM63.0785 26.122C63.4705 26.122 63.7879 26.024 64.0305 25.828C64.2732 25.6227 64.3945 25.3473 64.3945 25.002C64.3945 24.3487 63.9419 24.022 63.0365 24.022H61.3005V26.122H63.0785ZM63.1065 29.16C64.0679 29.16 64.5485 28.7913 64.5485 28.054C64.5485 27.6807 64.4085 27.4007 64.1285 27.214C63.8485 27.0273 63.4659 26.934 62.9805 26.934H61.3005V29.16H63.1065Z" fill="#222222"/>
</svg>
