<svg width="54" height="54" viewBox="0 0 54 54" fill="none" xmlns="http://www.w3.org/2000/svg">
<path d="M46.2116 5.71151C47.6459 5.71151 48.8078 6.87354 48.8078 8.30766C48.8078 9.74178 47.6459 10.9038 46.2116 10.9038C44.7785 10.9038 43.6155 9.74178 43.6155 8.30766C43.6155 6.87354 44.7785 5.71151 46.2116 5.71151Z" fill="#59D9A4"/>
<path d="M8.827 40.5C10.8354 40.5 12.4616 42.1273 12.4616 44.1346C12.4616 46.142 10.8354 47.7692 8.827 47.7692C6.81965 47.7692 5.19238 46.142 5.19238 44.1346C5.19238 42.1273 6.81965 40.5 8.827 40.5Z" fill="#59D9A4"/>
<path d="M42.577 17.1346C44.5854 17.1346 46.2116 18.7619 46.2116 20.7692C46.2116 22.7766 44.5854 24.4038 42.577 24.4038C42.5095 24.4038 42.4431 24.4018 42.3766 24.3976C42.5085 23.5533 42.577 22.6883 42.577 21.8077C42.577 20.2064 42.3506 18.6591 41.928 17.1938C42.1387 17.1554 42.3558 17.1346 42.577 17.1346Z" fill="#EAB883"/>
<path d="M9.34617 17.1346C9.5684 17.1346 9.7844 17.1554 9.9952 17.1938C9.76051 18.0059 9.58709 18.8439 9.47909 19.7017C9.39082 20.3912 9.34617 21.0943 9.34617 21.8077C9.34617 22.6883 9.4147 23.5533 9.54659 24.3976C9.48013 24.4018 9.4147 24.4038 9.34617 24.4038C7.33882 24.4038 5.71155 22.7766 5.71155 20.7692C5.71155 18.7619 7.33882 17.1346 9.34617 17.1346Z" fill="#EAB883"/>
<path d="M9.99522 17.1938C11.9953 10.261 18.387 5.1923 25.9616 5.1923C33.1416 5.1923 39.2569 9.74492 41.578 16.1221C40.2113 16.8065 38.6714 17.1928 37.0388 17.1928C32.6908 17.1928 28.9814 14.4595 27.5348 10.6172C26.3095 16.4804 21.1119 20.8845 14.8852 20.8845C12.9547 20.8845 11.1239 20.4608 9.479 19.7017C9.58711 18.8439 9.76053 18.0059 9.99522 17.1938Z" fill="#A85120"/>
<path d="M9.47914 19.7017C11.1241 20.4608 12.9549 20.8845 14.8854 20.8845C21.112 20.8845 26.3095 16.4804 27.535 10.6172C29.6738 16.2982 36.251 18.7896 41.578 16.1221H41.5791C42.5662 18.8428 42.7987 21.6951 42.3767 24.3976C41.1325 32.3439 34.258 38.4231 25.9616 38.4231C15.8687 38.4231 8.21927 29.5417 9.47914 19.7017Z" fill="#EAB883"/>
<path d="M46.9905 30.1154C47.4215 30.1154 47.7694 30.4643 47.7694 30.8942C47.7694 31.3242 47.4215 31.6731 46.9905 31.6731C46.5605 31.6731 46.2117 31.3242 46.2117 30.8942C46.2117 30.4643 46.5605 30.1154 46.9905 30.1154Z" fill="black"/>
<path d="M42.8365 47.7692C43.2674 47.7692 43.6153 48.1181 43.6153 48.5481C43.6153 48.978 43.2674 49.3269 42.8365 49.3269C42.4064 49.3269 42.0576 48.978 42.0576 48.5481C42.0576 48.1181 42.4064 47.7692 42.8365 47.7692Z" fill="black"/>
<path d="M40.7597 4.15384C41.1906 4.15384 41.5385 4.50276 41.5385 4.93268C41.5385 5.3626 41.1906 5.71153 40.7597 5.71153C40.3297 5.71153 39.9808 5.3626 39.9808 4.93268C39.9808 4.50276 40.3297 4.15384 40.7597 4.15384Z" fill="black"/>
<path d="M25.7019 44.1346C26.1329 44.1346 26.4808 44.4835 26.4808 44.9135C26.4808 45.3434 26.1329 45.6923 25.7019 45.6923C25.272 45.6923 24.9231 45.3434 24.9231 44.9135C24.9231 44.4835 25.272 44.1346 25.7019 44.1346Z" fill="black"/>
<path d="M16.3558 39.9808C16.7867 39.9808 17.1346 40.3297 17.1346 40.7596C17.1346 41.1896 16.7867 41.5385 16.3558 41.5385C15.9258 41.5385 15.5769 41.1896 15.5769 40.7596C15.5769 40.3297 15.9258 39.9808 16.3558 39.9808Z" fill="black"/>
<path d="M9.60575 4.67307C10.0367 4.67307 10.3846 5.02199 10.3846 5.45191C10.3846 5.88184 10.0367 6.23076 9.60575 6.23076C9.17583 6.23076 8.8269 5.88184 8.8269 5.45191C8.8269 5.02199 9.17583 4.67307 9.60575 4.67307Z" fill="black"/>
<path d="M5.45194 30.1154C5.8829 30.1154 6.23079 30.4643 6.23079 30.8942C6.23079 31.3242 5.8829 31.6731 5.45194 31.6731C5.02202 31.6731 4.6731 31.3242 4.6731 30.8942C4.6731 30.4643 5.02202 30.1154 5.45194 30.1154Z" fill="black"/>
<path d="M14.8853 21.4037C12.9231 21.4037 11.031 20.9897 9.26153 20.1731C9.00108 20.053 8.88748 19.7446 9.00763 19.4841C9.12778 19.2238 9.4361 19.1099 9.69665 19.2302C11.3287 19.9833 13.0744 20.3652 14.8853 20.3652C20.7271 20.3652 25.8332 16.221 27.0266 10.511C27.0738 10.285 27.2647 10.1173 27.4949 10.0995C27.7244 10.0815 27.9393 10.2181 28.0207 10.4343C29.4258 14.1663 33.0499 16.6736 37.0388 16.6736C38.5505 16.6736 39.9995 16.3319 41.3454 15.6579C41.6019 15.5294 41.914 15.6333 42.0422 15.8897C42.1706 16.1461 42.0668 16.458 41.8105 16.5864C40.319 17.3332 38.7135 17.712 37.0389 17.712C34.8256 17.712 32.7029 17.0406 30.8998 15.7704C29.5439 14.8152 28.4433 13.578 27.663 12.1429C26.8713 14.5552 25.3959 16.7225 23.4153 18.3506C21.0202 20.3194 17.9909 21.4037 14.8853 21.4037Z" fill="black"/>
<path d="M42.5769 24.9231C42.4994 24.9231 42.4209 24.9207 42.3441 24.9158C42.0579 24.898 41.8403 24.6514 41.8583 24.3652C41.8762 24.079 42.1233 23.8613 42.4089 23.8794C42.4646 23.883 42.5203 23.8846 42.5769 23.8846C44.2947 23.8846 45.6923 22.4871 45.6923 20.7692C45.6923 19.0514 44.2947 17.6538 42.5769 17.6538C42.393 17.6538 42.206 17.671 42.0209 17.7046C41.7384 17.756 41.4685 17.5689 41.4171 17.2869C41.3657 17.0047 41.5528 16.7344 41.8347 16.683C42.081 16.6381 42.3306 16.6154 42.5768 16.6154C44.8674 16.6154 46.7307 18.4788 46.7307 20.7692C46.7307 23.0597 44.8675 24.9231 42.5769 24.9231Z" fill="black"/>
<path d="M9.34623 24.9231C7.0558 24.9231 5.19238 23.0597 5.19238 20.7692C5.19238 18.4788 7.0558 16.6154 9.34623 16.6154C9.58913 16.6154 9.83556 16.6375 10.0787 16.6812C10.3258 16.7211 10.515 16.9354 10.515 17.1938C10.515 17.4805 10.283 17.713 9.99631 17.713H9.99527C9.96412 17.713 9.93296 17.7102 9.90222 17.7046C9.71717 17.671 9.53014 17.6538 9.34623 17.6538C7.62841 17.6538 6.23084 19.0514 6.23084 20.7692C6.23084 22.4871 7.62841 23.8846 9.34623 23.8846C9.40366 23.8846 9.45849 23.8829 9.51415 23.8794C9.81219 23.8613 10.0664 24.1001 10.0664 24.3976C10.0664 24.6767 9.84677 24.9043 9.57075 24.9163C9.49567 24.9209 9.42214 24.9231 9.34623 24.9231Z" fill="black"/>
<path d="M25.9615 38.9423C21.8519 38.9423 17.8776 37.4652 14.7705 34.7833C11.6959 32.1292 9.6584 28.4693 9.03345 24.4779C8.89638 23.5998 8.8269 22.7014 8.8269 21.8077C8.8269 21.077 8.87301 20.3464 8.96398 19.6357C9.07416 18.761 9.2533 17.8905 9.4963 17.0496C10.5055 13.5515 12.6635 10.4017 15.5728 8.18047C18.5783 5.88599 22.1706 4.67307 25.9615 4.67307C29.5481 4.67307 32.9823 5.76917 35.8931 7.84287C38.7318 9.86527 40.862 12.6558 42.0548 15.9141C42.0591 15.9243 42.0633 15.9346 42.067 15.9451C42.198 16.3058 42.319 16.6773 42.4266 17.0495C42.871 18.5898 43.0961 20.1906 43.0961 21.8077C43.0961 22.7016 43.0266 23.5999 42.8895 24.4777C42.2645 28.4694 40.2272 32.1293 37.1529 34.7833C34.0461 37.4652 30.0715 38.9423 25.9615 38.9423ZM25.9615 5.71153C18.8294 5.71153 12.4689 10.4924 10.4941 17.3377C10.2659 18.1272 10.0978 18.9443 9.99424 19.7666C9.90867 20.4346 9.86537 21.1211 9.86537 21.8077C9.86537 22.648 9.93069 23.4924 10.0596 24.3174C11.2921 32.1899 17.9799 37.9038 25.9615 37.9038C33.9432 37.9038 40.631 32.1899 41.8635 24.3173C41.9924 23.4926 42.0577 22.6481 42.0577 21.8077C42.0577 20.288 41.8461 18.784 41.4289 17.3377C41.3307 16.9982 41.2205 16.6587 41.1016 16.3287C41.0974 16.3192 41.0936 16.3096 41.09 16.2997C38.7851 9.96663 32.7054 5.71153 25.9615 5.71153Z" fill="black"/>
<path d="M46.2116 11.4231C44.4938 11.4231 43.0962 10.0255 43.0962 8.30768C43.0962 6.58986 44.4938 5.1923 46.2116 5.1923C47.9294 5.1923 49.327 6.58986 49.327 8.30768C49.327 10.0255 47.9294 11.4231 46.2116 11.4231ZM46.2116 6.23076C45.0665 6.23076 44.1347 7.16247 44.1347 8.30768C44.1347 9.4529 45.0665 10.3846 46.2116 10.3846C47.3567 10.3846 48.2885 9.4529 48.2885 8.30768C48.2885 7.16247 47.3567 6.23076 46.2116 6.23076Z" fill="black"/>
<path d="M8.82694 48.2885C6.53651 48.2885 4.6731 46.4251 4.6731 44.1346C4.6731 41.8442 6.53651 39.9808 8.82694 39.9808C11.1174 39.9808 12.9808 41.8442 12.9808 44.1346C12.9808 46.4251 11.1174 48.2885 8.82694 48.2885ZM8.82694 41.0192C7.10912 41.0192 5.71156 42.4168 5.71156 44.1346C5.71156 45.8524 7.10912 47.25 8.82694 47.25C10.5448 47.25 11.9423 45.8524 11.9423 44.1346C11.9423 42.4168 10.5448 41.0192 8.82694 41.0192Z" fill="black"/>
</svg>
