<svg width="190" height="76" viewBox="0 0 190 76" fill="none" xmlns="http://www.w3.org/2000/svg">
<path d="M28.1699 0.812747C28.4404 0.271718 29.0491 0.0978157 29.9959 0.29104C30.8074 0.44562 32.1214 0.513249 33.9377 0.493926C35.6767 0.493926 37.0003 0.590539 37.9084 0.783763C41.9855 1.73056 43.9757 2.16532 43.8791 2.08803C43.8791 2.16532 43.8791 2.3199 43.8791 2.55177C43.8984 2.78364 43.9081 2.93822 43.9081 3.01551L43.8501 3.27636C41.6473 9.01513 40.1788 12.5705 39.4446 13.9424C39.3673 14.0969 38.2949 15.9422 36.2274 19.4782C34.9714 21.1593 33.986 22.6665 33.2711 23.9997C33.2711 24.1156 33.5995 25.0335 34.2565 26.7532C34.8748 27.8932 35.6864 29.6032 36.6911 31.8833C37.7152 34.2213 38.5171 35.9313 39.0968 37.0134C39.3673 37.8636 39.8793 39.2838 40.6329 41.274C41.3092 43.0903 41.8116 44.5202 42.1401 45.5636C42.4686 46.7036 42.5169 47.5151 42.285 47.9982C41.7053 48.4233 40.6522 48.7808 39.1258 49.0706C35.3192 49.5537 31.6383 49.7952 28.083 49.7952H27.5613C27.484 49.7952 27.3197 49.7952 27.0685 49.7952C26.8174 49.8145 26.6531 49.8242 26.5758 49.8242C26.1701 49.3798 25.8899 48.8194 25.7353 48.1431C25.716 48.0852 25.001 46.1046 23.5905 42.2015C23.3007 41.1967 22.8852 40.2596 22.3442 39.39C21.4167 36.7429 20.7694 35.1101 20.4023 34.4918C20.1318 34.8203 19.9482 35.7574 19.8516 37.3032C19.8516 38.2693 19.8709 39.7282 19.9096 41.6798C19.9289 43.6313 19.9482 45.0902 19.9675 46.0563C19.9289 47.0031 19.7936 47.6407 19.5618 47.9692C18.5763 48.1818 16.7793 48.3074 14.1708 48.346C6.9442 48.2494 3.39852 48.2108 3.53378 48.2301C3.08936 47.9209 2.71258 47.5248 2.40342 47.0417C2.38409 46.6166 2.24884 45.7278 1.99765 44.3752C1.80442 43.2739 1.74645 42.3754 1.82374 41.6798C1.36 36.2115 1.07983 31.3229 0.983216 27.014C1.00254 26.3764 0.944571 25.3909 0.809314 24.0577C0.674057 22.7631 0.625751 21.7776 0.664396 21.1013C0.70304 20.4637 0.645073 19.5266 0.490493 18.2899C0.355236 17.0533 0.30693 16.1258 0.345575 15.5075C0.38422 14.6959 0.316591 13.3723 0.142689 11.5367C-0.0118907 9.83634 -0.0408744 8.51275 0.0557379 7.56595C0.345575 6.98627 0.46151 6.21338 0.403542 5.24725C0.326252 3.95265 0.30693 3.17009 0.345575 2.89957C0.46151 2.22329 0.828636 1.6726 1.44696 1.2475C2.04595 0.841731 2.69325 0.667828 3.38886 0.725796C4.23905 0.803086 5.35975 0.841731 6.75097 0.841731C8.50932 0.822408 9.63002 0.822408 10.1131 0.841731C10.8087 0.880376 12.0453 0.822408 13.823 0.667828C15.4074 0.551894 16.6537 0.551894 17.5619 0.667828C18.0643 0.706473 18.4314 0.880376 18.6633 1.18953C18.528 2.67736 18.5377 3.85603 18.6923 4.72555C18.7695 5.16996 18.7985 6.04913 18.7792 7.36306C18.7599 8.46444 18.8662 9.33395 19.098 9.97159C19.098 10.0296 19.2623 12.3966 19.5907 17.0726C19.6487 18.0001 19.9289 18.7053 20.4313 19.1884C20.5665 19.1304 20.7501 18.7633 20.982 18.087C21.0979 17.7199 21.3394 17.0823 21.7066 16.1741C21.8418 15.9616 21.9288 15.8263 21.9674 15.7683C21.9094 15.8263 22.5181 14.58 23.7934 12.0294C24.0832 11.4111 24.431 10.5609 24.8368 9.47887C25.3005 8.24223 25.6387 7.39205 25.8512 6.92831C25.9865 6.59982 26.3246 5.55641 26.8657 3.79807C27.2714 2.54211 27.7062 1.547 28.1699 0.812747Z" fill="#F81157"/>
<path d="M41.0677 21.681C42.4975 20.8115 44.111 20.4057 45.9079 20.4637C47.647 20.5023 49.0962 20.9468 50.2555 21.7969C50.5647 22.0288 50.7869 24.1833 50.9221 28.2603C51.0187 31.777 51.0381 33.8542 50.9801 34.4918C50.3425 42.0082 49.9947 45.9983 49.9367 46.4621C49.7435 48.0272 49.6372 48.8291 49.6179 48.8677C49.386 49.3315 48.0527 49.544 45.6181 49.5054C43.2028 49.486 41.9468 49.2638 41.8502 48.8387C41.6957 48.2011 41.6184 47.3702 41.6184 46.3461C41.599 44.8583 41.5894 44.0178 41.5894 43.8246C41.5121 42.9357 41.3575 41.2643 41.1256 38.8104C40.9324 36.7042 40.8068 35.0618 40.7489 33.8831C40.7295 33.3421 40.6136 32.3277 40.401 30.8399C40.1692 29.1974 40.0146 27.9608 39.9373 27.1299C39.6861 24.0963 40.0629 22.28 41.0677 21.681Z" fill="#F81157"/>
<path d="M57.0667 20.3188C58.9603 19.913 61.5398 19.7584 64.8053 19.855C67.3752 19.913 69.9064 20.5313 72.399 21.71C73.9448 22.4442 75.394 23.9804 76.7466 26.3184C77.3649 27.3618 77.906 29.1491 78.3697 31.6804C78.7561 33.8638 78.9687 35.7284 79.0073 37.2742C79.0653 39.9214 78.93 41.9406 78.6016 43.3318C78.1185 45.3993 77.1427 47.0514 75.6742 48.288C74.6888 48.887 73.0367 49.2831 70.718 49.4764C63.1822 49.5537 59.2018 49.5826 58.7767 49.5633C57.8299 49.5633 57.0763 49.1865 56.516 48.433C56.4773 48.2784 56.4484 48.1624 56.429 48.0852C56.1972 46.9065 55.8494 42.5879 55.3856 35.1294C54.9026 27.7096 54.69 23.3331 54.748 21.9998C54.7866 21.768 54.8349 21.5554 54.8929 21.3622C55.4919 20.8405 56.2165 20.4927 57.0667 20.3188ZM67.7617 46.1722C68.1288 46.1143 68.4959 45.95 68.863 45.6795C69.0949 45.5249 69.2495 45.3993 69.3268 45.3027C70.2929 44.3946 70.776 42.5783 70.776 39.8538C70.776 38.0761 70.6697 36.8105 70.4571 36.0569C70.2832 35.4193 69.9258 34.8299 69.3847 34.2889C69.0949 33.9991 68.5925 33.7962 67.8776 33.6803C67.066 33.5643 66.5637 33.7092 66.3704 34.115C66.0806 34.8106 65.9357 36.7139 65.9357 39.8248C65.9357 43.3028 65.9743 45.1964 66.0516 45.5056C66.1289 45.7375 66.3415 45.9307 66.6893 46.0853C67.0757 46.2592 67.4332 46.2882 67.7617 46.1722Z" fill="#F81157"/>
<path d="M84.4563 26.0865C85.577 24.4248 87.1614 23.0722 89.2096 22.0288C91.2384 21.0047 93.4122 20.4444 95.7309 20.3478C97.6245 20.2705 99.4215 20.3188 101.122 20.4927C102.359 20.7052 103.112 20.9661 103.383 21.2752C103.788 22.6858 104.049 24.8982 104.165 27.9125C104.185 28.8593 104.185 29.4486 104.165 29.6805C104.165 29.7771 104.088 29.8834 103.933 29.9993C103.798 30.0959 103.672 30.1442 103.557 30.1442C103.189 30.1636 102.523 30.067 101.557 29.8544C100.571 29.6419 99.9046 29.5356 99.5568 29.5356C97.0449 29.5163 95.3735 29.9124 94.5426 30.7239C93.6538 31.5934 93.4509 32.8301 93.9339 34.4338C94.1465 35.0908 94.5909 35.6222 95.2672 36.0279C95.5763 36.2405 96.2236 36.5207 97.2091 36.8685C99.2186 37.6027 100.62 38.6171 101.412 39.9118C101.953 40.8006 102.088 42.0565 101.817 43.6796C101.682 44.6458 101.373 45.438 100.89 46.0563C100.542 46.52 99.8659 47.1287 98.8612 47.8823C96.0981 49.2155 92.8519 49.7082 89.1226 49.3604C87.4996 49.1286 86.3885 48.8291 85.7895 48.4619C85.577 48.346 85.4417 48.1045 85.3837 47.7374C85.3644 47.5634 85.3451 47.2929 85.3258 46.9258C85.3065 46.578 85.2871 46.3075 85.2678 46.1143C85.2678 45.9404 85.2871 45.5829 85.3258 45.0419C85.3451 45.0225 85.3934 44.9742 85.4707 44.8969C85.5093 44.8583 85.7702 44.868 86.2533 44.9259C87.6831 45.8534 89.9052 46.1143 92.9195 45.7085C93.7697 45.5926 94.446 45.1481 94.9484 44.3752C95.3928 43.7183 95.615 42.9744 95.615 42.1435C95.615 41.0614 94.1465 39.9214 91.2095 38.7234C90.6298 38.4916 89.4511 38.0568 87.6735 37.4192C86.3402 36.9361 85.4514 36.569 85.007 36.3178C83.4418 35.4483 82.6786 34.0667 82.7172 32.1731C82.6206 30.9365 82.6979 29.8834 82.9491 29.0139C83.2003 28.1637 83.7027 27.1879 84.4563 26.0865Z" fill="#F81157"/>
<path d="M109.24 12.0584C111.114 8.58038 113.829 5.74964 117.384 3.5662C120.882 1.42141 124.63 0.2524 128.63 0.059175C131.915 -0.0760822 135.016 0.0205301 137.934 0.349012C140.079 0.812751 141.373 1.3731 141.818 2.03007C142.533 4.9864 142.987 9.61413 143.18 15.9133C143.199 17.9228 143.19 19.1594 143.151 19.6232C143.151 19.9903 142.958 20.3478 142.571 20.6956C139.654 20.2898 137.799 20.1159 137.006 20.1739C133.49 19.9613 130.659 21.0917 128.514 23.565C126.679 25.8643 125.722 28.5888 125.645 31.7384C125.567 35.1005 126.611 37.5931 128.775 39.2161C129.49 39.7572 130.456 40.1629 131.673 40.4335C133.007 40.7233 133.973 40.6557 134.572 40.2306C135.093 39.8634 135.325 39.2258 135.267 38.3177C135.209 37.5061 134.978 36.7815 134.572 36.1439C134.417 35.8927 134.002 35.8734 133.325 36.0859C132.63 36.3178 132.195 36.3371 132.021 36.1439C131.693 35.7574 131.519 35.255 131.499 34.6367C131.48 33.9991 131.654 33.5353 132.021 33.2455C132.659 32.7238 134.04 32.4629 136.166 32.4629C138.987 32.4629 140.794 32.9363 141.586 33.8831C141.856 34.1923 142.108 34.9652 142.339 36.2018C142.707 38.0568 142.687 40.105 142.281 42.3464C142.185 43.4478 141.576 44.6941 140.455 46.0853C139.47 47.3026 138.301 48.1624 136.948 48.6648C136.523 48.8194 135.538 49.032 133.992 49.3025C127.693 50.0174 121.877 48.7904 116.544 45.6215C114.534 44.211 113.211 43.1773 112.573 42.5203C111.066 41.0131 109.607 38.9263 108.197 36.2598C106.825 32.6272 106.11 29.5742 106.052 27.101C105.704 21.2463 106.767 16.2321 109.24 12.0584Z" fill="#015AFE"/>
<path d="M154.31 21.4491C156.339 20.7535 158.657 20.6086 161.266 21.0144C163.159 21.4008 164.908 22.338 166.512 23.8258C167.517 24.8306 168.405 26.1735 169.178 27.8545C170.434 30.9655 170.695 34.3855 169.961 38.1148C169.207 42.501 167.333 45.7471 164.338 47.8533C161.787 49.6889 158.667 50.114 154.976 49.1286C153.643 48.6262 152.493 48.0079 151.527 47.2736C150.291 46.0756 149.547 45.2834 149.295 44.897C148.097 43.2352 147.267 41.1774 146.803 38.7234C146.532 37.3902 146.436 35.3227 146.513 32.5209C146.726 30.5307 147.247 28.6564 148.078 26.8981C148.967 25.4102 149.962 24.1833 151.063 23.2171C152.474 22.251 153.556 21.6617 154.31 21.4491ZM156.425 34.5208C156.039 34.9845 155.807 35.5835 155.73 36.3178C155.537 38.25 155.73 39.8538 156.31 41.1291C156.657 41.9213 157.073 42.385 157.556 42.5203L157.585 42.6072C157.855 42.6845 158 42.7232 158.02 42.7232C158.193 42.8005 158.454 42.7811 158.802 42.6652C159.111 42.6072 159.305 42.5203 159.382 42.4044C160.116 41.4962 160.522 40.8102 160.599 40.3465C161.044 38.2017 161.044 36.4917 160.599 35.2164C160.56 35.1584 160.493 35.0618 160.396 34.9266C160.106 34.2889 159.565 33.9508 158.773 33.9121C157.71 33.8348 156.928 34.0377 156.425 34.5208Z" fill="#015AFE"/>
<path d="M184.967 35.7562H177.903L176.419 7.44213H186.451L184.967 35.7562ZM176.301 45.6691C176.301 43.8487 176.795 42.5824 177.785 41.8701C178.774 41.1183 179.981 40.7423 181.405 40.7423C182.791 40.7423 183.978 41.1183 184.967 41.8701C185.956 42.5824 186.451 43.8487 186.451 45.6691C186.451 47.4103 185.956 48.6766 184.967 49.468C183.978 50.2199 182.791 50.5958 181.405 50.5958C179.981 50.5958 178.774 50.2199 177.785 49.468C176.795 48.6766 176.301 47.4103 176.301 45.6691Z" fill="#015AFE"/>
<path d="M12.078 60.3361C12.3956 60.3361 12.6508 60.4382 12.8437 60.6424C13.0365 60.8352 13.133 61.0961 13.133 61.4251V71.4986C13.133 71.8163 13.0422 72.0658 12.8607 72.2474C12.6792 72.4289 12.441 72.5196 12.146 72.5196C11.8511 72.5196 11.6185 72.4289 11.4484 72.2474C11.2782 72.0658 11.1931 71.8163 11.1931 71.4986V64.488L8.30039 69.9672C8.16426 70.2168 8.01678 70.4039 7.85797 70.5287C7.69915 70.6422 7.51197 70.6989 7.29643 70.6989C7.0809 70.6989 6.89372 70.6422 6.7349 70.5287C6.57608 70.4153 6.42861 70.2281 6.29248 69.9672L3.38272 64.5731V71.4986C3.38272 71.8049 3.29197 72.0545 3.11047 72.2474C2.9403 72.4289 2.70775 72.5196 2.4128 72.5196C2.11786 72.5196 1.8853 72.4289 1.71514 72.2474C1.54498 72.0658 1.4599 71.8163 1.4599 71.4986V61.4251C1.4599 61.0961 1.55065 60.8352 1.73216 60.6424C1.92501 60.4382 2.18025 60.3361 2.49788 60.3361C2.9403 60.3361 3.2863 60.58 3.53587 61.0678L7.31345 68.2656L11.074 61.0678C11.3236 60.58 11.6582 60.3361 12.078 60.3361Z" fill="black"/>
<path d="M19.1536 63.8924C20.3107 63.8924 21.1672 64.1817 21.7231 64.7603C22.2903 65.3275 22.5739 66.1953 22.5739 67.3637V71.5157C22.5739 71.822 22.4831 72.0658 22.3016 72.2474C22.1201 72.4175 21.8705 72.5026 21.5529 72.5026C21.2579 72.5026 21.0141 72.4118 20.8212 72.2303C20.6397 72.0488 20.5489 71.8106 20.5489 71.5157V71.1413C20.3561 71.5837 20.0498 71.9297 19.6301 72.1793C19.2217 72.4289 18.7452 72.5536 18.2007 72.5536C17.6449 72.5536 17.14 72.4402 16.6863 72.2133C16.2325 71.9864 15.8752 71.6745 15.6143 71.2774C15.3534 70.8804 15.2229 70.438 15.2229 69.9502C15.2229 69.3376 15.376 68.8555 15.6823 68.5038C16 68.1521 16.5104 67.8969 17.2138 67.7381C17.9171 67.5793 18.887 67.4999 20.1235 67.4999H20.5489V67.1085C20.5489 66.5526 20.4298 66.1499 20.1916 65.9003C19.9534 65.6394 19.5677 65.509 19.0345 65.509C18.7055 65.509 18.3709 65.56 18.0306 65.6621C17.6902 65.7529 17.2875 65.889 16.8224 66.0705C16.5275 66.218 16.3119 66.2917 16.1758 66.2917C15.9716 66.2917 15.8014 66.218 15.6653 66.0705C15.5405 65.923 15.4781 65.7302 15.4781 65.4919C15.4781 65.2991 15.5235 65.1346 15.6143 64.9985C15.7164 64.851 15.8809 64.7149 16.1077 64.5901C16.5048 64.3746 16.9756 64.2044 17.5201 64.0796C18.0759 63.9548 18.6204 63.8924 19.1536 63.8924ZM18.6261 71.0222C19.1933 71.0222 19.6528 70.835 20.0044 70.4607C20.3674 70.075 20.5489 69.5815 20.5489 68.9803V68.6229H20.2427C19.4826 68.6229 18.8927 68.6569 18.473 68.725C18.0532 68.7931 17.7526 68.9122 17.5711 69.0824C17.3896 69.2525 17.2989 69.4851 17.2989 69.78C17.2989 70.143 17.4236 70.4436 17.6732 70.6819C17.9341 70.9088 18.2518 71.0222 18.6261 71.0222Z" fill="black"/>
<path d="M25.7395 72.5196C25.4219 72.5196 25.1667 72.4289 24.9738 72.2474C24.781 72.0658 24.6845 71.822 24.6845 71.5157V65.1686C24.6732 64.8397 24.7583 64.5787 24.9398 64.3859C25.1213 64.1931 25.3708 64.0966 25.6885 64.0966H29.8915C30.141 64.0966 30.3396 64.1704 30.487 64.3178C30.6459 64.4653 30.7253 64.6582 30.7253 64.8964C30.7253 65.1346 30.6459 65.3275 30.487 65.4749C30.3396 65.6224 30.141 65.6961 29.8915 65.6961H26.8115V71.5157C26.8115 71.822 26.7151 72.0658 26.5223 72.2474C26.3294 72.4289 26.0685 72.5196 25.7395 72.5196Z" fill="black"/>
<path d="M35.6048 63.8924C36.7619 63.8924 37.6183 64.1817 38.1742 64.7603C38.7414 65.3275 39.025 66.1953 39.025 67.3637V71.5157C39.025 71.822 38.9343 72.0658 38.7528 72.2474C38.5712 72.4175 38.3217 72.5026 38.004 72.5026C37.7091 72.5026 37.4652 72.4118 37.2723 72.2303C37.0908 72.0488 37.0001 71.8106 37.0001 71.5157V71.1413C36.8072 71.5837 36.5009 71.9297 36.0812 72.1793C35.6728 72.4289 35.1964 72.5536 34.6519 72.5536C34.096 72.5536 33.5912 72.4402 33.1374 72.2133C32.6837 71.9864 32.3263 71.6745 32.0654 71.2774C31.8045 70.8804 31.674 70.438 31.674 69.9502C31.674 69.3376 31.8272 68.8555 32.1335 68.5038C32.4511 68.1521 32.9616 67.8969 33.6649 67.7381C34.3683 67.5793 35.3382 67.4999 36.5747 67.4999H37.0001V67.1085C37.0001 66.5526 36.881 66.1499 36.6428 65.9003C36.4045 65.6394 36.0188 65.509 35.4857 65.509C35.1567 65.509 34.822 65.56 34.4817 65.6621C34.1414 65.7529 33.7387 65.889 33.2736 66.0705C32.9786 66.218 32.7631 66.2917 32.6269 66.2917C32.4228 66.2917 32.2526 66.218 32.1165 66.0705C31.9917 65.923 31.9293 65.7302 31.9293 65.4919C31.9293 65.2991 31.9747 65.1346 32.0654 64.9985C32.1675 64.851 32.332 64.7149 32.5589 64.5901C32.9559 64.3746 33.4267 64.2044 33.9712 64.0796C34.5271 63.9548 35.0716 63.8924 35.6048 63.8924ZM35.0773 71.0222C35.6445 71.0222 36.1039 70.835 36.4556 70.4607C36.8186 70.075 37.0001 69.5815 37.0001 68.9803V68.6229H36.6938C35.9338 68.6229 35.3439 68.6569 34.9241 68.725C34.5044 68.7931 34.2038 68.9122 34.0223 69.0824C33.8408 69.2525 33.75 69.4851 33.75 69.78C33.75 70.143 33.8748 70.4436 34.1244 70.6819C34.3853 70.9088 34.7029 71.0222 35.0773 71.0222Z" fill="black"/>
<path d="M44.0965 72.5536C42.9621 72.5536 41.9808 72.3324 41.1527 71.89C40.9598 71.7879 40.8124 71.6631 40.7103 71.5157C40.6082 71.3682 40.5571 71.215 40.5571 71.0562C40.5571 70.8634 40.6309 70.6989 40.7783 70.5628C40.9258 70.4153 41.113 70.3415 41.3399 70.3415C41.4873 70.3415 41.6575 70.3756 41.8504 70.4436C42.202 70.6138 42.5367 70.7386 42.8543 70.818C43.1719 70.8861 43.5236 70.9201 43.9093 70.9201C44.4198 70.9201 44.8509 70.835 45.2025 70.6649C45.5655 70.4947 45.747 70.2168 45.747 69.8311C45.747 69.5361 45.645 69.3149 45.4408 69.1674C45.2479 69.0086 44.9019 68.9292 44.4028 68.9292H43.2967C43.0585 68.9292 42.8657 68.8611 42.7182 68.725C42.5821 68.5775 42.514 68.3904 42.514 68.1635C42.514 67.9366 42.5821 67.7551 42.7182 67.619C42.8657 67.4715 43.0585 67.3978 43.2967 67.3978H44.3177C44.7601 67.3978 45.0834 67.3183 45.2876 67.1595C45.4918 66.9894 45.5939 66.7625 45.5939 66.4789C45.5939 66.1613 45.4521 65.923 45.1685 65.7642C44.8849 65.6054 44.5049 65.526 44.0284 65.526C43.6427 65.526 43.2967 65.5657 42.9904 65.6451C42.6955 65.7132 42.3835 65.8266 42.0546 65.9854C41.8844 66.0535 41.7312 66.0875 41.5951 66.0875C41.3682 66.0875 41.1754 66.0138 41.0166 65.8663C40.8691 65.7188 40.7954 65.543 40.7954 65.3388C40.7954 65.18 40.8464 65.0325 40.9485 64.8964C41.0506 64.7603 41.2037 64.6468 41.4079 64.5561C42.2928 64.1136 43.3081 63.8924 44.4538 63.8924C45.5315 63.8924 46.3596 64.0966 46.9382 64.505C47.5281 64.9134 47.823 65.4636 47.823 66.1556C47.823 66.5867 47.6869 66.978 47.4146 67.3297C47.1537 67.6814 46.7907 67.9309 46.3256 68.0784C47.4373 68.362 47.9932 68.9973 47.9932 69.9842C47.9932 70.4947 47.823 70.9485 47.4827 71.3455C47.1424 71.7312 46.6716 72.0318 46.0704 72.2474C45.4805 72.4515 44.8225 72.5536 44.0965 72.5536Z" fill="black"/>
<path d="M55.2749 64.7432C55.5018 64.4256 55.706 64.2101 55.8875 64.0966C56.0803 63.9832 56.3412 63.9265 56.6702 63.9265C56.9992 63.9265 57.2601 64.0172 57.453 64.1987C57.6571 64.3802 57.7592 64.6241 57.7592 64.9304V71.4816C57.7592 71.7879 57.6628 72.0375 57.47 72.2303C57.2885 72.4232 57.0502 72.5196 56.7553 72.5196C56.449 72.5196 56.1994 72.4232 56.0066 72.2303C55.8251 72.0375 55.7343 71.7879 55.7343 71.4816V66.6831L52.1269 71.7369C51.9114 72.0432 51.7015 72.253 51.4973 72.3665C51.3045 72.4686 51.0606 72.5196 50.7656 72.5196C50.4366 72.5196 50.1757 72.4289 49.9829 72.2474C49.79 72.0658 49.6936 71.8163 49.6936 71.4986V64.9474C49.6936 64.6411 49.7843 64.3972 49.9659 64.2157C50.1587 64.0229 50.4083 63.9265 50.7146 63.9265C51.0095 63.9265 51.2477 64.0229 51.4292 64.2157C51.6221 64.3972 51.7185 64.6411 51.7185 64.9474V69.712L55.2749 64.7432Z" fill="black"/>
<path d="M60.9184 72.5196C60.6008 72.5196 60.3455 72.4289 60.1527 72.2474C59.9598 72.0658 59.8634 71.822 59.8634 71.5157V64.9304C59.8634 64.6241 59.9598 64.3802 60.1527 64.1987C60.3455 64.0172 60.6008 63.9265 60.9184 63.9265C61.2474 63.9265 61.5083 64.0172 61.7011 64.1987C61.894 64.3802 61.9904 64.6241 61.9904 64.9304V67.3297H65.6319V64.9304C65.6319 64.6241 65.7283 64.3802 65.9211 64.1987C66.114 64.0172 66.3692 63.9265 66.6869 63.9265C67.0158 63.9265 67.2768 64.0172 67.4696 64.1987C67.6625 64.3802 67.7589 64.6241 67.7589 64.9304L67.7759 71.4306C67.7759 71.7596 67.6738 72.0261 67.4696 72.2303C67.2768 72.4232 67.0215 72.5196 66.7039 72.5196C66.3749 72.5196 66.114 72.4232 65.9211 72.2303C65.7283 72.0261 65.6319 71.7596 65.6319 71.4306V68.9803H61.9904V71.5157C61.9904 71.822 61.894 72.0658 61.7011 72.2474C61.5083 72.4289 61.2474 72.5196 60.9184 72.5196Z" fill="black"/>
<path d="M74.5883 74.6807C74.2934 74.6807 74.0552 74.5899 73.8736 74.4084C73.7035 74.2382 73.6184 73.9943 73.6184 73.6767V71.89C73.6071 71.561 73.6921 71.3001 73.8736 71.1073C74.0552 70.9144 74.2934 70.818 74.5883 70.818H74.7755C75.1045 70.2281 75.3314 69.5645 75.4562 68.8271C75.5923 68.0897 75.6603 67.2163 75.6603 66.2066V65.1686C75.649 64.8397 75.7341 64.5787 75.9156 64.3859C76.0971 64.1931 76.3467 64.0966 76.6643 64.0966H80.8673C81.1963 64.0853 81.4572 64.1704 81.65 64.3519C81.8429 64.5334 81.9393 64.7829 81.9393 65.1006V70.818H82.2116C82.5405 70.8067 82.8015 70.8917 82.9943 71.0732C83.1871 71.2547 83.2836 71.5043 83.2836 71.822V73.6767C83.2836 73.9943 83.1928 74.2382 83.0113 74.4084C82.8412 74.5899 82.6086 74.6807 82.3137 74.6807C82.0074 74.6807 81.7691 74.5899 81.599 74.4084C81.4288 74.2382 81.3437 73.9943 81.3437 73.6767V72.4175H75.5753V73.6767C75.5753 73.9943 75.4845 74.2382 75.303 74.4084C75.1328 74.5899 74.8946 74.6807 74.5883 74.6807ZM79.8293 65.6961H77.4981V66.2066C77.4981 67.2843 77.413 68.2202 77.2429 69.0143C77.084 69.8084 76.8571 70.4096 76.5622 70.818H79.8293V65.6961Z" fill="black"/>
<path d="M91.1099 70.1374C91.3028 70.1374 91.4559 70.2111 91.5694 70.3586C91.6942 70.506 91.7566 70.7046 91.7566 70.9541C91.7566 71.3058 91.5467 71.6007 91.127 71.839C90.7413 72.0545 90.3045 72.2303 89.8167 72.3665C89.3289 72.4913 88.8638 72.5536 88.4214 72.5536C87.0828 72.5536 86.0221 72.1679 85.2394 71.3965C84.4566 70.6251 84.0653 69.5702 84.0653 68.2315C84.0653 67.3807 84.2354 66.6264 84.5757 65.9684C84.9161 65.3104 85.3925 64.8 86.0051 64.4369C86.629 64.0739 87.3324 63.8924 88.1151 63.8924C88.8638 63.8924 89.5161 64.0569 90.072 64.3859C90.6278 64.7149 91.0589 65.18 91.3652 65.7812C91.6715 66.3825 91.8246 67.0915 91.8246 67.9082C91.8246 68.396 91.6091 68.6399 91.178 68.6399H86.1582C86.2263 69.4227 86.4475 70.0012 86.8219 70.3756C87.1962 70.7386 87.7407 70.9201 88.4554 70.9201C88.8184 70.9201 89.1361 70.8747 89.4083 70.784C89.6919 70.6932 90.0096 70.5684 90.3612 70.4096C90.7016 70.2281 90.9511 70.1374 91.1099 70.1374ZM88.1661 65.3899C87.5876 65.3899 87.1225 65.5714 86.7708 65.9344C86.4305 66.2974 86.2263 66.8192 86.1582 67.4999H90.0039C89.9812 66.8079 89.811 66.286 89.4934 65.9344C89.1758 65.5714 88.7333 65.3899 88.1661 65.3899Z" fill="black"/>
<path d="M96.409 72.5196C96.08 72.5196 95.8191 72.4289 95.6263 72.2474C95.4334 72.0658 95.337 71.822 95.337 71.5157V65.6961H93.3801C93.1306 65.6961 92.9264 65.6224 92.7675 65.4749C92.6201 65.3275 92.5463 65.1346 92.5463 64.8964C92.5463 64.6582 92.6201 64.4653 92.7675 64.3178C92.9264 64.1704 93.1306 64.0966 93.3801 64.0966H99.4209C99.6704 64.0966 99.8689 64.1704 100.016 64.3178C100.175 64.4653 100.255 64.6582 100.255 64.8964C100.255 65.1346 100.175 65.3275 100.016 65.4749C99.8689 65.6224 99.6704 65.6961 99.4209 65.6961H97.464V71.5157C97.464 71.822 97.3676 72.0658 97.1747 72.2474C96.9819 72.4289 96.7266 72.5196 96.409 72.5196Z" fill="black"/>
<path d="M105.134 72.5536C104.306 72.5536 103.574 72.3778 102.939 72.0261C102.315 71.6745 101.832 71.1753 101.492 70.5287C101.152 69.8821 100.982 69.1277 100.982 68.2656C100.982 67.4034 101.158 66.6434 101.509 65.9854C101.872 65.3161 102.377 64.8 103.024 64.4369C103.67 64.0739 104.413 63.8924 105.253 63.8924C105.695 63.8924 106.138 63.9548 106.58 64.0796C107.034 64.2044 107.431 64.3746 107.771 64.5901C108.134 64.8283 108.316 65.1289 108.316 65.4919C108.316 65.7415 108.253 65.9457 108.128 66.1045C108.015 66.252 107.862 66.3257 107.669 66.3257C107.544 66.3257 107.414 66.2974 107.278 66.2407C107.142 66.1839 107.005 66.1159 106.869 66.0365C106.62 65.889 106.381 65.7756 106.155 65.6961C105.928 65.6054 105.667 65.56 105.372 65.56C104.669 65.56 104.124 65.7926 103.738 66.2577C103.364 66.7114 103.177 67.3694 103.177 68.2315C103.177 69.0824 103.364 69.7403 103.738 70.2054C104.124 70.6592 104.669 70.8861 105.372 70.8861C105.655 70.8861 105.905 70.8464 106.121 70.767C106.347 70.6762 106.597 70.5571 106.869 70.4096C107.039 70.3075 107.187 70.2338 107.312 70.1884C107.436 70.1317 107.561 70.1033 107.686 70.1033C107.868 70.1033 108.021 70.1827 108.145 70.3415C108.27 70.5004 108.333 70.6989 108.333 70.9371C108.333 71.13 108.287 71.3001 108.197 71.4476C108.117 71.5837 107.981 71.7085 107.788 71.822C107.436 72.0488 107.028 72.2303 106.563 72.3665C106.098 72.4913 105.621 72.5536 105.134 72.5536Z" fill="black"/>
<path d="M114.616 67.8572C115.013 68.0047 115.331 68.2032 115.569 68.4528C115.819 68.7023 116.108 69.1221 116.437 69.712L117.186 71.0052C117.288 71.1867 117.339 71.3625 117.339 71.5327C117.339 71.8049 117.231 72.0375 117.016 72.2303C116.811 72.4118 116.568 72.5026 116.284 72.5026C115.898 72.5026 115.603 72.3211 115.399 71.9581L114.327 70.0523C114.089 69.6552 113.856 69.3773 113.629 69.2185C113.403 69.0597 113.074 68.9803 112.643 68.9803H111.979V71.4986C111.979 71.8163 111.882 72.0658 111.69 72.2474C111.497 72.4289 111.236 72.5196 110.907 72.5196C110.578 72.5196 110.317 72.4289 110.124 72.2474C109.943 72.0658 109.852 71.8163 109.852 71.4986V64.9304C109.852 64.6241 109.948 64.3802 110.141 64.1987C110.334 64.0172 110.589 63.9265 110.907 63.9265C111.236 63.9265 111.497 64.0172 111.69 64.1987C111.882 64.3802 111.979 64.6241 111.979 64.9304V67.3978H112.745L115.178 64.3689C115.405 64.0739 115.671 63.9265 115.978 63.9265C116.216 63.9265 116.42 64.0115 116.59 64.1817C116.76 64.3519 116.846 64.5561 116.846 64.7943C116.846 65.0325 116.755 65.2651 116.573 65.4919L114.616 67.8572Z" fill="black"/>
<path d="M122.833 72.5536C121.983 72.5536 121.234 72.3778 120.587 72.0261C119.952 71.6745 119.459 71.1697 119.107 70.5117C118.755 69.8538 118.579 69.088 118.579 68.2145C118.579 67.341 118.755 66.581 119.107 65.9344C119.459 65.2764 119.952 64.7716 120.587 64.4199C121.234 64.0683 121.983 63.8924 122.833 63.8924C123.684 63.8924 124.427 64.0683 125.063 64.4199C125.709 64.7716 126.203 65.2764 126.543 65.9344C126.895 66.581 127.07 67.341 127.07 68.2145C127.07 69.088 126.895 69.8538 126.543 70.5117C126.203 71.1697 125.709 71.6745 125.063 72.0261C124.427 72.3778 123.684 72.5536 122.833 72.5536ZM122.816 70.9031C123.508 70.9031 124.036 70.6762 124.399 70.2224C124.762 69.7687 124.943 69.0994 124.943 68.2145C124.943 67.341 124.762 66.6774 124.399 66.2236C124.036 65.7585 123.514 65.526 122.833 65.526C122.153 65.526 121.625 65.7585 121.251 66.2236C120.888 66.6774 120.706 67.341 120.706 68.2145C120.706 69.0994 120.888 69.7687 121.251 70.2224C121.614 70.6762 122.136 70.9031 122.816 70.9031Z" fill="black"/>
<path d="M134.357 64.7432C134.584 64.4256 134.788 64.2101 134.969 64.0966C135.162 63.9832 135.423 63.9265 135.752 63.9265C136.081 63.9265 136.342 64.0172 136.535 64.1987C136.739 64.3802 136.841 64.6241 136.841 64.9304V71.4816C136.841 71.7879 136.745 72.0375 136.552 72.2303C136.37 72.4232 136.132 72.5196 135.837 72.5196C135.531 72.5196 135.281 72.4232 135.088 72.2303C134.907 72.0375 134.816 71.7879 134.816 71.4816V66.6831L131.209 71.7369C130.993 72.0432 130.783 72.253 130.579 72.3665C130.386 72.4686 130.142 72.5196 129.847 72.5196C129.518 72.5196 129.258 72.4289 129.065 72.2474C128.872 72.0658 128.775 71.8163 128.775 71.4986V64.9474C128.775 64.6411 128.866 64.3972 129.048 64.2157C129.241 64.0229 129.49 63.9265 129.796 63.9265C130.091 63.9265 130.33 64.0229 130.511 64.2157C130.704 64.3972 130.8 64.6411 130.8 64.9474V69.712L134.357 64.7432ZM132.757 62.4801C132.02 62.4801 131.396 62.3156 130.885 61.9866C130.386 61.6576 130.029 61.2039 129.813 60.6253C129.779 60.5232 129.762 60.4268 129.762 60.3361C129.762 60.1546 129.825 60.0071 129.95 59.8936C130.086 59.7689 130.239 59.7065 130.409 59.7065C130.659 59.7065 130.851 59.8312 130.988 60.0808C131.169 60.4325 131.413 60.7047 131.719 60.8976C132.037 61.0904 132.383 61.1869 132.757 61.1869C133.12 61.1869 133.455 61.0904 133.761 60.8976C134.067 60.7047 134.323 60.4325 134.527 60.0808C134.674 59.8312 134.873 59.7065 135.122 59.7065C135.293 59.7065 135.44 59.7689 135.565 59.8936C135.69 60.0071 135.752 60.1546 135.752 60.3361C135.752 60.4268 135.735 60.5232 135.701 60.6253C135.497 61.2039 135.139 61.6576 134.629 61.9866C134.118 62.3156 133.495 62.4801 132.757 62.4801Z" fill="black"/>
<path d="M147.41 72.5536C146.56 72.5536 145.811 72.3778 145.164 72.0261C144.529 71.6745 144.036 71.1697 143.684 70.5117C143.332 69.8538 143.156 69.088 143.156 68.2145C143.156 67.341 143.332 66.581 143.684 65.9344C144.036 65.2764 144.529 64.7716 145.164 64.4199C145.811 64.0683 146.56 63.8924 147.41 63.8924C148.261 63.8924 149.004 64.0683 149.64 64.4199C150.286 64.7716 150.78 65.2764 151.12 65.9344C151.472 66.581 151.647 67.341 151.647 68.2145C151.647 69.088 151.472 69.8538 151.12 70.5117C150.78 71.1697 150.286 71.6745 149.64 72.0261C149.004 72.3778 148.261 72.5536 147.41 72.5536ZM147.393 70.9031C148.085 70.9031 148.613 70.6762 148.976 70.2224C149.339 69.7687 149.52 69.0994 149.52 68.2145C149.52 67.341 149.339 66.6774 148.976 66.2236C148.613 65.7585 148.091 65.526 147.41 65.526C146.73 65.526 146.202 65.7585 145.828 66.2236C145.465 66.6774 145.283 67.341 145.283 68.2145C145.283 69.0994 145.465 69.7687 145.828 70.2224C146.191 70.6762 146.713 70.9031 147.393 70.9031Z" fill="black"/>
<path d="M157.351 72.5536C155.956 72.5536 154.901 72.0999 154.186 71.1924C153.472 70.2848 153.114 69.0597 153.114 67.5169C153.114 66.269 153.233 65.2367 153.472 64.4199C153.721 63.5918 154.09 62.9282 154.578 62.429C155.077 61.9186 155.723 61.5045 156.517 61.1869C156.949 61.0054 157.493 60.8182 158.151 60.6253C158.888 60.3985 159.433 60.2226 159.785 60.0978C159.977 60.0411 160.131 60.0128 160.244 60.0128C160.494 60.0128 160.692 60.0865 160.84 60.234C160.987 60.3814 161.061 60.5629 161.061 60.7785C161.061 60.9373 161.004 61.1018 160.891 61.2719C160.788 61.4308 160.63 61.5669 160.414 61.6803C160.142 61.8278 159.813 61.9696 159.427 62.1057C159.053 62.2305 158.678 62.3496 158.304 62.4631C157.828 62.5992 157.47 62.707 157.232 62.7864C156.393 63.0586 155.774 63.4614 155.377 63.9945C154.992 64.5277 154.776 65.3048 154.731 66.3257C154.98 65.6791 155.394 65.163 155.973 64.7773C156.563 64.3916 157.221 64.1987 157.947 64.1987C159.115 64.1987 160.023 64.5561 160.669 65.2707C161.316 65.9854 161.639 66.995 161.639 68.2996C161.639 69.105 161.463 69.8311 161.112 70.4777C160.76 71.1243 160.261 71.6348 159.614 72.0091C158.968 72.3721 158.213 72.5536 157.351 72.5536ZM157.351 70.9031C158.055 70.9031 158.588 70.6649 158.951 70.1884C159.325 69.7006 159.512 69.0937 159.512 68.3677C159.512 67.5396 159.331 66.9213 158.968 66.5129C158.605 66.0932 158.111 65.8833 157.487 65.8833C156.795 65.8833 156.257 66.1159 155.871 66.581C155.496 67.0347 155.309 67.636 155.309 68.3847C155.309 69.1447 155.474 69.7573 155.803 70.2224C156.143 70.6762 156.659 70.9031 157.351 70.9031Z" fill="black"/>
<path d="M169.06 64.539C169.151 64.3349 169.27 64.1874 169.417 64.0966C169.576 63.9945 169.746 63.9435 169.928 63.9435C170.189 63.9435 170.421 64.0342 170.626 64.2157C170.841 64.3859 170.949 64.6014 170.949 64.8624C170.949 64.9871 170.915 65.1176 170.847 65.2537L166.201 74.987C166.008 75.3727 165.708 75.5655 165.299 75.5655C165.039 75.5655 164.806 75.4804 164.602 75.3103C164.409 75.1514 164.313 74.9472 164.313 74.6977C164.313 74.5729 164.347 74.4311 164.415 74.2723L165.572 71.839L162.407 65.2537C162.35 65.1403 162.322 65.0098 162.322 64.8624C162.322 64.6014 162.429 64.3802 162.645 64.1987C162.872 64.0172 163.127 63.9265 163.411 63.9265C163.604 63.9265 163.779 63.9775 163.938 64.0796C164.097 64.1704 164.222 64.3178 164.313 64.522L166.695 69.78L169.06 64.539Z" fill="black"/>
<path d="M173.235 72.4175C172.906 72.4289 172.645 72.3438 172.453 72.1623C172.26 71.9808 172.163 71.7312 172.163 71.4136V65.1686C172.152 64.8397 172.237 64.5787 172.418 64.3859C172.6 64.1931 172.85 64.0966 173.167 64.0966H176.315C177.257 64.0966 177.994 64.2838 178.527 64.6582C179.072 65.0325 179.344 65.56 179.344 66.2407C179.344 66.6604 179.219 67.0404 178.97 67.3807C178.72 67.7211 178.363 67.9706 177.898 68.1295C178.431 68.2542 178.839 68.4811 179.123 68.8101C179.418 69.1391 179.565 69.5588 179.565 70.0693C179.565 70.7386 179.282 71.3001 178.714 71.7539C178.159 72.1963 177.376 72.4175 176.366 72.4175H173.235ZM175.958 67.4999C176.366 67.4999 176.684 67.4091 176.911 67.2276C177.138 67.0461 177.251 66.7965 177.251 66.4789C177.251 65.8436 176.814 65.526 175.941 65.526H174.273V67.4999H175.958ZM176.009 70.9882C176.962 70.9882 177.438 70.6308 177.438 69.9161C177.438 69.2015 176.962 68.8441 176.009 68.8441H174.273V70.9882H176.009Z" fill="black"/>
<path d="M186.851 64.7432C187.078 64.4256 187.282 64.2101 187.463 64.0966C187.656 63.9832 187.917 63.9265 188.246 63.9265C188.575 63.9265 188.836 64.0172 189.029 64.1987C189.233 64.3802 189.335 64.6241 189.335 64.9304V71.4816C189.335 71.7879 189.239 72.0375 189.046 72.2303C188.864 72.4232 188.626 72.5196 188.331 72.5196C188.025 72.5196 187.775 72.4232 187.583 72.2303C187.401 72.0375 187.31 71.7879 187.31 71.4816V66.6831L183.703 71.7369C183.487 72.0432 183.277 72.253 183.073 72.3665C182.88 72.4686 182.636 72.5196 182.342 72.5196C182.013 72.5196 181.752 72.4289 181.559 72.2474C181.366 72.0658 181.27 71.8163 181.27 71.4986V64.9474C181.27 64.6411 181.36 64.3972 181.542 64.2157C181.735 64.0229 181.984 63.9265 182.29 63.9265C182.585 63.9265 182.824 64.0229 183.005 64.2157C183.198 64.3972 183.294 64.6411 183.294 64.9474V69.712L186.851 64.7432Z" fill="black"/>
</svg>
