<svg width="30" height="30" viewBox="0 0 30 30" fill="none" xmlns="http://www.w3.org/2000/svg">
<path d="M27.517 1.3335C28.3707 1.3335 29.0623 2.02519 29.0623 2.87883C29.0623 3.73247 28.3707 4.42415 27.517 4.42415C26.6639 4.42415 25.9717 3.73247 25.9717 2.87883C25.9717 2.02519 26.6639 1.3335 27.517 1.3335Z" fill="#68CA44"/>
<path d="M2.7919 17.7139C3.81614 17.7139 4.64629 18.544 4.64629 19.5683C4.64629 20.5925 3.81614 21.4227 2.7919 21.4227C1.76827 21.4227 0.9375 20.5925 0.9375 19.5683C0.9375 18.544 1.76827 17.7139 2.7919 17.7139Z" fill="#68CA44"/>
<path d="M20.8721 19.9819C23.6791 20.8602 25.5316 22.3635 25.5316 24.0727C25.5316 26.7801 20.8857 28.9757 15.1544 28.9757C9.42371 28.9757 4.77783 26.7801 4.77783 24.0727C4.77783 22.3636 6.63037 20.8602 9.43669 19.9819C11.2997 21.7492 13.4162 23.5293 15.1544 25.9122C16.8926 23.5299 19.0097 21.7492 20.8721 19.9819Z" fill="#D0DCE7"/>
<path d="M18.9289 10.187L16.596 11.8813L17.4874 14.6233L15.1546 12.929L12.8223 14.6233L13.7137 11.8813L11.3809 10.187H14.2638L15.1546 7.44495L16.0459 10.187H18.9289Z" fill="#FFCC66"/>
<path d="M15.1544 25.9123C11.0495 20.2847 4.8335 18.0178 4.8335 11.3454C4.8335 5.64495 9.45403 1.02441 15.1544 1.02441C20.8542 1.02441 25.476 5.64495 25.476 11.3454C25.476 18.017 19.2608 20.2844 15.1544 25.9123ZM21.9211 11.3454C21.9211 7.61864 18.8818 4.57929 15.1544 4.57929C11.4277 4.57929 8.38837 7.61864 8.38837 11.3454C8.38837 15.072 11.4277 18.1114 15.1544 18.1114C18.8818 18.1114 21.9211 15.072 21.9211 11.3454Z" fill="#FF5987"/>
<path d="M28.2898 8.13293C28.5463 8.13293 28.7534 8.34063 28.7534 8.59653C28.7534 8.85244 28.5463 9.06013 28.2898 9.06013C28.0338 9.06013 27.8262 8.85244 27.8262 8.59653C27.8262 8.34063 28.0338 8.13293 28.2898 8.13293Z" fill="black"/>
<path d="M27.6716 26.986C27.9281 26.986 28.1352 27.1937 28.1352 27.4496C28.1352 27.7055 27.9281 27.9132 27.6716 27.9132C27.4156 27.9132 27.208 27.7055 27.208 27.4496C27.208 27.1938 27.4156 26.986 27.6716 26.986Z" fill="black"/>
<path d="M25.8174 17.7139C26.0739 17.7139 26.281 17.9216 26.281 18.1775C26.281 18.4334 26.0739 18.6411 25.8174 18.6411C25.5614 18.6411 25.3538 18.4334 25.3538 18.1775C25.3538 17.9217 25.5614 17.7139 25.8174 17.7139Z" fill="black"/>
<path d="M5.10984 2.26062C5.36636 2.26062 5.57344 2.46831 5.57344 2.72422C5.57344 2.98012 5.36636 3.18782 5.10984 3.18782C4.85393 3.18782 4.64624 2.98012 4.64624 2.72422C4.64624 2.46831 4.85393 2.26062 5.10984 2.26062Z" fill="black"/>
<path d="M3.56443 26.3678C3.82095 26.3678 4.02802 26.5756 4.02802 26.8314C4.02802 27.0874 3.82095 27.295 3.56443 27.295C3.30852 27.295 3.10083 27.0874 3.10083 26.8314C3.10083 26.5756 3.30852 26.3678 3.56443 26.3678Z" fill="black"/>
<path d="M1.71018 8.44202C1.96671 8.44202 2.17378 8.64971 2.17378 8.90562C2.17378 9.16152 1.96671 9.36921 1.71018 9.36921C1.45427 9.36921 1.24658 9.16152 1.24658 8.90562C1.24658 8.64971 1.45427 8.44202 1.71018 8.44202Z" fill="black"/>
<path d="M17.4874 14.9323C17.4236 14.9323 17.3598 14.9126 17.3057 14.8733L15.1545 13.3109L13.004 14.8733C12.8956 14.952 12.7489 14.952 12.6406 14.8733C12.5323 14.7946 12.487 14.6551 12.5285 14.5277L13.3503 11.9993L11.1992 10.437C11.0909 10.3583 11.0456 10.2188 11.0869 10.0915C11.1283 9.96413 11.2469 9.8779 11.3808 9.8779H14.0392L14.8605 7.34943C14.902 7.22209 15.0206 7.13586 15.1545 7.13586C15.2884 7.13586 15.4071 7.22209 15.4484 7.34937L16.2704 9.8779H18.9289C19.0628 9.8779 19.1815 9.96413 19.2228 10.0915C19.2642 10.2189 19.2189 10.3583 19.1105 10.437L16.9594 11.9993L17.7813 14.5277C17.8227 14.6551 17.7774 14.7946 17.6692 14.8733C17.6149 14.9126 17.5511 14.9323 17.4874 14.9323ZM15.1545 12.6199C15.2183 12.6199 15.282 12.6396 15.3361 12.679L16.8993 13.8143L16.302 11.9768C16.2606 11.8494 16.306 11.7099 16.4143 11.6312L17.9773 10.496H16.0459C15.912 10.496 15.7933 10.4098 15.752 10.2825L15.1547 8.44501L14.5577 10.2825C14.5164 10.4098 14.3977 10.496 14.2638 10.496H12.3323L13.8953 11.6312C14.0037 11.7099 14.049 11.8495 14.0076 11.9768L13.4103 13.8141L14.9728 12.679C15.0271 12.6396 15.0908 12.6199 15.1545 12.6199Z" fill="black"/>
<path d="M15.1544 26.2213C15.0557 26.2213 14.9629 26.1741 14.9048 26.0943C13.5123 24.1854 11.8815 22.6751 10.3044 21.2146C9.93029 20.8682 9.57696 20.5409 9.22401 20.2061C8.02966 19.0729 6.80272 17.8231 5.91941 16.3637C4.98072 14.813 4.52441 13.1714 4.52441 11.3453C4.52441 5.48391 9.29306 0.715332 15.1544 0.715332C21.0162 0.715332 25.7851 5.48397 25.7851 11.3453C25.7851 13.1714 25.3286 14.8131 24.3898 16.3639C23.5061 17.8236 22.2791 19.0732 21.0849 20.2061C20.731 20.5419 20.3768 20.87 20.0017 21.2174C18.4256 22.6774 16.7957 24.1871 15.4041 26.0943C15.3459 26.1741 15.2532 26.2213 15.1544 26.2213ZM15.1544 1.33346C9.63383 1.33346 5.14255 5.82481 5.14255 11.3453C5.14255 15.1651 7.27442 17.5042 9.64947 19.7577C9.99976 20.09 10.3517 20.4159 10.7245 20.7611C12.2308 22.1561 13.7856 23.596 15.1545 25.3951C16.5226 23.5975 18.0763 22.1585 19.5817 20.7639C19.9554 20.4177 20.3084 20.0908 20.6595 19.7577C23.0349 17.5045 25.1671 15.1655 25.1671 11.3453C25.1669 5.82475 20.6753 1.33346 15.1544 1.33346Z" fill="black"/>
<path d="M15.1545 18.4203C11.2533 18.4203 8.07935 15.2465 8.07935 11.3453C8.07935 7.444 11.2533 4.27014 15.1545 4.27014C19.0561 4.27014 22.2302 7.44406 22.2302 11.3453C22.2302 15.2465 19.0561 18.4203 15.1545 18.4203ZM15.1545 4.88827C11.594 4.88827 8.69748 7.7849 8.69748 11.3453C8.69748 14.9056 11.594 17.8022 15.1545 17.8022C18.7152 17.8022 21.6121 14.9057 21.6121 11.3453C21.6121 7.78484 18.7152 4.88827 15.1545 4.88827Z" fill="black"/>
<path d="M15.1546 29.2849C12.3384 29.2849 9.68572 28.7643 7.68532 27.819C5.61124 26.839 4.46899 25.5085 4.46899 24.0728C4.46899 22.2822 6.29168 20.6427 9.34457 19.6871C9.50751 19.6359 9.68083 19.7269 9.73183 19.8897C9.78283 20.0526 9.69208 20.226 9.52921 20.277C6.74768 21.1476 5.08706 22.5666 5.08706 24.0728C5.08706 25.256 6.10358 26.3879 7.94932 27.2602C9.86887 28.1672 12.4278 28.6668 15.1546 28.6668C17.8817 28.6668 20.4407 28.1672 22.3604 27.2602C24.2061 26.3879 25.2227 25.2559 25.2227 24.0728C25.2227 22.5677 23.5648 21.1499 20.7868 20.2792C20.6576 20.2421 20.5629 20.1231 20.5629 19.982C20.5629 19.8113 20.701 19.673 20.8717 19.673H20.8724C20.9036 19.673 20.9348 19.6777 20.9646 19.6871C24.018 20.6426 25.8409 22.282 25.8409 24.0728C25.8409 25.5086 24.6987 26.839 22.6245 27.819C20.624 28.7643 17.9711 29.2849 15.1546 29.2849Z" fill="black"/>
<path d="M27.517 4.7332C26.4945 4.7332 25.6626 3.90132 25.6626 2.87881C25.6626 1.8563 26.4945 1.02441 27.517 1.02441C28.5395 1.02441 29.3714 1.8563 29.3714 2.87881C29.3714 3.90132 28.5395 4.7332 27.517 4.7332ZM27.517 1.64255C26.8354 1.64255 26.2807 2.19713 26.2807 2.87881C26.2807 3.56048 26.8354 4.11507 27.517 4.11507C28.1986 4.11507 28.7533 3.56048 28.7533 2.87881C28.7533 2.19713 28.1986 1.64255 27.517 1.64255Z" fill="black"/>
<path d="M2.79188 21.7317C1.59895 21.7317 0.628418 20.7612 0.628418 19.5682C0.628418 18.3753 1.59895 17.4048 2.79188 17.4048C3.98481 17.4048 4.95534 18.3753 4.95534 19.5682C4.95534 20.7612 3.98481 21.7317 2.79188 21.7317ZM2.79188 18.0229C1.93979 18.0229 1.24655 18.7162 1.24655 19.5682C1.24655 20.4203 1.93979 21.1136 2.79188 21.1136C3.64398 21.1136 4.33721 20.4203 4.33721 19.5682C4.33721 18.7162 3.64398 18.0229 2.79188 18.0229Z" fill="black"/>
</svg>
