<svg width="21" height="31" viewBox="0 0 21 31" fill="none" xmlns="http://www.w3.org/2000/svg">
<path d="M10.3028 0.362854C4.72748 0.362854 0.191406 4.89892 0.191406 10.4742C0.191406 12.1479 0.609862 13.8074 1.40536 15.2793L9.74984 30.3711C9.86093 30.5723 10.0726 30.6969 10.3028 30.6969C10.533 30.6969 10.7446 30.5723 10.8557 30.3711L19.2033 15.2744C19.9957 13.8074 20.4142 12.1479 20.4142 10.4742C20.4142 4.89892 15.8781 0.362854 10.3028 0.362854ZM10.3028 15.5299C7.51513 15.5299 5.24713 13.2619 5.24713 10.4742C5.24713 7.68658 7.51513 5.41857 10.3028 5.41857C13.0904 5.41857 15.3584 7.68658 15.3584 10.4742C15.3584 13.2619 13.0904 15.5299 10.3028 15.5299Z" fill="#3C2310"/>
</svg>
