<svg width="39" height="39" viewBox="0 0 39 39" fill="none" xmlns="http://www.w3.org/2000/svg">
<g clip-path="url(#clip0)">
<path d="M3.54769 20.1462L0.943366 22.7504C0.504311 23.1895 0.449391 23.8753 0.796735 24.39C1.88508 26.0024 1.44336 27.4894 0.985261 28.35C0.719573 28.8491 0.809684 29.4625 1.20951 29.8623L9.13757 37.7904C9.5374 38.1902 10.1507 38.2803 10.6499 38.0146C11.5105 37.5565 12.9974 37.1149 14.6098 38.2031C15.1245 38.5505 15.8104 38.4956 16.2495 38.0565L18.8537 35.4523L14.2016 24.7983L3.54769 20.1462Z" fill="#E6E6E6"/>
<path d="M14.2015 24.7981L13.0767 24.3071L17.2377 33.8362L14.6334 36.4405C14.1943 36.8796 13.5085 36.9345 12.9938 36.5871C11.3813 35.4988 9.89439 35.9405 9.0338 36.3987C8.53465 36.6644 7.92131 36.5743 7.52148 36.1744L9.1374 37.7904C9.53722 38.1902 10.1506 38.2803 10.6497 38.0146C11.5103 37.5565 12.9973 37.1149 14.6097 38.2031C15.1243 38.5505 15.8102 38.4955 16.2493 38.0564L18.8536 35.4521L14.2015 24.7981Z" fill="#CCCCCC"/>
<path d="M28.3499 0.985444C27.4893 1.44354 26.0024 1.88519 24.39 0.796918C23.8753 0.449574 23.1894 0.504494 22.7504 0.943549L3.54785 20.1461L18.8539 35.4521L38.0564 16.2496C38.4954 15.8106 38.5504 15.1247 38.203 14.61C37.1147 12.9976 37.5564 11.5107 38.0145 10.6501C38.2802 10.1509 38.1901 9.53758 37.7902 9.13775L29.8622 1.20969C29.4623 0.809867 28.8491 0.719756 28.3499 0.985444Z" fill="#EF5350"/>
<path d="M38.2033 14.61C37.115 12.9976 37.5567 11.5107 38.0149 10.6501C38.2806 10.1509 38.1905 9.53759 37.7907 9.13776L36.1748 7.52185C36.5746 7.92168 36.6647 8.53501 36.399 9.03417C35.9409 9.89476 35.4992 11.3817 36.5874 12.9941C36.9348 13.5087 36.8799 14.1947 36.4408 14.6337L17.2383 33.8362L18.8542 35.4522L38.0567 16.2496C38.4958 15.8106 38.5507 15.1247 38.2033 14.61Z" fill="#D44A47"/>
<path d="M18.854 30.9746L34.8389 14.9897L24.0103 4.1611L8.0254 20.146L18.854 30.9746Z" fill="#E6E6E6"/>
<path d="M7.46289 20.1451C7.46244 20.2931 7.5137 20.442 7.62095 20.5493C7.62095 20.5493 18.4381 31.3664 18.45 31.3784C18.6624 31.5907 19.0354 31.6009 19.258 31.3784C19.258 31.3784 35.2333 15.403 35.2434 15.3929C35.463 15.1733 35.4627 14.8042 35.2434 14.585L24.4144 3.75595C24.1913 3.53285 23.8295 3.53285 23.6065 3.75595C23.6065 3.75595 7.66536 19.6971 7.62118 19.7413C7.51751 19.8448 7.46335 19.9945 7.46289 20.1451ZM24.0103 4.96785L34.0315 14.9889L18.854 30.1664L8.83292 20.1454L24.0103 4.96785Z" fill="black"/>
<path d="M22.0445 24.2975C22.1315 24.8598 22.8013 25.163 23.2301 24.7343C23.4048 24.5595 23.4922 24.3224 23.4422 24.0728C23.4422 24.0728 21.3534 10.57 21.3456 10.5197C21.2569 9.94587 20.5768 9.66609 20.1475 10.0952C19.9727 10.27 19.8855 10.507 19.9478 10.7442C19.9477 10.7442 22.037 24.2501 22.0445 24.2975Z" fill="black"/>
<path d="M24.5275 19.0933C25.7256 20.2914 27.5601 20.4786 28.7831 19.2555C30.0186 18.02 29.8314 16.1605 28.6209 14.95L28.5959 14.9251C27.3978 13.7269 25.5633 13.5396 24.3402 14.7628C23.1047 15.9983 23.2795 17.8453 24.5026 19.0684L24.5275 19.0933ZM25.2763 15.7486C25.8378 15.1871 26.8113 15.3618 27.5101 16.0607L27.5351 16.0856C28.209 16.7596 28.4336 17.6831 27.8471 18.2696C27.2854 18.8312 26.3245 18.6689 25.6132 17.9576L25.5883 17.9326C24.9144 17.2588 24.6897 16.3352 25.2763 15.7486Z" fill="black"/>
<path d="M18.8738 15.7612L18.8488 15.7362C17.6507 14.5381 15.8287 14.3384 14.5932 15.574C13.3577 16.8095 13.5324 18.6565 14.7554 19.8794L14.7804 19.9044C15.9785 21.1025 17.813 21.2898 19.0361 20.0667C20.2841 18.8187 20.0844 16.9717 18.8738 15.7612ZM18.1001 19.0808C17.5385 19.6424 16.5775 19.4801 15.8662 18.7688L15.8413 18.7438C15.1674 18.0699 14.9427 17.1463 15.5293 16.5598C16.0908 15.9982 17.0643 16.173 17.7632 16.8719L17.7881 16.8968C18.462 17.5707 18.6867 18.4942 18.1001 19.0808Z" fill="black"/>
<path d="M0.482367 28.0808C0.0958698 28.8068 0.226276 29.6849 0.806936 30.2655L8.735 38.1936C9.08501 38.5436 9.55065 38.7364 10.0461 38.7364C10.3493 38.7364 10.6514 38.6609 10.9197 38.5181C12.0186 37.9332 13.2571 37.9777 14.2916 38.6758C14.6058 38.8879 14.9709 39 15.3475 39C15.8421 39 16.3063 38.808 16.6548 38.4596L38.4617 16.6528C39.0883 16.0263 39.1791 15.0324 38.6778 14.2897C37.7756 12.9529 38.0941 11.7182 38.5202 10.9178C38.9067 10.1917 38.7763 9.31367 38.1956 8.73301L30.2675 0.805023C29.6868 0.224364 28.8088 0.0939576 28.0828 0.480454C27.2824 0.906485 26.0477 1.22496 24.7109 0.322778C23.9681 -0.178586 22.9742 -0.0876366 22.3477 0.538954L9.87643 13.0101C9.65333 13.2332 9.65333 13.5949 9.87643 13.8179C10.0995 14.0411 10.4613 14.0411 10.6843 13.8179L23.1557 1.34684C23.3962 1.10628 23.7813 1.07391 24.0715 1.26975C25.9743 2.55409 27.7378 1.95842 28.6196 1.48897C28.8991 1.34021 29.2365 1.39002 29.4594 1.61283L37.3875 9.54089C37.6104 9.76377 37.6602 10.1013 37.5113 10.3807C37.042 11.2625 36.4462 13.0258 37.7306 14.9287C37.9265 15.2189 37.894 15.6041 37.6536 15.8447L18.8551 34.6434L4.35701 20.1454L9.15912 15.3433C9.38223 15.1202 9.38223 14.7584 9.15912 14.5354C8.93601 14.3123 8.57427 14.3123 8.35124 14.5354L0.540791 22.3457C-0.0857244 22.9722 -0.176674 23.9661 0.324614 24.7089C1.22695 26.0457 0.908473 27.2804 0.482367 28.0808ZM1.34882 23.1537L3.54913 20.9534L18.0471 35.4514C18.0471 35.4514 15.8493 37.6492 15.8468 37.6517C15.6028 37.8957 15.2136 37.9195 14.9309 37.7288C13.549 36.7963 11.8505 36.7283 10.3829 37.5095C10.1163 37.6514 9.76461 37.6071 9.54303 37.3856L1.61489 29.4576C1.39201 29.2347 1.3422 28.8972 1.49096 28.6178C1.96033 27.736 2.55607 25.9726 1.27174 24.0698C1.0759 23.7794 1.10827 23.3942 1.34882 23.1537Z" fill="black"/>
</g>
<defs>
<clipPath id="clip0">
<rect width="39" height="39" fill="white"/>
</clipPath>
</defs>
</svg>
