<svg width="16" height="16" viewBox="0 0 16 16" fill="none" xmlns="http://www.w3.org/2000/svg">
<g clip-path="url(#clip0)">
<path d="M11.1892 15.2754C9.40055 16.1272 7.38728 16.2316 5.5198 15.5694C1.6655 14.2026 -0.357893 9.95432 1.00923 6.10002C1.67113 4.23422 3.01152 2.75284 4.75941 1.90915L2.45882 1.09332C2.16614 0.989478 2.01277 0.668099 2.11661 0.374862C2.22046 0.0819066 2.54212 -0.071466 2.83535 0.0326585L6.52643 1.34153C6.66685 1.39134 6.78195 1.49519 6.8464 1.6297C6.8827 1.70597 6.90099 1.7887 6.90099 1.87172C6.90099 1.93532 6.8903 1.99892 6.86863 2.05971L5.48659 5.95622C5.38275 6.24917 5.0608 6.40255 4.76785 6.29842C4.47517 6.19458 4.3218 5.87207 4.42564 5.57996L5.39316 2.85246C3.8403 3.55516 2.64934 4.84293 2.0699 6.47571C0.910456 9.74551 2.62682 13.3482 5.89633 14.5079C9.16556 15.6677 12.7691 13.951 13.9288 10.6818C14.7675 8.31506 14.1227 5.68015 12.2837 3.96941C12.0557 3.75778 12.0433 3.40151 12.255 3.17384C12.4666 2.94617 12.8229 2.93351 13.0503 3.14514C14.5874 4.57502 15.417 6.55226 15.417 8.57706C15.417 9.40752 15.2774 10.2461 14.9892 11.0575C14.3273 12.9258 12.9779 14.4232 11.1892 15.2754Z" fill="#015AFE" fill-opacity="0.5" stroke="#015AFE" stroke-opacity="0.5" stroke-width="0.25"/>
</g>
<defs>
<clipPath id="clip0">
<rect width="16" height="16" rx="8" transform="matrix(4.37114e-08 1 1 -4.37114e-08 0 0)" fill="white"/>
</clipPath>
</defs>
</svg>
