<svg width="96" height="97" viewBox="0 0 96 97" fill="none" xmlns="http://www.w3.org/2000/svg">
<path d="M11.4675 15.2209H11.4652C5.66402 20.822 5.66402 29.9055 11.4652 35.5066L12.2743 36.2879L10.7383 37.7709C8.46151 39.9668 8.46151 43.5309 10.7383 45.729L51.792 85.3649C54.0686 87.5629 57.7577 87.5629 60.0343 85.3649L61.5703 83.884L62.3772 84.663C68.1703 90.2562 77.5724 90.2752 83.3897 84.663C89.1909 79.062 89.1909 69.9784 83.3897 64.3773L82.5806 63.596L84.1166 62.113C86.3932 59.9171 86.3932 56.3528 84.1166 54.1547L43.0629 14.5188C40.7886 12.3208 37.0972 12.3208 34.8204 14.5188L33.2844 15.9997L32.4775 15.2206C26.6853 9.62814 17.2851 9.6085 11.4675 15.2209Z" fill="#FF5987"/>
<path d="M20.3543 44.0894L53.4078 76.0033L74.4181 55.7153L41.3667 23.8036L20.3543 44.0894Z" fill="#D0DCE7"/>
<path d="M7.99995 64.287C4.84315 64.287 2.28567 66.7565 2.28567 69.8042C2.28567 72.8519 4.84315 75.3215 7.99995 75.3215C11.1545 75.3215 13.7142 72.8519 13.7142 69.8042C13.7142 66.7565 11.1545 64.287 7.99995 64.287Z" fill="#68CA44"/>
<path d="M84.5712 5.80408C78.8889 5.80408 74.2855 10.251 74.2855 15.7351C74.2855 21.2192 78.8889 25.6661 84.5712 25.6661C90.2512 25.6661 94.8569 21.2192 94.8569 15.7351C94.8569 10.251 90.2512 5.80408 84.5712 5.80408Z" fill="#68CA44"/>
<path d="M37.3262 47.9912C35.9866 49.2842 35.9866 51.3807 37.3262 52.672C38.6654 53.9652 40.8369 53.9652 42.174 52.672C43.5134 51.3807 43.5134 49.2842 42.174 47.9912C40.8369 46.6979 38.6654 46.6979 37.3262 47.9912Z" fill="#414A56"/>
<path d="M53.4879 46.4307C52.1484 47.724 52.1484 49.8205 53.4879 51.1116C54.8273 52.4048 56.9987 52.4048 58.3359 51.1116C59.6753 49.8205 59.6753 47.724 58.3359 46.4307C56.9987 45.1375 54.8273 45.1375 53.4879 46.4307Z" fill="#414A56"/>
<path d="M1.7143 48.8386C0.765731 48.8386 1.64509e-05 49.5801 1.64509e-05 50.4938C1.64509e-05 51.4074 0.765731 52.149 1.7143 52.149C2.66082 52.149 3.42859 51.4074 3.42859 50.4938C3.42859 49.5801 2.66082 48.8386 1.7143 48.8386Z" fill="black"/>
<path d="M20.0002 80.8385C19.0516 80.8385 18.2859 81.58 18.2859 82.4937C18.2859 83.4073 19.0516 84.1488 20.0002 84.1488C20.9467 84.1488 21.7145 83.4073 21.7145 82.4937C21.7145 81.58 20.9467 80.8385 20.0002 80.8385Z" fill="black"/>
<path d="M23.4288 0.286865C22.4802 0.286865 21.7145 1.02838 21.7145 1.94204C21.7145 2.85569 22.4802 3.59721 23.4288 3.59721C24.3753 3.59721 25.1431 2.85569 25.1431 1.94204C25.1431 1.02838 24.3753 0.286865 23.4288 0.286865Z" fill="black"/>
<path d="M42.8571 92.9764C41.9085 92.9764 41.1428 93.718 41.1428 94.6316C41.1428 95.5453 41.9085 96.2868 42.8571 96.2868C43.8036 96.2868 44.5714 95.5453 44.5714 94.6316C44.5714 93.718 43.8036 92.9764 42.8571 92.9764Z" fill="black"/>
<path d="M63.4285 2.49365C62.48 2.49365 61.7142 3.23517 61.7142 4.14882C61.7142 5.06248 62.48 5.80399 63.4285 5.80399C64.3748 5.80399 65.1428 5.06248 65.1428 4.14882C65.1428 3.23517 64.3748 2.49365 63.4285 2.49365Z" fill="black"/>
<path d="M89.7141 41.1145C88.7655 41.1145 87.9998 41.856 87.9998 42.7697C87.9998 43.6833 88.7655 44.4249 89.7141 44.4249C90.6603 44.4249 91.4283 43.6833 91.4283 42.7697C91.4283 41.856 90.6603 41.1145 89.7141 41.1145Z" fill="black"/>
<path d="M93.1426 88.5625C92.1941 88.5625 91.4284 89.304 91.4284 90.2177C91.4284 91.1313 92.1941 91.8728 93.1426 91.8728C94.0889 91.8728 94.8569 91.1313 94.8569 90.2177C94.8569 89.304 94.0889 88.5625 93.1426 88.5625Z" fill="black"/>
<path d="M72.8823 89.9685C77.1543 89.9685 81.1728 88.3616 84.1975 85.4437C90.4359 79.4202 90.4359 69.6202 84.1977 63.5972L84.1968 63.5961L84.9246 62.8934C86.2414 61.6231 86.9669 59.9331 86.9669 58.1347C86.9669 56.3363 86.2416 54.6458 84.9246 53.3746L43.8709 13.7388C42.5554 12.4674 40.805 11.7669 38.9424 11.7669C37.0802 11.7669 35.3292 12.4671 34.0123 13.7388L33.285 14.4399C30.2629 11.5224 26.2446 9.91553 21.9703 9.91553C17.7214 9.91553 13.7223 11.5071 10.7026 14.3988C10.6873 14.4123 10.6718 14.4262 10.6572 14.4405C4.41875 20.4636 4.41875 30.2638 10.6572 36.2868L10.6581 36.2877L9.93006 36.9906C8.61326 38.2607 7.88778 39.9507 7.88778 41.7491C7.88778 43.5471 8.61326 45.2378 9.93006 46.5092L50.9838 86.145C53.702 88.769 58.1244 88.7692 60.8423 86.1448L61.5696 85.4437C64.592 88.3618 68.6096 89.9685 72.8823 89.9685ZM38.9426 13.974C40.1943 13.974 41.3703 14.4445 42.2542 15.299L83.3086 54.9351C84.1939 55.7898 84.6814 56.9262 84.6814 58.1349C84.6814 59.3434 84.1941 60.4788 83.3091 61.3325L81.7726 62.8157C81.5582 63.0227 81.4377 63.3034 81.4377 63.5961C81.4377 63.8887 81.5582 64.1694 81.7724 64.3762L82.5815 65.1574C87.9285 70.3203 87.9285 78.7201 82.5815 83.883C79.9888 86.384 76.544 87.7616 72.8821 87.7616C69.2197 87.7616 65.7758 86.384 63.1852 83.883L62.3783 83.1039C61.9326 82.6729 61.2094 82.6727 60.7628 83.1033L59.2268 84.5841C57.3993 86.3483 54.4268 86.3483 52.6 84.5845L11.5463 44.9489C10.661 44.0942 10.1735 42.9581 10.1735 41.7493C10.1735 40.5408 10.661 39.4052 11.5458 38.5518L13.0825 37.0683C13.5287 36.6373 13.5287 35.9386 13.0825 35.5078L12.2731 34.7266C6.93967 29.577 6.92641 21.2058 12.2334 16.0401C12.2476 16.0277 12.2615 16.0149 12.2752 16.0017C14.8681 13.5002 18.3111 12.1226 21.9703 12.1226C25.6343 12.1226 29.0791 13.5002 31.6697 16.0015L32.4764 16.7805C32.9223 17.2113 33.6455 17.2115 34.0919 16.781L35.6281 15.3001C36.5138 14.4447 37.6908 13.974 38.9426 13.974Z" fill="black"/>
<path d="M53.4078 77.1068C53.7109 77.1068 54.0017 76.9905 54.2161 76.7835L75.2264 56.4955C75.6728 56.0647 75.6728 55.366 75.2264 54.9352L42.1749 23.0233C41.7285 22.5925 41.0049 22.5925 40.5589 23.0233L19.5463 43.3091C19.3319 43.5161 19.2115 43.7966 19.2115 44.0894C19.2115 44.3823 19.3317 44.6628 19.5461 44.8698L52.5998 76.7835C52.814 76.9905 53.1048 77.1068 53.4078 77.1068ZM72.8019 55.7154L53.4078 74.4426L21.9703 44.0894L41.3667 25.3641L72.8019 55.7154Z" fill="black"/>
<path d="M46.216 62.3604C46.7755 62.3604 47.2645 61.9632 47.3458 61.4128L50.5778 39.5646C50.6672 38.9612 50.2329 38.4024 49.608 38.3161C48.9833 38.2296 48.4041 38.6491 48.3152 39.2525L45.083 61.1007C44.9936 61.7039 45.4281 62.2631 46.0526 62.3492C46.1079 62.3567 46.1623 62.3604 46.216 62.3604Z" fill="black"/>
<path d="M55.913 53.1852C57.1345 53.1852 58.2824 52.7257 59.145 51.8913C60.0076 51.0598 60.4835 49.9517 60.4835 48.7723C60.4835 47.5932 60.0079 46.4846 59.1443 45.6507C58.2824 44.8169 57.1345 44.3574 55.913 44.3574C54.6917 44.3574 53.5436 44.8167 52.6799 45.6504C51.8161 46.4844 51.3404 47.5929 51.3404 48.7721C51.3404 49.9515 51.8166 51.0595 52.6806 51.8926C53.5436 52.726 54.6917 53.1852 55.913 53.1852ZM55.913 46.5645C56.5231 46.5645 57.0965 46.7941 57.5274 47.2105C57.9601 47.6285 58.198 48.1826 58.198 48.7723C58.198 49.3613 57.9603 49.915 57.529 50.3308C57.0968 50.749 56.5235 50.9785 55.9132 50.9785C55.3027 50.9785 54.7283 50.7488 54.2965 50.3317C53.8643 49.915 53.6266 49.3616 53.6266 48.7725C53.6266 48.1829 53.8645 47.6285 54.2965 47.2114C54.7283 46.7943 55.3023 46.5645 55.913 46.5645Z" fill="black"/>
<path d="M39.7505 54.7457C40.972 54.7457 42.1199 54.2862 42.9825 53.4518C43.8452 52.62 44.321 51.5119 44.321 50.3325C44.321 49.1534 43.8454 48.0449 42.9816 47.2109C42.1199 46.3773 40.972 45.9178 39.7505 45.9178C38.5293 45.9178 37.3812 46.3773 36.5174 47.2111C35.6538 48.0446 35.178 49.1534 35.178 50.3325C35.178 51.5119 35.6541 52.6202 36.5181 53.4531C37.3812 54.2864 38.5293 54.7457 39.7505 54.7457ZM39.7505 48.1247C40.3606 48.1247 40.9341 48.3543 41.3649 48.7709C41.7976 49.1887 42.0356 49.7428 42.0356 50.3325C42.0356 50.9218 41.7978 51.4755 41.3663 51.8913C40.9341 52.3092 40.3608 52.5388 39.7508 52.5388C39.1402 52.5388 38.5658 52.309 38.1341 51.8919C37.7018 51.475 37.4639 50.9218 37.4639 50.3325C37.4639 49.7428 37.7018 49.1885 38.1341 48.7718C38.5658 48.3545 39.14 48.1247 39.7505 48.1247Z" fill="black"/>
<path d="M19.9998 24.5626C20.2921 24.5626 20.5847 24.4549 20.8078 24.2395C21.2542 23.8085 21.2542 23.1098 20.8078 22.679L12.2752 14.4407C12.261 14.427 12.2466 14.4138 12.232 14.401L5.09394 7.50684C4.64776 7.07583 3.92411 7.07561 3.47771 7.50662C3.03131 7.9374 3.03131 8.63611 3.47748 9.06711L10.6569 16.0012C10.6713 16.0149 10.6857 16.0283 10.7006 16.0411L19.1918 24.2395C19.4149 24.4549 19.7074 24.5626 19.9998 24.5626Z" fill="black"/>
<path d="M84.5714 26.7696C90.8731 26.7696 96 21.8196 96 15.7352C96 9.65075 90.8731 4.70068 84.5714 4.70068C78.2697 4.70068 73.1429 9.65075 73.1429 15.7352C73.1429 21.8196 78.2697 26.7696 84.5714 26.7696ZM84.5714 6.90758C89.6128 6.90758 93.7143 10.8676 93.7143 15.7352C93.7143 20.6027 89.6128 24.5627 84.5714 24.5627C79.5301 24.5627 75.4286 20.6027 75.4286 15.7352C75.4286 10.8676 79.5301 6.90758 84.5714 6.90758Z" fill="black"/>
<path d="M7.99955 76.425C11.7806 76.425 14.8567 73.4549 14.8567 69.8043C14.8567 66.1536 11.7806 63.1836 7.99955 63.1836C4.21852 63.1836 1.14241 66.1536 1.14241 69.8043C1.14241 73.4549 4.21852 76.425 7.99955 76.425ZM7.99955 65.3905C10.52 65.3905 12.571 67.3705 12.571 69.8043C12.571 72.238 10.52 74.2181 7.99955 74.2181C5.47909 74.2181 3.42812 72.238 3.42812 69.8043C3.42812 67.3705 5.47909 65.3905 7.99955 65.3905Z" fill="black"/>
</svg>
