<svg width="99" height="99" viewBox="0 0 99 99" fill="none" xmlns="http://www.w3.org/2000/svg">
<path d="M50.7211 13.589L50.7223 13.5878C56.5989 13.3933 61.3546 18.0035 61.3428 23.8833L61.3412 24.7035L62.8972 24.652C65.2023 24.5744 67.0683 26.3833 67.0636 28.6909L66.979 70.3007C66.9743 72.6081 65.102 74.5396 62.7958 74.6159L61.2409 74.6685L61.2393 75.4863C61.2274 81.358 56.4655 86.29 50.5749 86.4874C44.6982 86.6818 39.9425 82.0717 39.9543 76.1918L39.9559 75.3717L38.3999 75.4232C36.0949 75.5006 34.2288 73.6916 34.2334 71.3841L34.318 29.7743C34.3215 27.4681 36.195 25.5354 38.5013 25.459L40.0562 25.4064L40.0578 24.5886C40.0696 18.7177 44.8302 13.7863 50.7211 13.589Z" fill="#FF5987"/>
<path d="M61.325 32.8933L61.2579 66.3955L39.9729 67.0987L40.0401 33.5987L61.325 32.8933Z" fill="#D0DCE7"/>
<path d="M78.1697 36.676C79.7718 35.0233 82.3627 34.9377 83.9584 36.4844C85.554 38.0312 85.5489 40.6236 83.9467 42.2763C82.3457 43.9278 79.7537 44.0146 78.1581 42.4678C76.5624 40.921 76.5687 38.3275 78.1697 36.676Z" fill="#68CA44"/>
<path d="M8.68902 47.0831C11.5729 44.1081 16.2375 43.9549 19.1087 46.7383C21.9799 49.5216 21.9717 54.1886 19.0877 57.1636C16.205 60.1373 11.5393 60.2917 8.66811 57.5084C5.79691 54.725 5.80627 50.0568 8.68902 47.0831Z" fill="#68CA44"/>
<path d="M73.2714 25.5447C73.7528 25.048 74.5297 25.0235 75.008 25.4872C75.4864 25.9509 75.486 26.7281 75.0045 27.2247C74.5242 27.7203 73.7463 27.7459 73.2679 27.2822C72.7896 26.8185 72.791 26.0402 73.2714 25.5447Z" fill="#222222"/>
<path d="M80.7441 51.3589C81.2255 50.8623 82.0023 50.8377 82.4807 51.3014C82.959 51.7651 82.9586 52.5424 82.4772 53.039C81.9968 53.5345 81.2189 53.5602 80.7406 53.0965C80.2622 52.6327 80.2637 51.8544 80.7441 51.3589Z" fill="#222222"/>
<path d="M36.832 12.2718C37.3134 11.7752 38.0902 11.7506 38.5686 12.2143C39.0469 12.678 39.0465 13.4553 38.5651 13.9519C38.0847 14.4474 37.3068 14.4731 36.8285 14.0094C36.3501 13.5457 36.3516 12.7673 36.832 12.2718Z" fill="#222222"/>
<path d="M75.499 69.486C75.9804 68.9894 76.7572 68.9648 77.2356 69.4285C77.7139 69.8922 77.7135 70.6695 77.2321 71.1661C76.7517 71.6616 75.9738 71.6873 75.4955 71.2236C75.0171 70.7599 75.0186 69.9815 75.499 69.486Z" fill="#222222"/>
<path d="M17.6865 34.3338C18.1679 33.8371 18.9447 33.8126 19.4231 34.2763C19.9014 34.74 19.901 35.5172 19.4196 36.0138C18.9393 36.5093 18.1613 36.535 17.683 36.0713C17.2046 35.6076 17.2062 34.8292 17.6865 34.3338Z" fill="#222222"/>
<path d="M24.5654 67.6966C25.0468 67.2 25.8236 67.1755 26.302 67.6392C26.7803 68.1029 26.7799 68.8801 26.2985 69.3767C25.8182 69.8722 25.0402 69.8979 24.5619 69.4342C24.0835 68.9705 24.0851 68.1921 24.5654 67.6966Z" fill="#222222"/>
<path d="M47.6669 93.5727C48.1483 93.0761 48.9252 93.0515 49.4035 93.5152C49.8819 93.9789 49.8815 94.7562 49.4 95.2528C48.9198 95.7482 48.1418 95.774 47.6634 95.3103C47.1851 94.8466 47.1867 94.0681 47.6669 93.5727Z" fill="#222222"/>
<path d="M58.6851 83.6789C56.5169 85.9155 53.6362 87.2039 50.5734 87.3065C44.2536 87.5155 39.1229 82.5418 39.1356 76.219L39.1355 76.2179L38.3982 76.2423C37.0649 76.287 35.8119 75.8091 34.8703 74.8964C33.9288 73.9836 33.4118 72.746 33.4147 71.4113L33.4994 29.8015C33.5013 28.4676 34.023 27.1956 34.9683 26.2205C35.9134 25.2455 37.1688 24.6841 38.5028 24.6401L39.239 24.6152C39.2454 21.5522 40.4435 18.6329 42.6128 16.3952C44.7693 14.1706 47.6322 12.8847 50.6787 12.7714C50.6935 12.7702 50.7087 12.7691 50.7236 12.7688C57.0431 12.5595 62.174 17.5334 62.1612 23.8563L62.1612 23.8573L62.8986 23.8328C64.2319 23.788 65.4849 24.266 66.4264 25.1787C67.3678 26.0912 67.8847 27.3291 67.882 28.6638L67.7974 70.2735C67.7917 73.0284 65.5473 75.3438 62.7938 75.4348L62.0576 75.4598C62.0515 78.5232 60.8536 81.442 58.6851 83.6789ZM36.1237 27.3408C35.4885 27.9961 35.138 28.8505 35.1367 29.747L35.0519 71.3572C35.0501 72.2545 35.3976 73.0865 36.0304 73.6999C36.6631 74.3133 37.5049 74.6344 38.401 74.6043L39.9573 74.5527C40.1745 74.5455 40.3826 74.6249 40.5358 74.7734C40.689 74.9219 40.7748 75.1275 40.7744 75.3446L40.7728 76.1647C40.762 81.5843 45.1597 85.8475 50.5764 85.6684C53.2017 85.5803 55.6713 84.476 57.5298 82.5588C59.3886 80.6413 60.4152 78.1392 60.4206 75.5135L60.4222 74.6957C60.4228 74.2436 60.7897 73.8648 61.2418 73.8495L62.7967 73.7969C64.6478 73.7355 66.1564 72.1793 66.1601 70.3277L66.2449 28.7181C66.2467 27.8208 65.8993 26.9889 65.2665 26.3755C64.6338 25.7621 63.7918 25.441 62.8959 25.4711L61.3394 25.5227C60.8873 25.5376 60.5215 25.183 60.5224 24.7307L60.5241 23.9105C60.535 18.5046 56.159 14.2491 50.7611 14.4058C50.7474 14.407 50.7336 14.4078 50.7197 14.4082C48.0941 14.4961 45.6255 15.5996 43.7684 17.5153C41.9088 19.4336 40.8817 21.9362 40.8764 24.562L40.8749 25.3797C40.8741 25.8318 40.5072 26.2106 40.0552 26.2258L38.5002 26.2785C37.6029 26.3081 36.7591 26.6853 36.1237 27.3408Z" fill="#222222"/>
<path d="M61.8352 66.9556C61.6814 67.1143 61.4729 67.2075 61.2557 67.2146L39.9708 67.9178C39.5187 67.9329 39.1529 67.5783 39.1539 67.1259L39.221 33.6258C39.222 33.1735 39.5893 32.7946 40.0411 32.7798L61.3261 32.0743C61.5433 32.0671 61.7513 32.1464 61.9046 32.295C62.0579 32.4437 62.1438 32.649 62.1433 32.8663L62.076 66.3685C62.0757 66.5857 61.989 66.7969 61.8352 66.9556ZM40.7928 66.2526L60.4404 65.6035L60.5044 33.7394L40.8567 34.3907L40.7928 66.2526Z" fill="#222222"/>
<path d="M51.2813 22.7974C51.133 22.9504 50.9281 23.0489 50.7021 23.0564C50.2499 23.0714 49.8841 22.7168 49.8851 22.2644L49.9025 13.616C49.9025 13.6017 49.9029 13.5874 49.9036 13.5732L49.9169 6.33719C49.9177 5.88485 50.2849 5.50587 50.7371 5.49091C51.1892 5.47583 51.555 5.83044 51.5542 6.28278L51.5408 13.5608C51.5406 13.5753 51.5404 13.5896 51.5395 13.6039L51.5223 22.2103C51.5218 22.4365 51.4297 22.6443 51.2813 22.7974Z" fill="#222222"/>
<path d="M19.665 57.7236C16.4667 61.0229 11.2731 61.1947 8.08761 58.1067C4.90214 55.0187 4.91256 49.8223 8.11085 46.523C11.3091 43.2238 16.5027 43.0519 19.6882 46.1399C22.8737 49.2279 22.8633 54.4244 19.665 57.7236ZM9.26626 47.6431C6.70763 50.2825 6.69929 54.4397 9.24767 56.9101C11.796 59.3804 15.9509 59.243 18.5096 56.6036C21.0682 53.9642 21.0765 49.807 18.5282 47.3366C15.9798 44.8662 11.8249 45.0037 9.26626 47.6431Z" fill="#222222"/>
<path d="M84.524 42.8362C82.605 44.8158 79.4889 44.9189 77.5776 43.0661C75.6663 41.2133 75.6725 38.0954 77.5915 36.1159C79.5105 34.1364 82.6266 34.0332 84.5379 35.886C86.4492 37.7388 86.443 40.8567 84.524 42.8362ZM78.7469 37.236C77.4677 38.5555 77.4634 40.6342 78.7376 41.8694C80.0118 43.1046 82.0894 43.0358 83.3686 41.7162C84.6478 40.3966 84.6521 38.3179 83.3779 37.0827C82.1037 35.8475 80.0261 35.9164 78.7469 37.236Z" fill="#222222"/>
</svg>
