<svg width="99" height="99" viewBox="0 0 99 99" fill="none" xmlns="http://www.w3.org/2000/svg">
<path d="M50.7272 13.589L50.7283 13.5878C56.605 13.3933 61.3607 18.0035 61.3489 23.8833L61.3472 24.7035L62.9032 24.652C65.2084 24.5744 67.0744 26.3833 67.0697 28.6909L66.985 70.3007C66.9804 72.6081 65.1081 74.5396 62.8018 74.6159L61.247 74.6685L61.2454 75.4863C61.2335 81.358 56.4716 86.29 50.5809 86.4874C44.7043 86.6818 39.9486 82.0717 39.9604 76.1918L39.962 75.3717L38.406 75.4232C36.101 75.5006 34.2349 73.6916 34.2395 71.3841L34.3241 29.7743C34.3276 27.4681 36.2011 25.5354 38.5074 25.459L40.0623 25.4064L40.0639 24.5886C40.0757 18.7177 44.8362 13.7863 50.7272 13.589Z" fill="#FF5987"/>
<path d="M61.3308 32.8933L61.2637 66.3955L39.9787 67.0986L40.0459 33.5986L61.3308 32.8933Z" fill="#D0DCE7"/>
<path d="M78.1753 36.676C79.7775 35.0233 82.3684 34.9377 83.964 36.4845C85.5596 38.0313 85.5545 40.6236 83.9524 42.2763C82.3514 43.9278 79.7593 44.0147 78.1637 42.4679C76.5681 40.9211 76.5743 38.3276 78.1753 36.676Z" fill="#68CA44"/>
<path d="M8.69482 47.0831C11.5787 44.1081 16.2433 43.955 19.1145 46.7383C21.9857 49.5216 21.9774 54.1887 19.0935 57.1636C16.2108 60.1374 11.5451 60.2917 8.67391 57.5084C5.80271 54.7251 5.81207 50.0568 8.69482 47.0831Z" fill="#68CA44"/>
<path d="M73.2776 25.5446C73.759 25.048 74.5358 25.0235 75.0142 25.4872C75.4925 25.9509 75.4921 26.7281 75.0107 27.2247C74.5303 27.7203 73.7524 27.7459 73.2741 27.2822C72.7958 26.8185 72.7972 26.0402 73.2776 25.5446Z" fill="black"/>
<path d="M80.7505 51.3588C81.232 50.8622 82.0088 50.8377 82.4871 51.3014C82.9655 51.7651 82.9651 52.5423 82.4837 53.0389C82.0033 53.5345 81.2254 53.5601 80.7471 53.0964C80.2687 52.6327 80.2702 51.8544 80.7505 51.3588Z" fill="black"/>
<path d="M36.8379 12.2718C37.3193 11.7752 38.0962 11.7506 38.5745 12.2143C39.0529 12.678 39.0525 13.4553 38.571 13.9519C38.0906 14.4474 37.3128 14.4731 36.8344 14.0094C36.3561 13.5457 36.3575 12.7673 36.8379 12.2718Z" fill="black"/>
<path d="M75.5048 69.486C75.9862 68.9894 76.7631 68.9649 77.2414 69.4286C77.7198 69.8923 77.7194 70.6695 77.2379 71.1661C76.7576 71.6617 75.9797 71.6873 75.5013 71.2236C75.023 70.7599 75.0244 69.9816 75.5048 69.486Z" fill="black"/>
<path d="M17.6922 34.3338C18.1736 33.8372 18.9505 33.8126 19.4288 34.2763C19.9072 34.7401 19.9068 35.5173 19.4253 36.0139C18.9451 36.5093 18.1671 36.5351 17.6887 36.0714C17.2104 35.6077 17.212 34.8292 17.6922 34.3338Z" fill="black"/>
<path d="M24.5713 67.6966C25.0527 67.2 25.8296 67.1754 26.3079 67.6391C26.7863 68.1028 26.7859 68.8801 26.3044 69.3767C25.8242 69.8721 25.0462 69.8979 24.5678 69.4342C24.0895 68.9705 24.091 68.192 24.5713 67.6966Z" fill="black"/>
<path d="M47.6725 93.5727C48.154 93.0761 48.9308 93.0515 49.4091 93.5152C49.8875 93.9789 49.8871 94.7562 49.4057 95.2528C48.9254 95.7482 48.1474 95.774 47.669 95.3103C47.1907 94.8466 47.1923 94.0681 47.6725 93.5727Z" fill="black"/>
<path d="M58.6913 83.6789C56.5231 85.9155 53.6423 87.2039 50.5795 87.3065C44.2598 87.5155 39.1291 82.5418 39.1418 76.219L39.1417 76.2179L38.4044 76.2423C37.071 76.287 35.818 75.8091 34.8765 74.8964C33.9349 73.9836 33.418 72.746 33.4209 71.4113L33.5055 29.8015C33.5075 28.4676 34.0291 27.1956 34.9745 26.2205C35.9196 25.2455 37.1749 24.6841 38.509 24.6401L39.2452 24.6152C39.2516 21.5522 40.4497 18.6329 42.619 16.3952C44.7754 14.1706 47.6384 12.8847 50.6849 12.7714C50.6997 12.7702 50.7148 12.7691 50.7298 12.7688C57.0493 12.5595 62.1801 17.5334 62.1673 23.8563L62.1673 23.8573L62.9048 23.8328C64.238 23.788 65.4911 24.266 66.4326 25.1787C67.3739 26.0912 67.8909 27.3291 67.8882 28.6638L67.8036 70.2735C67.7978 73.0284 65.5535 75.3438 62.8 75.4348L62.0638 75.4598C62.0577 78.5232 60.8598 81.442 58.6913 83.6789ZM36.1299 27.3408C35.4946 27.9961 35.1441 28.8505 35.1429 29.747L35.058 71.3572C35.0562 72.2545 35.4037 73.0865 36.0365 73.6999C36.6692 74.3133 37.511 74.6344 38.4071 74.6043L39.9635 74.5527C40.1807 74.5455 40.3888 74.6249 40.542 74.7734C40.6952 74.9219 40.781 75.1275 40.7806 75.3446L40.7789 76.1647C40.7682 81.5843 45.1659 85.8475 50.5826 85.6684C53.2079 85.5803 55.6774 84.476 57.536 82.5588C59.3947 80.6413 60.4214 78.1392 60.4268 75.5135L60.4284 74.6957C60.429 74.2436 60.7959 73.8648 61.248 73.8495L62.8028 73.7969C64.6539 73.7355 66.1626 72.1793 66.1663 70.3277L66.2511 28.7181C66.2529 27.8208 65.9055 26.9889 65.2727 26.3755C64.64 25.7621 63.7979 25.441 62.9021 25.4711L61.3455 25.5227C60.8934 25.5376 60.5276 25.183 60.5285 24.7307L60.5303 23.9105C60.5411 18.5046 56.1651 14.2491 50.7672 14.4058C50.7536 14.407 50.7398 14.4078 50.7259 14.4082C48.1003 14.4961 45.6317 15.5996 43.7745 17.5153C41.9149 19.4336 40.8878 21.9362 40.8826 24.562L40.881 25.3797C40.8802 25.8318 40.5133 26.2106 40.0613 26.2258L38.5064 26.2785C37.609 26.3081 36.7653 26.6853 36.1299 27.3408Z" fill="black"/>
<path d="M61.8413 66.9555C61.6875 67.1142 61.4791 67.2074 61.2619 67.2146L39.9769 67.9178C39.5248 67.9328 39.159 67.5782 39.16 67.1259L39.2271 33.6258C39.2281 33.1734 39.5954 32.7946 40.0473 32.7797L61.3323 32.0742C61.5494 32.067 61.7574 32.1463 61.9108 32.295C62.0641 32.4436 62.1499 32.6489 62.1495 32.8662L62.0822 66.3684C62.0818 66.5856 61.9952 66.7969 61.8413 66.9555ZM40.7989 66.2525L60.4465 65.6034L60.5106 33.7394L40.8628 34.3907L40.7989 66.2525Z" fill="black"/>
<path d="M51.6189 64.6008C51.6225 64.8327 51.5733 65.0095 51.4711 65.1311C51.3689 65.2447 51.2258 65.303 51.0418 65.3058C50.8578 65.3087 50.713 65.2549 50.6072 65.1445C50.4934 65.0263 50.4347 64.8512 50.4311 64.6192L50.3926 62.1475C50.389 61.9155 50.4424 61.7427 50.5526 61.629C50.6547 61.5074 50.7978 61.4451 50.9818 61.4423C51.1657 61.4394 51.3107 61.4972 51.4165 61.6155C51.5222 61.7259 51.5769 61.8971 51.5805 62.1291L51.6189 64.6008ZM52.8343 54.7696C52.8269 54.2896 53.0271 54.0465 53.4351 54.0401C53.859 54.0336 54.0747 54.2702 54.0822 54.7502L54.153 59.3096C54.1562 59.5176 54.0988 59.6825 53.9807 59.8044C53.8546 59.9263 53.6995 59.9888 53.5155 59.9916C53.2756 59.9953 53.0582 59.9067 52.8633 59.7257L49.8812 57.0357C49.508 56.7055 49.1682 56.4667 48.8619 56.3195C48.5475 56.1643 48.2383 56.0891 47.9343 56.0939C47.5583 56.0997 47.2721 56.2122 47.0754 56.4312C46.8788 56.6503 46.7836 56.9598 46.7898 57.3598C46.7949 57.6877 46.8639 58.0067 46.9967 58.3167C47.1214 58.6188 47.2942 58.9241 47.515 59.2327C47.5723 59.3119 47.6215 59.3911 47.6627 59.4705C47.696 59.55 47.7132 59.6297 47.7145 59.7097C47.7166 59.8457 47.6544 59.9667 47.5281 60.0726C47.4016 60.1706 47.2503 60.221 47.0744 60.2237C46.9544 60.2256 46.8501 60.2072 46.7615 60.1686C46.6727 60.1219 46.5876 60.0512 46.5061 59.9565C46.2207 59.6089 45.9943 59.2004 45.827 58.7309C45.6517 58.2616 45.5604 57.7909 45.553 57.319C45.5402 56.4951 45.738 55.8359 46.1464 55.3415C46.5546 54.8391 47.1107 54.5825 47.8146 54.5715C48.3026 54.5639 48.7641 54.6608 49.1993 54.862C49.6265 55.0634 50.1079 55.408 50.6436 55.8957L52.8835 57.9372L52.8343 54.7696ZM54.1151 49.9181C54.1306 50.9179 53.7746 51.6876 53.0468 52.2269C52.3111 52.7664 51.2354 53.0472 49.8195 53.0692C48.4117 53.091 47.3357 52.8437 46.5916 52.3272C45.8395 51.8108 45.4557 51.0527 45.4402 50.0528C45.4246 49.053 45.7847 48.2833 46.5204 47.7438C47.2481 47.2044 48.3159 46.9238 49.7237 46.9019C51.1315 46.88 52.2115 47.1273 52.9636 47.6437C53.7157 48.16 54.0996 48.9182 54.1151 49.9181ZM52.9033 49.9369C52.8948 49.3929 52.6407 49.0008 52.1409 48.7606C51.6331 48.5204 50.8353 48.4088 49.7474 48.4257C48.6515 48.4428 47.8615 48.579 47.3775 48.8346C46.8854 49.0903 46.6436 49.4901 46.652 50.034C46.6605 50.5779 46.9146 50.97 47.4144 51.2103C47.9142 51.4506 48.708 51.5623 49.7959 51.5453C50.8837 51.5284 51.6777 51.3921 52.1778 51.1363C52.6699 50.8806 52.9117 50.4808 52.9033 49.9369ZM53.7214 42.3439C53.8505 42.4139 53.9478 42.5004 54.0135 42.6034C54.0791 42.7064 54.1127 42.8099 54.1143 42.9139C54.1165 43.0579 54.0665 43.1867 53.9643 43.3003C53.8619 43.4059 53.7307 43.4599 53.5707 43.4624C53.4348 43.4645 53.2982 43.4266 53.1609 43.3488L45.546 39.0986C45.4169 39.0286 45.3195 38.9421 45.2539 38.8391C45.1883 38.7361 45.1547 38.6326 45.1531 38.5286C45.1508 38.3846 45.2009 38.2598 45.3033 38.1542C45.4055 38.0406 45.5366 37.9826 45.6966 37.9801C45.8326 37.978 45.9692 38.0159 46.1064 38.0937L53.7214 42.3439ZM50.5025 43.7261C50.5129 44.398 50.3011 44.9254 49.867 45.3082C49.4329 45.691 48.7919 45.889 47.944 45.9021C47.1041 45.9152 46.4612 45.7371 46.0154 45.368C45.5697 44.9989 45.3415 44.4784 45.3311 43.8065C45.3207 43.1345 45.5325 42.6072 45.9666 42.2244C46.4006 41.8336 47.0375 41.6317 47.8774 41.6186C48.7253 41.6055 49.3722 41.7874 49.8181 42.1646C50.2639 42.5337 50.492 43.0542 50.5025 43.7261ZM49.5306 43.7412C49.5259 43.4373 49.3985 43.2192 49.1484 43.0871C48.8902 42.9471 48.4731 42.8815 47.8972 42.8905C47.3372 42.8992 46.9304 42.9775 46.6767 43.1255C46.4229 43.2734 46.2984 43.4954 46.303 43.7914C46.3076 44.0873 46.439 44.3053 46.6972 44.4453C46.9473 44.5775 47.3563 44.6391 47.9242 44.6303C48.5001 44.6213 48.915 44.5469 49.1689 44.4069C49.4146 44.2591 49.5352 44.0372 49.5306 43.7412ZM53.9003 37.6366C53.9107 38.3085 53.6989 38.8359 53.2648 39.2187C52.8307 39.6014 52.1857 39.7995 51.3298 39.8128C50.4899 39.8258 49.851 39.6477 49.4132 39.2785C48.9673 38.9014 48.7392 38.3809 48.7289 37.7169C48.7185 37.045 48.9303 36.5177 49.3644 36.1349C49.7985 35.7521 50.4355 35.5542 51.2754 35.5411C52.1233 35.5279 52.7702 35.7059 53.2159 36.075C53.6617 36.4442 53.8898 36.9647 53.9003 37.6366ZM52.9284 37.6517C52.9238 37.3557 52.7964 37.1377 52.5462 36.9976C52.288 36.8575 51.8709 36.792 51.295 36.801C50.7351 36.8097 50.3282 36.888 50.0745 37.036C49.8208 37.1839 49.6962 37.4059 49.7008 37.7018C49.7054 37.9978 49.8368 38.2158 50.095 38.3558C50.3532 38.4958 50.7623 38.5615 51.3222 38.5528C51.8981 38.5438 52.313 38.4654 52.5667 38.3174C52.8124 38.1696 52.933 37.9477 52.9284 37.6517Z" fill="black"/>
<path d="M51.2876 22.7974C51.1392 22.9504 50.9344 23.049 50.7084 23.0564C50.2562 23.0714 49.8904 22.7168 49.8914 22.2644L49.9087 13.6161C49.9088 13.6017 49.9091 13.5874 49.9099 13.5733L49.9232 6.33722C49.924 5.88488 50.2912 5.5059 50.7434 5.49094C51.1955 5.47586 51.5613 5.83048 51.5605 6.28281L51.5471 13.5608C51.5469 13.5753 51.5467 13.5897 51.5458 13.6039L51.5285 22.2104C51.5281 22.4365 51.436 22.6443 51.2876 22.7974Z" fill="black"/>
<path d="M19.6712 57.7237C16.4729 61.0229 11.2793 61.1948 8.09384 58.1068C4.90836 55.0188 4.91879 49.8223 8.11707 46.5231C11.3154 43.2238 16.509 43.052 19.6944 46.14C22.8799 49.228 22.8695 54.4244 19.6712 57.7237ZM9.27249 47.6431C6.71386 50.2825 6.70552 54.4397 9.2539 56.9101C11.8023 59.3805 15.9572 59.243 18.5158 56.6036C21.0744 53.9642 21.0828 49.8071 18.5344 47.3367C15.986 44.8663 11.8311 45.0037 9.27249 47.6431Z" fill="black"/>
<path d="M84.5301 42.8362C82.6112 44.8158 79.495 44.9189 77.5837 43.0661C75.6724 41.2133 75.6787 38.0954 77.5977 36.1159C79.5166 34.1364 82.6328 34.0332 84.5441 35.886C86.4554 37.7388 86.4491 40.8567 84.5301 42.8362ZM78.7531 37.236C77.4739 38.5555 77.4696 40.6342 78.7438 41.8694C80.018 43.1046 82.0955 43.0358 83.3747 41.7162C84.6539 40.3966 84.6582 38.3179 83.384 37.0827C82.1098 35.8475 80.0323 35.9164 78.7531 37.236Z" fill="black"/>
</svg>
