<svg width="30" height="29" viewBox="0 0 30 29" fill="none" xmlns="http://www.w3.org/2000/svg">
<path d="M19.3514 4.34503C23.5919 8.59593 23.5919 15.4881 19.3514 19.739C15.1111 23.9899 8.23513 23.9899 3.99477 19.739C-0.245653 15.4882 -0.245653 8.596 3.99477 4.34503C8.2352 0.0941362 15.1111 0.0941362 19.3514 4.34503Z" fill="#57606F"/>
<path d="M16.8998 6.80304C19.7861 9.69643 19.7861 14.3877 16.8998 17.281C14.0136 20.1744 9.33319 20.1744 6.44692 17.281C3.56066 14.3877 3.56066 9.69643 6.44692 6.80304C9.33319 3.90965 14.0136 3.90965 16.8998 6.80304Z" fill="#BCE4FF"/>
<path d="M27.435 2.91241C28.4025 2.91241 29.1863 3.69827 29.1863 4.66811C29.1863 5.63796 28.4025 6.42381 27.435 6.42381C26.4681 6.42381 25.6836 5.63796 25.6836 4.66811C25.6836 3.69827 26.4681 2.91241 27.435 2.91241Z" fill="#68CA44"/>
<path d="M3.96657 23.6296C5.32143 23.6296 6.41849 24.7301 6.41849 26.0876C6.41849 27.4451 5.32143 28.5456 3.96657 28.5456C2.61241 28.5456 1.51465 27.4451 1.51465 26.0876C1.51465 24.7301 2.61241 23.6296 3.96657 23.6296Z" fill="#68CA44"/>
<path d="M27.2763 24.2083C28.2339 25.1683 28.2339 26.7245 27.2763 27.6845C26.3193 28.6446 24.7662 28.6446 23.8092 27.6845L20.5888 24.4569C19.6319 23.4968 19.6319 21.9406 20.5888 20.9806C21.068 20.5002 21.695 20.2607 22.3226 20.2607C22.9504 20.2607 23.5773 20.5002 24.0565 20.9806L27.2763 24.2083Z" fill="#C86D36"/>
<path d="M29.0117 9.93518C29.3025 9.93518 29.5372 10.1711 29.5372 10.4619C29.5372 10.7526 29.3025 10.9886 29.0117 10.9886C28.7216 10.9886 28.4863 10.7526 28.4863 10.4619C28.4863 10.1711 28.7216 9.93518 29.0117 9.93518Z" fill="black"/>
<path d="M25.8584 16.9579C26.1491 16.9579 26.3838 17.1939 26.3838 17.4847C26.3838 17.7754 26.1491 18.0114 25.8584 18.0114C25.5683 18.0114 25.333 17.7754 25.333 17.4847C25.333 17.1939 25.5683 16.9579 25.8584 16.9579Z" fill="black"/>
<path d="M23.0567 0.103271C23.3474 0.103271 23.5821 0.339237 23.5821 0.629981C23.5821 0.920725 23.3474 1.15669 23.0567 1.15669C22.7666 1.15669 22.5312 0.920725 22.5312 0.629981C22.5312 0.339237 22.7666 0.103271 23.0567 0.103271Z" fill="black"/>
<path d="M19.9043 27.8433C20.195 27.8433 20.4297 28.0793 20.4297 28.37C20.4297 28.6608 20.195 28.8967 19.9043 28.8967C19.6142 28.8967 19.3789 28.6608 19.3789 28.37C19.3789 28.0793 19.6142 27.8433 19.9043 27.8433Z" fill="black"/>
<path d="M11.4981 25.0342C11.7888 25.0342 12.0235 25.2701 12.0235 25.5609C12.0235 25.8516 11.7888 26.0876 11.4981 26.0876C11.208 26.0876 10.9727 25.8516 10.9727 25.5609C10.9727 25.2701 11.208 25.0342 11.4981 25.0342Z" fill="black"/>
<path d="M1.33987 20.1182C1.63059 20.1182 1.86528 20.3542 1.86528 20.6449C1.86528 20.9357 1.63059 21.1716 1.33987 21.1716C1.04984 21.1716 0.814453 20.9357 0.814453 20.6449C0.814453 20.3542 1.04984 20.1182 1.33987 20.1182Z" fill="black"/>
<path d="M0.989279 0.454407C1.28001 0.454407 1.51469 0.690372 1.51469 0.981116C1.51469 1.27186 1.28001 1.50782 0.989279 1.50782C0.699252 1.50782 0.463867 1.27186 0.463867 0.981116C0.463867 0.690372 0.699252 0.454407 0.989279 0.454407Z" fill="black"/>
<path d="M11.6729 23.2782C8.67865 23.2782 5.86384 22.1094 3.74678 19.9872C1.62979 17.865 0.463867 15.0433 0.463867 12.042C0.463867 9.04066 1.62979 6.21897 3.74678 4.09668C5.86377 1.97447 8.67865 0.805664 11.6729 0.805664C14.6671 0.805664 17.4819 1.97447 19.599 4.09668C21.716 6.21897 22.8819 9.04066 22.8819 12.042C22.8819 15.0433 21.7159 17.865 19.599 19.9872C17.4819 22.1094 14.6671 23.2782 11.6729 23.2782ZM11.6729 1.50794C8.86584 1.50794 6.22687 2.60371 4.24221 4.59327C2.25755 6.58282 1.16442 9.22824 1.16442 12.042C1.16442 14.8557 2.25748 17.501 4.24214 19.4906C6.22687 21.4802 8.86577 22.576 11.6728 22.576C14.4798 22.576 17.1188 21.4802 19.1035 19.4906C21.0882 17.501 22.1812 14.8557 22.1812 12.042C22.1812 9.22824 21.0882 6.58289 19.1035 4.59334C17.1189 2.60371 14.4799 1.50794 11.6729 1.50794Z" fill="black"/>
<path d="M11.6731 19.8022C9.60511 19.8022 7.66102 18.995 6.1989 17.5293C4.73685 16.0636 3.93164 14.1149 3.93164 12.042C3.93164 9.9692 4.73685 8.02044 6.1989 6.55472C7.66102 5.08906 9.60511 4.28186 11.6731 4.28186C13.7411 4.28186 15.6852 5.08906 17.1472 6.55472C18.6093 8.02044 19.4145 9.9692 19.4145 12.042C19.4145 14.1149 18.6093 16.0636 17.1472 17.5293C15.6851 18.995 13.741 19.8022 11.6731 19.8022ZM11.6731 4.98414C9.79223 4.98414 8.02411 5.7183 6.69433 7.05137C5.36454 8.38444 4.63219 10.1568 4.63219 12.042C4.63219 13.9273 5.36454 15.6997 6.69433 17.0327C8.02411 18.3657 9.7923 19.1 11.6731 19.1C13.5539 19.1 15.3221 18.3658 16.6518 17.0327C17.9816 15.6997 18.7139 13.9272 18.7139 12.042C18.7139 10.1568 17.9817 8.38437 16.6518 7.05137C15.3221 5.7183 13.5539 4.98414 11.6731 4.98414Z" fill="black"/>
<path d="M25.543 28.7557C24.7944 28.7557 24.0907 28.4634 23.5617 27.9327L20.3414 24.7052C19.2495 23.6098 19.2495 21.8276 20.3412 20.7324C20.8707 20.2018 21.5744 19.9096 22.3229 19.9096C23.0716 19.9096 23.7753 20.2018 24.3045 20.7323L27.5242 23.96C28.0535 24.4906 28.345 25.1961 28.345 25.9464C28.345 26.6967 28.0535 27.4022 27.5242 27.9328C26.9953 28.4634 26.2917 28.7557 25.543 28.7557ZM22.3229 20.6119C21.7615 20.6119 21.2336 20.831 20.8367 21.2289C20.0179 22.0503 20.0179 23.3871 20.8368 24.2087L24.0572 27.4362C24.454 27.8343 24.9815 28.0534 25.543 28.0534C26.1045 28.0534 26.6321 27.8343 27.0288 27.4364C27.4258 27.0383 27.6445 26.5092 27.6445 25.9464C27.6445 25.3836 27.4258 24.8545 27.0288 24.4565L23.8091 21.2288C23.4122 20.831 22.8845 20.6119 22.3229 20.6119Z" fill="black"/>
<path d="M20.5891 21.3318C20.4995 21.3318 20.4097 21.2975 20.3414 21.2288L19.1035 19.9871C18.9667 19.85 18.9668 19.6276 19.1036 19.4906C19.2405 19.3535 19.4622 19.3535 19.599 19.4908L20.8369 20.7325C20.9736 20.8696 20.9735 21.092 20.8367 21.229C20.7683 21.2975 20.6787 21.3318 20.5891 21.3318Z" fill="black"/>
<path d="M27.4347 6.77496C26.2758 6.77496 25.333 5.82983 25.333 4.66812C25.333 3.50641 26.2758 2.56128 27.4347 2.56128C28.5935 2.56128 29.5363 3.50641 29.5363 4.66812C29.5363 5.82983 28.5935 6.77496 27.4347 6.77496ZM27.4347 3.26356C26.6622 3.26356 26.0336 3.89364 26.0336 4.66812C26.0336 5.44259 26.6622 6.07268 27.4347 6.07268C28.2071 6.07268 28.8358 5.44259 28.8358 4.66812C28.8358 3.89364 28.2071 3.26356 27.4347 3.26356Z" fill="black"/>
<path d="M3.96626 28.8967C2.42113 28.8967 1.16406 27.6366 1.16406 26.0876C1.16406 24.5387 2.42113 23.2785 3.96626 23.2785C5.5114 23.2785 6.76847 24.5387 6.76847 26.0876C6.76847 27.6366 5.5114 28.8967 3.96626 28.8967ZM3.96626 23.9808C2.80741 23.9808 1.86461 24.9259 1.86461 26.0876C1.86461 27.2493 2.80741 28.1945 3.96626 28.1945C5.12511 28.1945 6.06791 27.2493 6.06791 26.0876C6.06791 24.9259 5.12511 23.9808 3.96626 23.9808Z" fill="black"/>
</svg>
