<svg width="40" height="40" viewBox="0 0 40 40" fill="none" xmlns="http://www.w3.org/2000/svg">

<path d="M17.1425 25.9026L14.0974 22.8575C8.99296 28.8396 4.87021 28.4833 1.15464 33.7258C1.13682 33.7558 1.11932 33.7858 1.10221 33.8157C-0.790219 37.114 2.88605 40.7902 6.18428 38.8978C6.2142 38.8806 6.24412 38.8632 6.2742 38.8454C11.5167 35.1298 11.1605 31.007 17.1425 25.9026Z" fill="#0387D1"/>
<path d="M20.4735 25.0954C21.8386 23.7303 21.6984 21.3769 20.1605 19.8389C18.6225 18.3009 16.269 18.1607 14.9039 19.5259C13.5388 20.891 13.6789 23.2444 15.2169 24.7824C16.7549 26.3204 19.1083 26.4605 20.4735 25.0954Z" fill="#4FC3F7"/>
<path d="M26.3674 26.6791C33.573 26.6791 39.4143 20.8377 39.4143 13.6321C39.4143 6.42648 33.573 0.585159 26.3674 0.585159C19.1618 0.585159 13.3204 6.42648 13.3204 13.6321C13.3204 20.8377 19.1618 26.6791 26.3674 26.6791Z" fill="#0387D1"/>
<path d="M26.3672 22.4095C31.2149 22.4095 35.1446 18.4797 35.1446 13.6321C35.1446 8.7845 31.2149 4.85472 26.3672 4.85472C21.5196 4.85472 17.5898 8.7845 17.5898 13.6321C17.5898 18.4797 21.5196 22.4095 26.3672 22.4095Z" fill="#4FC3F7"/>
<path d="M21.7234 18.2766C18.5601 15.1133 18.3161 10.1365 20.991 6.69316C20.7029 6.91692 20.4255 7.16098 20.1609 7.42559C16.733 10.8535 16.733 16.4112 20.1609 19.8391C23.5888 23.267 29.1465 23.267 32.5744 19.8391C32.839 19.5745 33.0831 19.2971 33.3068 19.009C29.8635 21.684 24.8867 21.4399 21.7234 18.2766Z" fill="#46ADDB"/>
<path d="M26.3676 4.2851C23.8665 4.2851 21.5151 5.25909 19.7465 7.02762C16.0957 10.6785 16.0957 16.6188 19.7465 20.2697C21.749 22.2722 24.6171 23.2708 27.429 22.9518C27.7506 22.9153 27.9817 22.6251 27.9451 22.3035C27.9086 21.9819 27.6184 21.7509 27.2968 21.7874C24.7998 22.0707 22.3496 21.2156 20.5751 19.4411C17.3812 16.2472 17.3812 11.0503 20.5751 7.8563C22.1223 6.3091 24.1794 5.45698 26.3676 5.45698C28.5557 5.45698 30.6128 6.3091 32.16 7.8563C33.7073 9.40349 34.5594 11.4606 34.5594 13.6488C34.5594 15.8369 33.7072 17.8939 32.16 19.4412C31.3873 20.214 30.4869 20.8147 29.4841 21.2266C29.1847 21.3496 29.0417 21.6919 29.1647 21.9912C29.2876 22.2905 29.6299 22.4336 29.9293 22.3106C31.0764 21.8394 32.1057 21.1529 32.9887 20.2698C34.7573 18.5013 35.7312 16.1499 35.7312 13.6488C35.7312 11.1476 34.7572 8.79622 32.9887 7.0277C31.2201 5.25901 28.8687 4.2851 26.3676 4.2851Z" fill="black"/>
<path d="M26.3675 0.016243C22.7262 0.016243 19.3027 1.43422 16.728 4.00908C14.1531 6.58394 12.7351 10.0072 12.7351 13.6487C12.7351 15.7434 13.2053 17.7656 14.0941 19.5961C13.4526 20.492 13.2483 21.6176 13.4597 22.7156C11.0706 25.4543 8.9319 26.772 6.86196 28.047C4.68148 29.3899 2.62202 30.6584 0.676535 33.4033C-0.226985 34.6797 -0.189485 36.494 0.574738 37.8136C1.79912 39.9279 4.48226 40.6044 6.5729 39.3658C6.58665 39.3577 6.60001 39.349 6.61298 39.3398C9.35791 37.3944 10.6264 35.3348 11.9693 33.1543C13.2445 31.0839 14.5626 28.9447 17.3026 26.5549C17.5766 26.6078 17.8541 26.6363 18.1319 26.6363C18.9718 26.6363 19.7691 26.3844 20.4188 25.9215C22.2496 26.8107 24.2723 27.2811 26.3675 27.2811C30.0089 27.2811 33.4324 25.863 36.0071 23.2883C38.5819 20.7135 40 17.29 40 13.6487C40 10.0073 38.5819 6.58394 36.0071 4.00908C33.4324 1.43422 30.0089 0.016243 26.3675 0.016243ZM10.9715 32.5397C9.64088 34.7001 8.49142 36.5666 5.95508 38.3696C4.43906 39.2604 2.47373 38.7544 1.58888 37.2263C1.01771 36.24 1.07427 35.0318 1.64662 34.0613C3.4496 31.5249 5.31617 30.3753 7.47657 29.0447C9.40112 27.8593 11.5611 26.529 13.8996 23.9815C13.952 24.0828 14.0093 24.1826 14.0696 24.2812C14.276 24.6194 14.5229 24.933 14.803 25.2132C15.1608 25.5709 15.5822 25.8821 16.0352 26.1161C13.4874 28.4549 12.1569 30.6151 10.9715 32.5397ZM18.1316 25.466C17.2073 25.4628 16.2846 25.0376 15.6316 24.3847C14.7217 23.4747 14.2505 22.0311 14.7572 20.8012C15.0976 21.3514 15.479 21.8797 15.8997 22.3822C16.4239 23.0088 17.0034 23.5972 17.6344 24.1169C18.1367 24.5374 18.6648 24.9185 19.2148 25.2588C18.8646 25.4023 18.498 25.4673 18.1316 25.466ZM35.1785 22.4597C32.825 24.8132 29.6959 26.1093 26.3675 26.1093C24.3459 26.1093 22.3981 25.6302 20.6527 24.7274C20.642 24.721 20.6318 24.714 20.6207 24.7083C19.4915 24.1223 18.456 23.3592 17.5566 22.4597C15.5626 20.4657 14.2708 17.7843 13.9758 14.9694C13.5879 11.2694 14.9021 7.4923 17.5566 4.83783C19.9101 2.4843 23.0392 1.1882 26.3675 1.1882C29.6959 1.1882 32.825 2.4843 35.1785 4.83783C37.5321 7.19136 38.8282 10.3204 38.8282 13.6487C38.8282 16.977 37.532 20.1061 35.1785 22.4597Z" fill="black"/>


<clipPath id="clip0">
<rect width="40" height="40" fill="white"/>
</clipPath>

</svg>
