<svg width="32" height="30" viewBox="0 0 32 30" fill="none" xmlns="http://www.w3.org/2000/svg">
<path d="M11.3037 13.3943C11.3037 14.3897 12.1059 15.1962 13.0942 15.1962C14.0832 15.1962 14.8846 14.3897 14.8846 13.3943C14.8846 14.3897 15.6868 15.1962 16.6751 15.1962C17.6642 15.1962 18.4655 14.3897 18.4655 13.3943C18.4655 14.3897 19.2676 15.1962 20.256 15.1962C21.2451 15.1962 22.0464 14.3897 22.0464 13.3943C22.0464 14.3897 22.8485 15.1962 23.8369 15.1962C24.0911 15.1962 24.3338 15.1429 24.5531 15.0463V24.2059C23.8805 24.2059 9.46367 24.2059 8.79712 24.2059V15.0463C9.96807 15.5622 11.3037 14.7003 11.3037 13.3943Z" fill="#C86D36"/>
<path d="M29.9243 4.745C30.7157 4.745 31.3567 5.39008 31.3567 6.18653C31.3567 6.98298 30.7157 7.62807 29.9243 7.62807C29.1336 7.62807 28.4919 6.98298 28.4919 6.18653C28.4919 5.39008 29.1336 4.745 29.9243 4.745Z" fill="#59D9A4"/>
<path d="M2.88868 11.5923C3.97656 11.5923 4.85818 12.4796 4.85818 13.5744C4.85818 14.6692 3.97656 15.5565 2.88868 15.5565C1.80152 15.5565 0.919189 14.6692 0.919189 13.5744C0.919189 12.4796 1.80152 11.5923 2.88868 11.5923Z" fill="#59D9A4"/>
<path d="M27.7758 29.179V29.6115H5.57422V29.179C5.57422 28.4229 6.18369 27.8096 6.93496 27.8096H7.36467H25.9854H26.4151C27.1671 27.8096 27.7758 28.4229 27.7758 29.179Z" fill="#5C6887"/>
<path d="M25.9854 26.0077V27.8096H7.36475V26.0077H25.9854Z" fill="#7D89AA"/>
<path d="M16.675 24.2058H24.553V26.0077H16.675V24.2058Z" fill="#A85120"/>
<path d="M8.79712 24.2058H11.3038V26.0077H8.79712V24.2058Z" fill="#A85120"/>
<path d="M16.675 24.2059V26.0078H11.3037V24.2059V18.4397H16.675V24.2059Z" fill="#414A56"/>
<path d="M21.6882 18.8H24.553V21.6831H21.6882V18.8Z" fill="#94D4FF"/>
<path d="M18.8235 18.8H21.6882V21.6831H18.8235V18.8Z" fill="#BCE4FF"/>
<path d="M22.4044 6.48701V6.54684H20.9721H18.1073H15.2426H12.3779H10.9456V6.48701C10.9456 5.32585 11.8809 4.38452 13.0347 4.38452H20.316C21.4697 4.38452 22.4044 5.32585 22.4044 6.48701Z" fill="#68CA44"/>
<path d="M20.9721 6.54688L22.0464 13.3942C22.0464 14.3896 21.2451 15.1961 20.256 15.1961C19.2676 15.1961 18.4655 14.3896 18.4655 13.3942L18.1074 6.54688H20.9721Z" fill="#D0DCE7"/>
<path d="M15.2427 6.54688L14.8846 13.3942C14.8846 14.3896 14.0832 15.1961 13.0942 15.1961C12.1058 15.1961 11.3037 14.3896 11.3037 13.3942L12.378 6.54688H15.2427Z" fill="#D0DCE7"/>
<path d="M24.0904 7.51487L25.6273 13.3942C25.6273 14.3888 24.8261 15.1961 23.8369 15.1961C22.8485 15.1961 22.0464 14.3896 22.0464 13.3942L20.9722 6.54688H22.8428C23.4287 6.54688 23.9415 6.94474 24.0904 7.51487Z" fill="#FF5987"/>
<path d="M18.1076 6.54688L18.4657 13.3942C18.4657 14.3896 17.6643 15.1961 16.6752 15.1961C15.6869 15.1961 14.8848 14.3896 14.8848 13.3942L15.2429 6.54688H18.1076Z" fill="#FF5987"/>
<path d="M12.3781 6.54688L11.3038 13.3942C11.3038 14.3896 10.5024 15.1961 9.51335 15.1961C8.52509 15.1961 7.7229 14.3898 7.7229 13.3942L9.26054 7.51487C9.40951 6.94474 9.92229 6.54688 10.5081 6.54688H12.3781Z" fill="#FF5987"/>
<path d="M30.8196 11.5923C31.1168 11.5923 31.3567 11.8345 31.3567 12.1329C31.3567 12.4313 31.1168 12.6734 30.8196 12.6734C30.523 12.6734 30.2825 12.4313 30.2825 12.1329C30.2825 11.8345 30.523 11.5923 30.8196 11.5923Z" fill="black"/>
<path d="M27.9549 20.6018C28.2521 20.6018 28.492 20.844 28.492 21.1424C28.492 21.4408 28.2521 21.683 27.9549 21.683C27.6583 21.683 27.4177 21.4408 27.4177 21.1424C27.4177 20.844 27.6583 20.6018 27.9549 20.6018Z" fill="black"/>
<path d="M25.0901 1.50146C25.3873 1.50146 25.6272 1.74364 25.6272 2.04204C25.6272 2.34044 25.3873 2.58262 25.0901 2.58262C24.7935 2.58262 24.553 2.34044 24.553 2.04204C24.553 1.74364 24.7935 1.50146 25.0901 1.50146Z" fill="black"/>
<path d="M9.33425 0.0599365C9.63147 0.0599365 9.87139 0.302117 9.87139 0.600517C9.87139 0.898918 9.63147 1.1411 9.33425 1.1411C9.03776 1.1411 8.79712 0.898918 8.79712 0.600517C8.79712 0.302117 9.03776 0.0599365 9.33425 0.0599365Z" fill="black"/>
<path d="M5.03714 20.6018C5.33435 20.6018 5.57427 20.844 5.57427 21.1424C5.57427 21.4408 5.33435 21.683 5.03714 21.683C4.74064 21.683 4.5 21.4408 4.5 21.1424C4.5 20.844 4.74064 20.6018 5.03714 20.6018Z" fill="black"/>
<path d="M2.17239 3.66382C2.4696 3.66382 2.70952 3.906 2.70952 4.2044C2.70952 4.5028 2.4696 4.74497 2.17239 4.74497C1.87589 4.74497 1.63525 4.5028 1.63525 4.2044C1.63525 3.906 1.87589 3.66382 2.17239 3.66382Z" fill="black"/>
<path d="M7.72319 13.7546C7.69304 13.7546 7.66232 13.7508 7.63181 13.7427C7.44052 13.692 7.32628 13.4949 7.37663 13.3024L8.91427 7.4231C9.10449 6.69498 9.76001 6.1864 10.5082 6.1864H10.9458C11.1435 6.1864 11.3039 6.34778 11.3039 6.54679C11.3039 6.74579 11.1435 6.90717 10.9458 6.90717H10.5082C10.0851 6.90717 9.71446 7.19469 9.60689 7.60647L8.06925 13.4859C8.027 13.6477 7.88197 13.7546 7.72319 13.7546Z" fill="black"/>
<path d="M11.3041 13.7546C11.2856 13.7546 11.2668 13.7531 11.2479 13.7501C11.0525 13.719 10.9191 13.5345 10.95 13.3379L12.0243 6.49055C12.0551 6.294 12.2386 6.16008 12.4339 6.19078C12.6292 6.22185 12.7626 6.40637 12.7317 6.60299L11.6574 13.4503C11.6296 13.6279 11.4773 13.7546 11.3041 13.7546Z" fill="black"/>
<path d="M14.885 13.7545C14.8786 13.7545 14.8722 13.7544 14.8659 13.754C14.6683 13.7435 14.5167 13.5739 14.5271 13.3752L14.8852 6.52782C14.8957 6.32903 15.0655 6.17659 15.2616 6.18689C15.4592 6.19735 15.6108 6.36702 15.6004 6.56573L15.2423 13.4131C15.2323 13.6054 15.0741 13.7545 14.885 13.7545Z" fill="black"/>
<path d="M18.4652 13.7547C18.276 13.7547 18.1179 13.6056 18.1079 13.4133L17.7498 6.56592C17.7393 6.3672 17.8911 6.19753 18.0885 6.18708C18.2866 6.17742 18.4545 6.32929 18.465 6.52801L18.823 13.3753C18.8335 13.5741 18.6817 13.7437 18.4843 13.7542C18.4779 13.7545 18.4715 13.7547 18.4652 13.7547Z" fill="black"/>
<path d="M25.627 13.7547C25.4683 13.7547 25.3233 13.6477 25.2809 13.4859L23.7441 7.60659C23.6364 7.19481 23.2658 6.9073 22.8428 6.9073H22.4045C22.2067 6.9073 22.0464 6.74591 22.0464 6.54691C22.0464 6.3479 22.2067 6.18652 22.4045 6.18652H22.8428C23.591 6.18652 24.2464 6.6951 24.4366 7.4233L25.9736 13.3026C26.0239 13.495 25.9097 13.6921 25.7184 13.7427C25.6879 13.7509 25.6572 13.7547 25.627 13.7547Z" fill="black"/>
<path d="M22.0458 13.7546C21.8726 13.7546 21.7204 13.628 21.6925 13.4504L20.6182 6.60305C20.5874 6.40642 20.7207 6.2219 20.9161 6.19084C21.1114 6.15991 21.2948 6.29398 21.3257 6.4906L22.4 13.3379C22.4308 13.5346 22.2974 13.7191 22.102 13.7501C22.0832 13.7532 22.0644 13.7546 22.0458 13.7546Z" fill="black"/>
<path d="M9.51328 15.5565C9.21406 15.5565 8.9248 15.4958 8.65351 15.3763C7.87073 15.032 7.36475 14.2539 7.36475 13.3942C7.36475 13.1952 7.5251 13.0338 7.72284 13.0338C7.92057 13.0338 8.08092 13.1952 8.08092 13.3942C8.08092 13.9674 8.41832 14.4862 8.94048 14.7159C9.12089 14.7954 9.31354 14.8357 9.51328 14.8357C10.3031 14.8357 10.9456 14.1891 10.9456 13.3942C10.9456 13.1952 11.106 13.0338 11.3037 13.0338C11.5015 13.0338 11.6618 13.1952 11.6618 13.3942C11.6618 14.5865 10.698 15.5565 9.51328 15.5565Z" fill="black"/>
<path d="M13.0941 15.5565C11.9094 15.5565 10.9456 14.5865 10.9456 13.3942C10.9456 13.1952 11.1059 13.0338 11.3036 13.0338C11.5014 13.0338 11.6617 13.1952 11.6617 13.3942C11.6617 14.1891 12.3043 14.8357 13.0941 14.8357C13.8839 14.8357 14.5265 14.1891 14.5265 13.3942C14.5265 13.1952 14.6868 13.0338 14.8846 13.0338C15.0823 13.0338 15.2426 13.1952 15.2426 13.3942C15.2426 14.5865 14.2788 15.5565 13.0941 15.5565Z" fill="black"/>
<path d="M16.6752 15.5565C15.4904 15.5565 14.5266 14.5865 14.5266 13.3942C14.5266 13.1952 14.687 13.0338 14.8847 13.0338C15.0824 13.0338 15.2428 13.1952 15.2428 13.3942C15.2428 14.1891 15.8853 14.8357 16.6752 14.8357C17.4649 14.8357 18.1075 14.1891 18.1075 13.3942C18.1075 13.1952 18.2678 13.0338 18.4656 13.0338C18.6634 13.0338 18.8237 13.1952 18.8237 13.3942C18.8237 14.5865 17.8599 15.5565 16.6752 15.5565Z" fill="black"/>
<path d="M20.256 15.5565C19.0713 15.5565 18.1074 14.5865 18.1074 13.3942C18.1074 13.1952 18.2677 13.0338 18.4655 13.0338C18.6633 13.0338 18.8236 13.1952 18.8236 13.3942C18.8236 14.1891 19.4662 14.8357 20.256 14.8357C21.0457 14.8357 21.6883 14.1891 21.6883 13.3942C21.6883 13.1952 21.8486 13.0338 22.0464 13.0338C22.2442 13.0338 22.4045 13.1952 22.4045 13.3942C22.4045 14.5865 21.4407 15.5565 20.256 15.5565Z" fill="black"/>
<path d="M23.8368 15.5565C22.6521 15.5565 21.6882 14.5865 21.6882 13.3942C21.6882 13.1952 21.8485 13.0338 22.0463 13.0338C22.2441 13.0338 22.4044 13.1952 22.4044 13.3942C22.4044 14.1891 23.047 14.8357 23.8368 14.8357C24.0365 14.8357 24.2292 14.7954 24.4093 14.7161C24.9317 14.4863 25.2691 13.9674 25.2691 13.3942C25.2691 13.1952 25.4294 13.0338 25.6272 13.0338C25.825 13.0338 25.9853 13.1952 25.9853 13.3942C25.9853 14.2539 25.4794 15.032 24.6963 15.3765C24.4253 15.4958 24.136 15.5565 23.8368 15.5565Z" fill="black"/>
<path d="M8.79705 26.3681C8.59932 26.3681 8.43896 26.2068 8.43896 26.0077V15.0462C8.43896 14.8471 8.59932 14.6858 8.79705 14.6858C8.99479 14.6858 9.15514 14.8471 9.15514 15.0462V26.0077C9.15514 26.2068 8.99479 26.3681 8.79705 26.3681Z" fill="black"/>
<path d="M24.5529 26.368C24.3551 26.368 24.1948 26.2067 24.1948 26.0076V21.683C24.1948 21.4839 24.3551 21.3226 24.5529 21.3226C24.7507 21.3226 24.911 21.4839 24.911 21.683V26.0076C24.911 26.2067 24.7507 26.368 24.5529 26.368Z" fill="black"/>
<path d="M24.5529 19.1604C24.3551 19.1604 24.1948 18.999 24.1948 18.8V15.0462C24.1948 14.8471 24.3551 14.6858 24.5529 14.6858C24.7507 14.6858 24.911 14.8471 24.911 15.0462V18.8C24.911 18.999 24.7507 19.1604 24.5529 19.1604Z" fill="black"/>
<path d="M16.675 26.3682C16.4772 26.3682 16.3169 26.2069 16.3169 26.0078V18.8001H11.6617V26.0078C11.6617 26.2069 11.5014 26.3682 11.3036 26.3682C11.1059 26.3682 10.9456 26.2069 10.9456 26.0078V18.4397C10.9456 18.2407 11.1059 18.0793 11.3036 18.0793H16.675C16.8728 18.0793 17.0331 18.2407 17.0331 18.4397V26.0078C17.0331 26.2069 16.8728 26.3682 16.675 26.3682Z" fill="black"/>
<path d="M21.6884 22.0436H18.8237C18.6259 22.0436 18.4656 21.8822 18.4656 21.6832V18.8001C18.4656 18.601 18.6259 18.4397 18.8237 18.4397H21.6884C21.8862 18.4397 22.0465 18.601 22.0465 18.8001C22.0465 18.9992 21.8862 19.1605 21.6884 19.1605H19.1818V21.3228H21.6884C21.8862 21.3228 22.0465 21.4841 22.0465 21.6832C22.0465 21.8822 21.8862 22.0436 21.6884 22.0436Z" fill="black"/>
<path d="M24.5531 22.0436H21.6884C21.4906 22.0436 21.3303 21.8822 21.3303 21.6832V18.8001C21.3303 18.601 21.4906 18.4397 21.6884 18.4397H24.5531C24.7509 18.4397 24.9112 18.601 24.9112 18.8001V21.6832C24.9112 21.8822 24.7509 22.0436 24.5531 22.0436ZM22.0465 21.3228H24.195V19.1605H22.0465V21.3228Z" fill="black"/>
<path d="M11.3037 24.5662H8.79706C8.59932 24.5662 8.43896 24.4049 8.43896 24.2058C8.43896 24.0068 8.59932 23.8455 8.79706 23.8455H11.3037C11.5014 23.8455 11.6618 24.0068 11.6618 24.2058C11.6618 24.4049 11.5014 24.5662 11.3037 24.5662Z" fill="black"/>
<path d="M24.553 24.5662H16.675C16.4772 24.5662 16.3169 24.4049 16.3169 24.2058C16.3169 24.0068 16.4772 23.8455 16.675 23.8455H24.553C24.7508 23.8455 24.9111 24.0068 24.9111 24.2058C24.9111 24.4049 24.7508 24.5662 24.553 24.5662Z" fill="black"/>
<path d="M22.4046 6.90726H10.9457C10.748 6.90726 10.5876 6.74588 10.5876 6.54687V6.48705C10.5876 5.12904 11.6855 4.02417 13.0348 4.02417H20.3162C21.6652 4.02417 22.7627 5.12904 22.7627 6.48705V6.54687C22.7627 6.74588 22.6024 6.90726 22.4046 6.90726ZM11.3296 6.18649H22.0208C21.8789 5.36863 21.1686 4.74494 20.3162 4.74494H13.0348C12.1822 4.74494 11.4716 5.36863 11.3296 6.18649Z" fill="black"/>
<path d="M25.9854 28.17C25.7876 28.17 25.6273 28.0087 25.6273 27.8097V26.3681H7.72277V27.8097C7.72277 28.0087 7.56242 28.17 7.36468 28.17C7.16694 28.17 7.00659 28.0087 7.00659 27.8097V26.0077C7.00659 25.8086 7.16694 25.6473 7.36468 25.6473H25.9854C26.1832 25.6473 26.3435 25.8086 26.3435 26.0077V27.8097C26.3435 28.0087 26.1832 28.17 25.9854 28.17Z" fill="black"/>
<path d="M27.776 29.972H5.5744C5.37666 29.972 5.21631 29.8107 5.21631 29.6117V29.1792C5.21631 28.2254 5.98735 27.4493 6.93514 27.4493H26.4152C27.363 27.4493 28.1341 28.2254 28.1341 29.1792V29.6117C28.1341 29.8107 27.9738 29.972 27.776 29.972ZM5.93249 29.2513H27.4179V29.1792C27.4179 28.6228 26.9681 28.1701 26.4152 28.1701H6.93514C6.38225 28.1701 5.93249 28.6228 5.93249 29.1792V29.2513Z" fill="black"/>
<path d="M29.9245 7.98838C28.9372 7.98838 28.134 7.18003 28.134 6.18645C28.134 5.19287 28.9372 4.38452 29.9245 4.38452C30.9117 4.38452 31.7149 5.19287 31.7149 6.18645C31.7149 7.18003 30.9117 7.98838 29.9245 7.98838ZM29.9245 5.10529C29.3321 5.10529 28.8502 5.5903 28.8502 6.18645C28.8502 6.7826 29.3321 7.26761 29.9245 7.26761C30.5168 7.26761 30.9988 6.7826 30.9988 6.18645C30.9988 5.5903 30.5168 5.10529 29.9245 5.10529Z" fill="black"/>
<path d="M2.88862 15.9169C1.60523 15.9169 0.561035 14.8661 0.561035 13.5744C0.561035 12.2828 1.60523 11.2319 2.88862 11.2319C4.17202 11.2319 5.21621 12.2828 5.21621 13.5744C5.21621 14.8661 4.17202 15.9169 2.88862 15.9169ZM2.88862 11.9527C2.00006 11.9527 1.27722 12.6802 1.27722 13.5744C1.27722 14.4687 2.00006 15.1962 2.88862 15.1962C3.77719 15.1962 4.50003 14.4687 4.50003 13.5744C4.50003 12.6802 3.77719 11.9527 2.88862 11.9527Z" fill="black"/>
</svg>
