<svg width="46" height="45" viewBox="0 0 46 45" fill="none" xmlns="http://www.w3.org/2000/svg">
<path d="M22.7838 16.1514H10.6595C9.98031 16.1514 9.42969 15.6008 9.42969 14.9216V7.87774C9.42969 3.85696 12.7009 0.585861 16.7216 0.585861C20.7423 0.585861 24.0135 3.85696 24.0135 7.87774V14.9216C24.0136 15.6008 23.463 16.1514 22.7838 16.1514ZM11.8894 13.6918H21.5539V7.87781C21.5539 5.21336 19.3861 3.04563 16.7216 3.04563C14.057 3.04563 11.8893 5.21336 11.8893 7.87781V13.6918H11.8894Z" fill="#F9A825"/>
<path d="M29.3424 16.1514H17.2181C16.5389 16.1514 15.9883 15.6008 15.9883 14.9216V7.87774C15.9883 3.85696 19.2595 0.585861 23.2802 0.585861C27.3009 0.585861 30.5721 3.85696 30.5721 7.87774V14.9216C30.5722 15.6008 30.0216 16.1514 29.3424 16.1514ZM18.448 13.6918H28.1125V7.87781C28.1125 5.21336 25.9447 3.04563 23.2802 3.04563C20.6158 3.04563 18.448 5.21336 18.448 7.87781V13.6918Z" fill="#FFCA28"/>
<path d="M36.165 34.9863L32.8725 11.1674C32.7608 10.3601 32.0707 9.75883 31.2557 9.75883H8.74355C7.92855 9.75883 7.2384 10.3601 7.12683 11.1674L3.83426 34.9863C3.51066 37.3269 5.32918 39.4141 7.69207 39.4141H32.3072C34.6701 39.4141 36.4886 37.3269 36.165 34.9863Z" fill="#4FC3F7"/>
<path d="M7.74051 34.9863L11.0331 11.1674C11.1447 10.3601 11.8348 9.75883 12.6498 9.75883H8.74355C7.92855 9.75883 7.2384 10.3601 7.12683 11.1674L3.83426 34.9863C3.51066 37.3269 5.32918 39.4141 7.69207 39.4141H11.5983C9.23543 39.4141 7.41691 37.3269 7.74051 34.9863Z" fill="#46ADDB"/>
<path d="M3.72781 31.4725L3.2532 34.9061C3.07578 36.1895 3.46219 37.4859 4.31328 38.4628C5.16445 39.4398 6.3957 40 7.69141 40H32.3066C33.6023 40 34.8335 39.4398 35.6847 38.4628C36.5359 37.4859 36.9222 36.1895 36.7448 34.9061L34.283 17.0975C34.2387 16.7769 33.9427 16.553 33.6223 16.5972C33.3018 16.6415 33.0778 16.9374 33.1222 17.258L35.584 35.0665C35.715 36.0143 35.4296 36.9715 34.8011 37.693C34.1726 38.4144 33.2633 38.8281 32.3065 38.8281H7.69141C6.73461 38.8281 5.82539 38.4144 5.1968 37.693C4.56828 36.9715 4.28297 36.0143 4.41391 35.0665L4.88852 31.6329C4.93281 31.3123 4.70891 31.0165 4.38836 30.9722C4.06766 30.928 3.77211 31.1519 3.72781 31.4725Z" fill="#222222"/>
<path d="M31.2557 10.3448C31.7754 10.3448 32.2209 10.7329 32.2921 11.2477L32.7989 14.9141C32.8432 15.2347 33.1389 15.4587 33.4595 15.4144C33.78 15.3701 34.004 15.0742 33.9597 14.7537L33.4529 11.0872C33.302 9.99586 32.3575 9.17289 31.2557 9.17289H31.1569V7.87781C31.157 3.53398 27.623 0 23.2791 0C22.1092 0 20.9982 0.256719 19.999 0.716172C18.9678 0.241172 17.8664 0 16.7201 0C12.3762 0 8.84231 3.53398 8.84231 7.87781V9.17289H8.74356C7.64184 9.17289 6.69731 9.99586 6.54637 11.0872L4.05246 29.1287C4.00817 29.4493 4.23207 29.7451 4.55262 29.7894C4.57981 29.7931 4.60684 29.7949 4.63356 29.7949C4.9216 29.7949 5.1727 29.5825 5.21324 29.2891L7.70723 11.2477C7.7784 10.7329 8.22395 10.3448 8.74356 10.3448H31.2557ZM11.3019 7.87781V9.17289H10.0142V7.87781C10.0142 4.18016 13.0225 1.17188 16.7201 1.17188C17.4014 1.17188 18.0642 1.27172 18.7008 1.46953C18.2767 1.77305 17.8818 2.12078 17.5261 2.50219C17.5211 2.50758 17.5157 2.51258 17.5107 2.51797C17.2485 2.47922 16.9836 2.45969 16.72 2.45969C13.7325 2.45961 11.3019 4.89023 11.3019 7.87781ZM15.4013 7.87781V9.17289H12.4738V7.87781C12.4738 5.56156 14.3382 3.67375 16.645 3.63344C15.8581 4.85914 15.4013 6.31617 15.4013 7.87781ZM20.9665 9.17289H19.0329V7.87781C19.0329 6.8568 19.3953 5.91891 19.998 5.1857C20.6182 5.94141 20.9666 6.89484 20.9666 7.87781V9.17289H20.9665ZM23.4261 9.17289H22.1384V7.87781C22.1384 6.60055 21.6795 5.36164 20.8618 4.38977C20.9051 4.35969 20.9489 4.33055 20.9932 4.30211C21.3205 4.09211 21.6779 3.92672 22.05 3.81367C22.9398 4.97875 23.4261 6.40828 23.4261 7.87781V9.17289ZM27.5255 9.17289H24.598V7.87781C24.598 6.36812 24.161 4.89469 23.3527 3.63336C25.6603 3.67289 27.5256 5.56102 27.5256 7.87781V9.17289H27.5255ZM29.9851 9.17289H28.6974V7.87781C28.6974 4.89023 26.2668 2.45961 23.2791 2.45961C21.9364 2.45961 20.5861 2.98812 19.6015 3.90305C19.5991 3.90523 19.5971 3.90781 19.5947 3.91C18.5293 4.90008 17.8609 6.31203 17.8609 7.87781V9.17289H16.5732V7.87781C16.5732 6.19992 17.194 4.66523 18.2162 3.48789C18.7714 2.84828 19.4472 2.31484 20.1987 1.92422C21.1218 1.44461 22.1689 1.17188 23.2791 1.17188C26.9768 1.17188 29.9851 4.18016 29.9851 7.87781V9.17289Z" fill="#222222"/>
<circle cx="36" cy="35" r="9.5" fill="#F81157" stroke="#222222"/>
</svg>
