<svg width="23" height="21" viewBox="0 0 23 21" fill="none" xmlns="http://www.w3.org/2000/svg">
<g clip-path="url(#clip0)">
<path d="M21.2958 7.20132L15.4988 6.37413L12.9062 1.21562C12.4974 0.402084 11.316 0.402084 10.9071 1.21562L8.31461 6.37408L2.51758 7.20127C1.60334 7.33174 1.2383 8.435 1.89981 9.06825L6.0946 13.0836L5.10431 18.7533C4.94814 19.6474 5.90384 20.3293 6.72158 19.9071L11.9067 17.2303L17.0917 19.9071C17.9095 20.3293 18.8652 19.6474 18.709 18.7533L17.7187 13.0836L21.9135 9.06825C22.5751 8.43505 22.2101 7.33174 21.2958 7.20132Z" fill="#FFCA28"/>
<path d="M11.9067 0.605469C11.5091 0.605469 11.1116 0.808831 10.9072 1.2156L8.31465 6.3741L2.51758 7.20129C1.60334 7.33177 1.2383 8.43502 1.89981 9.06827L6.0946 13.0836L5.10431 18.7533C4.94814 19.6475 5.90384 20.3293 6.72158 19.9072L11.9067 17.2303C6.00512 10.6727 11.9067 0.605469 11.9067 0.605469Z" fill="#E6B624"/>
<path d="M21.3467 6.8602L15.7321 6.05902L13.2213 1.06302C12.9726 0.568152 12.469 0.260742 11.907 0.260742C11.345 0.260742 10.8414 0.568152 10.5927 1.06302L8.08188 6.05902L2.46736 6.8602C1.91124 6.93957 1.45789 7.3149 1.28426 7.83969C1.11058 8.36453 1.25271 8.9299 1.65515 9.31507L5.71782 13.2039L4.75874 18.695C4.68438 19.1209 4.79791 19.5354 5.07839 19.8621C5.51934 20.3758 6.28068 20.5243 6.88529 20.2122L11.907 17.6196C11.907 17.6196 16.9267 20.2112 16.9287 20.2122C17.5367 20.5261 18.2924 20.3784 18.7355 19.8624C19.0161 19.5356 19.1297 19.121 19.0553 18.695L18.0963 13.2039L22.1589 9.31507C22.5614 8.9299 22.7034 8.36453 22.5298 7.83969C22.3561 7.31486 21.9028 6.93952 21.3467 6.8602ZM21.6689 8.82144L17.4741 12.8367C17.3913 12.9159 17.3536 13.03 17.3731 13.1418L18.3634 18.8115C18.4023 19.0338 18.3438 19.2492 18.1989 19.418C17.9655 19.6898 17.5755 19.7673 17.2554 19.6021C17.2554 19.6021 12.0709 16.9254 12.0704 16.9252C11.969 16.8728 11.8451 16.8729 11.7437 16.9252C11.7437 16.9252 6.56129 19.6007 6.55867 19.6021C6.25471 19.759 5.85363 19.6956 5.61523 19.4179C5.47034 19.2491 5.41188 19.0338 5.45068 18.8116L6.44097 13.1419C6.46049 13.03 6.42277 12.916 6.34002 12.8368L2.14514 8.82144C1.9323 8.61771 1.86009 8.33033 1.95191 8.0527C2.04378 7.77512 2.27422 7.58435 2.56836 7.54235L8.36548 6.71511C8.47982 6.6988 8.57866 6.6283 8.62976 6.52655L11.2223 1.36814C11.3538 1.10641 11.6098 0.950105 11.907 0.950105C12.2043 0.950105 12.4603 1.10636 12.5918 1.36814L15.1844 6.52664C15.2355 6.62834 15.3343 6.69889 15.4486 6.7152L21.2458 7.54244C21.5399 7.58444 21.7703 7.77521 21.8622 8.0528C21.954 8.33033 21.8818 8.61771 21.6689 8.82144Z" fill="#222222"/>
</g>
<defs>
<clipPath id="clip0">
<rect width="22.1867" height="20.48" fill="white" transform="translate(0.813477)"/>
</clipPath>
</defs>
</svg>
