<svg width="128" height="21" viewBox="0 0 128 21" fill="none" xmlns="http://www.w3.org/2000/svg">
<g clip-path="url(#clip0)">
<path d="M20.4824 7.20132L14.6853 6.37413L12.0927 1.21562C11.6839 0.402084 10.5025 0.402084 10.0937 1.21562L7.50113 6.37408L1.7041 7.20127C0.78986 7.33174 0.424819 8.435 1.08634 9.06825L5.28112 13.0836L4.29083 18.7533C4.13466 19.6474 5.09037 20.3293 5.90811 19.9071L11.0932 17.2303L16.2783 19.9071C17.096 20.3293 18.0517 19.6474 17.8955 18.7533L16.9052 13.0836L21.1 9.06825C21.7616 8.43505 21.3966 7.33174 20.4824 7.20132Z" fill="#FFCA28"/>
<path d="M11.0932 0.605469C10.6957 0.605469 10.2981 0.808831 10.0937 1.2156L7.50118 6.3741L1.7041 7.20129C0.78986 7.33177 0.424819 8.43502 1.08634 9.06827L5.28112 13.0836L4.29083 18.7533C4.13466 19.6475 5.09037 20.3293 5.9081 19.9072L11.0932 17.2303C5.19164 10.6727 11.0932 0.605469 11.0932 0.605469Z" fill="#E6B624"/>
<path d="M20.5332 6.8602L14.9187 6.05902L12.4078 1.06302C12.1591 0.568152 11.6555 0.260742 11.0935 0.260742C10.5315 0.260742 10.0279 0.568152 9.77922 1.06302L7.2684 6.05902L1.65389 6.8602C1.09776 6.93957 0.644409 7.3149 0.47078 7.83969C0.297105 8.36453 0.439237 8.9299 0.841671 9.31507L4.90434 13.2039L3.94527 18.695C3.8709 19.1209 3.98444 19.5354 4.26491 19.8621C4.70586 20.3758 5.4672 20.5243 6.07181 20.2122L11.0936 17.6196C11.0936 17.6196 16.1132 20.2112 16.1153 20.2122C16.7232 20.5261 17.479 20.3784 17.922 19.8624C18.2026 19.5356 18.3162 19.121 18.2418 18.695L17.2828 13.2039L21.3454 9.31507C21.7479 8.9299 21.89 8.36453 21.7163 7.83969C21.5427 7.31486 21.0893 6.93952 20.5332 6.8602ZM20.8554 8.82144L16.6606 12.8367C16.5779 12.9159 16.5401 13.03 16.5597 13.1418L17.55 18.8115C17.5888 19.0338 17.5303 19.2492 17.3854 19.418C17.152 19.6898 16.762 19.7673 16.442 19.6021C16.442 19.6021 11.2574 16.9254 11.2569 16.9252C11.1555 16.8728 11.0316 16.8729 10.9303 16.9252C10.9303 16.9252 5.74782 19.6007 5.7452 19.6021C5.44123 19.759 5.04015 19.6956 4.80175 19.4179C4.65686 19.2491 4.59841 19.0338 4.6372 18.8116L5.62749 13.1419C5.64701 13.03 5.60929 12.916 5.52655 12.8368L1.33167 8.82144C1.11882 8.61771 1.04661 8.33033 1.13843 8.0527C1.2303 7.77512 1.46074 7.58435 1.75488 7.54235L7.55201 6.71511C7.66634 6.6988 7.76518 6.6283 7.81629 6.52655L10.4088 1.36814C10.5403 1.10641 10.7963 0.950105 11.0936 0.950105C11.3908 0.950105 11.6468 1.10636 11.7783 1.36814L14.3709 6.52664C14.422 6.62834 14.5208 6.69889 14.6352 6.7152L20.4323 7.54244C20.7264 7.58444 20.9569 7.77521 21.0487 8.0528C21.1405 8.33033 21.0683 8.61771 20.8554 8.82144Z" fill="#222222"/>
</g>
<g clip-path="url(#clip1)">
<path d="M46.9355 7.20132L41.1384 6.37413L38.5459 1.21562C38.137 0.402084 36.9556 0.402084 36.5468 1.21562L33.9543 6.37408L28.1572 7.20127C27.243 7.33174 26.8779 8.435 27.5395 9.06825L31.7342 13.0836L30.744 18.7533C30.5878 19.6474 31.5435 20.3293 32.3612 19.9071L37.5463 17.2303L42.7314 19.9071C43.5491 20.3293 44.5048 19.6474 44.3487 18.7533L43.3584 13.0836L47.5532 9.06825C48.2148 8.43505 47.8497 7.33174 46.9355 7.20132Z" fill="#FFCA28"/>
<path d="M37.5463 0.605469C37.1488 0.605469 36.7513 0.808831 36.5468 1.2156L33.9543 6.3741L28.1572 7.20129C27.243 7.33177 26.8779 8.43502 27.5395 9.06827L31.7342 13.0836L30.744 18.7533C30.5878 19.6475 31.5435 20.3293 32.3612 19.9072L37.5463 17.2303C31.6448 10.6727 37.5463 0.605469 37.5463 0.605469Z" fill="#E6B624"/>
<path d="M46.9863 6.8602L41.3718 6.05902L38.8609 1.06302C38.6122 0.568152 38.1086 0.260742 37.5466 0.260742C36.9847 0.260742 36.481 0.568152 36.2323 1.06302L33.7215 6.05902L28.107 6.8602C27.5509 6.93957 27.0975 7.3149 26.9239 7.83969C26.7502 8.36453 26.8924 8.9299 27.2948 9.31507L31.3575 13.2039L30.3984 18.695C30.324 19.1209 30.4376 19.5354 30.718 19.8621C31.159 20.3758 31.9203 20.5243 32.5249 20.2122L37.5467 17.6196C37.5467 17.6196 42.5664 20.2112 42.5684 20.2122C43.1763 20.5261 43.9321 20.3784 44.3751 19.8624C44.6558 19.5356 44.7693 19.121 44.6949 18.695L43.7359 13.2039L47.7986 9.31507C48.201 8.9299 48.3431 8.36453 48.1695 7.83969C47.9958 7.31486 47.5424 6.93952 46.9863 6.8602ZM47.3085 8.82144L43.1137 12.8367C43.031 12.9159 42.9932 13.03 43.0128 13.1418L44.0031 18.8115C44.0419 19.0338 43.9835 19.2492 43.8385 19.418C43.6051 19.6898 43.2152 19.7673 42.8951 19.6021C42.8951 19.6021 37.7105 16.9254 37.7101 16.9252C37.6086 16.8728 37.4848 16.8729 37.3834 16.9252C37.3834 16.9252 32.2009 19.6007 32.1983 19.6021C31.8944 19.759 31.4933 19.6956 31.2549 19.4179C31.11 19.2491 31.0515 19.0338 31.0903 18.8116L32.0806 13.1419C32.1001 13.03 32.0624 12.916 31.9797 12.8368L27.7848 8.82144C27.5719 8.61771 27.4997 8.33033 27.5916 8.0527C27.6834 7.77512 27.9139 7.58435 28.208 7.54235L34.0051 6.71511C34.1195 6.6988 34.2183 6.6283 34.2694 6.52655L36.8619 1.36814C36.9935 1.10641 37.2495 0.950105 37.5467 0.950105C37.8439 0.950105 38.0999 1.10636 38.2315 1.36814L40.824 6.52664C40.8751 6.62834 40.9739 6.69889 41.0883 6.7152L46.8854 7.54244C47.1795 7.58444 47.41 7.77521 47.5019 8.0528C47.5936 8.33033 47.5214 8.61771 47.3085 8.82144Z" fill="#222222"/>
</g>
<g clip-path="url(#clip2)">
<path d="M73.3891 7.20132L67.592 6.37413L64.9995 1.21562C64.5906 0.402084 63.4093 0.402084 63.0004 1.21562L60.4079 6.37408L54.6108 7.20127C53.6966 7.33174 53.3316 8.435 53.9931 9.06825L58.1879 13.0836L57.1976 18.7533C57.0414 19.6474 57.9971 20.3293 58.8148 19.9071L63.9999 17.2303L69.185 19.9071C70.0027 20.3293 70.9584 19.6474 70.8023 18.7533L69.812 13.0836L74.0068 9.06825C74.6684 8.43505 74.3033 7.33174 73.3891 7.20132Z" fill="#FFCA28"/>
<path d="M64 0.605469C63.6024 0.605469 63.2049 0.808831 63.0005 1.2156L60.4079 6.3741L54.6108 7.20129C53.6966 7.33177 53.3316 8.43502 53.9931 9.06827L58.1879 13.0836L57.1976 18.7533C57.0414 19.6475 57.9971 20.3293 58.8148 19.9072L64 17.2303C58.0984 10.6727 64 0.605469 64 0.605469Z" fill="#E6B624"/>
<path d="M73.4399 6.8602L67.8254 6.05902L65.3145 1.06302C65.0658 0.568152 64.5622 0.260742 64.0002 0.260742C63.4383 0.260742 62.9347 0.568152 62.686 1.06302L60.1751 6.05902L54.5606 6.8602C54.0045 6.93957 53.5511 7.3149 53.3775 7.83969C53.2038 8.36453 53.346 8.9299 53.7484 9.31507L57.8111 13.2039L56.852 18.695C56.7776 19.1209 56.8912 19.5354 57.1716 19.8621C57.6126 20.3758 58.3739 20.5243 58.9786 20.2122L64.0003 17.6196C64.0003 17.6196 69.02 20.2112 69.022 20.2122C69.6299 20.5261 70.3857 20.3784 70.8288 19.8624C71.1094 19.5356 71.223 19.121 71.1485 18.695L70.1895 13.2039L74.2522 9.31507C74.6546 8.9299 74.7967 8.36453 74.6231 7.83969C74.4494 7.31486 73.996 6.93952 73.4399 6.8602ZM73.7621 8.82144L69.5674 12.8367C69.4846 12.9159 69.4468 13.03 69.4664 13.1418L70.4567 18.8115C70.4955 19.0338 70.4371 19.2492 70.2921 19.418C70.0588 19.6898 69.6688 19.7673 69.3487 19.6021C69.3487 19.6021 64.1641 16.9254 64.1637 16.9252C64.0623 16.8728 63.9384 16.8729 63.837 16.9252C63.837 16.9252 58.6546 19.6007 58.6519 19.6021C58.348 19.759 57.9469 19.6956 57.7085 19.4179C57.5636 19.2491 57.5051 19.0338 57.5439 18.8116L58.5342 13.1419C58.5537 13.03 58.516 12.916 58.4333 12.8368L54.2384 8.82144C54.0256 8.61771 53.9533 8.33033 54.0452 8.0527C54.137 7.77512 54.3675 7.58435 54.6616 7.54235L60.4587 6.71511C60.5731 6.6988 60.6719 6.6283 60.723 6.52655L63.3155 1.36814C63.4471 1.10641 63.7031 0.950105 64.0003 0.950105C64.2975 0.950105 64.5535 1.10636 64.6851 1.36814L67.2776 6.52664C67.3287 6.62834 67.4276 6.69889 67.5419 6.7152L73.339 7.54244C73.6332 7.58444 73.8636 7.77521 73.9555 8.0528C74.0472 8.33033 73.975 8.61771 73.7621 8.82144Z" fill="#222222"/>
</g>
<g clip-path="url(#clip3)">
<path d="M99.8427 7.20132L94.0456 6.37413L91.4531 1.21562C91.0442 0.402084 89.8629 0.402084 89.454 1.21562L86.8615 6.37408L81.0645 7.20127C80.1502 7.33174 79.7852 8.435 80.4467 9.06825L84.6415 13.0836L83.6512 18.7533C83.495 19.6474 84.4507 20.3293 85.2685 19.9071L90.4535 17.2303L95.6386 19.9071C96.4563 20.3293 97.4121 19.6474 97.2559 18.7533L96.2656 13.0836L100.46 9.06825C101.122 8.43505 100.757 7.33174 99.8427 7.20132Z" fill="#FFCA28"/>
<path d="M90.4536 0.605469C90.056 0.605469 89.6585 0.808831 89.4541 1.2156L86.8615 6.3741L81.0645 7.20129C80.1502 7.33177 79.7852 8.43502 80.4467 9.06827L84.6415 13.0836L83.6512 18.7533C83.495 19.6475 84.4507 20.3293 85.2685 19.9072L90.4536 17.2303C84.552 10.6727 90.4536 0.605469 90.4536 0.605469Z" fill="#E6B624"/>
<path d="M99.8935 6.8602L94.279 6.05902L91.7681 1.06302C91.5195 0.568152 91.0158 0.260742 90.4539 0.260742C89.8919 0.260742 89.3883 0.568152 89.1396 1.06302L86.6288 6.05902L81.0142 6.8602C80.4581 6.93957 80.0048 7.3149 79.8311 7.83969C79.6575 8.36453 79.7996 8.9299 80.202 9.31507L84.2647 13.2039L83.3056 18.695C83.2313 19.1209 83.3448 19.5354 83.6253 19.8621C84.0662 20.3758 84.8276 20.5243 85.4322 20.2122L90.4539 17.6196C90.4539 17.6196 95.4736 20.2112 95.4756 20.2122C96.0835 20.5261 96.8393 20.3784 97.2824 19.8624C97.563 19.5356 97.6766 19.121 97.6022 18.695L96.6431 13.2039L100.706 9.31507C101.108 8.9299 101.25 8.36453 101.077 7.83969C100.903 7.31486 100.45 6.93952 99.8935 6.8602ZM100.216 8.82144L96.021 12.8367C95.9382 12.9159 95.9005 13.03 95.92 13.1418L96.9103 18.8115C96.9492 19.0338 96.8907 19.2492 96.7458 19.418C96.5124 19.6898 96.1224 19.7673 95.8023 19.6021C95.8023 19.6021 90.6178 16.9254 90.6173 16.9252C90.5159 16.8728 90.392 16.8729 90.2906 16.9252C90.2906 16.9252 85.1082 19.6007 85.1055 19.6021C84.8016 19.759 84.4005 19.6956 84.1621 19.4179C84.0172 19.2491 83.9588 19.0338 83.9976 18.8116L84.9878 13.1419C85.0074 13.03 84.9696 12.916 84.8869 12.8368L80.692 8.82144C80.4792 8.61771 80.407 8.33033 80.4988 8.0527C80.5907 7.77512 80.8211 7.58435 81.1152 7.54235L86.9124 6.71511C87.0267 6.6988 87.1255 6.6283 87.1766 6.52655L89.7691 1.36814C89.9007 1.10641 90.1567 0.950105 90.4539 0.950105C90.7511 0.950105 91.0071 1.10636 91.1387 1.36814L93.7312 6.52664C93.7823 6.62834 93.8812 6.69889 93.9955 6.7152L99.7926 7.54244C100.087 7.58444 100.317 7.77521 100.409 8.0528C100.501 8.33033 100.429 8.61771 100.216 8.82144Z" fill="#222222"/>
</g>
<g clip-path="url(#clip4)">
<path d="M126.296 7.20132L120.499 6.37413L117.906 1.21562C117.497 0.402084 116.316 0.402084 115.907 1.21562L113.315 6.37408L107.518 7.20127C106.603 7.33174 106.238 8.435 106.9 9.06825L111.095 13.0836L110.104 18.7533C109.948 19.6474 110.904 20.3293 111.722 19.9071L116.907 17.2303L122.092 19.9071C122.909 20.3293 123.865 19.6474 123.709 18.7533L122.719 13.0836L126.914 9.06825C127.575 8.43505 127.21 7.33174 126.296 7.20132Z" fill="#FFCA28"/>
<path d="M116.907 0.605469C116.509 0.605469 116.112 0.808831 115.907 1.2156L113.315 6.3741L107.518 7.20129C106.603 7.33177 106.238 8.43502 106.9 9.06827L111.095 13.0836L110.104 18.7533C109.948 19.6475 110.904 20.3293 111.722 19.9072L116.907 17.2303C111.005 10.6727 116.907 0.605469 116.907 0.605469Z" fill="#E6B624"/>
<path d="M126.347 6.8602L120.732 6.05902L118.221 1.06302C117.973 0.568152 117.469 0.260742 116.907 0.260742C116.345 0.260742 115.841 0.568152 115.593 1.06302L113.082 6.05902L107.467 6.8602C106.911 6.93957 106.458 7.3149 106.284 7.83969C106.111 8.36453 106.253 8.9299 106.655 9.31507L110.718 13.2039L109.759 18.695C109.684 19.1209 109.798 19.5354 110.078 19.8621C110.519 20.3758 111.281 20.5243 111.885 20.2122L116.907 17.6196C116.907 17.6196 121.927 20.2112 121.929 20.2122C122.537 20.5261 123.292 20.3784 123.735 19.8624C124.016 19.5356 124.13 19.121 124.055 18.695L123.096 13.2039L127.159 9.31507C127.561 8.9299 127.703 8.36453 127.53 7.83969C127.356 7.31486 126.903 6.93952 126.347 6.8602ZM126.669 8.82144L122.474 12.8367C122.391 12.9159 122.354 13.03 122.373 13.1418L123.363 18.8115C123.402 19.0338 123.344 19.2492 123.199 19.418C122.965 19.6898 122.576 19.7673 122.255 19.6021C122.255 19.6021 117.071 16.9254 117.07 16.9252C116.969 16.8728 116.845 16.8729 116.744 16.9252C116.744 16.9252 111.561 19.6007 111.559 19.6021C111.255 19.759 110.854 19.6956 110.615 19.4179C110.47 19.2491 110.412 19.0338 110.451 18.8116L111.441 13.1419C111.46 13.03 111.423 12.916 111.34 12.8368L107.145 8.82144C106.932 8.61771 106.86 8.33033 106.952 8.0527C107.044 7.77512 107.274 7.58435 107.568 7.54235L113.365 6.71511C113.48 6.6988 113.579 6.6283 113.63 6.52655L116.222 1.36814C116.354 1.10641 116.61 0.950105 116.907 0.950105C117.204 0.950105 117.46 1.10636 117.592 1.36814L120.184 6.52664C120.235 6.62834 120.334 6.69889 120.449 6.7152L126.246 7.54244C126.54 7.58444 126.77 7.77521 126.862 8.0528C126.954 8.33033 126.882 8.61771 126.669 8.82144Z" fill="#222222"/>
</g>
<defs>
<clipPath id="clip0">
<rect width="22.1867" height="20.48" fill="white"/>
</clipPath>
<clipPath id="clip1">
<rect width="22.1867" height="20.48" fill="white" transform="translate(26.4531)"/>
</clipPath>
<clipPath id="clip2">
<rect width="22.1867" height="20.48" fill="white" transform="translate(52.9067)"/>
</clipPath>
<clipPath id="clip3">
<rect width="22.1867" height="20.48" fill="white" transform="translate(79.3604)"/>
</clipPath>
<clipPath id="clip4">
<rect width="22.1867" height="20.48" fill="white" transform="translate(105.813)"/>
</clipPath>
</defs>
</svg>
