<svg width="43" height="45" viewBox="0 0 43 45" fill="none" xmlns="http://www.w3.org/2000/svg">

<path d="M38.3506 18.734L27.9475 17.2224L23.2951 7.79554C22.5614 6.30885 20.4414 6.30885 19.7077 7.79554L15.0553 17.2223L4.6523 18.7339C3.01166 18.9724 2.35658 20.9885 3.5437 22.1457L11.0714 29.4835L9.29429 39.8445C9.01403 41.4785 10.7291 42.7246 12.1965 41.9531L21.5014 37.0613L30.8062 41.9531C32.2736 42.7246 33.9887 41.4785 33.7084 39.8445L31.9313 29.4835L39.459 22.1457C40.6463 20.9886 39.9912 18.9724 38.3506 18.734Z" fill="#FFCA28"/>
<path d="M21.5014 6.68056C20.788 6.68056 20.0746 7.05219 19.7078 7.79554L15.0554 17.2224L4.65229 18.734C3.01166 18.9725 2.35658 20.9886 3.5437 22.1458L11.0714 29.4835L9.29428 39.8446C9.01403 41.4786 10.7291 42.7247 12.1965 41.9532L21.5014 37.0614C10.9108 25.0779 21.5014 6.68056 21.5014 6.68056Z" fill="#E6B624"/>
<path d="M38.4381 18.1107L28.3627 16.6466L23.8568 7.5167C23.4105 6.61236 22.5068 6.05058 21.4983 6.05058C20.4898 6.05058 19.586 6.61236 19.1397 7.5167L14.634 16.6466L4.55851 18.1107C3.56053 18.2557 2.74697 18.9416 2.43539 19.9006C2.12372 20.8597 2.37878 21.8929 3.10096 22.5968L10.3916 29.7034L8.67048 39.7381C8.53703 40.5163 8.74078 41.2738 9.2441 41.8709C10.0354 42.8096 11.4017 43.081 12.4867 42.5107L21.4984 37.7729C21.4984 37.7729 30.5064 42.5088 30.51 42.5107C31.6009 43.0842 32.9572 42.8144 33.7523 41.8713C34.2559 41.2741 34.4597 40.5165 34.3262 39.7381L32.6051 29.7034L39.8958 22.5968C40.6179 21.8929 40.8729 20.8597 40.5613 19.9006C40.2497 18.9415 39.4361 18.2556 38.4381 18.1107ZM39.0164 21.6947L31.4887 29.0324C31.3402 29.1772 31.2724 29.3857 31.3075 29.5899L33.0846 39.951C33.1543 40.3572 33.0494 40.7507 32.7893 41.0592C32.3705 41.5561 31.6707 41.6977 31.0963 41.3956C31.0963 41.3956 21.7924 36.5042 21.7916 36.5038C21.6096 36.4081 21.3873 36.4082 21.2053 36.5038C21.2053 36.5038 11.9052 41.3931 11.9005 41.3956C11.355 41.6824 10.6353 41.5666 10.2075 41.0591C9.94747 40.7506 9.84257 40.3572 9.91219 39.9511L11.6893 29.59C11.7243 29.3857 11.6566 29.1772 11.5082 29.0325L3.98028 21.6947C3.59832 21.3224 3.46873 20.7973 3.63351 20.2899C3.79837 19.7826 4.21191 19.434 4.73975 19.3573L15.1429 17.8455C15.3481 17.8157 15.5255 17.6869 15.6172 17.5009L20.2695 8.07427C20.5056 7.59598 20.965 7.31035 21.4984 7.31035C22.0317 7.31035 22.4911 7.5959 22.7272 8.07427L27.3796 17.5011C27.4713 17.687 27.6487 17.8159 27.8539 17.8457L38.2571 19.3574C38.7849 19.4342 39.1984 19.7828 39.3633 20.2901C39.528 20.7973 39.3984 21.3224 39.0164 21.6947Z" fill="#222222"/>
<path d="M8.93331 12.787C9.17233 12.7846 9.40455 12.6467 9.50776 12.4182C9.65096 12.1012 9.50995 11.7281 9.19291 11.5849L0.889272 7.83491C0.57223 7.6918 0.199171 7.83273 0.0559775 8.14977C-0.0872162 8.46681 0.0537939 8.83987 0.370836 8.98306C0.370836 8.98306 8.67447 12.7331 8.67489 12.7333C8.75795 12.7707 8.84605 12.7878 8.93331 12.787Z" fill="#222222"/>
<path d="M12.587 0.305125C12.3028 0.505764 12.235 0.898728 12.4357 1.18302C12.4357 1.18302 15.6451 5.72969 15.6499 5.73666C15.8394 6.00507 16.2399 6.09116 16.5278 5.888C16.812 5.68736 16.8798 5.29439 16.6792 5.01011L13.4649 0.456465C13.2642 0.172261 12.8711 0.104654 12.587 0.305125Z" fill="#222222"/>
<path d="M42.1118 7.83492L33.8083 11.585C33.4913 11.7282 33.3503 12.1013 33.4934 12.4183C33.6344 12.7304 34.0151 12.8738 34.3267 12.7332L42.6303 8.98308C42.9473 8.83988 43.0883 8.46682 42.9451 8.14978C42.8019 7.83274 42.4288 7.69173 42.1118 7.83492Z" fill="#222222"/>
<path d="M29.5327 0.456458L26.3185 5.0101C26.1178 5.2943 26.1856 5.68735 26.4698 5.88791C26.7377 6.07704 27.1427 6.02698 27.3477 5.73657L30.562 1.18292C30.7626 0.898721 30.6948 0.505673 30.4106 0.305034C30.1263 0.104479 29.7333 0.172255 29.5327 0.456458Z" fill="#222222"/>

<circle cx="32" cy="35" r="9.5" fill="#F81157" stroke="#222222"/>

</svg>
