<svg width="135" height="135" viewBox="0 0 135 135" fill="none" xmlns="http://www.w3.org/2000/svg">
<path d="M67.4998 1.97754C45.3144 1.97754 27.265 20.0267 27.265 42.212V54.4474V77.3864C27.265 88.2924 36.1062 97.1333 47.0122 97.1333H87.9873C98.8933 97.1333 107.735 88.2924 107.735 77.3864V54.4474V42.212C107.734 20.0267 89.6854 1.97754 67.4998 1.97754Z" fill="#FF9800"/>
<path d="M37.0211 77.3864V54.4474V42.212C37.0211 21.6778 52.4844 4.68888 72.3777 2.27391C70.7785 2.07984 69.1511 1.97754 67.4998 1.97754C45.3144 1.97754 27.265 20.0267 27.265 42.212V54.4474V77.3864C27.265 88.2924 36.1062 97.1333 47.0122 97.1333H56.768C45.8621 97.1333 37.0211 88.2924 37.0211 77.3864Z" fill="#E68900"/>
<path d="M31.3023 46.4224C25.9748 46.4224 21.6561 50.741 21.6561 56.0685C21.6561 61.396 25.9748 65.7147 31.3023 65.7147H39.3153V46.4226H31.3023V46.4224Z" fill="#EF5350"/>
<path d="M103.698 46.4224C109.025 46.4224 113.344 50.741 113.344 56.0685C113.344 61.396 109.025 65.7147 103.698 65.7147H95.6847V46.4226H103.698V46.4224Z" fill="#EF5350"/>
<path d="M75.8555 82.0073H59.144V108.2H75.8555V82.0073Z" fill="#FEC297"/>
<path d="M59.1445 96.426C61.8476 96.9631 64.641 97.2471 67.4997 97.2471C70.3584 97.2471 73.1518 96.9628 75.8549 96.4257V82.0068H59.1445V96.426Z" fill="#E3AD87"/>
<path d="M92.2253 36.2584V31.7066H78.8521C72.5823 31.7066 67.4997 26.6241 67.4997 20.3542C67.4997 26.6241 62.4172 31.7066 56.1473 31.7066H42.7742V36.2584C42.7742 41.872 38.2234 46.4224 32.6101 46.4224V54.4478C32.6101 73.7167 48.2306 89.3371 67.4995 89.3371C86.7684 89.3371 102.389 73.7167 102.389 54.4478V46.4227C96.776 46.4224 92.2253 41.8717 92.2253 36.2584Z" fill="#FEC297"/>
<path d="M54.2162 74.7375H50.6722C48.9307 74.7375 47.5187 76.1495 47.5187 77.8911C47.5187 79.6326 48.9307 81.0446 50.6722 81.0446H54.2162C55.9578 81.0446 57.3698 79.6326 57.3698 77.8911C57.3698 76.1492 55.9583 74.7375 54.2162 74.7375Z" fill="#EF5350"/>
<path d="M81.3051 103.096C79.5904 102.938 77.7766 102.854 75.8553 102.854H59.1448C57.2234 102.854 55.4096 102.938 53.695 103.096L49.5938 119.227L67.5 133.023L85.4062 116.732L81.3051 103.096Z" fill="#E6E6E6"/>
<path d="M81.3051 103.096L67.5 133.022H110.028C110.028 124.063 106.615 105.489 81.4372 103.108L81.3051 103.096Z" fill="#EF5350"/>
<path d="M53.6511 103.099C28.3932 105.445 24.9718 124.053 24.9718 133.022H67.4997C67.4997 133.022 58.4012 113.298 53.6946 103.096L53.6511 103.099Z" fill="#EF5350"/>
<path d="M53.6949 103.095L53.6791 103.097L53.6514 103.099C28.3932 105.445 24.9718 124.053 24.9718 133.022H35.5187C35.5187 125.344 38.0283 110.604 54.5951 105.048C54.2813 104.367 53.9797 103.713 53.6949 103.095Z" fill="#D44A47"/>
<path d="M54.5946 105.046C57.38 104.112 60.5625 103.437 64.198 103.099L64.2415 103.095C65.9559 102.937 67.77 102.854 69.6914 102.854H59.1445C58.184 102.854 57.25 102.875 56.3422 102.915C55.678 102.945 55.0323 102.989 54.3955 103.039C54.1616 103.058 53.9251 103.074 53.6949 103.095L54.5946 105.046Z" fill="#CCCCCC"/>
<path d="M54.411 54.1453C56.3261 54.1453 57.8786 52.5928 57.8786 50.6778C57.8786 48.7627 56.3261 47.2102 54.411 47.2102C52.496 47.2102 50.9435 48.7627 50.9435 50.6778C50.9435 52.5928 52.496 54.1453 54.411 54.1453Z" fill="black"/>
<path d="M80.5887 54.1453C82.5038 54.1453 84.0562 52.5928 84.0562 50.6778C84.0562 48.7627 82.5038 47.2102 80.5887 47.2102C78.6736 47.2102 77.1212 48.7627 77.1212 50.6778C77.1212 52.5928 78.6736 54.1453 80.5887 54.1453Z" fill="black"/>
<path d="M76.6386 63.8987C75.6364 63.4661 74.4723 63.9285 74.0396 64.9313C73.1566 66.9784 70.4674 68.4081 67.5003 68.4081C64.5329 68.4081 61.8437 66.9784 60.9607 64.9313C60.528 63.9283 59.3647 63.4658 58.3617 63.8987C57.3589 64.3312 56.8964 65.495 57.3291 66.4978C58.8423 70.0059 62.9298 72.3631 67.5003 72.3631C72.0705 72.3631 76.1577 70.0062 77.6712 66.498C78.1038 65.495 77.6416 64.3314 76.6386 63.8987Z" fill="black"/>
<path d="M87.9875 99.1111C99.9667 99.1111 109.712 89.3655 109.712 77.3864V66.0113C113.072 63.9715 115.321 60.2778 115.321 56.0682C115.321 51.8587 113.072 48.1649 109.712 46.1252V42.212C109.712 31.9734 105.984 22.0907 99.2139 14.3844C98.493 13.5638 97.2435 13.4829 96.4232 14.2037C95.6026 14.9246 95.522 16.1742 96.2426 16.9944C102.378 23.9788 105.757 32.9347 105.757 42.212V44.6267C104.641 44.4248 103.518 44.4448 102.39 44.4448C97.8755 44.4448 94.2031 40.7724 94.2031 36.2583V31.7063C94.2031 30.6142 93.3177 29.7287 92.2255 29.7287H78.8526C73.6833 29.7287 69.4778 25.5232 69.4778 20.3539C69.4778 19.2618 68.5924 18.3763 67.5002 18.3763C66.4081 18.3763 65.5227 19.2618 65.5227 20.3539C65.5227 25.5232 61.3171 29.7287 56.1478 29.7287H42.7749C41.6828 29.7287 40.7974 30.6142 40.7974 31.7063V36.2583C40.7974 40.7724 37.125 44.4448 32.6104 44.4448C31.5436 44.4448 30.5002 44.448 29.4413 44.5956C29.3754 44.6064 29.3089 44.6149 29.2433 44.6267V42.212C29.2428 21.117 46.4049 3.95508 67.4997 3.95508C75.9775 3.95508 84.0161 6.6854 90.7458 11.851C91.612 12.5157 92.8536 12.3528 93.5186 11.4863C94.1836 10.6199 94.0203 9.37854 93.1539 8.71356C85.7276 3.01324 76.8566 0 67.4997 0C44.2243 0 25.2877 18.9361 25.2877 42.212V46.1252C21.928 48.1649 19.6786 51.859 19.6786 56.0682C19.6786 60.2775 21.928 63.9715 25.2877 66.0113V77.3861C25.2877 89.3652 35.0333 99.1108 47.0124 99.1108H57.1672V100.91C55.9219 100.947 54.6992 101.017 53.5188 101.126L53.4687 101.13C41.8431 102.21 33.3384 106.703 28.1907 114.486C23.6698 121.321 22.9943 129.033 22.9943 133.022C22.9943 134.115 23.8797 135 24.9718 135H110.028C111.12 135 112.005 134.115 112.005 133.022C112.005 129.04 111.332 121.339 106.824 114.509C101.692 106.733 93.2132 102.235 81.6188 101.139C81.6188 101.139 81.4867 101.127 81.4862 101.127C80.3047 101.018 79.0802 100.948 77.8327 100.91V99.1114H87.9873V99.1111H87.9875ZM103.571 62.0773C103.795 61.0124 103.974 59.9382 104.102 58.8574C104.277 57.3948 104.367 55.9208 104.367 54.4477V48.4312C104.4 48.2723 105.962 48.7524 106.118 48.7999C106.369 48.8758 106.612 48.9739 106.851 49.0801C109.511 50.2851 111.366 52.9638 111.366 56.0685C111.366 59.1917 109.488 61.883 106.803 63.0774C105.832 63.5112 104.761 63.7369 103.698 63.7369H103.186C103.328 63.1871 103.454 62.6331 103.571 62.0773ZM103.698 67.692C104.387 67.692 105.079 67.6329 105.757 67.51V77.3864C105.757 87.1844 97.7858 95.156 87.9875 95.156H77.8327V89.8385C88.8793 86.608 97.7932 78.3359 101.905 67.692H103.698ZM34.5879 71.048C35.429 72.7088 36.3909 74.2985 37.4643 75.8038C35.8166 75.4038 34.5879 73.9202 34.5879 72.1509V71.048ZM28.948 63.3643C28.6917 63.2815 28.4399 63.1855 28.1939 63.0761C25.5102 61.8812 23.6337 59.1906 23.6337 56.0682C23.6337 52.964 25.4883 50.2857 28.1472 49.0807C28.9322 48.7247 29.7748 48.5077 30.6328 48.4312V54.4477V63.7058C30.6328 63.7516 29.0819 63.4076 28.948 63.3643ZM47.0121 95.156C37.2141 95.156 29.2425 87.1847 29.2425 77.3864V67.51C29.5494 67.5654 29.8603 67.606 30.1706 67.6361C30.3241 67.6508 30.4786 67.6632 30.6326 67.6711V72.1506C30.6326 76.4063 34.0946 79.8683 38.3503 79.8683H40.8222C45.2429 84.5055 50.8578 87.9934 57.1669 89.8385V95.156H47.0121ZM49.4965 77.891C49.4965 77.2427 50.0238 76.7151 50.6724 76.7151H54.2164C54.8648 76.7151 55.3924 77.2424 55.3924 77.891C55.3924 78.5397 54.8651 79.067 54.2164 79.067H50.6724C50.0238 79.067 49.4965 78.5394 49.4965 77.891ZM64.41 131.045H27.0084C27.2309 127.272 28.1831 121.666 31.4892 116.668C35.7497 110.227 42.8142 106.376 52.4928 105.211L64.41 131.045ZM82.5069 105.211C92.1986 106.379 99.2656 110.236 103.524 116.687C106.82 121.681 107.769 127.277 107.991 131.045H70.5899L82.5069 105.211ZM78.3039 104.88L67.5 128.301L56.9233 105.373L56.696 104.88C57.5005 104.848 58.3181 104.831 59.1447 104.831H75.8549C76.6818 104.831 77.4995 104.848 78.3039 104.88ZM61.1225 100.876V90.7619C63.2256 91.1305 65.3653 91.3143 67.5002 91.3143C69.6357 91.3143 71.7741 91.129 73.8779 90.7619V100.876H61.1225ZM75.0964 86.473C74.5943 86.5922 74.0873 86.6845 73.5831 86.7937C69.7016 87.6329 65.4787 87.5364 61.5884 86.8266C61.0234 86.7233 60.461 86.6049 59.902 86.4725C56.8046 85.7377 53.875 84.5651 51.1832 83.0221H54.2167C57.0459 83.0221 59.3478 80.7202 59.3478 77.891C59.3478 75.0618 57.0462 72.76 54.2167 72.76H50.6727C48.5441 72.76 46.7147 74.0633 45.939 75.9135H42.5724C39.6989 72.5812 37.4814 68.6686 36.1206 64.3781C35.1089 61.188 34.5882 57.8074 34.5882 54.4477C34.5882 54.4477 34.5882 48.2393 34.5882 48.239C34.5882 48.2638 36.6999 47.7022 36.8829 47.6326C41.5106 45.8757 44.7522 41.2159 44.7522 36.2583V33.6838H56.1476C60.9401 33.6838 65.1504 31.141 67.5 27.3341C69.8495 31.141 74.0596 33.6838 78.8524 33.6838H90.2477V36.2583C90.2477 39.0377 91.2394 41.7886 92.9965 43.9399C94.8483 46.2072 97.5235 47.7613 100.412 48.2388V54.4474C100.412 57.7175 100.036 61.2942 98.8798 64.3773C95.4099 75.3184 86.3652 83.8005 75.0964 86.473Z" fill="black"/>
</svg>
