<svg width="30" height="30" viewBox="0 0 30 30" fill="none" xmlns="http://www.w3.org/2000/svg">
<g clip-path="url(#clip0)">
<path d="M24.4812 16.2388C24.0162 15.6488 24.15 15.385 24.4812 14.8575C24.4875 14.8512 28.3237 9.51625 28.7188 7.7075L28.7212 7.70625C28.9187 7.0475 28.7212 6.5625 27.7712 6.5625H24.6275C23.8275 6.5625 23.4587 6.97875 23.2612 7.44375C23.2612 7.44375 21.66 11.2988 19.3962 13.7975C18.665 14.52 18.3288 14.7512 17.9288 14.7512C17.7313 14.7512 17.4263 14.52 17.4263 13.86C17.24 7.785 17.93 6.5625 16.54 6.5625H11.5988C11.0963 6.5625 10.7987 6.93125 10.7987 7.275C10.7987 8.02375 11.93 8.1975 12.0475 10.3062V14.8837C12.0475 18.5925 8.12625 13.1275 6.26625 7.77125C5.9575 6.91125 5.65375 6.56375 4.8475 6.56375H1.70375C0.80625 6.56375 0.625 6.98 0.625 7.445C0.625 8.2675 1.6925 12.3537 5.59375 17.7537C8.19375 21.44 11.8538 23.4375 15.185 23.4375C17.1862 23.4375 17.4312 22.9937 17.4312 22.23C17.4312 18.7075 17.25 18.375 18.2537 18.375C18.7188 18.375 19.5188 18.6062 21.3875 20.3837C23.5225 22.4925 23.8737 23.4363 25.07 23.4363H28.2137C29.11 23.4363 29.5637 22.9925 29.3025 22.1175C28.7037 20.2788 24.6637 16.4925 24.4812 16.2388Z" fill="#4B729F"/>
<path d="M15.1813 24.375C19.5212 24.375 17.9738 21.6275 18.3088 20.8375C18.3038 20.2475 18.2987 19.68 18.3188 19.335C18.5938 19.4125 19.2425 19.7412 20.5825 21.0437C22.6512 23.1312 23.18 24.375 24.8512 24.375H27.9275C28.9025 24.375 29.41 23.9713 29.6638 23.6325C29.9088 23.305 30.1488 22.73 29.8862 21.835C29.2 19.68 25.1975 15.9587 24.9487 15.5662C24.9862 15.4937 25.0462 15.3975 25.0775 15.3475H25.075C25.865 14.3038 28.88 9.78625 29.3237 7.97875C29.325 7.97625 29.3263 7.9725 29.3263 7.96875C29.5662 7.14375 29.3463 6.60875 29.1187 6.30625C28.7763 5.85375 28.2313 5.625 27.495 5.625H24.4188C23.3888 5.625 22.6075 6.14375 22.2125 7.09C21.5513 8.77125 19.6938 12.2288 18.3013 13.4525C18.2587 11.7188 18.2875 10.395 18.31 9.41125C18.355 7.4925 18.5 5.625 16.5087 5.625H11.6737C10.4262 5.625 9.2325 6.9875 10.525 8.605C11.655 10.0225 10.9312 10.8125 11.175 14.745C10.225 13.7262 8.535 10.975 7.34 7.45875C7.005 6.5075 6.4975 5.62625 5.06875 5.62625H1.9925C0.745 5.62625 0 6.30625 0 7.445C0 10.0025 5.66125 24.375 15.1813 24.375ZM5.06875 7.50125C5.34 7.50125 5.3675 7.50125 5.56875 8.0725C6.7925 11.6762 9.5375 17.0088 11.5425 17.0088C13.0487 17.0088 13.0487 15.465 13.0487 14.8837L13.0475 10.2562C12.965 8.725 12.4075 7.9625 12.0413 7.5L16.4263 7.505C16.4287 7.52625 16.4013 12.6237 16.4387 13.8587C16.4387 15.6125 17.8312 16.6175 20.005 14.4175C22.2987 11.8288 23.885 7.95875 23.9487 7.80125C24.0425 7.57625 24.1238 7.5 24.4188 7.5H27.495H27.5075C27.5063 7.50375 27.5063 7.5075 27.505 7.51125C27.2237 8.82375 24.4475 13.0063 23.5188 14.305C23.5037 14.325 23.49 14.3463 23.4762 14.3675C23.0675 15.035 22.735 15.7725 23.5325 16.81H23.5337C23.6062 16.8975 23.795 17.1025 24.07 17.3875C24.925 18.27 27.8575 21.2875 28.1175 22.4875C27.945 22.515 27.7575 22.495 24.8512 22.5012C24.2325 22.5012 23.7487 21.5763 21.9025 19.7137C20.2425 18.0988 19.165 17.4388 18.1838 17.4388C16.2787 17.4388 16.4175 18.985 16.435 20.855C16.4412 22.8825 16.4288 22.2413 16.4425 22.3688C16.3313 22.4125 16.0125 22.5 15.1813 22.5C7.25 22.5 2.085 9.91125 1.88625 7.505C1.955 7.49875 2.90125 7.5025 5.06875 7.50125Z" fill="black"/>
</g>
<defs>
<clipPath id="clip0">
<rect width="30" height="30" fill="white"/>
</clipPath>
</defs>
</svg>
