<svg width="40" height="40" viewBox="0 0 40 40" fill="none" xmlns="http://www.w3.org/2000/svg">
<path d="M17.7636 26.6211L25.2422 5.87256L12.9913 1.45688L5.51275 22.2055L17.7636 26.6211Z" fill="#AED581"/>
<path d="M14.2434 4.12129L8.17773 20.95L16.5086 23.9527L22.5743 7.12405L14.2434 4.12129Z" fill="#66BB6A"/>
<path d="M15.3781 16.4437C16.7065 16.4437 17.7834 15.3667 17.7834 14.0383C17.7834 12.7098 16.7065 11.6329 15.3781 11.6329C14.0496 11.6329 12.9727 12.7098 12.9727 14.0383C12.9727 15.3667 14.0496 16.4437 15.3781 16.4437Z" fill="#AED581"/>
<path d="M23.77 27.6545L36.1113 9.37622L25.3191 2.08939L12.9778 20.3676L23.77 27.6545Z" fill="#66BB6A"/>
<path d="M25.8789 4.9803L15.8691 19.8053L23.2081 24.7605L33.2178 9.93552L25.8789 4.9803Z" fill="#AED581"/>
<path d="M24.5441 17.2766C25.8725 17.2766 26.9495 16.1996 26.9495 14.8712C26.9495 13.5427 25.8725 12.4658 24.5441 12.4658C23.2156 12.4658 22.1387 13.5427 22.1387 14.8712C22.1387 16.1996 23.2156 17.2766 24.5441 17.2766Z" fill="#66BB6A"/>
<path d="M17.6769 13.4052L12.9766 20.367L18.6388 24.1899V24.1898L23.7684 27.6531L33.388 13.4052H17.6769Z" fill="#58A15B"/>
<path d="M5.51562 22.2041L15.6154 25.8441L20.3166 19.5405L22.5278 13.4052H8.6868L5.51562 22.2041Z" fill="#98BA71"/>
<path d="M8.17773 20.9507L16.5081 23.953L20.3096 13.4052H10.8971L8.17773 20.9507Z" fill="#58A15B"/>
<path d="M17.7102 13.4477C17.7065 13.4334 17.7022 13.4194 17.6983 13.4052H13.0579C12.9519 13.7924 12.9409 14.2114 13.0465 14.6284C13.3726 15.9162 14.6808 16.6959 15.9687 16.37C17.2565 16.0439 18.0362 14.7356 17.7102 13.4477Z" fill="#98BA71"/>
<path d="M15.8691 19.8062L23.2081 24.761L30.8752 13.4052H20.1909L15.8691 19.8062Z" fill="#98BA71"/>
<path d="M26.9495 14.8713C26.9495 14.3193 26.7631 13.8111 26.4504 13.4052H22.6377C22.3251 13.8111 22.1387 14.3193 22.1387 14.8713C22.1387 16.1998 23.2156 17.2767 24.5441 17.2767C25.8725 17.2767 26.9495 16.1998 26.9495 14.8713Z" fill="#58A15B"/>
<path d="M38.0779 18.3633V17.7441C38.0779 16.6422 37.1846 15.7489 36.0827 15.7489H0.585938V18.3633L1.46485 18.9492L0.585938 19.5352V34.7565L1.3993 35.3425L0.585938 35.9284V38.5428H36.0827C37.1847 38.5428 38.078 37.6495 38.078 36.5475V35.9284L37.1991 35.3425L38.078 34.7565V19.5352L37.2439 18.9492L38.0779 18.3633Z" fill="#DE9621"/>
<path d="M38.7867 24.6307H32.812C31.423 24.6307 30.2969 25.7568 30.2969 27.1458C30.2969 28.5349 31.423 29.661 32.812 29.661H38.7867C39.1334 29.661 39.4144 29.38 39.4144 29.0333V25.2583C39.4144 24.9117 39.1334 24.6307 38.7867 24.6307Z" fill="#FFCA28"/>
<path d="M33.1297 28.2399C33.7342 28.2399 34.2242 27.7499 34.2242 27.1454C34.2242 26.5409 33.7342 26.0508 33.1297 26.0508C32.5252 26.0508 32.0352 26.5409 32.0352 27.1454C32.0352 27.7499 32.5252 28.2399 33.1297 28.2399Z" fill="black"/>
<path d="M20.5034 18.363H18.1602C17.8366 18.363 17.5742 18.6254 17.5742 18.949C17.5742 19.2726 17.8366 19.5349 18.1602 19.5349H20.5034C20.827 19.5349 21.0893 19.2726 21.0893 18.949C21.0893 18.6254 20.827 18.363 20.5034 18.363Z" fill="black"/>
<path d="M11.1323 18.363H8.78906C8.46547 18.363 8.20312 18.6254 8.20312 18.949C8.20312 19.2726 8.46547 19.5349 8.78906 19.5349H11.1323C11.4559 19.5349 11.7182 19.2726 11.7182 18.949C11.7182 18.6254 11.4559 18.363 11.1323 18.363Z" fill="black"/>
<path d="M15.8178 18.363H13.4746C13.151 18.363 12.8887 18.6254 12.8887 18.949C12.8887 19.2726 13.151 19.5349 13.4746 19.5349H15.8178C16.1414 19.5349 16.4038 19.2726 16.4038 18.949C16.4038 18.6254 16.1414 18.363 15.8178 18.363Z" fill="black"/>
<path d="M6.44477 18.363H4.10156C3.77797 18.363 3.51562 18.6254 3.51562 18.949C3.51562 19.2726 3.77797 19.5349 4.10156 19.5349H6.44477C6.76836 19.5349 7.03071 19.2726 7.03071 18.949C7.03071 18.6254 6.76836 18.363 6.44477 18.363Z" fill="black"/>
<path d="M32.2188 19.5349H34.562C34.8856 19.5349 35.1479 19.2726 35.1479 18.949C35.1479 18.6254 34.8856 18.363 34.562 18.363H32.2188C31.8952 18.363 31.6328 18.6254 31.6328 18.949C31.6328 19.2726 31.8952 19.5349 32.2188 19.5349Z" fill="black"/>
<path d="M27.5332 19.5349H29.8764C30.2 19.5349 30.4624 19.2726 30.4624 18.949C30.4624 18.6254 30.2 18.363 29.8764 18.363H27.5332C27.2096 18.363 26.9473 18.6254 26.9473 18.949C26.9473 19.2726 27.2096 19.5349 27.5332 19.5349Z" fill="black"/>
<path d="M25.1909 18.363H22.8477C22.5241 18.363 22.2617 18.6254 22.2617 18.949C22.2617 19.2726 22.5241 19.5349 22.8477 19.5349H25.1909C25.5145 19.5349 25.7768 19.2726 25.7768 18.949C25.7768 18.6254 25.5145 18.363 25.1909 18.363Z" fill="black"/>
<path d="M11.1323 34.7563H8.78906C8.46547 34.7563 8.20312 35.0186 8.20312 35.3422C8.20312 35.6658 8.46547 35.9282 8.78906 35.9282H11.1323C11.4559 35.9282 11.7182 35.6658 11.7182 35.3422C11.7182 35.0186 11.4559 34.7563 11.1323 34.7563Z" fill="black"/>
<path d="M15.8178 34.7563H13.4746C13.151 34.7563 12.8887 35.0186 12.8887 35.3422C12.8887 35.6658 13.151 35.9282 13.4746 35.9282H15.8178C16.1414 35.9282 16.4038 35.6658 16.4038 35.3422C16.4038 35.0186 16.1414 34.7563 15.8178 34.7563Z" fill="black"/>
<path d="M31.6328 35.3422C31.6328 35.6658 31.8952 35.9282 32.2188 35.9282H34.562C34.8856 35.9282 35.1479 35.6658 35.1479 35.3422C35.1479 35.0186 34.8856 34.7563 34.562 34.7563H32.2188C31.8952 34.7563 31.6328 35.0186 31.6328 35.3422Z" fill="black"/>
<path d="M29.8764 34.7563H27.5332C27.2096 34.7563 26.9473 35.0186 26.9473 35.3422C26.9473 35.6658 27.2096 35.9282 27.5332 35.9282H29.8764C30.2 35.9282 30.4624 35.6658 30.4624 35.3422C30.4624 35.0186 30.2 34.7563 29.8764 34.7563Z" fill="black"/>
<path d="M6.44477 34.7563H4.10156C3.77797 34.7563 3.51562 35.0186 3.51562 35.3422C3.51562 35.6658 3.77797 35.9282 4.10156 35.9282H6.44477C6.76836 35.9282 7.03071 35.6658 7.03071 35.3422C7.03071 35.0186 6.76836 34.7563 6.44477 34.7563Z" fill="black"/>
<path d="M25.1909 34.7563H22.8477C22.5241 34.7563 22.2617 35.0186 22.2617 35.3422C22.2617 35.6658 22.5241 35.9282 22.8477 35.9282H25.1909C25.5145 35.9282 25.7768 35.6658 25.7768 35.3422C25.7768 35.0186 25.5145 34.7563 25.1909 34.7563Z" fill="black"/>
<path d="M20.5034 34.7563H18.1602C17.8366 34.7563 17.5742 35.0186 17.5742 35.3422C17.5742 35.6658 17.8366 35.9282 18.1602 35.9282H20.5034C20.827 35.9282 21.0893 35.6658 21.0893 35.3422C21.0893 35.0186 20.827 34.7563 20.5034 34.7563Z" fill="black"/>
<path d="M38.7865 24.0444H38.6639V17.7438C38.6639 16.3206 37.506 15.1627 36.0827 15.1627H32.9087C32.9087 15.1627 36.5928 9.70593 36.5946 9.70328C36.7733 9.43867 36.7011 9.06812 36.4369 8.88976L25.6451 1.60365C25.3768 1.42255 25.0126 1.49318 24.8315 1.76138L23.0178 4.44772C23.0178 4.44772 13.2037 0.910678 13.1896 0.905678C12.888 0.797006 12.5482 0.957085 12.4397 1.25826L11.0953 4.98905C10.9856 5.2935 11.1434 5.6292 11.4478 5.73897C11.7524 5.84866 12.088 5.69085 12.1978 5.38639L13.3437 2.20678L22.3415 5.44959L21.8155 6.22866C21.8155 6.22866 14.4462 3.57279 14.4432 3.5717C14.1417 3.46311 13.8017 3.62318 13.6932 3.92428L9.64291 15.1628H8.67431L11.3723 7.67679C11.482 7.37233 11.3242 7.03663 11.0197 6.92686C10.7151 6.81718 10.3795 6.97499 10.2698 7.27944L7.42869 15.1627H0.585939C0.262344 15.1627 0 15.425 0 15.7486V38.5425C0 38.8661 0.262344 39.1284 0.585939 39.1284H36.0826C37.5059 39.1284 38.6638 37.9705 38.6638 36.5472V30.2467H38.7864C39.4555 30.2467 40 29.7023 40 29.0331V25.258C40.0001 24.5889 39.4556 24.0444 38.7865 24.0444ZM25.475 2.90271L35.2955 9.53312L31.4947 15.1627H30.3952C30.3952 15.1627 33.7008 10.2666 33.7026 10.2641C33.8814 9.99922 33.8091 9.62906 33.5448 9.45054L26.2059 4.49561C25.9378 4.31451 25.5735 4.38514 25.3924 4.65334L18.2969 15.1627H17.1975L25.475 2.90271ZM24.5429 11.8797C22.8935 11.8797 21.5516 13.2216 21.5516 14.871C21.5516 14.9688 21.5566 15.0661 21.566 15.1627H19.7108L26.0357 5.79475L32.4034 10.094L28.9812 15.1627H27.5199C27.5293 15.0661 27.5343 14.9688 27.5343 14.871C27.5343 13.2216 26.1924 11.8797 24.5429 11.8797ZM26.3624 14.871C26.3624 14.9693 26.3546 15.0666 26.339 15.1627H22.7469C22.7313 15.0666 22.7235 14.9693 22.7235 14.871C22.7235 13.8678 23.5397 13.0516 24.5429 13.0516C25.5462 13.0516 26.3624 13.8678 26.3624 14.871ZM14.597 4.87272L21.139 7.23046L17.761 12.2338C17.2067 11.504 16.331 11.0459 15.3791 11.0459C13.4659 11.0458 12.0082 12.918 12.4776 14.7719C12.5114 14.9055 12.5543 15.0359 12.6057 15.1626H10.8886L14.597 4.87272ZM17.0403 13.3013L15.7835 15.1627H13.9469C13.7903 14.9637 13.6765 14.7327 13.6136 14.4845C13.3266 13.3517 14.2122 12.2178 15.379 12.2178C16.1019 12.2177 16.7527 12.6524 17.0403 13.3013ZM36.0826 16.3345C36.8598 16.3345 37.492 16.9667 37.492 17.7438V18.363H36.906C36.5824 18.363 36.3201 18.6253 36.3201 18.9489C36.3201 19.2725 36.5824 19.5349 36.906 19.5349H37.492V24.0444H32.8118C31.4224 24.0444 30.2436 24.9628 29.8503 26.2244C29.7595 26.5156 29.7106 26.825 29.7106 27.1456C29.7106 28.8555 31.1018 30.2467 32.8117 30.2467H37.492V34.7562H36.906C36.5824 34.7562 36.3201 35.0186 36.3201 35.3422C36.3201 35.6658 36.5824 35.9281 36.906 35.9281H37.492V36.5472C37.492 37.3244 36.8598 37.9565 36.0826 37.9565H1.17188V35.9282H1.75782C2.08141 35.9282 2.34375 35.6658 2.34375 35.3422C2.34375 35.0187 2.08141 34.7563 1.75782 34.7563H1.17188V19.5349H1.75782C2.08141 19.5349 2.34375 19.2725 2.34375 18.9489C2.34375 18.6253 2.08141 18.363 1.75782 18.363H1.17188V16.3345H36.0826ZM38.8282 29.0331C38.8282 29.0561 38.8095 29.0748 38.7865 29.0748C38.7865 29.0748 32.8127 29.0748 32.8118 29.0748C31.7629 29.0748 30.8826 28.1946 30.8826 27.1456C30.8826 26.0818 31.748 25.2164 32.8118 25.2164H38.7865C38.8095 25.2164 38.8282 25.2351 38.8282 25.2581V29.0331Z" fill="black"/>
</svg>
