<svg width="481" height="211" fill="none" xmlns="http://www.w3.org/2000/svg"><path d="M96.094 51.504c.683 7.715.097 14.209-1.758 19.482-1.172 3.418-2.783 6.348-4.834 8.79-2.344 2.538-5.03 4.345-8.057 5.42 5.567-3.126 9.229-8.057 10.987-14.796 1.27-5.175 1.562-11.425.879-18.75-.586-7.422-.684-13.916-.293-19.482.39-3.711.927-6.934 1.61-9.668 1.173-4.004 2.638-6.885 4.395-8.643-1.562 2.247-2.587 5.225-3.076 8.936-.488 2.832-.732 6.006-.732 9.522 0 6.152.293 12.548.879 19.189zM25.928 21.182c-2.051 2.93-3.955 6.445-5.713 10.547-1.172 2.539-2.588 6.347-4.248 11.425l-1.612 6.006-1.757 5.86c.097-4.786.537-8.887 1.318-12.305.879-4.395 2.1-8.447 3.662-12.158 1.953-4.395 4.2-7.96 6.738-10.694 1.856-2.05 3.516-3.418 4.98-4.101 2.247-1.172 4.298-1.66 6.153-1.465-3.125.488-6.299 2.783-9.521 6.885zm125.097 75.44c-.683-29.59-4.443-52.54-11.279-68.849C131.934 9.22 120.41.04 105.176.234 87.598.527 80.42 18.154 83.643 53.115c.683 7.715-.05 13.574-2.198 17.578-2.05 3.614-5.127 5.371-9.228 5.274-4.59-.098-7.813-1.904-9.668-5.42-1.953-3.418-2.783-8.936-2.49-16.553.78-18.652-.928-31.933-5.127-39.844C51.123 6.826 44.629 3.164 35.449 3.164c-8.3 0-15.527 4.639-21.68 13.916C7.716 26.26 3.663 38.418 1.612 53.555c-2.343 16.601-2.1 30.86.733 42.773 2.246 9.863 6.494 18.848 12.744 26.953 6.836 8.789 16.601 13.672 29.297 14.649 4.101.39 8.789.341 14.062-.147a42.937 42.937 0 002.93-.439l1.318-.147 1.319-.146c1.953-.196 3.369-.293 4.248-.293 4.004-.293 7.226 1.221 9.668 4.541 3.222 4.297 4.882 11.279 4.98 20.947.098 16.113 3.174 28.272 9.229 36.475 5.37 7.226 12.841 10.986 22.412 11.279 26.269.684 38.428-37.109 36.474-113.379zm274.659-45.118c.683 7.715.097 14.209-1.758 19.482-1.172 3.418-2.783 6.348-4.834 8.79-2.344 2.538-5.03 4.345-8.057 5.42 5.567-3.126 9.229-8.057 10.986-14.796 1.27-5.175 1.563-11.425.879-18.75-.586-7.422-.683-13.916-.293-19.482.391-3.711.928-6.934 1.612-9.668 1.172-4.004 2.636-6.885 4.394-8.643-1.562 2.247-2.588 5.225-3.076 8.936-.488 2.832-.732 6.006-.732 9.522 0 6.152.293 12.548.879 19.189zm-70.166-30.322c-2.051 2.93-3.956 6.445-5.713 10.547-1.172 2.539-2.588 6.347-4.248 11.425l-1.612 6.006-1.757 5.86c.097-4.786.537-8.887 1.318-12.305.879-4.395 2.099-8.447 3.662-12.158 1.953-4.395 4.199-7.96 6.738-10.694 1.856-2.05 3.516-3.418 4.981-4.101 2.246-1.172 4.297-1.66 6.152-1.465-3.125.488-6.299 2.783-9.521 6.885zm125.097 75.44c-.683-29.59-4.443-52.54-11.279-68.849C461.523 9.22 450 .04 434.766.234c-17.578.293-24.756 17.92-21.534 52.881.684 7.715-.048 13.574-2.197 17.578-2.051 3.614-5.127 5.371-9.228 5.274-4.59-.098-7.813-1.904-9.668-5.42-1.953-3.418-2.784-8.936-2.491-16.553.782-18.652-.927-31.933-5.127-39.844-3.808-7.324-10.302-10.986-19.482-10.986-8.301 0-15.527 4.639-21.68 13.916-6.054 9.18-10.107 21.338-12.158 36.475-2.344 16.601-2.099 30.86.733 42.773 2.246 9.863 6.494 18.848 12.744 26.953 6.836 8.789 16.601 13.672 29.297 14.649 4.101.39 8.789.341 14.062-.147a42.907 42.907 0 002.93-.439l1.318-.147 1.319-.146c1.953-.196 3.369-.293 4.248-.293 4.003-.293 7.226 1.221 9.668 4.541 3.222 4.297 4.882 11.279 4.98 20.947.098 16.113 3.174 28.272 9.229 36.475 5.371 7.226 12.841 10.986 22.412 11.279 26.269.684 38.427-37.109 36.474-113.379z" fill="#015AFE"/><path d="M259.863 139.98c-1.66 3.321-3.759 5.958-6.299 7.911-2.832 2.246-5.859 3.564-9.082 3.955 5.567-2.832 9.815-7.227 12.745-13.184 2.343-4.492 3.955-10.498 4.834-18.017 1.562 6.64.83 13.085-2.198 19.335zm-18.603.879c-3.614 1.075-7.129 0-10.547-3.222-3.418-3.223-5.713-7.617-6.885-13.184-1.172-5.664-.928-10.84.733-15.527 1.757-4.785 4.443-7.715 8.056-8.789 3.613-1.075 7.08 0 10.401 3.222 3.418 3.125 5.712 7.52 6.884 13.184 1.172 5.664.928 10.84-.732 15.527-1.758 4.785-4.395 7.715-7.91 8.789zM195.996 35.244c-4.297 5.957-8.057 13.379-11.279 22.266-2.539 7.226-4.639 15.43-6.299 24.61.098-3.321.537-7.57 1.318-12.745.782-4.2 1.758-8.35 2.93-12.451 2.539-8.79 6.201-16.602 10.986-23.438 5.469-7.714 11.914-13.379 19.336-16.992a53.619 53.619 0 0112.305-4.101c4.492-.684 8.789-.88 12.891-.586-9.473.683-17.53 2.88-24.17 6.591-7.032 4.004-13.037 9.62-18.018 16.846zm58.301-33.398c-26.953-5.078-48.486 1.709-64.6 20.361-14.258 16.602-22.07 39.16-23.437 67.676-1.27 27.734 3.711 52.881 14.941 75.439 12.207 24.414 28.955 38.916 50.244 43.506 19.922 4.297 37.696-3.027 53.321-21.973 14.355-17.285 23.681-39.746 27.978-67.382 4.395-28.32 2.1-53.174-6.885-74.56-10.254-24.122-27.441-38.477-51.562-43.067z" fill="#F81157"/></svg>