<svg width="40" height="40" fill="none" xmlns="http://www.w3.org/2000/svg"><path d="M22.783 16.151H10.658a1.23 1.23 0 01-1.23-1.23V7.879c0-4.021 3.272-7.292 7.293-7.292 4.02 0 7.291 3.271 7.291 7.292v7.044c0 .679-.55 1.23-1.23 1.23zm-10.895-2.46h9.665V7.879a4.838 4.838 0 00-4.832-4.832 4.838 4.838 0 00-4.833 4.832v5.814z" fill="#F9A825"/><path d="M29.341 16.151H17.218a1.23 1.23 0 01-1.23-1.23V7.879c0-4.021 3.272-7.292 7.292-7.292 4.021 0 7.292 3.271 7.292 7.292v7.044c0 .679-.55 1.23-1.23 1.23zm-10.894-2.46h9.665V7.879a4.838 4.838 0 00-4.833-4.832 4.838 4.838 0 00-4.832 4.832v5.814z" fill="#FFCA28"/><path d="M36.165 34.986l-3.292-23.819a1.632 1.632 0 00-1.617-1.408H8.744c-.815 0-1.505.601-1.617 1.408l-3.292 23.82a3.895 3.895 0 003.857 4.427h24.615a3.894 3.894 0 003.858-4.428z" fill="#4FC3F7"/><path d="M7.74 34.986l3.293-23.819A1.632 1.632 0 0112.65 9.76H8.744c-.815 0-1.505.601-1.617 1.408l-3.292 23.82a3.895 3.895 0 003.857 4.427H11.6a3.895 3.895 0 01-3.858-4.428z" fill="#46ADDB"/><path d="M3.729 31.473l-.475 3.433A4.48 4.48 0 007.692 40h24.615a4.48 4.48 0 004.439-5.094l-2.462-17.808a.586.586 0 00-1.16.16l2.461 17.808a3.308 3.308 0 01-3.278 3.762H7.692a3.308 3.308 0 01-3.277-3.762l.474-3.433a.586.586 0 10-1.16-.16zm27.527-21.128c.52 0 .965.388 1.036.903l.507 3.666a.586.586 0 101.161-.16l-.507-3.667a2.227 2.227 0 00-2.197-1.914h-.099V7.878C31.157 3.534 27.623 0 23.28 0A7.84 7.84 0 0020 .716 7.777 7.777 0 0016.721 0c-4.344 0-7.878 3.534-7.878 7.878v1.295h-.1a2.227 2.227 0 00-2.196 1.914L4.053 29.13a.586.586 0 101.16.16l2.495-18.041a1.05 1.05 0 011.036-.903h22.512zM11.302 7.878v1.295h-1.287V7.878A6.714 6.714 0 0118.7 1.47a7.88 7.88 0 00-1.175 1.032l-.015.016a5.424 5.424 0 00-6.209 5.36zm4.1 0v1.295h-2.928V7.878a4.25 4.25 0 014.171-4.245 7.832 7.832 0 00-1.243 4.245zm5.565 1.295h-1.934V7.878c0-1.021.363-1.96.965-2.692.62.755.969 1.709.969 2.692v1.295zm2.46 0h-1.288V7.878a5.432 5.432 0 00-1.277-3.488c.044-.03.087-.06.132-.088.327-.21.684-.375 1.056-.488a6.702 6.702 0 011.377 4.064v1.295zm4.099 0h-2.928V7.878c0-1.51-.437-2.983-1.245-4.245a4.25 4.25 0 014.173 4.245v1.295zm2.46 0h-1.288V7.878a5.424 5.424 0 00-5.419-5.418 5.48 5.48 0 00-3.677 1.443l-.007.007a5.403 5.403 0 00-1.734 3.968v1.295h-1.288V7.878c0-1.678.621-3.213 1.644-4.39a6.76 6.76 0 011.982-1.564 6.662 6.662 0 013.08-.752 6.714 6.714 0 016.706 6.706v1.295z" fill="#000"/></svg>