<svg width="44" height="28" fill="none" xmlns="http://www.w3.org/2000/svg"><path d="M36.37 1.407H2.593c-1.076 0-1.948.858-1.948 1.916v3.054L19.48 8.35l18.837-1.972V3.323c0-1.058-.872-1.916-1.948-1.916z" fill="#4FC3F7"/><path d="M3.223 6.377V3.323c0-1.058.872-1.916 1.948-1.916H2.593c-1.076 0-1.948.858-1.948 1.916v3.054L19.48 8.35l1.29-.135L3.222 6.377z" fill="#46ADDB"/><path d="M19.481 8.349L.645 10.32v12.225c0 1.058.872 1.916 1.948 1.916H36.37c1.077 0 1.95-.858 1.95-1.916V10.32L19.48 8.35z" fill="#4FC3F7"/><path d="M3.223 22.545V10.32L20.77 8.484l-1.289-.135L.645 10.32v12.225c0 1.058.872 1.916 1.948 1.916h2.578c-1.076 0-1.948-.858-1.948-1.916z" fill="#46ADDB"/><path d="M9.206 12.582H5.663c-.565 0-1.022.45-1.022 1.006v2.258c0 .555.457 1.006 1.022 1.006h3.543c.564 0 1.022-.45 1.022-1.006v-2.258c0-.555-.458-1.005-1.022-1.005z" fill="#FFCA28"/><path d="M38.318 6.377H.645v3.943h37.673V6.377z" fill="#424242"/><path d="M42.589 11.926c-4.531-.191-6.803-2.049-7.774-3.175a.805.805 0 00-1.212 0c-.97 1.126-3.243 2.984-7.774 3.175a.792.792 0 00-.766.814c.096 2.592 1.025 10.814 8.81 14.314a.82.82 0 00.671 0c7.785-3.5 8.715-11.722 8.81-14.314a.792.792 0 00-.765-.814z" fill="#FFCA28"/><path d="M34.21 24.65c-2.463-1.279-4.301-3.293-5.469-5.995-.727-1.683-1.065-3.32-1.22-4.567 2.002-.265 4.587-.958 6.689-2.694 2.102 1.736 4.686 2.43 6.688 2.694-.155 1.247-.493 2.884-1.22 4.567-1.168 2.702-3.005 4.716-5.468 5.995z" fill="#fff"/><path d="M34.24 11.42c-.01-.01-.02-.017-.03-.026-.085.07-.17.139-.257.206.096-.059.192-.119.287-.18zm-3.78 7.273c-.65-1.787-.989-3.53-1.164-4.937-.62.152-1.22.259-1.774.332.154 1.247.492 2.884 1.22 4.567 1.167 2.702 3.005 4.716 5.468 5.995l.09-.05c-1.659-1.473-2.946-3.45-3.84-5.907z" fill="#E6E6E6"/><path d="M3.223 6.377H.645v3.943h2.578V6.377z" fill="#333"/><path d="M5.663 17.485h3.543c.919 0 1.667-.735 1.667-1.639v-2.258c0-.904-.748-1.64-1.667-1.64H5.663c-.92 0-1.667.736-1.667 1.64v2.258c0 .904.748 1.64 1.667 1.64zm-.378-3.897c0-.205.17-.372.378-.372h3.543c.208 0 .377.167.377.372v2.258a.375.375 0 01-.377.372H5.663a.375.375 0 01-.378-.372v-2.258zM4.64 20.85h3.65a.64.64 0 00.645-.634.64.64 0 00-.644-.634H4.64a.64.64 0 00-.645.634c0 .35.289.634.645.634zm5.923-.634c0 .35.288.634.644.634h3.65a.64.64 0 00.645-.634.64.64 0 00-.645-.634h-3.65a.64.64 0 00-.645.634zm7.208.634h3.65a.64.64 0 00.645-.634.64.64 0 00-.644-.634h-3.65a.64.64 0 00-.645.634c0 .35.289.634.645.634zm16.024-9.94c-2.037 1.681-4.583 2.315-6.36 2.55a.636.636 0 00-.553.705 17.307 17.307 0 001.266 4.738c1.226 2.837 3.164 4.96 5.76 6.308a.659.659 0 00.603 0c2.596-1.349 4.534-3.471 5.76-6.308a17.303 17.303 0 001.267-4.738.636.636 0 00-.554-.705c-1.777-.235-4.322-.869-6.36-2.551a.653.653 0 00-.829 0zm5.29 7.498c-1.059 2.45-2.698 4.305-4.875 5.52-2.178-1.215-3.817-3.07-4.876-5.52a15.834 15.834 0 01-1.086-3.788c1.76-.3 4.015-.963 5.962-2.415 1.947 1.452 4.2 2.115 5.962 2.415a15.83 15.83 0 01-1.087 3.788z" fill="#000"/><path d="M32.359 16.967a.648.648 0 00-.828-.375.63.63 0 00-.381.814l1.019 2.715c.15.399.67.541 1.008.275l5.01-3.953a.627.627 0 00.1-.891.652.652 0 00-.907-.098l-4.312 3.402-.71-1.89z" fill="#000"/><path d="M2.593 25.095h27.122a14.654 14.654 0 003.89 2.536 1.462 1.462 0 001.208 0c8.149-3.665 9.091-12.307 9.186-14.868.029-.777-.591-1.437-1.382-1.47-1.497-.063-2.73-.316-3.738-.661a.623.623 0 00.084-.312V3.323c0-1.406-1.164-2.55-2.593-2.55H2.593C1.163.773 0 1.917 0 3.323v19.222c0 1.406 1.163 2.55 2.593 2.55zm39.968-12.536a.154.154 0 01.15.158c-.048 1.302-.304 3.89-1.471 6.591-1.438 3.326-3.78 5.739-6.963 7.17a.166.166 0 01-.136 0c-1.345-.604-2.627-1.418-3.688-2.436a14.465 14.465 0 01-3.275-4.734c-1.091-2.525-1.385-4.951-1.458-6.32-.006-.101-.023-.201-.01-.302a.156.156 0 01.147-.127c2.724-.115 5.593-.884 7.634-2.776.213-.197.408-.409.604-.623a.155.155 0 01.23.002c.188.218.39.426.603.622 2.014 1.866 4.823 2.64 7.53 2.77l.103.005zM1.29 7.011h6.74a.64.64 0 00.645-.634.646.646 0 00-.645-.634H1.29v-2.42c0-.707.585-1.282 1.304-1.282H36.37c.72 0 1.304.575 1.304 1.282v2.42H10.608a.647.647 0 00-.645.634c0 .35.289.634.645.634h27.066v2.675h-.787a7.159 7.159 0 01-1.58-1.345 1.446 1.446 0 00-1.098-.5c-.7 0-1.069.515-1.526.948l-.007.007c-.352.332-.736.63-1.145.89H1.289V7.011zm0 3.943h27.114c-.234.054-.477.103-.73.146-.615.105-1.241.168-1.865.193h-.006c-.791.033-1.412.693-1.383 1.47.004.1.014.201.014.301.078 1.444.38 3.921 1.462 6.518h-1.558a.64.64 0 00-.644.634c0 .35.288.634.644.634h2.148a15.355 15.355 0 001.995 2.977H2.593a1.295 1.295 0 01-1.304-1.282v-11.59z" fill="#000"/></svg>