<svg width="25" height="24" fill="none" xmlns="http://www.w3.org/2000/svg"><g clip-path="url(#clip0)"><path d="M15.657 5.74a.944.944 0 01-.9-.656l-.715-2.24a.867.867 0 01-.017-.061.716.716 0 00-.697-.545H11.1a.716.716 0 00-.697.545.924.924 0 01-.017.061l-.716 2.24a.945.945 0 01-1.799-.573l.707-2.213A2.6 2.6 0 0111.1.352h2.228a2.6 2.6 0 012.522 1.946l.707 2.213a.943.943 0 01-.9 1.23z" fill="#BEBEBF"/><path d="M2.071 9.911a.485.485 0 00-.462.635l.298.916c.065.2.252.335.462.335h3V9.911H2.07zm20.286 0c.33 0 .564.322.462.635l-.298.916a.486.486 0 01-.462.335h-3V9.911h3.298z" fill="#DFDFE0"/><path d="M12.214 5.72L3.66 7.569l1.803 14.57c.135.869.885 1.51 1.765 1.51H17.2c.88 0 1.63-.641 1.765-1.51l1.803-14.57-8.554-1.85z" fill="#BEBEBF"/><path d="M12.214 9.911a1.09 1.09 0 00-1.091 1.09v8.508a1.09 1.09 0 002.182 0v-8.508a1.09 1.09 0 00-1.09-1.09zm-4.149 0a1.09 1.09 0 00-1.091 1.09v8.508a1.09 1.09 0 002.182 0v-8.508a1.09 1.09 0 00-1.091-1.09zm8.298 0a1.09 1.09 0 011.091 1.09v8.508a1.09 1.09 0 01-2.181 0v-8.508c0-.602.488-1.09 1.09-1.09z" fill="#DFDFE0"/><path d="M3.66 7.569l.174 1.406h16.76l.174-1.406-8.554-1.85L3.66 7.57zm4.825-1.873a.945.945 0 001.186-.612l.716-2.24a.99.99 0 00.017-.061.714.714 0 01.173-.319H8.526l-.654 2.047a.943.943 0 00.613 1.185zm5.54-2.913c.005.02.01.04.017.061l.715 2.24a.945.945 0 001.8-.573l-.654-2.047h-2.051a.715.715 0 01.173.319z" fill="#B2B2B3"/><path d="M21.508 6.617l-.213-.833A2.545 2.545 0 0018.83 3.87H5.599a2.545 2.545 0 00-2.467 1.914l-.212.833a.763.763 0 00.74.952h17.108c.498 0 .863-.47.74-.952z" fill="#DFDFE0"/><path d="M13.657 19.51V11a1.444 1.444 0 00-2.886 0v8.51a1.444 1.444 0 002.886 0zm-2.181 0V11a.74.74 0 011.477 0v8.51a.74.74 0 01-1.477 0zm-1.969 0V11a1.444 1.444 0 00-2.886 0v8.51a1.444 1.444 0 002.886 0zm-2.182 0V11a.74.74 0 011.478 0v8.51a.74.74 0 01-1.478 0zm10.482 0V11a1.444 1.444 0 00-2.886 0v8.51a1.444 1.444 0 002.886 0zm-2.182 0V11a.74.74 0 011.478 0v8.51a.74.74 0 01-1.478 0zM8.912 4.876a.352.352 0 00-.352.352v.597a.352.352 0 00.704 0v-.597a.352.352 0 00-.352-.352zm6.605 0a.352.352 0 00-.352.352v.597a.352.352 0 00.704 0v-.597a.352.352 0 00-.352-.352zm-2.257.643a.352.352 0 00-.496.033.727.727 0 01-.55.24.727.727 0 01-.55-.24.352.352 0 00-.53.463c.267.305.66.48 1.08.48.42 0 .813-.175 1.08-.48a.351.351 0 00-.033-.496z" fill="#222"/><path d="M5.811 22.09l-.352-2.847a.352.352 0 00-.698.087l.352 2.852.002.011A2.127 2.127 0 007.228 24H17.2c1.06 0 1.95-.76 2.113-1.807l.001-.01.887-7.166a.352.352 0 00-.699-.086l-.886 7.16a1.427 1.427 0 01-1.416 1.206H7.228c-.71 0-1.305-.507-1.417-1.207zm14.564-8.479l.18-1.462h1.504a.836.836 0 00.797-.578l.298-.916a.845.845 0 00-.797-1.095h-1.481l.208-1.685a1.11 1.11 0 00.565-.385c.213-.274.286-.624.2-.96l-.212-.832a2.895 2.895 0 00-2.808-2.18h-2.22L16.19 2.2A2.958 2.958 0 0013.327 0H11.1a2.958 2.958 0 00-2.86 2.2l-.422 1.319h-2.22c-1.325 0-2.48.896-2.807 2.179l-.213.832a1.126 1.126 0 00.765 1.345l.208 1.685h-1.48c-.56 0-.97.563-.797 1.095l.298.916a.835.835 0 00.796.578h1.504l.714 5.775a.352.352 0 00.7-.087L4.057 7.921H20.37l-.693 5.604a.352.352 0 00.699.086zm1.982-3.348c.09 0 .155.09.127.175l-.298.915a.133.133 0 01-.127.093h-1.416l.146-1.183h1.568zM8.918 2.386A2.254 2.254 0 0111.1.703h2.228c1.026 0 1.923.692 2.181 1.684l.361 1.132h-1.243s-.257-.807-.26-.82a1.067 1.067 0 00-1.039-.813H11.1c-.494 0-.921.334-1.039.813-.003.013-.26.82-.26.82H8.557s.36-1.126.361-1.133zm1.827.481a.365.365 0 01.355-.278h2.228c.169 0 .315.115.355.278.007.028.205.652.205.652H10.54s.198-.624.205-.652zm-8.377 8.579a.133.133 0 01-.127-.093l-.298-.915a.135.135 0 01.127-.175h1.568l.147 1.183H2.368zM3.66 7.217a.417.417 0 01-.4-.513l.213-.833A2.191 2.191 0 015.6 4.221h13.23c1.003 0 1.877.68 2.125 1.65l.213.833a.416.416 0 01-.4.513H3.66z" fill="#222"/></g><defs><clipPath id="clip0"><path fill="#fff" transform="translate(.201)" d="M0 0h24.031v24H0z"/></clipPath></defs></svg>