<svg width="32" height="30" fill="none" xmlns="http://www.w3.org/2000/svg"><path d="M22.145 21.93v2.335H2.175V21.93h19.97z" fill="#32438C"/><path d="M30.133 24.265h-7.988V14.258h5.326c2.993 7.999 1.75 4.604 2.662 6.671v3.336z" fill="#4D5DB1"/><path d="M23.258 24.265h.001a2.988 2.988 0 013.764 0 2.999 2.999 0 011.113 2.335 2.999 2.999 0 01-2.995 3.002 2.999 2.999 0 01-2.996-3.002c0-.92.416-1.77 1.113-2.335zm-17.973 0a2.988 2.988 0 013.765 0 2.998 2.998 0 011.113 2.335 2.999 2.999 0 01-2.996 3.002A2.999 2.999 0 014.172 26.6c0-.92.416-1.77 1.113-2.335z" fill="#7D89AA"/><path d="M6.834.916c.92 0 1.665.747 1.665 1.668 0 .921-.745 1.668-1.665 1.668A1.666 1.666 0 015.17 2.584c0-.921.746-1.668 1.664-1.668zm20.969 5.337c.736 0 1.332.597 1.332 1.334a1.332 1.332 0 11-2.663 0c0-.737.597-1.334 1.331-1.334z" fill="#68CA44"/><path d="M2.175 20.262h19.97v1.668H2.175v-1.668z" fill="#2663F0"/><path d="M2.175 9.166a1.91 1.91 0 011.908-1.912h16.154a1.91 1.91 0 011.908 1.912v11.096H2.175V9.166z" fill="#4A78FF"/><path d="M12.16 9.255a4.663 4.663 0 014.66 4.67 4.663 4.663 0 01-4.66 4.67 4.643 4.643 0 01-3.295-1.368A4.66 4.66 0 017.5 13.925a4.66 4.66 0 011.365-3.302 4.642 4.642 0 013.295-1.368z" fill="#D0DCE7"/><path d="M28.469 16.927l.998 2.668h-3.993a1.333 1.333 0 01-.942-2.277c.241-.242.574-.391.942-.391h2.995z" fill="#BCE4FF"/><path d="M19.482 27.267h-5.325v-3.002h5.325v3.002z" fill="#FF5987"/><path d="M30.466 24.265a1 1 0 01.706 1.708.993.993 0 01-.706.293h-2.348a2.996 2.996 0 00-1.095-2.001h3.443zm-8.321 0h1.113a2.997 2.997 0 00-1.095 2.001h-2.68v-2.001h2.662zm-7.988 0v2.001h-4.013a2.996 2.996 0 00-1.094-2.001h5.107zm-8.872 0a2.996 2.996 0 00-1.095 2.001H1.842a1 1 0 010-2.001h3.443z" fill="#414A56"/><path d="M25.14 25.599a1 1 0 011 1 1 1 0 11-1-1zm-17.973 0a1 1 0 11-.002 2 1 1 0 01.002-2z" fill="#5C6887"/><path d="M29.634 13.925a.5.5 0 110 .999.5.5 0 010-1zM28.968 1.25a.5.5 0 110 .999.5.5 0 010-1zm-4.327 9.006a.5.5 0 110 .999.5.5 0 010-1zm-2.33-6.004a.5.5 0 110 .999.5.5 0 010-1zM13.99 1.25a.5.5 0 110 .999.5.5 0 010-1zM2.008 4.919a.5.5 0 110 .999.5.5 0 010-1zm27.46 15.01h-3.994a1.668 1.668 0 010-3.336h2.995a.333.333 0 010 .667h-2.995a.99.99 0 00-.706.293 1 1 0 00.706 1.708h3.994a.333.333 0 010 .668zm-3.994 2.001h-.666a.333.333 0 010-.667h.666a.333.333 0 010 .667zm-11.317 2.668H9.05a.333.333 0 010-.667h5.107a.333.333 0 010 .667zm7.988 0h-2.662a.333.333 0 010-.667h2.662a.333.333 0 010 .667zm-19.97 0a.333.333 0 01-.333-.333v-4.003a.333.333 0 11.665 0v4.003a.333.333 0 01-.332.333z" fill="#000"/><path d="M30.133 24.598a.333.333 0 01-.333-.333v-3.257l-.63-1.264a.348.348 0 01-.014-.032l-1.916-5.12h-5.095a.333.333 0 010-.667h5.326c.138 0 .262.086.311.216l1.991 5.32.658 1.32a.334.334 0 01.035.148v3.336a.333.333 0 01-.333.333zm-7.988 0a.333.333 0 01-.333-.333v-4.003a.333.333 0 11.666 0v4.003a.333.333 0 01-.333.333z" fill="#000"/><path d="M30.466 26.6h-2.349a.333.333 0 010-.667h2.349c.178 0 .345-.07.47-.196a.667.667 0 00-.47-1.139h-3.443a.333.333 0 010-.667h3.443a1.334 1.334 0 010 2.669zm-26.275 0h-2.35a1.334 1.334 0 010-2.669h3.444a.333.333 0 010 .667H1.842a.658.658 0 00-.47.196.667.667 0 00.47 1.139H4.19a.333.333 0 01.001.667zm19.067-2.002h-1.113a.333.333 0 010-.667h1.113a.333.333 0 010 .667zM22.165 26.6h-2.682a.333.333 0 010-.667h2.68a.334.334 0 01.002.667zm-8.008 0h-4.013a.333.333 0 010-.667h4.013a.333.333 0 010 .667zm10.983 1.334a1.334 1.334 0 010-2.669 1.334 1.334 0 010 2.669zm0-2.002a.667.667 0 000 1.335.667.667 0 000-1.334zM7.168 27.934a1.334 1.334 0 010-2.669 1.334 1.334 0 010 2.669zm0-2.002a.667.667 0 000 1.335.667.667 0 000-1.334zm21.301 4.003H1.509a.333.333 0 010-.667h26.96a.333.333 0 010 .667z" fill="#000"/><path d="M19.482 27.6h-5.325a.333.333 0 01-.333-.333v-3.002c0-.184.149-.334.333-.334h5.325c.184 0 .333.15.333.334v3.002a.333.333 0 01-.333.333zm-4.992-.667h4.66v-2.335h-4.66v2.335zm-7.323 3.002a3.336 3.336 0 01-3.307-3.707 3.31 3.31 0 011.231-2.235 3.329 3.329 0 012.076-.729 3.33 3.33 0 013.329 3.336 3.336 3.336 0 01-3.329 3.335zm-1.685-5.4a2.647 2.647 0 00-.977 2.065 2.669 2.669 0 002.662 2.668 2.669 2.669 0 000-5.337 2.662 2.662 0 00-1.685.603zm19.658 5.4a3.336 3.336 0 01-3.307-3.707 3.31 3.31 0 011.232-2.235 3.328 3.328 0 012.076-.729 3.33 3.33 0 013.328 3.336 3.336 3.336 0 01-3.328 3.335zm-1.685-5.4a2.647 2.647 0 00-.977 2.065 2.669 2.669 0 002.663 2.668 2.669 2.669 0 000-5.337 2.661 2.661 0 00-1.686.603zm-1.31-2.271H2.175a.333.333 0 010-.668h19.97a.333.333 0 010 .668zm7.988 1h-2.662a.333.333 0 010-.667h2.662a.333.333 0 010 .667zm-7.988-2.668H2.175a.333.333 0 01-.333-.334V9.166A2.246 2.246 0 014.083 6.92h16.154a2.246 2.246 0 012.24 2.246v11.096a.333.333 0 01-.332.334zm-19.638-.667h19.305V9.166c0-.87-.706-1.579-1.575-1.579H4.083a1.58 1.58 0 00-1.576 1.58v10.762z" fill="#000"/><path d="M12.16 18.928a4.956 4.956 0 01-3.53-1.465 4.977 4.977 0 01-1.463-3.538c0-1.337.52-2.593 1.463-3.538a4.956 4.956 0 013.53-1.466c1.333 0 2.587.52 3.53 1.466a4.979 4.979 0 011.462 3.538 4.98 4.98 0 01-1.462 3.538 4.957 4.957 0 01-3.53 1.465zm0-9.34a4.295 4.295 0 00-3.06 1.27 4.313 4.313 0 00-1.267 3.067 4.31 4.31 0 001.268 3.066 4.296 4.296 0 003.059 1.27 4.296 4.296 0 003.06-1.27 4.315 4.315 0 001.267-3.066c0-1.158-.45-2.247-1.267-3.067a4.297 4.297 0 00-3.06-1.27z" fill="#000"/><path d="M14.156 15.259a.33.33 0 01-.148-.035l-1.997-1a.334.334 0 01-.184-.3v-1.333a.333.333 0 11.666 0v1.128l1.813.908a.334.334 0 01-.15.632zm-1.996-4.336a.333.333 0 01-.333-.334V9.255a.333.333 0 11.666 0v1.334c0 .184-.15.334-.333.334zm0 8.005a.333.333 0 01-.333-.334V17.26a.333.333 0 11.666 0v1.334c0 .185-.15.334-.333.334zm2.354-7.028a.334.334 0 01-.235-.57l.94-.943a.332.332 0 11.471.471l-.941.944a.331.331 0 01-.235.097zm-5.649 5.66a.334.334 0 01-.235-.57l.941-.942a.334.334 0 01.47.472l-.94.943a.331.331 0 01-.236.098zm.942-5.66a.332.332 0 01-.236-.098l-.941-.944a.334.334 0 01.47-.471l.942.943a.334.334 0 01-.235.57zm5.648 5.66a.332.332 0 01-.236-.097l-.94-.944a.334.334 0 01.47-.471l.941.943a.334.334 0 01-.235.57zm1.365-3.302h-1.332a.333.333 0 010-.667h1.332a.333.333 0 010 .667zm-7.989 0h-1.33a.333.333 0 010-.667h1.33a.333.333 0 010 .667zm13.314-3.668h-4.327a.333.333 0 010-.668h4.327a.333.333 0 010 .667zm-15.643 0H2.175a.333.333 0 010-.668h4.327a.333.333 0 010 .667zm21.301-1.335a1.668 1.668 0 010-3.336 1.668 1.668 0 010 3.336zm0-2.668a1 1 0 000 2 1 1 0 000-2zM6.834 4.585a2.001 2.001 0 010-4.002 2.001 2.001 0 010 4.002zm0-3.335a1.334 1.334 0 000 2.668 1.334 1.334 0 000-2.668z" fill="#000"/></svg>