<svg width="21" height="17" fill="none" xmlns="http://www.w3.org/2000/svg"><path d="M10.499 16.643c5.63 0 10.192-3.075 10.192-6.87 0-3.793-4.563-6.868-10.192-6.868C4.869 2.905.307 5.98.307 9.774c0 3.794 4.563 6.869 10.192 6.869z" fill="#E6E6E6"/><path d="M1.947 9.774c0-3.608 4.127-6.565 9.372-6.847-.27-.014-.544-.022-.82-.022C4.869 2.905.307 5.98.307 9.774c0 3.794 4.563 6.869 10.192 6.869.276 0 .55-.008.82-.022-5.245-.282-9.372-3.24-9.372-6.847z" fill="#CCC"/><path d="M10.5 14.176a4.402 4.402 0 100-8.804 4.402 4.402 0 000 8.804z" fill="#4FC3F7"/><path d="M10.5 6.95a2.824 2.824 0 100 5.648 2.824 2.824 0 000-5.648z" fill="#333"/><path d="M10.501 10.722a.948.948 0 100-1.896.948.948 0 000 1.896z" fill="#E6E6E6"/><path d="M18.615 5.211l1.69-2.114a.308.308 0 00-.481-.384l-1.697 2.122a9.842 9.842 0 00-.248-.173c-.846-.57-1.81-1.03-2.854-1.37l.728-2.085a.308.308 0 00-.581-.203l-.736 2.11a14.8 14.8 0 00-3.629-.513V.357a.308.308 0 10-.615 0v2.244c-1.262.024-2.486.2-3.628.514l-.736-2.11a.308.308 0 10-.58.202l.726 2.085c-1.044.34-2.008.8-2.853 1.37a9.724 9.724 0 00-.249.173L1.176 2.713a.308.308 0 00-.48.384l1.69 2.114C.84 6.491 0 8.085 0 9.774c0 1.94 1.108 3.756 3.121 5.112 1.975 1.332 4.596 2.065 7.379 2.065 2.783 0 5.404-.733 7.379-2.065C19.892 13.53 21 11.714 21 9.774c0-1.69-.84-3.283-2.385-4.563zM10.5 16.335c-5.45 0-9.885-2.943-9.885-6.561 0-3.212 3.156-5.125 5.85-5.99l.007-.001.002-.001c1.23-.366 2.593-.57 4.026-.57 1.433 0 2.796.204 4.026.57h.002l.008.003c2.51.803 5.356 2.46 5.797 5.315.034.223.052.449.052.674 0 3.618-4.435 6.561-9.885 6.561z" fill="#000"/><path d="M10.499 5.064c-1.13 0-2.223.406-3.077 1.144a.308.308 0 00.402.465 4.093 4.093 0 016.77 3.1 4.1 4.1 0 01-4.095 4.096 4.1 4.1 0 01-4.095-4.095c0-.799.23-1.572.666-2.238a.308.308 0 00-.515-.337 4.692 4.692 0 00-.766 2.575 4.715 4.715 0 004.71 4.71 4.715 4.715 0 004.71-4.71 4.715 4.715 0 00-4.71-4.71z" fill="#000"/><path d="M13.324 9.774a2.824 2.824 0 10-5.648 0 2.824 2.824 0 005.648 0zm-3.772 0a.948.948 0 111.896 0 .948.948 0 01-1.896 0z" fill="#424242"/><path d="M10.501 12.906a3.135 3.135 0 01-3.132-3.132 3.135 3.135 0 013.132-3.132 3.135 3.135 0 013.132 3.132 3.135 3.135 0 01-3.132 3.132zm0-5.649a2.52 2.52 0 00-2.517 2.517 2.52 2.52 0 002.517 2.517 2.52 2.52 0 002.517-2.517A2.52 2.52 0 0010.5 7.257zm0 3.773a1.257 1.257 0 01-1.256-1.256 1.257 1.257 0 111.256 1.256zm0-1.897a.642.642 0 10.002 1.283.642.642 0 00-.002-1.283z" fill="#000"/></svg>