<svg width="21" height="19" fill="none" xmlns="http://www.w3.org/2000/svg"><path d="M10.192 15.833c5.63 0 10.193-3.075 10.193-6.869 0-3.794-4.564-6.869-10.193-6.869S0 5.17 0 8.964c0 3.794 4.563 6.869 10.192 6.869z" fill="#E6E6E6"/><path d="M18.615 13.835l1.69 2.114a.308.308 0 01-.481.384l-1.697-2.123a9.738 9.738 0 01-.248.174c-.846.57-1.81 1.03-2.854 1.37l.728 2.085a.308.308 0 01-.581.203l-.736-2.111c-1.142.314-2.366.49-3.629.514v2.244a.308.308 0 11-.615 0v-2.244a14.803 14.803 0 01-3.628-.514l-.736 2.11a.308.308 0 11-.58-.202l.726-2.085c-1.044-.34-2.008-.8-2.853-1.37a9.722 9.722 0 01-.249-.174l-1.696 2.123a.308.308 0 01-.48-.384l1.69-2.114C.84 12.555 0 10.96 0 9.272c0-1.94 1.108-3.756 3.121-5.112C5.096 2.828 7.717 2.095 10.5 2.095c2.783 0 5.404.733 7.379 2.065C19.892 5.516 21 7.33 21 9.272c0 1.689-.84 3.283-2.385 4.563zM10.5 2.71C5.05 2.71.615 5.654.615 9.272c0 3.212 3.156 5.124 5.85 5.989l.007.002h.002c1.23.367 2.593.57 4.026.57 1.433 0 2.796-.204 4.026-.57h.002l.008-.002c2.51-.803 5.356-2.46 5.797-5.316.034-.222.052-.448.052-.673 0-3.618-4.435-6.562-9.885-6.562z" fill="#000"/></svg>