<svg width="40" height="40" fill="none" xmlns="http://www.w3.org/2000/svg"><path d="M35.674 17.427l-9.678-1.406-4.327-8.77c-.683-1.382-2.655-1.382-3.338 0l-4.327 8.77-9.678 1.406c-1.526.222-2.135 2.097-1.03 3.174l7.002 6.826-1.653 9.638c-.261 1.52 1.334 2.679 2.7 1.961L20 34.476l8.656 4.55c1.365.718 2.96-.441 2.7-1.961l-1.654-9.638 7.003-6.826c1.104-1.077.495-2.952-1.031-3.174z" fill="#FFCA28"/><path d="M20 6.214a1.84 1.84 0 00-1.669 1.038l-4.327 8.769-9.678 1.406c-1.526.222-2.135 2.097-1.03 3.174l7.002 6.826-1.653 9.638c-.261 1.52 1.334 2.679 2.7 1.961L20 34.476c-9.852-11.148 0-28.262 0-28.262z" fill="#E6B624"/><path d="M35.758 16.847l-9.373-1.362-4.191-8.493A2.431 2.431 0 0020 5.628c-.938 0-1.779.523-2.194 1.364l-4.192 8.493-9.372 1.362a2.431 2.431 0 00-1.975 1.665 2.431 2.431 0 00.62 2.508l6.781 6.611-1.6 9.335A2.4 2.4 0 008.6 38.95a2.471 2.471 0 003.016.595L20 35.138l8.383 4.407a2.461 2.461 0 003.016-.595 2.4 2.4 0 00.534-1.984l-1.601-9.335 6.782-6.61a2.431 2.431 0 00.619-2.509 2.431 2.431 0 00-1.975-1.665zm.538 3.334l-7.003 6.826a.586.586 0 00-.168.518l1.653 9.639a1.276 1.276 0 01-1.85 1.343l-8.655-4.55a.59.59 0 00-.546 0l-8.655 4.55a1.292 1.292 0 01-1.575-.313 1.246 1.246 0 01-.275-1.03l1.653-9.638a.586.586 0 00-.168-.519l-7.003-6.826a1.251 1.251 0 01-.322-1.307 1.251 1.251 0 011.029-.867l9.677-1.407a.586.586 0 00.441-.32l4.328-8.77c.22-.444.647-.71 1.143-.71s.924.266 1.143.71l4.328 8.77c.085.173.25.293.441.32l9.678 1.407c.49.071.875.396 1.029.867.153.472.032.96-.323 1.307zM8.31 11.895a.594.594 0 00.534-.343.586.586 0 00-.293-.775L.827 7.288a.586.586 0 00-.482 1.068l7.725 3.489a.57.57 0 00.24.05zM11.71.284a.586.586 0 00-.14.817l2.99 4.235c.175.25.548.33.816.141a.586.586 0 00.14-.816L12.527.425a.586.586 0 00-.816-.141zm27.463 7.004l-7.724 3.489a.586.586 0 00-.293.775c.13.29.485.424.775.293l7.724-3.489a.586.586 0 00-.482-1.068zM27.474.425l-2.99 4.236a.586.586 0 00.14.816c.25.176.626.13.817-.14L28.43 1.1a.586.586 0 00-.957-.675z" fill="#000"/></svg>