<svg width="25" height="25" fill="none" xmlns="http://www.w3.org/2000/svg"><path d="M12.504.52c-6.307 0-7.513-.164-9.09.623C1.96 1.865.919 3.233.654 5.065c-.081.56-.104.674-.11 3.537-.02 10.584-.16 11.375.6 12.952a5.04 5.04 0 003.265 2.673c1.139.294 1.896.252 8.07.252 5.175 0 6.785.093 8.127-.254a5.011 5.011 0 003.265-2.678c.767-1.586.586-2.707.586-9.055 0-6.079.206-7.432-.599-9.071a4.758 4.758 0 00-1.023-1.406C21.035.293 18.892.525 16.397.521h-3.893z" fill="url(#paint0_linear)"/><path d="M12.5 18.268A5.774 5.774 0 016.732 12.5 5.774 5.774 0 0112.5 6.732a5.774 5.774 0 015.768 5.768 5.774 5.774 0 01-5.768 5.768zm6.624-11.482a.91.91 0 11.002-1.82.91.91 0 01-.002 1.82z" fill="#fff"/><path d="M4.948 25h15.104A4.954 4.954 0 0025 20.052V4.948A4.954 4.954 0 0020.052 0H4.948A4.954 4.954 0 000 4.948v15.104A4.954 4.954 0 004.948 25zM1.562 4.948a3.39 3.39 0 013.386-3.386h15.104a3.39 3.39 0 013.386 3.386v15.104a3.39 3.39 0 01-3.386 3.386H4.948a3.39 3.39 0 01-3.386-3.386V4.948z" fill="#000"/><path d="M12.5 18.886a6.393 6.393 0 006.385-6.386A6.393 6.393 0 0012.5 6.115 6.393 6.393 0 006.114 12.5a6.393 6.393 0 006.386 6.386zm0-11.209a4.828 4.828 0 014.823 4.823 4.828 4.828 0 01-4.823 4.823A4.828 4.828 0 017.677 12.5 4.828 4.828 0 0112.5 7.677zm6.623-.008c1.027 0 1.8-.77 1.8-1.793 0-1.065-.814-1.793-1.8-1.793-1.026 0-1.8.771-1.8 1.793 0 1.064.81 1.793 1.8 1.793zm.184-1.965c.33.291-.422.644-.422.173 0-.281.383-.208.422-.173z" fill="#000"/><defs><linearGradient id="paint0_linear" x1="2.092" y1="22.908" x2="24.307" y2="3.679" gradientUnits="userSpaceOnUse"><stop stop-color="#FD5"/><stop offset=".5" stop-color="#FF543E"/><stop offset="1" stop-color="#C837AB"/></linearGradient></defs></svg>