<svg width="220" height="36" fill="none" xmlns="http://www.w3.org/2000/svg"><g opacity=".95"><path d="M105.985 29.997c-.524 0-1.078-.116-1.456-.407-.233-.203-.554-.61-.554-1.277V14.46h2.942v12.37c0 .175-.029.465.204.669.087.058.262.174.728.174h8.563v2.323h-10.427z" fill="#222"/><path d="M121.188 16.026c.553-1.307 1.165-1.743 2.563-1.743 1.34 0 2.01.436 2.563 1.743l5.883 13.967h-3.087l-1.602-3.92h-7.514l-1.573 3.92h-3.087l5.854-13.967zm-.437 7.956h6l-2.534-6.33c-.087-.233-.233-.64-.437-.64s-.349.436-.437.64l-2.592 6.33zm21.93-9.521c.844 0 2.009.088 2.825.93.874.9.99 2.323.99 3.339 0 .842-.058 1.713-.728 2.526-.437.523-.903.755-1.456.813v.088c.728.058 1.34.406 1.718.813.728.813.728 1.916.728 2.787 0 1.016 0 2.265-.903 3.252-.902.988-1.893.988-2.854.988h-7.456c-.786 0-1.485.087-2.126-.61-.145-.174-.524-.697-.524-1.568V16.697c0-.58.146-1.19.495-1.597.466-.551 1.165-.639 1.66-.639h7.631zm-6.874 6.505h5.709c.582 0 1.194 0 1.602-.552.116-.145.32-.523.32-1.568 0-.435-.029-1.19-.524-1.655-.437-.406-.961-.406-1.456-.406h-4.806c-.233 0-.495-.03-.67.174-.175.203-.204.522-.204.697l.029 3.31zm0 5.546c0 .523.059.784.175.9.233.262.728.233.961.233h4.631c.466 0 1.282-.03 1.718-.552.321-.407.408-1.074.408-1.568 0-.436-.058-1.162-.32-1.568-.175-.232-.612-.639-1.573-.639h-5.971l-.029 3.194zm12.669 1.162h8.65c1.398 0 1.456-1.162 1.456-1.684 0-.61-.146-1.336-1.515-1.743l-6.145-1.945c-.233-.058-1.223-.407-1.835-1.162-.699-.842-.815-2.062-.815-2.933 0-.929.116-2.061.99-2.874.815-.755 1.806-.872 2.563-.872h8.97v2.324h-7.951c-.407 0-.873.029-1.223.348-.379.348-.408.9-.408 1.19 0 .697.204 1.365 1.457 1.743l5.708 1.8c1.048.32 1.747.668 2.213 1.104.932.9 1.02 2.265 1.02 2.99 0 .988-.146 2.062-.787 2.875-.786.988-1.747 1.104-2.796 1.104h-9.552v-2.265zm19.019-11.65c.554-1.306 1.165-1.742 2.563-1.742 1.34 0 2.01.436 2.563 1.742l5.883 13.968h-3.087l-1.602-3.92h-7.514l-1.573 3.92h-3.087l5.854-13.968zm-.437 7.957h6l-2.534-6.33c-.087-.233-.233-.64-.437-.64s-.349.436-.437.64l-2.592 6.33zm14.126 6.016c-.525 0-1.078-.116-1.457-.407-.233-.203-.553-.61-.553-1.277V14.46h2.942v12.37c0 .175-.03.465.203.669.088.058.263.174.728.174h8.563v2.323h-10.426zm13.688 0c-.67 0-1.282 0-1.777-.494-.524-.523-.582-1.22-.582-1.83V16.669c0-.61.204-1.249.524-1.626.524-.552 1.281-.61 1.864-.61h9.99v2.323h-8.417c-.263 0-.583.03-.816.233-.233.232-.233.522-.233.755v3.136h9.262v2.323h-9.233v3.63c0 .232.088.493.233.61.175.173.524.202.99.202h8.33v2.324h-10.135v.029zm11.68-2.323h8.621c1.398 0 1.456-1.162 1.456-1.684 0-.61-.146-1.336-1.515-1.743l-6.145-1.945c-.233-.058-1.223-.407-1.835-1.162-.699-.842-.815-2.062-.815-2.933 0-.929.116-2.061.99-2.874.816-.755 1.806-.872 2.563-.872h8.97v2.324h-7.98c-.407 0-.873.029-1.223.348-.379.348-.408.9-.408 1.19 0 .697.204 1.365 1.457 1.743l5.708 1.8c1.048.32 1.747.668 2.213 1.104.932.9 1.02 2.265 1.02 2.99 0 .988-.146 2.062-.787 2.875-.786.988-1.747 1.104-2.796 1.104h-9.582v-2.265h.088zm-108.634-14.2L92.792 1.162c-.175-.407-.32-.697-.495-.843C92.093.116 91.8 0 91.452 0c-.35 0-.64.116-.845.32-.174.145-.32.435-.495.842l-5.126 12.34v14.23c0 .754.146 1.277.466 1.625.32.349.787.494 1.398.494h9.233c.611 0 1.077-.174 1.398-.494.32-.348.466-.87.466-1.626l-.03-14.257zm-1.253 0v2.207a1.809 1.809 0 00-.699-.233 1.607 1.607 0 00-1.165.29l-2.388-2.497c.087-.174.146-.348.175-.522a1.676 1.676 0 00-1.456-1.888 1.68 1.68 0 00-1.894 1.452 1.778 1.778 0 00.525 1.452l-1.078 2.236c-.058 0-.116-.03-.175-.03a1.78 1.78 0 00-.786.088l-1.369-2.817 4.69-11.818c.116-.29.261-.436.407-.436.146 0 .262.145.408.436l4.805 12.08z" fill="#222"/><path d="M96.665 18.528v9.292c0 .348-.058.58-.174.697-.117.116-.35.174-.67.174h-8.738c-.32 0-.553-.058-.67-.174-.116-.116-.174-.349-.174-.697V14.927l.757 1.568c-.204.232-.32.523-.379.871a1.676 1.676 0 001.457 1.888 1.68 1.68 0 001.893-1.452 1.757 1.757 0 00-.495-1.423l1.077-2.236c.058 0 .117.029.175.029.408.058.816-.058 1.136-.261l2.417 2.497c-.087.145-.116.32-.145.494a1.677 1.677 0 001.456 1.887 1.75 1.75 0 001.077-.261z" fill="#EA524E"/></g><path opacity=".95" d="M5.404 30.112c-.933 0-1.74-.2-2.422-.602-.681-.41-1.209-.994-1.582-1.75-.364-.765-.546-1.666-.546-2.702 0-1.027.182-1.918.546-2.674.373-.765.9-1.349 1.582-1.75.681-.41 1.489-.616 2.422-.616.625 0 1.213.103 1.764.308a4.19 4.19 0 011.456.854.65.65 0 01.224.49.58.58 0 01-.112.35.332.332 0 01-.266.14c-.112 0-.247-.051-.406-.154-.476-.373-.91-.635-1.302-.784-.383-.15-.826-.224-1.33-.224-1.083 0-1.918.355-2.506 1.064-.579.7-.868 1.699-.868 2.996 0 1.307.29 2.315.868 3.024.588.7 1.423 1.05 2.506 1.05a3.72 3.72 0 001.33-.224c.392-.15.826-.41 1.302-.784.159-.103.294-.154.406-.154.103 0 .191.047.266.14a.54.54 0 01.112.35c0 .187-.075.35-.224.49-.41.373-.896.663-1.456.868a5.222 5.222 0 01-1.764.294zm4.743 1.736a.53.53 0 01-.392-.154c-.094-.093-.14-.224-.14-.392v-1.61c0-.177.046-.317.14-.42a.451.451 0 01.364-.168h.252c.336-.485.574-1.064.714-1.736.14-.672.21-1.55.21-2.632v-.966c0-.177.05-.317.154-.42a.542.542 0 01.42-.168h3.514c.177 0 .317.051.42.154a.542.542 0 01.168.42v5.348h.476c.177 0 .317.051.42.154a.542.542 0 01.168.42v1.624a.53.53 0 01-.14.392.503.503 0 01-.392.154.53.53 0 01-.392-.154c-.094-.093-.14-.224-.14-.392V30h-5.292v1.302a.503.503 0 01-.154.392.485.485 0 01-.378.154zm4.704-7.77h-2.534v.658c0 2.053-.3 3.51-.896 4.368h3.43v-5.026zm8.69 4.34c.103 0 .191.042.266.126a.466.466 0 01.112.322c0 .233-.163.448-.49.644-.336.196-.69.345-1.064.448-.373.093-.737.14-1.092.14-1.055 0-1.89-.313-2.506-.938-.607-.625-.91-1.489-.91-2.59 0-.7.135-1.316.406-1.848.27-.541.649-.961 1.134-1.26a3.186 3.186 0 011.68-.448c.887 0 1.591.29 2.114.868.523.579.784 1.363.784 2.352 0 .187-.037.322-.112.406-.075.084-.196.126-.364.126H18.99c.084 1.605.845 2.408 2.282 2.408.364 0 .677-.047.938-.14a6.9 6.9 0 00.84-.406c.243-.14.406-.21.49-.21zm-2.45-4.522c-.597 0-1.078.187-1.442.56-.355.373-.565.9-.63 1.582h3.962c-.019-.69-.191-1.218-.518-1.582-.327-.373-.784-.56-1.372-.56zm6.43.994c0 1.465-.153 2.595-.461 3.388-.299.793-.794 1.381-1.484 1.764a.603.603 0 01-.238.042.504.504 0 01-.35-.126.436.436 0 01-.126-.322.54.54 0 01.07-.266.477.477 0 01.21-.196c.336-.196.597-.457.784-.784.196-.327.331-.76.406-1.302.084-.55.126-1.279.126-2.184V23.77c0-.187.051-.331.154-.434a.567.567 0 01.42-.154h3.71c.177 0 .317.051.42.154a.542.542 0 01.168.42v5.768c0 .159-.056.29-.168.392a.549.549 0 01-.406.154.549.549 0 01-.406-.154.53.53 0 01-.154-.392v-5.446h-2.674v.812zm8.663-1.876c1.708 0 2.562.896 2.562 2.688v3.808a.55.55 0 01-.154.406.503.503 0 01-.392.154.549.549 0 01-.406-.154.549.549 0 01-.154-.406v-.672a2.044 2.044 0 01-.812.938 2.433 2.433 0 01-1.26.322c-.439 0-.845-.089-1.218-.266a2.174 2.174 0 01-.868-.742 1.833 1.833 0 01-.322-1.05c0-.513.13-.91.392-1.19.261-.29.69-.495 1.288-.616.597-.13 1.428-.196 2.492-.196h.308v-.462c0-.56-.117-.97-.35-1.232-.224-.261-.593-.392-1.106-.392-.635 0-1.279.173-1.932.518-.252.159-.43.238-.532.238a.359.359 0 01-.28-.126.466.466 0 01-.112-.322.52.52 0 01.112-.336 1.43 1.43 0 01.392-.308 4.337 4.337 0 011.106-.434 4.82 4.82 0 011.246-.168zm-.462 6.188c.56 0 1.017-.187 1.372-.56.364-.383.546-.873.546-1.47v-.406h-.252c-.822 0-1.447.037-1.876.112-.43.065-.738.182-.924.35-.178.159-.266.397-.266.714 0 .364.13.667.392.91.27.233.606.35 1.008.35zm5.645.868a.601.601 0 01-.42-.14.549.549 0 01-.154-.406v-5.922c0-.168.052-.303.154-.406a.567.567 0 01.42-.154c.169 0 .304.051.407.154a.549.549 0 01.154.406v2.436h3.668v-2.436c0-.168.05-.303.154-.406a.598.598 0 01.42-.154c.167 0 .303.051.405.154a.549.549 0 01.154.406l.014 5.894a.567.567 0 01-.154.42.567.567 0 01-.42.154.598.598 0 01-.42-.154.567.567 0 01-.154-.42v-2.548h-3.667v2.576a.549.549 0 01-.154.406.58.58 0 01-.407.14zm10.28.028c-.643 0-1.213-.145-1.707-.434a2.96 2.96 0 01-1.134-1.232c-.262-.541-.392-1.167-.392-1.876 0-.71.13-1.33.392-1.862.27-.541.648-.957 1.134-1.246.494-.29 1.064-.434 1.708-.434.643 0 1.213.145 1.707.434.495.29.873.705 1.135 1.246.27.532.405 1.153.405 1.862 0 .71-.135 1.335-.406 1.876-.26.532-.639.943-1.133 1.232-.495.29-1.065.434-1.709.434zm0-.938c.672 0 1.186-.22 1.54-.658.364-.448.547-1.097.547-1.946 0-.83-.183-1.47-.547-1.918-.363-.457-.877-.686-1.54-.686-.662 0-1.175.229-1.54.686-.364.448-.545 1.087-.545 1.918 0 .84.177 1.484.532 1.932.364.448.881.672 1.553.672zm9.108.84a.617.617 0 01-.434-.154.55.55 0 01-.154-.406v-5.67c0-.177.05-.317.154-.42a.542.542 0 01.42-.168h2.422c.746 0 1.325.145 1.736.434.41.29.615.723.615 1.302 0 .336-.097.649-.293.938-.197.29-.495.504-.897.644.42.075.752.252.995.532.251.28.377.635.377 1.064 0 .317-.088.62-.266.91-.168.29-.438.527-.812.714-.373.187-.84.28-1.4.28h-2.464zm2.323-3.878c.392 0 .71-.098.953-.294.242-.205.363-.48.363-.826 0-.653-.452-.98-1.358-.98H61.3v2.1h1.779zm.028 3.038c.962 0 1.443-.369 1.443-1.106 0-.373-.14-.653-.42-.84-.28-.187-.663-.28-1.149-.28H61.3v2.226h1.806z" fill="#222"/></svg>