<svg width="54" height="54" fill="none" xmlns="http://www.w3.org/2000/svg"><path d="M46.212 5.712a2.596 2.596 0 110 5.19 2.596 2.596 0 010-5.19zM8.827 40.5a3.634 3.634 0 11.001 7.268 3.634 3.634 0 01-.001-7.268z" fill="#59D9A4"/><path d="M42.577 17.135a3.634 3.634 0 11-.2 7.263 16.771 16.771 0 00-.449-7.204c.21-.039.428-.06.649-.06zm-33.231 0c.222 0 .438.02.65.059a16.582 16.582 0 00-.649 4.614c0 .88.068 1.745.2 2.59a3.635 3.635 0 11-.2-7.263z" fill="#EAB883"/><path d="M9.995 17.194c2-6.933 8.392-12.002 15.967-12.002 7.18 0 13.295 4.553 15.616 10.93a10.156 10.156 0 01-14.043-5.505c-1.225 5.863-6.423 10.267-12.65 10.267-1.93 0-3.761-.423-5.406-1.182.108-.858.282-1.696.516-2.508z" fill="#A85120"/><path d="M9.48 19.702a12.867 12.867 0 005.405 1.182c6.227 0 11.425-4.404 12.65-10.267 2.139 5.681 8.716 8.173 14.043 5.505h.001c.987 2.72 1.22 5.573.798 8.276-1.245 7.946-8.119 14.025-16.415 14.025-10.093 0-17.743-8.881-16.483-18.721z" fill="#EAB883"/><path d="M46.99 30.115a.778.778 0 11.001 1.557.778.778 0 010-1.557zM42.837 47.77a.778.778 0 110 1.556.778.778 0 010-1.557zM40.76 4.154a.778.778 0 110 1.557.778.778 0 010-1.557zM25.702 44.135a.778.778 0 110 1.557.778.778 0 010-1.557zm-9.346-4.155a.778.778 0 110 1.558.778.778 0 010-1.557zM9.606 4.673a.778.778 0 110 1.557.778.778 0 010-1.557zM5.452 30.115a.778.778 0 110 1.557.778.778 0 010-1.557zm9.433-8.711a13.33 13.33 0 01-5.623-1.23.52.52 0 11.435-.944 12.295 12.295 0 005.188 1.135c5.842 0 10.948-4.144 12.142-9.854a.52.52 0 01.994-.077c1.405 3.732 5.029 6.24 9.018 6.24 1.511 0 2.96-.342 4.306-1.016a.52.52 0 11.465.928 10.564 10.564 0 01-4.771 1.126c-2.213 0-4.336-.671-6.14-1.942a10.66 10.66 0 01-3.236-3.627 13.51 13.51 0 01-4.248 6.208 13.465 13.465 0 01-8.53 3.053zm27.692 3.519c-.078 0-.156-.002-.233-.007a.52.52 0 11.065-1.037 3.119 3.119 0 003.283-3.11 3.119 3.119 0 00-3.671-3.064.519.519 0 11-.186-1.022 4.158 4.158 0 014.896 4.086 4.158 4.158 0 01-4.154 4.154z" fill="#000"/><path d="M9.346 24.923a4.159 4.159 0 01-4.154-4.154 4.159 4.159 0 014.887-4.088.52.52 0 01-.083 1.032.52.52 0 01-.094-.008 3.119 3.119 0 00-3.671 3.065 3.119 3.119 0 003.283 3.11.519.519 0 11.057 1.037 3.639 3.639 0 01-.225.006z" fill="#000"/><path d="M25.962 38.942A17.14 17.14 0 019.034 24.478a17.368 17.368 0 01-.07-4.842c.11-.875.29-1.745.532-2.586a17.26 17.26 0 016.077-8.87 16.98 16.98 0 0110.389-3.507 17.02 17.02 0 019.931 3.17 17.085 17.085 0 016.534 9.206c.444 1.54.67 3.142.67 4.759a17.14 17.14 0 01-17.135 17.135zm0-33.23c-7.133 0-13.493 4.78-15.468 11.626a16.12 16.12 0 00-.629 4.47c0 .84.066 1.684.195 2.51 1.232 7.872 7.92 13.586 15.902 13.586 7.981 0 14.669-5.714 15.902-13.587a16.41 16.41 0 00.194-2.51 16.123 16.123 0 00-.968-5.507C38.785 9.967 32.705 5.712 25.961 5.712zm20.25 5.711a3.119 3.119 0 01-3.116-3.115 3.119 3.119 0 013.116-3.116 3.119 3.119 0 013.115 3.116 3.119 3.119 0 01-3.115 3.115zm0-5.192a2.08 2.08 0 00-2.077 2.077 2.08 2.08 0 002.077 2.077 2.08 2.08 0 002.076-2.077 2.08 2.08 0 00-2.076-2.077zM8.827 48.288a4.159 4.159 0 01-4.154-4.153 4.159 4.159 0 014.154-4.154 4.159 4.159 0 014.154 4.154 4.159 4.159 0 01-4.154 4.154zm0-7.269a3.119 3.119 0 00-3.115 3.116 3.119 3.119 0 003.115 3.115 3.119 3.119 0 003.115-3.115 3.119 3.119 0 00-3.115-3.116z" fill="#000"/></svg>