<svg width="190" height="76" fill="none" xmlns="http://www.w3.org/2000/svg"><path d="M28.17.813c.27-.541.88-.715 1.826-.522.811.155 2.125.222 3.942.203 1.739 0 3.062.097 3.97.29 4.078.947 6.068 1.381 5.971 1.304v.464c.02.232.03.386.03.464l-.059.26c-2.203 5.74-3.671 9.294-4.405 10.666-.078.155-1.15 2-3.218 5.536-1.256 1.681-2.241 3.188-2.956 4.522 0 .116.328 1.034.986 2.753.618 1.14 1.43 2.85 2.434 5.13 1.024 2.338 1.826 4.048 2.406 5.13.27.85.782 2.27 1.536 4.261.676 1.816 1.179 3.246 1.507 4.29.329 1.14.377 1.951.145 2.434-.58.425-1.633.783-3.16 1.073a87.73 87.73 0 01-11.042.724h-1.014c-.252.02-.416.03-.493.03-.406-.445-.686-1.006-.84-1.682-.02-.058-.735-2.038-2.146-5.941a11.137 11.137 0 00-1.246-2.812c-.927-2.647-1.575-4.28-1.942-4.898-.27.328-.454 1.265-.55 2.811 0 .966.019 2.425.058 4.377.019 1.951.038 3.41.058 4.376-.04.947-.174 1.585-.406 1.913-.986.213-2.783.338-5.391.377-7.227-.097-10.772-.135-10.637-.116a4.156 4.156 0 01-1.13-1.188c-.02-.425-.155-1.314-.406-2.667-.194-1.101-.252-2-.174-2.695-.464-5.468-.744-10.357-.84-14.666.019-.638-.04-1.623-.175-2.956-.135-1.295-.183-2.28-.145-2.957.039-.637-.019-1.574-.174-2.811-.135-1.237-.183-2.164-.144-2.782.038-.812-.03-2.136-.203-3.971-.155-1.7-.184-3.024-.087-3.971.29-.58.406-1.353.348-2.319C.326 3.953.307 3.17.346 2.9c.116-.677.483-1.227 1.101-1.652A2.938 2.938 0 013.389.726c.85.077 1.97.116 3.362.116 1.758-.02 2.879-.02 3.362 0 .696.038 1.932-.02 3.71-.174 1.584-.116 2.83-.116 3.739 0 .502.038.87.212 1.101.522-.135 1.487-.125 2.666.03 3.536.076.444.105 1.323.086 2.637-.02 1.101.087 1.97.319 2.609 0 .058.164 2.425.493 7.1.058.928.338 1.633.84 2.116.136-.058.32-.425.551-1.101.116-.367.357-1.005.725-1.913l.26-.406c-.058.058.551-1.188 1.826-3.739.29-.618.638-1.468 1.044-2.55.463-1.237.802-2.087 1.014-2.55.136-.33.474-1.373 1.015-3.13.405-1.257.84-2.252 1.304-2.986z" fill="#F81157"/><path d="M41.068 21.681c1.43-.87 3.043-1.275 4.84-1.217 1.739.038 3.188.483 4.347 1.333.31.232.532 2.386.667 6.463.097 3.517.116 5.594.058 6.232-.637 7.516-.985 11.506-1.043 11.97-.194 1.565-.3 2.367-.32 2.406-.231.463-1.564.676-3.999.637-2.415-.019-3.671-.241-3.768-.666-.154-.638-.232-1.469-.232-2.493a439.756 439.756 0 01-.029-2.521 815.19 815.19 0 00-.463-5.015c-.194-2.106-.32-3.748-.377-4.927-.02-.54-.135-1.555-.348-3.043a87.304 87.304 0 01-.464-3.71c-.25-3.034.126-4.85 1.13-5.449zm15.999-1.362c1.893-.406 4.473-.56 7.738-.464 2.57.058 5.101.676 7.594 1.855 1.546.734 2.995 2.27 4.348 4.608.618 1.044 1.159 2.831 1.623 5.362.386 2.184.599 4.048.637 5.594.058 2.647-.077 4.667-.405 6.058-.484 2.067-1.46 3.72-2.928 4.956-.985.599-2.637.995-4.956 1.188-7.536.078-11.516.107-11.941.087-.947 0-1.7-.377-2.261-1.13l-.087-.348c-.232-1.178-.58-5.497-1.043-12.956-.483-7.42-.696-11.796-.638-13.13.039-.231.087-.444.145-.637.599-.521 1.324-.87 2.174-1.043zm10.695 25.853c.367-.058.734-.222 1.101-.492.232-.155.386-.28.464-.377.966-.908 1.449-2.725 1.449-5.45 0-1.777-.106-3.043-.319-3.796-.174-.638-.531-1.227-1.072-1.768-.29-.29-.793-.493-1.507-.609-.812-.116-1.314.03-1.508.435-.29.696-.434 2.599-.434 5.71 0 3.478.038 5.371.116 5.68.077.232.29.426.637.58.387.174.744.203 1.073.087zm16.694-20.085c1.121-1.662 2.705-3.015 4.754-4.058a15.759 15.759 0 016.52-1.681 37.85 37.85 0 015.392.145c1.237.212 1.99.473 2.261.782.405 1.41.666 3.623.782 6.638.02.946.02 1.536 0 1.767 0 .097-.077.203-.232.32a.662.662 0 01-.376.144c-.368.02-1.034-.077-2-.29-.986-.212-1.652-.318-2-.318-2.512-.02-4.183.376-5.014 1.188-.89.87-1.092 2.106-.61 3.71.213.657.658 1.188 1.334 1.594.31.212.957.493 1.942.84 2.01.735 3.411 1.75 4.203 3.044.541.889.676 2.145.405 3.768-.135.966-.444 1.758-.927 2.376-.348.464-1.024 1.073-2.029 1.826-2.763 1.334-6.01 1.826-9.738 1.478-1.623-.231-2.735-.53-3.334-.898-.212-.116-.347-.358-.405-.725-.02-.174-.039-.444-.058-.811-.02-.348-.039-.619-.058-.812 0-.174.02-.531.058-1.072l.145-.145c.038-.039.3-.029.782.029 1.43.927 3.652 1.188 6.666.782.85-.115 1.527-.56 2.03-1.333a3.89 3.89 0 00.666-2.231c0-1.083-1.468-2.223-4.405-3.42-.58-.232-1.759-.667-3.536-1.305-1.334-.483-2.223-.85-2.667-1.101-1.565-.87-2.328-2.251-2.29-4.145-.096-1.237-.02-2.29.232-3.16.251-.85.754-1.825 1.507-2.927z" fill="#F81157"/><path d="M109.24 12.058c1.874-3.478 4.589-6.308 8.144-8.492C120.882 1.421 124.63.252 128.63.06c3.285-.135 6.386-.038 9.304.29 2.145.464 3.439 1.024 3.884 1.681.715 2.956 1.169 7.584 1.362 13.883.019 2.01.01 3.246-.029 3.71 0 .367-.193.725-.58 1.073-2.917-.406-4.772-.58-5.565-.522-3.516-.213-6.347.918-8.492 3.391-1.835 2.3-2.792 5.024-2.869 8.173-.078 3.362.966 5.855 3.13 7.478.715.541 1.681.947 2.898 1.218 1.334.29 2.3.222 2.899-.203.521-.368.753-1.005.695-1.913-.058-.812-.289-1.536-.695-2.174-.155-.251-.57-.27-1.247-.058-.695.232-1.13.251-1.304.058-.328-.387-.502-.889-.522-1.507-.019-.638.155-1.102.522-1.392.638-.521 2.019-.782 4.145-.782 2.821 0 4.628.473 5.42 1.42.27.31.522 1.082.753 2.319.368 1.855.348 3.903-.058 6.144-.096 1.102-.705 2.348-1.826 3.74-.985 1.217-2.154 2.076-3.507 2.579-.425.154-1.41.367-2.956.638-6.299.714-12.115-.513-17.448-3.681-2.01-1.411-3.333-2.445-3.971-3.102-1.507-1.507-2.966-3.594-4.376-6.26-1.372-3.633-2.087-6.686-2.145-9.159-.348-5.855.715-10.869 3.188-15.043zm45.07 9.392c2.029-.697 4.347-.841 6.956-.436 1.893.387 3.642 1.324 5.246 2.812 1.005 1.005 1.893 2.348 2.666 4.029 1.256 3.11 1.517 6.53.783 10.26-.754 4.386-2.628 7.632-5.623 9.738-2.551 1.836-5.671 2.261-9.362 1.276-1.333-.503-2.483-1.121-3.449-1.855-1.236-1.198-1.98-1.99-2.232-2.377-1.198-1.662-2.028-3.72-2.492-6.174-.271-1.333-.367-3.4-.29-6.202.213-1.99.734-3.865 1.565-5.623.889-1.488 1.884-2.715 2.985-3.68 1.411-.967 2.493-1.556 3.247-1.769zm2.115 13.07c-.386.464-.618 1.063-.695 1.798-.193 1.932 0 3.536.58 4.811.347.792.763 1.256 1.246 1.391l.029.087a5 5 0 00.435.116c.173.078.434.058.782-.058.309-.058.503-.145.58-.26.734-.909 1.14-1.595 1.217-2.059.445-2.144.445-3.854 0-5.13a12.446 12.446 0 00-.203-.29c-.29-.637-.831-.975-1.623-1.014-1.063-.077-1.845.126-2.348.609zm28.542 1.236h-7.064l-1.484-28.314h10.032l-1.484 28.314zm-8.666 9.913c0-1.82.494-3.087 1.484-3.799.989-.752 2.196-1.128 3.62-1.128 1.386 0 2.573.376 3.562 1.128.989.712 1.484 1.979 1.484 3.8 0 1.74-.495 3.007-1.484 3.798-.989.752-2.176 1.128-3.562 1.128-1.424 0-2.631-.376-3.62-1.128-.99-.791-1.484-2.058-1.484-3.799z" fill="#015AFE"/><path d="M12.078 60.336c.318 0 .573.102.766.306.193.193.289.454.289.783V71.5c0 .317-.09.567-.272.748-.182.182-.42.273-.715.273s-.528-.091-.698-.273c-.17-.181-.255-.43-.255-.748v-7.011L8.3 69.968c-.136.249-.283.436-.442.56a.94.94 0 01-.562.17.94.94 0 01-.561-.17c-.159-.113-.306-.3-.443-.56l-2.91-5.395V71.5c0 .306-.09.556-.272.748-.17.182-.402.273-.697.273-.295 0-.528-.091-.698-.273-.17-.181-.255-.43-.255-.748V61.425c0-.329.09-.59.272-.783.193-.204.448-.306.766-.306.442 0 .788.244 1.038.732l3.777 7.198 3.761-7.198c.25-.488.584-.732 1.004-.732zm7.076 3.556c1.157 0 2.013.29 2.57.868.566.567.85 1.435.85 2.604v4.152c0 .306-.09.55-.272.731-.182.17-.431.256-.75.256a1.02 1.02 0 01-.73-.273c-.182-.181-.273-.42-.273-.714v-.375c-.193.443-.5.789-.919 1.038-.408.25-.885.375-1.43.375-.555 0-1.06-.114-1.514-.34a2.693 2.693 0 01-1.072-.937 2.365 2.365 0 01-.391-1.327c0-.612.153-1.094.46-1.446.317-.352.827-.607 1.53-.766.704-.159 1.674-.238 2.91-.238h.426v-.391c0-.556-.12-.96-.357-1.209-.239-.26-.624-.391-1.157-.391-.33 0-.664.051-1.004.153-.34.09-.743.227-1.209.408-.294.148-.51.222-.646.222a.666.666 0 01-.51-.222c-.126-.147-.188-.34-.188-.578 0-.193.046-.357.136-.493.102-.148.267-.284.494-.409a5.562 5.562 0 011.412-.51 7.443 7.443 0 011.634-.188zm-.528 7.13c.567 0 1.027-.187 1.378-.561.363-.386.545-.88.545-1.48v-.358h-.306c-.76 0-1.35.034-1.77.102-.42.068-.72.187-.902.357-.181.17-.272.403-.272.698 0 .363.125.664.374.902.261.227.579.34.953.34zm7.114 1.498c-.318 0-.573-.091-.766-.273-.193-.181-.29-.425-.29-.731v-6.347c-.01-.33.074-.59.256-.783.181-.193.43-.29.748-.29h4.204c.249 0 .448.074.595.222a.75.75 0 01.238.578c0 .239-.08.431-.238.579-.147.147-.346.221-.595.221h-3.08v5.82c0 .306-.097.55-.29.731-.193.182-.453.273-.782.273zm9.865-8.628c1.157 0 2.013.29 2.57.868.566.567.85 1.435.85 2.604v4.152c0 .306-.09.55-.272.731-.182.17-.431.256-.749.256-.295 0-.539-.091-.732-.273-.181-.181-.272-.42-.272-.714v-.375c-.193.443-.5.789-.919 1.038-.408.25-.885.375-1.43.375-.555 0-1.06-.114-1.514-.34a2.694 2.694 0 01-1.072-.937 2.365 2.365 0 01-.391-1.327c0-.612.153-1.094.46-1.446.317-.352.828-.607 1.53-.766.704-.159 1.674-.238 2.91-.238H37v-.391c0-.556-.119-.96-.357-1.209-.239-.26-.624-.391-1.157-.391-.33 0-.664.051-1.004.153-.34.09-.743.227-1.208.408-.295.148-.51.222-.647.222a.666.666 0 01-.51-.222c-.125-.147-.188-.34-.188-.578a.87.87 0 01.136-.493c.102-.148.267-.284.494-.409a5.56 5.56 0 011.412-.51 7.444 7.444 0 011.634-.188zm-.528 7.13c.568 0 1.027-.187 1.379-.561.363-.386.544-.88.544-1.48v-.358h-.306c-.76 0-1.35.034-1.77.102-.42.068-.72.187-.902.357-.181.17-.272.403-.272.698 0 .363.125.664.374.902.261.227.579.34.953.34zm9.019 1.532c-1.134 0-2.115-.222-2.943-.664a1.215 1.215 0 01-.443-.374.797.797 0 01-.153-.46c0-.193.074-.357.221-.493a.761.761 0 01.562-.222c.147 0 .317.035.51.103.352.17.687.295 1.004.374.318.068.67.102 1.055.102.51 0 .942-.085 1.294-.255.362-.17.544-.448.544-.834 0-.295-.102-.516-.306-.664-.193-.158-.54-.238-1.038-.238h-1.106c-.238 0-.431-.068-.579-.204a.796.796 0 01-.204-.561c0-.227.068-.409.204-.545a.782.782 0 01.579-.221h1.02c.443 0 .766-.08.97-.239a.841.841 0 00.307-.68.77.77 0 00-.425-.715c-.284-.159-.664-.238-1.14-.238-.386 0-.732.04-1.039.12a4.493 4.493 0 00-.935.34c-.17.067-.324.102-.46.102a.82.82 0 01-.578-.222.72.72 0 01-.222-.527.72.72 0 01.154-.443c.102-.136.255-.25.459-.34.885-.442 1.9-.664 3.046-.664 1.078 0 1.906.205 2.484.613.59.408.885.959.885 1.65 0 .432-.136.823-.408 1.175-.261.351-.624.6-1.09.748 1.112.284 1.668.92 1.668 1.906 0 .51-.17.965-.51 1.362-.34.385-.811.686-1.413.901a6.012 6.012 0 01-1.974.307zm11.179-7.811c.227-.317.431-.533.613-.646.192-.114.453-.17.782-.17.33 0 .59.09.783.272.204.181.306.425.306.731v6.552c0 .306-.096.555-.289.748-.181.193-.42.29-.715.29-.306 0-.556-.097-.748-.29-.182-.193-.273-.442-.273-.748v-4.799l-3.607 5.054c-.216.306-.425.516-.63.63-.193.102-.436.153-.731.153-.33 0-.59-.091-.783-.273-.193-.181-.29-.43-.29-.748v-6.552c0-.306.091-.55.273-.731.193-.193.442-.29.749-.29.294 0 .533.097.714.29.193.181.29.425.29.731v4.765l3.556-4.969zm5.643 7.777c-.317 0-.572-.091-.765-.273-.193-.181-.29-.425-.29-.731V64.93c0-.306.097-.55.29-.731.193-.182.448-.273.765-.273.33 0 .59.091.783.273.193.181.29.425.29.731v2.4h3.64v-2.4c0-.306.097-.55.29-.731.193-.182.448-.273.766-.273.329 0 .59.091.783.273.192.181.289.425.289.731l.017 6.5c0 .33-.102.596-.306.8-.193.193-.448.29-.766.29-.33 0-.59-.097-.783-.29-.193-.204-.29-.47-.29-.8v-2.45h-3.64v2.536c0 .306-.097.55-.29.731-.193.182-.454.273-.783.273zm13.67 2.16c-.295 0-.533-.09-.714-.272-.17-.17-.256-.414-.256-.731V71.89c-.01-.329.074-.59.256-.783.181-.193.42-.289.714-.289h.188c.329-.59.555-1.254.68-1.99.136-.738.204-1.612.204-2.621v-1.038c-.011-.33.074-.59.256-.783.181-.193.43-.29.748-.29h4.203c.33-.01.59.074.783.256.193.181.29.43.29.749v5.717h.272c.328-.011.59.074.782.255.193.182.29.431.29.749v1.855c0 .317-.091.561-.273.731-.17.182-.402.273-.697.273-.307 0-.545-.091-.715-.273-.17-.17-.255-.414-.255-.731v-1.26h-5.769v1.26c0 .317-.09.561-.272.731-.17.182-.408.273-.715.273zm5.241-8.984H77.5v.51c0 1.078-.086 2.014-.256 2.808-.159.794-.386 1.396-.68 1.804h3.266v-5.122zm11.281 4.441a.55.55 0 01.46.222c.124.147.187.346.187.595 0 .352-.21.647-.63.885a5.63 5.63 0 01-2.706.715c-1.338 0-2.399-.386-3.182-1.157-.782-.772-1.174-1.827-1.174-3.166 0-.85.17-1.605.51-2.263a3.73 3.73 0 011.43-1.531c.624-.363 1.327-.545 2.11-.545.749 0 1.401.165 1.957.494.556.329.987.794 1.293 1.395.306.601.46 1.31.46 2.127 0 .488-.216.732-.647.732h-5.02c.068.783.29 1.361.664 1.736.374.363.919.544 1.633.544.363 0 .681-.045.953-.136a8.97 8.97 0 00.953-.374c.34-.182.59-.273.749-.273zm-2.944-4.747c-.578 0-1.043.181-1.395.544-.34.363-.545.885-.613 1.566h3.846c-.023-.692-.193-1.214-.51-1.566-.318-.363-.76-.544-1.328-.544zm8.243 7.13c-.329 0-.59-.091-.783-.273-.193-.181-.289-.425-.289-.731v-5.82H93.38a.865.865 0 01-.612-.221.783.783 0 01-.222-.579c0-.238.074-.43.221-.578a.865.865 0 01.613-.221h6.04c.25 0 .449.073.596.22a.756.756 0 01.239.58c0 .238-.08.43-.239.578-.147.147-.346.221-.595.221h-1.957v5.82c0 .306-.096.55-.29.731-.192.182-.447.273-.765.273zm8.725.034c-.828 0-1.56-.176-2.195-.528a3.609 3.609 0 01-1.447-1.497c-.34-.647-.51-1.401-.51-2.263 0-.863.176-1.623.527-2.28a3.828 3.828 0 011.515-1.55c.646-.362 1.389-.544 2.229-.544.442 0 .885.063 1.327.188a4.38 4.38 0 011.191.51c.363.238.545.539.545.902 0 .25-.063.454-.188.612a.548.548 0 01-.459.222c-.125 0-.255-.029-.391-.085a3.448 3.448 0 01-.409-.204 4.052 4.052 0 00-.714-.34 2.099 2.099 0 00-.783-.137c-.703 0-1.248.233-1.634.698-.374.453-.561 1.111-.561 1.974 0 .85.187 1.508.561 1.973.386.454.931.681 1.634.681.283 0 .533-.04.749-.119.226-.09.476-.21.748-.357.17-.102.318-.176.443-.222a.893.893 0 01.374-.085c.182 0 .335.08.459.239a.934.934 0 01.188.595.96.96 0 01-.136.51c-.08.137-.216.261-.409.375-.352.227-.76.408-1.225.544a5.492 5.492 0 01-1.429.188zm9.482-4.697c.397.148.715.346.953.596.25.25.539.67.868 1.259l.749 1.293c.102.182.153.358.153.528a.905.905 0 01-.323.697 1.066 1.066 0 01-.732.273c-.386 0-.681-.182-.885-.545l-1.072-1.906c-.238-.397-.471-.675-.698-.834-.226-.158-.555-.238-.986-.238h-.664v2.52c0 .317-.097.567-.289.748-.193.182-.454.273-.783.273s-.59-.091-.783-.273c-.181-.181-.272-.43-.272-.748v-6.57c0-.306.096-.55.289-.731.193-.182.448-.273.766-.273.329 0 .59.091.783.273.192.181.289.425.289.731v2.468h.766l2.433-3.03c.227-.294.493-.441.8-.441a.83.83 0 01.612.255c.17.17.256.374.256.612 0 .239-.091.471-.273.698l-1.957 2.365zm8.217 4.697c-.85 0-1.599-.176-2.246-.528a3.666 3.666 0 01-1.48-1.514c-.352-.658-.528-1.424-.528-2.297 0-.874.176-1.634.528-2.28a3.667 3.667 0 011.48-1.515c.647-.352 1.396-.528 2.246-.528.851 0 1.594.176 2.23.528.646.352 1.14.856 1.48 1.514.352.647.527 1.407.527 2.28 0 .874-.175 1.64-.527 2.298a3.533 3.533 0 01-1.48 1.514c-.636.352-1.379.528-2.23.528zm-.017-1.65c.692 0 1.22-.228 1.583-.682.363-.453.544-1.123.544-2.007 0-.874-.181-1.538-.544-1.991-.363-.466-.885-.698-1.566-.698-.68 0-1.208.233-1.582.698-.363.453-.545 1.117-.545 1.99 0 .885.182 1.555.545 2.008.363.454.885.681 1.565.681zm11.541-6.161c.227-.317.431-.533.612-.646.193-.114.454-.17.783-.17s.59.09.783.272c.204.181.306.425.306.731v6.552c0 .306-.096.555-.289.748-.182.193-.42.29-.715.29-.306 0-.556-.097-.749-.29-.181-.193-.272-.442-.272-.748v-4.799l-3.607 5.054c-.216.306-.426.516-.63.63-.193.102-.437.153-.732.153-.329 0-.589-.091-.782-.273-.193-.181-.29-.43-.29-.748v-6.552c0-.306.091-.55.273-.731.193-.193.442-.29.748-.29.295 0 .534.097.715.29.193.181.289.425.289.731v4.765l3.557-4.969zm-1.6-2.263c-.737 0-1.361-.164-1.872-.493a2.727 2.727 0 01-1.072-1.362.917.917 0 01-.051-.289.57.57 0 01.188-.442.662.662 0 01.459-.188c.25 0 .442.125.579.375.181.351.425.624.731.817.318.192.664.289 1.038.289.363 0 .698-.097 1.004-.29.306-.192.562-.465.766-.816.147-.25.346-.375.595-.375.171 0 .318.063.443.188a.57.57 0 01.187.442.93.93 0 01-.051.29 2.609 2.609 0 01-1.072 1.36c-.511.33-1.134.494-1.872.494zm14.653 10.074c-.85 0-1.599-.176-2.246-.528a3.666 3.666 0 01-1.48-1.514c-.352-.658-.528-1.424-.528-2.297 0-.874.176-1.634.528-2.28a3.667 3.667 0 011.48-1.515c.647-.352 1.396-.528 2.246-.528.851 0 1.594.176 2.23.528.646.352 1.14.856 1.48 1.514.352.647.527 1.407.527 2.28 0 .874-.175 1.64-.527 2.298a3.533 3.533 0 01-1.48 1.514c-.636.352-1.379.528-2.23.528zm-.017-1.65c.692 0 1.22-.228 1.583-.682.363-.453.544-1.123.544-2.007 0-.874-.181-1.538-.544-1.991-.363-.466-.885-.698-1.566-.698-.68 0-1.208.233-1.582.698-.363.453-.545 1.117-.545 1.99 0 .885.182 1.555.545 2.008.363.454.885.681 1.565.681zm9.958 1.65c-1.395 0-2.45-.454-3.165-1.362-.714-.907-1.072-2.132-1.072-3.675 0-1.248.119-2.28.358-3.097.249-.828.618-1.492 1.106-1.991.499-.51 1.145-.925 1.939-1.242.432-.182.976-.369 1.634-.562a44.938 44.938 0 001.634-.527c.192-.057.346-.085.459-.085.25 0 .448.074.596.221a.741.741 0 01.221.544.895.895 0 01-.17.494 1.231 1.231 0 01-.477.408c-.272.148-.601.29-.987.426-.374.124-.749.244-1.123.357-.476.136-.834.244-1.072.323-.839.273-1.458.675-1.855 1.209-.385.533-.601 1.31-.646 2.33a3.201 3.201 0 011.242-1.548 3.53 3.53 0 011.974-.578c1.168 0 2.076.357 2.722 1.072.647.714.97 1.724.97 3.029 0 .805-.176 1.531-.527 2.178a3.887 3.887 0 01-1.498 1.531c-.646.363-1.401.545-2.263.545zm0-1.65c.704 0 1.237-.24 1.6-.716.374-.487.561-1.094.561-1.82 0-.828-.181-1.447-.544-1.855-.363-.42-.857-.63-1.481-.63-.692 0-1.23.233-1.616.698-.375.454-.562 1.055-.562 1.804 0 .76.165 1.372.494 1.837.34.454.856.681 1.548.681zm11.709-6.365a.956.956 0 01.357-.442.928.928 0 01.511-.153c.261 0 .493.09.698.272a.79.79 0 01.323.646.876.876 0 01-.102.392l-4.646 9.733c-.193.386-.493.579-.902.579a1.06 1.06 0 01-.697-.256.757.757 0 01-.289-.612 1.1 1.1 0 01.102-.426l1.157-2.433-3.165-6.585a.86.86 0 01-.085-.392c0-.26.107-.482.323-.663.227-.182.482-.273.766-.273.193 0 .368.051.527.154.159.09.284.238.375.442l2.382 5.258 2.365-5.241zm4.175 7.879c-.329.01-.59-.074-.782-.256-.193-.181-.29-.43-.29-.748v-6.245c-.011-.33.074-.59.255-.783.182-.193.432-.29.749-.29h3.148c.942 0 1.679.188 2.212.562.545.374.817.902.817 1.583 0 .42-.125.8-.374 1.14-.25.34-.607.59-1.072.748.533.125.941.352 1.225.681.295.33.442.749.442 1.26 0 .669-.283 1.23-.851 1.684-.555.442-1.338.663-2.348.663h-3.131zm2.723-4.918c.408 0 .726-.09.953-.272.227-.182.34-.431.34-.75 0-.634-.437-.952-1.31-.952h-1.668V67.5h1.685zm.051 3.488c.953 0 1.429-.357 1.429-1.072 0-.715-.476-1.072-1.429-1.072h-1.736v2.144h1.736zm10.842-6.245c.227-.317.431-.533.612-.646.193-.114.454-.17.783-.17s.59.09.783.272c.204.181.306.425.306.731v6.552c0 .306-.096.555-.289.748-.182.193-.42.29-.715.29-.306 0-.556-.097-.748-.29-.182-.193-.273-.442-.273-.748v-4.799l-3.607 5.054c-.216.306-.426.516-.63.63-.193.102-.437.153-.731.153-.329 0-.59-.091-.783-.273-.193-.181-.289-.43-.289-.748v-6.552c0-.306.09-.55.272-.731.193-.193.442-.29.748-.29.295 0 .534.097.715.29.193.181.289.425.289.731v4.765l3.557-4.969z" fill="#000"/></svg>