<svg width="30" height="30" fill="none" xmlns="http://www.w3.org/2000/svg"><path d="M27.517 1.333a1.545 1.545 0 110 3.09 1.545 1.545 0 010-3.09zM2.792 17.714a1.854 1.854 0 110 3.708 1.854 1.854 0 010-3.708z" fill="#68CA44"/><path d="M20.872 19.982c2.807.878 4.66 2.381 4.66 4.09 0 2.708-4.646 4.904-10.378 4.904-5.73 0-10.376-2.196-10.376-4.903 0-1.71 1.852-3.213 4.659-4.091 1.863 1.767 3.98 3.547 5.717 5.93 1.739-2.382 3.856-4.163 5.718-5.93z" fill="#D0DCE7"/><path d="M18.929 10.187l-2.333 1.694.891 2.742-2.332-1.694-2.333 1.694.892-2.742-2.333-1.694h2.883l.89-2.742.892 2.742h2.883z" fill="#FC6"/><path d="M15.154 25.912c-4.104-5.627-10.32-7.894-10.32-14.567 0-5.7 4.62-10.32 10.32-10.32s10.322 4.62 10.322 10.32c0 6.672-6.215 8.94-10.322 14.567zm6.767-14.567c0-3.726-3.04-6.766-6.767-6.766-3.726 0-6.766 3.04-6.766 6.766 0 3.727 3.04 6.766 6.766 6.766 3.728 0 6.767-3.039 6.767-6.766z" fill="#FF5987"/><path d="M28.29 8.133a.463.463 0 110 .927.463.463 0 010-.927zm-.618 18.853a.463.463 0 110 .927.463.463 0 010-.927zm-1.855-9.272a.463.463 0 110 .927.463.463 0 010-.927zM5.11 2.26a.463.463 0 110 .927.463.463 0 010-.926zM3.564 26.368a.463.463 0 110 .927.463.463 0 010-.927zM1.71 8.442a.463.463 0 110 .927.463.463 0 010-.927zm15.777 6.49a.309.309 0 01-.181-.059l-2.152-1.562-2.15 1.562a.31.31 0 01-.476-.345l.822-2.529-2.15-1.562a.31.31 0 01.18-.56h2.66l.82-2.528a.31.31 0 01.588 0l.822 2.529h2.659a.309.309 0 01.181.559l-2.15 1.562.821 2.529a.31.31 0 01-.294.404zm-2.332-2.312a.31.31 0 01.181.059l1.563 1.135-.597-1.837a.31.31 0 01.112-.346l1.563-1.135h-1.931a.309.309 0 01-.294-.213l-.597-1.838-.597 1.838a.309.309 0 01-.294.213h-1.932l1.563 1.135a.309.309 0 01.113.346l-.598 1.837 1.563-1.135a.309.309 0 01.181-.06z" fill="#000"/><path d="M15.154 26.221a.309.309 0 01-.25-.127c-1.392-1.909-3.022-3.419-4.6-4.88-.374-.346-.727-.673-1.08-1.008-1.194-1.133-2.421-2.383-3.305-3.842a9.438 9.438 0 01-1.395-5.019c0-5.861 4.77-10.63 10.63-10.63 5.862 0 10.631 4.769 10.631 10.63a9.429 9.429 0 01-1.395 5.019c-.884 1.46-2.11 2.71-3.305 3.842-.354.336-.708.664-1.083 1.011-1.576 1.46-3.206 2.97-4.598 4.877a.309.309 0 01-.25.127zm0-24.888c-5.52 0-10.011 4.492-10.011 10.012 0 3.82 2.131 6.16 4.506 8.413.35.332.703.658 1.076 1.003 1.506 1.395 3.06 2.835 4.43 4.634 1.368-1.797 2.921-3.236 4.427-4.631.373-.346.726-.673 1.078-1.006 2.375-2.253 4.507-4.592 4.507-8.413 0-5.52-4.492-10.012-10.013-10.012z" fill="#000"/><path d="M15.155 18.42a7.083 7.083 0 01-7.076-7.075 7.083 7.083 0 017.075-7.075c3.902 0 7.076 3.174 7.076 7.075a7.083 7.083 0 01-7.075 7.075zm0-13.532a6.464 6.464 0 00-6.458 6.457 6.464 6.464 0 006.458 6.457 6.465 6.465 0 006.457-6.457 6.465 6.465 0 00-6.457-6.457zm0 24.397c-2.817 0-5.47-.52-7.47-1.466-2.074-.98-3.216-2.31-3.216-3.746 0-1.79 1.823-3.43 4.876-4.386a.309.309 0 11.184.59c-2.781.87-4.442 2.29-4.442 3.796 0 1.183 1.017 2.315 2.862 3.187 1.92.907 4.479 1.407 7.206 1.407 2.727 0 5.286-.5 7.205-1.407 1.846-.872 2.863-2.004 2.863-3.187 0-1.505-1.658-2.923-4.436-3.794a.31.31 0 01.085-.606c.032 0 .063.005.093.014 3.053.956 4.876 2.595 4.876 4.386 0 1.436-1.142 2.766-3.216 3.746-2.001.945-4.654 1.466-7.47 1.466zM27.517 4.733a1.857 1.857 0 01-1.854-1.854c0-1.023.831-1.855 1.854-1.855 1.023 0 1.854.832 1.854 1.855a1.857 1.857 0 01-1.854 1.854zm0-3.09a1.237 1.237 0 000 2.472 1.237 1.237 0 000-2.472zM2.792 21.732a2.166 2.166 0 01-2.164-2.164c0-1.193.971-2.163 2.164-2.163s2.163.97 2.163 2.163c0 1.193-.97 2.164-2.163 2.164zm0-3.71c-.852 0-1.545.694-1.545 1.546 0 .852.693 1.546 1.545 1.546s1.545-.694 1.545-1.546c0-.852-.693-1.545-1.545-1.545z" fill="#000"/></svg>