<svg width="39" height="39" fill="none" xmlns="http://www.w3.org/2000/svg"><g clip-path="url(#clip0)"><path d="M3.548 20.146L.943 22.75a1.291 1.291 0 00-.146 1.64c1.088 1.612.646 3.1.188 3.96-.265.5-.175 1.112.225 1.512l7.928 7.928c.4.4 1.013.49 1.512.225.86-.459 2.347-.9 3.96.188.514.347 1.2.293 1.64-.147l2.604-2.604-4.652-10.654-10.654-4.652z" fill="#E6E6E6"/><path d="M14.201 24.798l-1.124-.49 4.16 9.528-2.604 2.605a1.292 1.292 0 01-1.64.146c-1.612-1.088-3.099-.647-3.96-.188a1.285 1.285 0 01-1.512-.225l1.616 1.616c.4.4 1.014.49 1.513.225.86-.459 2.347-.9 3.96.188.514.347 1.2.292 1.64-.147l2.604-2.604-4.652-10.654z" fill="#CCC"/><path d="M28.35.985c-.86.459-2.348.9-3.96-.188a1.291 1.291 0 00-1.64.147L3.548 20.146l15.306 15.306L38.056 16.25a1.291 1.291 0 00.147-1.64c-1.088-1.612-.647-3.1-.189-3.96.266-.5.176-1.112-.224-1.512L29.862 1.21c-.4-.4-1.013-.49-1.512-.225z" fill="#EF5350"/><path d="M38.203 14.61c-1.088-1.612-.646-3.1-.188-3.96.266-.5.175-1.112-.224-1.512l-1.616-1.616c.4.4.49 1.013.224 1.512-.458.86-.9 2.348.188 3.96.348.515.293 1.2-.146 1.64L17.238 33.836l1.616 1.616L38.057 16.25c.439-.44.494-1.125.146-1.64z" fill="#D44A47"/><path d="M18.854 30.975L34.839 14.99 24.01 4.16 8.025 20.146l10.829 10.829z" fill="#E6E6E6"/><path d="M7.463 20.145c0 .148.05.297.158.404L18.45 31.38a.582.582 0 00.808 0l15.985-15.986a.578.578 0 000-.808L24.414 3.755a.571.571 0 00-.808.001L7.622 19.74a.575.575 0 00-.158.404zM24.01 4.968l10.021 10.02-15.177 15.178-10.021-10.02L24.01 4.967z" fill="#000"/><path d="M22.044 24.297c.087.563.757.866 1.186.437a.724.724 0 00.212-.661L21.346 10.52c-.09-.574-.77-.854-1.198-.425-.175.175-.262.412-.2.65l2.096 13.553zm2.483-5.204c1.199 1.198 3.033 1.386 4.256.163 1.236-1.236 1.048-3.096-.162-4.306l-.025-.025c-1.198-1.198-3.033-1.385-4.256-.162-1.235 1.235-1.06 3.082.163 4.305l.024.025zm.75-3.344c.56-.562 1.534-.387 2.233.312l.025.025c.674.674.899 1.597.312 2.184-.562.561-1.523.399-2.234-.312l-.025-.025c-.674-.674-.898-1.598-.312-2.184zm-6.403.012l-.025-.025c-1.198-1.198-3.02-1.398-4.256-.162-1.235 1.236-1.06 3.083.162 4.305l.025.025c1.199 1.198 3.033 1.386 4.256.163 1.248-1.248 1.048-3.095-.162-4.306zm-.774 3.32c-.562.561-1.523.4-2.234-.312l-.025-.025c-.674-.674-.898-1.598-.312-2.184.562-.562 1.535-.387 2.234.312l.025.025c.674.674.899 1.597.312 2.184z" fill="#000"/><path d="M.482 28.08a1.846 1.846 0 00.325 2.186l7.928 7.928c.35.35.816.542 1.311.542.303 0 .605-.075.874-.218 1.099-.585 2.337-.54 3.372.158a1.88 1.88 0 001.056.324c.494 0 .958-.192 1.307-.54l21.807-21.807a1.87 1.87 0 00.216-2.363c-.902-1.337-.584-2.572-.158-3.372a1.846 1.846 0 00-.324-2.185L30.268.805A1.846 1.846 0 0028.082.48c-.8.426-2.035.745-3.372-.157a1.868 1.868 0 00-2.363.216L9.876 13.01a.571.571 0 10.808.808L23.156 1.347a.724.724 0 01.916-.077c1.902 1.284 3.666.688 4.548.219a.71.71 0 01.84.124l7.928 7.928a.71.71 0 01.123.84c-.469.881-1.065 2.645.22 4.548a.724.724 0 01-.077.916L18.855 34.643 4.357 20.145l4.802-4.802a.571.571 0 10-.808-.808l-7.81 7.81a1.868 1.868 0 00-.216 2.364c.902 1.337.583 2.571.157 3.372zm.867-4.926l2.2-2.2L18.047 35.45l-2.2 2.2a.727.727 0 01-.916.078c-1.382-.933-3.08-1-4.548-.22a.725.725 0 01-.84-.123l-7.928-7.928a.71.71 0 01-.124-.84c.47-.882 1.065-2.645-.22-4.548a.724.724 0 01.078-.916z" fill="#000"/></g><defs><clipPath id="clip0"><path fill="#fff" d="M0 0h39v39H0z"/></clipPath></defs></svg>