<svg width="16" height="16" fill="none" xmlns="http://www.w3.org/2000/svg"><g clip-path="url(#clip0)"><path d="M11.19 15.275a7.37 7.37 0 01-5.67.294C1.666 14.203-.358 9.954 1.01 6.1a7.35 7.35 0 013.75-4.19l-2.301-.817a.563.563 0 11.376-1.06l3.691 1.309a.565.565 0 01.343.718L5.487 5.956a.563.563 0 11-1.061-.376l.967-2.728A6.238 6.238 0 002.07 6.476a6.298 6.298 0 003.826 8.032A6.292 6.292 0 0012.283 3.97a.563.563 0 11.767-.825 7.414 7.414 0 011.94 7.912 7.365 7.365 0 01-3.8 4.218z" fill="#015AFE" fill-opacity=".5" stroke="#015AFE" stroke-opacity=".5" stroke-width=".25"/></g><defs><clipPath id="clip0"><rect width="16" height="16" rx="8" transform="matrix(0 1 1 0 0 0)" fill="#fff"/></clipPath></defs></svg>