<svg width="99" height="99" fill="none" xmlns="http://www.w3.org/2000/svg"><path d="M50.727 13.589l.001-.001c5.877-.195 10.633 4.415 10.62 10.295v.82l1.555-.051a4.003 4.003 0 014.167 4.039l-.085 41.61c-.005 2.307-1.877 4.239-4.183 4.315l-1.555.052-.002.818c-.011 5.872-4.773 10.804-10.664 11.001-5.877.195-10.632-4.415-10.62-10.295l.001-.82-1.556.051a4.003 4.003 0 01-4.166-4.039l.084-41.61c.004-2.306 1.877-4.239 4.183-4.315l1.555-.053.002-.817c.012-5.871 4.772-10.803 10.663-11z" fill="#FF5987"/><path d="M61.33 32.893l-.066 33.502-21.285.704.067-33.5 21.285-.706z" fill="#D0DCE7"/><path d="M78.175 36.676c1.603-1.653 4.193-1.738 5.789-.192 1.596 1.547 1.59 4.14-.012 5.792-1.6 1.652-4.193 1.739-5.788.192-1.596-1.547-1.59-4.14.011-5.792zM8.695 47.083c2.884-2.975 7.548-3.128 10.42-.345 2.87 2.784 2.862 7.45-.021 10.426-2.883 2.973-7.549 3.128-10.42.344-2.871-2.783-2.862-7.451.02-10.425z" fill="#68CA44"/><path d="M73.278 25.545c.481-.497 1.258-.522 1.736-.058.479.464.478 1.241-.003 1.738-.48.495-1.259.52-1.737.057-.478-.463-.477-1.242.004-1.737zm7.472 25.814c.482-.497 1.259-.521 1.737-.058.479.464.478 1.241-.003 1.738-.48.495-1.259.521-1.737.057-.478-.463-.477-1.242.004-1.737zM36.838 12.272c.481-.497 1.258-.521 1.736-.058.479.464.479 1.241-.003 1.738-.48.495-1.258.521-1.737.057-.478-.463-.477-1.242.004-1.737zm38.667 57.214c.481-.497 1.258-.521 1.736-.057.479.463.478 1.24-.003 1.737-.48.496-1.258.521-1.737.058-.478-.464-.477-1.242.004-1.738zM17.692 34.334c.482-.497 1.259-.521 1.737-.058.478.464.478 1.241-.004 1.738-.48.495-1.258.521-1.736.057-.479-.463-.477-1.242.003-1.737zm6.879 33.363c.482-.497 1.259-.522 1.737-.058.478.464.478 1.241-.004 1.738-.48.495-1.258.52-1.736.057-.479-.463-.477-1.242.003-1.737zm23.101 25.876c.482-.497 1.259-.521 1.737-.058.479.464.478 1.241-.003 1.738-.48.495-1.259.521-1.737.057-.478-.463-.477-1.242.004-1.737zm11.019-9.894c-2.168 2.236-5.049 3.525-8.111 3.627-6.32.21-11.45-4.764-11.438-11.087v-.001l-.738.024a4.79 4.79 0 01-3.528-1.346 4.792 4.792 0 01-1.455-3.485l.084-41.61a5.138 5.138 0 011.47-3.58 5.143 5.143 0 013.534-1.58l.736-.026c.007-3.063 1.205-5.982 3.374-8.22 2.156-2.224 5.02-3.51 8.066-3.624a.741.741 0 01.045-.002c6.32-.21 11.45 4.764 11.437 11.087v.001l.738-.024a4.789 4.789 0 013.528 1.346 4.793 4.793 0 011.455 3.485l-.084 41.61c-.006 2.754-2.25 5.07-5.004 5.16l-.736.026c-.006 3.063-1.204 5.982-3.373 8.219zM36.13 27.34a3.452 3.452 0 00-.987 2.406l-.085 41.61a3.217 3.217 0 003.35 3.247l1.556-.051a.79.79 0 01.578.22.791.791 0 01.239.572l-.002.82a9.432 9.432 0 009.804 9.503c2.625-.088 5.094-1.192 6.953-3.11 1.859-1.917 2.885-4.419 2.89-7.045l.002-.817a.855.855 0 01.82-.846l1.555-.053c1.85-.061 3.36-1.618 3.363-3.47l.085-41.609a3.218 3.218 0 00-3.349-3.247l-1.556.052a.785.785 0 01-.817-.792l.001-.82a9.431 9.431 0 00-9.804-9.503c-2.626.088-5.094 1.192-6.951 3.107-1.86 1.919-2.887 4.421-2.892 7.047l-.002.818c0 .452-.368.83-.82.846l-1.555.053a3.457 3.457 0 00-2.376 1.062z" fill="#000"/><path d="M61.841 66.956a.849.849 0 01-.58.259l-21.284.703a.785.785 0 01-.817-.792l.067-33.5a.855.855 0 01.82-.846l21.285-.706a.79.79 0 01.579.221.79.79 0 01.239.571l-.068 33.502a.848.848 0 01-.24.588zM40.8 66.252l19.648-.649.064-31.864-19.648.652-.064 31.861z" fill="#000"/><path d="M51.619 64.6c.004.233-.046.41-.148.531a.56.56 0 01-.43.175.56.56 0 01-.434-.162c-.114-.118-.172-.293-.176-.525l-.038-2.471c-.004-.233.05-.405.16-.519a.541.541 0 01.429-.187.541.541 0 01.434.173c.106.11.16.282.165.514l.038 2.472zm1.215-9.83c-.007-.48.193-.724.601-.73.424-.006.64.23.647.71l.071 4.56c.003.208-.054.372-.172.494a.66.66 0 01-.465.188.914.914 0 01-.653-.266l-2.982-2.69c-.373-.33-.713-.57-1.02-.717a2.011 2.011 0 00-.927-.225c-.376.006-.662.118-.859.337-.196.22-.291.529-.285.929.005.328.074.647.207.957.124.302.297.607.518.916.057.079.106.158.148.238a.66.66 0 01.052.239c.002.136-.06.257-.187.363a.738.738 0 01-.454.15.748.748 0 01-.313-.054.888.888 0 01-.255-.212 4.058 4.058 0 01-.679-1.226 4.2 4.2 0 01-.274-1.412c-.013-.824.185-1.483.593-1.977.409-.503.965-.76 1.669-.77.488-.008.95.089 1.384.29.428.201.909.546 1.445 1.034l2.24 2.041-.05-3.167zm1.281-4.852c.016 1-.34 1.77-1.068 2.309-.736.54-1.812.82-3.227.842-1.408.022-2.484-.225-3.228-.742-.752-.516-1.136-1.274-1.152-2.274-.015-1 .345-1.77 1.08-2.31.728-.539 1.796-.82 3.204-.841 1.408-.022 2.488.225 3.24.742.752.516 1.136 1.274 1.151 2.274zm-1.212.019c-.008-.544-.262-.936-.762-1.176-.508-.24-1.306-.352-2.394-.335-1.096.017-1.886.153-2.37.409-.492.255-.733.655-.725 1.199.008.544.263.936.762 1.176.5.24 1.294.352 2.382.335 1.088-.017 1.882-.153 2.382-.409.492-.255.734-.655.725-1.2zm.818-7.593c.13.07.227.156.293.26a.549.549 0 01-.05.697.537.537 0 01-.393.161.8.8 0 01-.41-.113l-7.615-4.25a.772.772 0 01-.292-.26.591.591 0 01-.1-.31.508.508 0 01.15-.375.517.517 0 01.393-.174.8.8 0 01.41.114l7.614 4.25zm-3.218 1.382c.01.672-.202 1.2-.636 1.582-.434.383-1.075.581-1.923.594-.84.013-1.483-.165-1.929-.534-.445-.37-.673-.89-.684-1.562-.01-.671.201-1.199.636-1.582.434-.39 1.07-.592 1.91-.605.848-.014 1.495.168 1.941.546.446.369.674.89.684 1.561zm-.972.015c-.005-.304-.133-.522-.383-.654-.258-.14-.675-.206-1.25-.197-.56.01-.968.087-1.221.236a.708.708 0 00-.374.665.709.709 0 00.394.654c.25.133.66.194 1.227.185.576-.009.991-.083 1.245-.223a.713.713 0 00.362-.666zm4.37-6.104c.01.672-.202 1.199-.636 1.582-.434.382-1.08.58-1.935.594-.84.013-1.479-.165-1.917-.535-.446-.377-.674-.897-.684-1.561-.01-.672.201-1.2.635-1.582.434-.383 1.072-.58 1.911-.594.848-.013 1.495.165 1.94.534.447.37.675.89.685 1.562zm-.973.015a.713.713 0 00-.382-.654c-.258-.14-.675-.206-1.251-.197-.56.009-.967.087-1.22.235a.709.709 0 00-.374.666.709.709 0 00.394.654c.258.14.667.206 1.227.197.576-.01.991-.088 1.245-.236a.713.713 0 00.361-.665zm-1.64-14.855a.846.846 0 01-.58.26.785.785 0 01-.817-.793l.018-8.648v-.043l.014-7.236a.855.855 0 01.82-.846.785.785 0 01.817.792l-.013 7.278-.001.043-.017 8.606a.846.846 0 01-.241.587zM19.671 57.724c-3.198 3.299-8.392 3.47-11.577.383-3.186-3.088-3.175-8.285.023-11.584 3.198-3.3 8.392-3.471 11.577-.383 3.186 3.088 3.175 8.284-.023 11.584zM9.272 47.644c-2.558 2.639-2.566 6.796-.018 9.266 2.548 2.47 6.703 2.333 9.262-.306 2.558-2.64 2.567-6.797.018-9.267-2.548-2.47-6.703-2.333-9.262.306zm75.258-4.808c-1.919 1.98-5.035 2.083-6.946.23-1.912-1.853-1.905-4.97.014-6.95 1.919-1.98 5.035-2.083 6.946-.23 1.911 1.853 1.905 4.97-.014 6.95zm-5.777-5.6c-1.28 1.32-1.283 3.398-.01 4.633 1.275 1.236 3.353 1.167 4.632-.153 1.279-1.32 1.283-3.398.009-4.633-1.274-1.236-3.352-1.167-4.63.153z" fill="#000"/></svg>