<svg width="96" height="97" fill="none" xmlns="http://www.w3.org/2000/svg"><path d="M11.467 15.22h-.002c-5.801 5.602-5.801 14.685 0 20.287l.81.78-1.537 1.484a5.49 5.49 0 000 7.958l41.054 39.636c2.277 2.198 5.966 2.198 8.242 0l1.536-1.481.807.779c5.793 5.593 15.195 5.612 21.013 0 5.8-5.601 5.8-14.685 0-20.286l-.81-.781 1.537-1.483a5.49 5.49 0 000-7.958L43.063 14.519c-2.274-2.198-5.966-2.198-8.243 0l-1.536 1.48-.806-.778c-5.793-5.593-15.193-5.613-21.01 0z" fill="#FF5987"/><path d="M20.354 44.09l33.054 31.913 21.01-20.288-33.051-31.911-21.013 20.285z" fill="#D0DCE7"/><path d="M8 64.287c-3.157 0-5.714 2.47-5.714 5.517 0 3.048 2.557 5.517 5.714 5.517 3.155 0 5.714-2.47 5.714-5.517S11.154 64.287 8 64.287zM84.571 5.804c-5.682 0-10.285 4.447-10.285 9.931 0 5.484 4.603 9.931 10.285 9.931 5.68 0 10.286-4.447 10.286-9.93 0-5.485-4.606-9.932-10.286-9.932z" fill="#68CA44"/><path d="M37.326 47.991a3.228 3.228 0 000 4.681c1.34 1.293 3.51 1.293 4.848 0a3.229 3.229 0 000-4.68c-1.337-1.294-3.509-1.294-4.848 0zm16.162-1.561a3.229 3.229 0 000 4.682c1.34 1.293 3.51 1.293 4.848 0a3.229 3.229 0 000-4.681c-1.337-1.293-3.509-1.293-4.848 0z" fill="#414A56"/><path d="M1.714 48.839C.766 48.839 0 49.58 0 50.494c0 .913.766 1.655 1.714 1.655.947 0 1.715-.742 1.715-1.655 0-.914-.768-1.655-1.715-1.655zM20 80.838c-.948 0-1.714.742-1.714 1.656 0 .913.766 1.655 1.714 1.655.947 0 1.715-.742 1.715-1.655 0-.914-.768-1.656-1.715-1.656zM23.429.287c-.949 0-1.714.741-1.714 1.655s.765 1.655 1.714 1.655c.946 0 1.714-.741 1.714-1.655S24.375.287 23.43.287zm19.428 92.689c-.949 0-1.714.742-1.714 1.656 0 .913.765 1.655 1.714 1.655.947 0 1.714-.742 1.714-1.655 0-.914-.767-1.656-1.714-1.656zM63.428 2.494c-.948 0-1.714.741-1.714 1.655 0 .913.766 1.655 1.715 1.655.946 0 1.714-.742 1.714-1.655 0-.914-.768-1.655-1.715-1.655zm26.286 38.62c-.948 0-1.714.742-1.714 1.656 0 .913.766 1.655 1.714 1.655.946 0 1.714-.742 1.714-1.655 0-.914-.768-1.656-1.714-1.656zm3.429 47.449c-.949 0-1.715.741-1.715 1.655 0 .913.766 1.655 1.715 1.655.946 0 1.714-.742 1.714-1.655 0-.914-.768-1.656-1.714-1.656zm-20.261 1.406c4.272 0 8.29-1.607 11.316-4.525 6.238-6.024 6.238-15.824 0-21.847h-.001l.728-.704c1.316-1.27 2.042-2.96 2.042-4.758 0-1.799-.725-3.49-2.042-4.76L43.87 13.739a7.048 7.048 0 00-4.929-1.972c-1.862 0-3.613.7-4.93 1.972l-.727.7c-3.022-2.917-7.04-4.523-11.315-4.523-4.249 0-8.248 1.591-11.267 4.483a.602.602 0 00-.046.042c-6.238 6.023-6.238 15.823 0 21.846h.001l-.728.704c-1.317 1.27-2.042 2.96-2.042 4.758s.725 3.489 2.042 4.76l41.054 39.636c2.718 2.624 7.14 2.624 9.858 0l.728-.701c3.022 2.918 7.04 4.525 11.312 4.525zm-33.94-75.995c1.252 0 2.428.47 3.312 1.325L83.31 54.935a4.413 4.413 0 010 6.397l-1.536 1.484a1.085 1.085 0 00-.335.78c0 .293.12.573.334.78l.81.781c5.347 5.163 5.347 13.563 0 18.726-2.593 2.501-6.038 3.879-9.7 3.879-3.662 0-7.106-1.378-9.697-3.879l-.807-.78a1.171 1.171 0 00-1.615 0l-1.536 1.481c-1.828 1.764-4.8 1.764-6.627 0L11.546 44.95a4.413 4.413 0 010-6.397l1.537-1.484a1.077 1.077 0 000-1.56l-.81-.781c-5.333-5.15-5.347-13.521-.04-18.687.015-.012.028-.025.042-.038 2.593-2.502 6.036-3.88 9.695-3.88 3.664 0 7.11 1.378 9.7 3.88l.806.779c.446.43 1.17.43 1.616 0l1.536-1.48a4.741 4.741 0 013.315-1.327z" fill="#000"/><path d="M53.408 77.107c.303 0 .594-.117.808-.323l21.01-20.289a1.075 1.075 0 000-1.56L42.175 23.023a1.172 1.172 0 00-1.616 0L19.546 43.31a1.084 1.084 0 00-.334.78c0 .293.12.574.334.78L52.6 76.785c.214.206.505.323.808.323zm19.394-21.392L53.408 74.443 21.97 44.089l19.397-18.725 31.435 30.351z" fill="#000"/><path d="M46.216 62.36c.56 0 1.048-.397 1.13-.947l3.232-21.848c.09-.604-.345-1.163-.97-1.249-.625-.086-1.204.333-1.293.936l-3.232 21.849c-.09.603.345 1.162.97 1.248.055.008.11.011.163.011zm9.697-9.175a4.62 4.62 0 003.232-1.294 4.304 4.304 0 000-6.24 4.619 4.619 0 00-3.232-1.294c-1.221 0-2.37.46-3.233 1.293a4.31 4.31 0 00-1.34 3.122c0 1.18.477 2.288 1.34 3.12a4.625 4.625 0 003.233 1.293zm0-6.62c.61 0 1.184.23 1.614.646a2.15 2.15 0 01.002 3.12 2.308 2.308 0 01-1.616.648c-.61 0-1.185-.23-1.616-.647a2.15 2.15 0 010-3.12 2.312 2.312 0 011.616-.648zM39.75 54.746a4.62 4.62 0 003.233-1.294 4.304 4.304 0 00-.001-6.241 4.618 4.618 0 00-3.231-1.293c-1.222 0-2.37.46-3.234 1.293a4.306 4.306 0 000 6.242 4.625 4.625 0 003.234 1.293zm0-6.621c.61 0 1.184.23 1.615.646a2.15 2.15 0 01.001 3.12 2.309 2.309 0 01-1.615.648c-.61 0-1.185-.23-1.617-.647a2.151 2.151 0 010-3.12 2.311 2.311 0 011.617-.647zM20 24.563c.292 0 .585-.108.808-.323a1.077 1.077 0 000-1.561l-8.533-8.238a1.23 1.23 0 00-.043-.04L5.094 7.507a1.172 1.172 0 00-1.616 0 1.077 1.077 0 000 1.56l7.179 6.934.044.04 8.49 8.198c.224.216.516.324.809.324zm64.571 2.207C90.873 26.77 96 21.82 96 15.735c0-6.084-5.127-11.034-11.429-11.034-6.301 0-11.428 4.95-11.428 11.034 0 6.085 5.127 11.035 11.428 11.035zm0-19.862c5.042 0 9.143 3.96 9.143 8.827 0 4.868-4.101 8.828-9.143 8.828-5.04 0-9.142-3.96-9.142-8.828 0-4.867 4.101-8.827 9.142-8.827zM8 76.425c3.78 0 6.857-2.97 6.857-6.62 0-3.651-3.076-6.621-6.857-6.621s-6.858 2.97-6.858 6.62S4.22 76.425 8 76.425zm0-11.034c2.52 0 4.571 1.98 4.571 4.413 0 2.434-2.051 4.414-4.571 4.414-2.52 0-4.572-1.98-4.572-4.414 0-2.433 2.051-4.413 4.572-4.413z" fill="#000"/></svg>