<svg width="99" height="99" fill="none" xmlns="http://www.w3.org/2000/svg"><path d="M50.721 13.589l.001-.001c5.877-.195 10.633 4.415 10.62 10.295v.82l1.555-.051a4.003 4.003 0 014.167 4.039l-.085 41.61c-.005 2.307-1.877 4.239-4.183 4.315l-1.555.052-.002.818c-.012 5.872-4.773 10.804-10.664 11.001-5.877.195-10.633-4.415-10.62-10.295v-.82l-1.555.051a4.003 4.003 0 01-4.167-4.039l.085-41.61c.004-2.306 1.877-4.239 4.183-4.315l1.555-.053.002-.817c.012-5.871 4.772-10.803 10.663-11z" fill="#FF5987"/><path d="M61.325 32.893l-.067 33.502-21.285.704.067-33.5 21.285-.706z" fill="#D0DCE7"/><path d="M78.17 36.676c1.602-1.653 4.193-1.738 5.788-.192 1.596 1.547 1.59 4.14-.011 5.792-1.601 1.652-4.193 1.739-5.789.192-1.596-1.547-1.59-4.14.012-5.792zM8.689 47.083c2.884-2.975 7.549-3.128 10.42-.345 2.87 2.784 2.863 7.45-.021 10.426-2.883 2.973-7.549 3.128-10.42.344-2.871-2.783-2.862-7.451.021-10.425z" fill="#68CA44"/><path d="M73.271 25.545c.482-.497 1.259-.522 1.737-.058.478.464.478 1.241-.004 1.738-.48.495-1.258.52-1.736.057s-.477-1.242.003-1.737zm7.473 25.814c.481-.497 1.258-.521 1.737-.058.478.464.478 1.241-.004 1.738-.48.495-1.258.521-1.736.057-.479-.463-.477-1.242.003-1.737zM36.832 12.272c.481-.497 1.258-.521 1.737-.058.478.464.477 1.241-.004 1.738-.48.495-1.258.521-1.736.057-.479-.463-.477-1.242.003-1.737zm38.667 57.214c.481-.497 1.258-.521 1.737-.058.478.464.477 1.242-.004 1.738-.48.496-1.258.521-1.736.058-.479-.464-.477-1.243.003-1.738zM17.686 34.334c.482-.497 1.259-.521 1.737-.058.478.464.478 1.241-.003 1.738-.48.495-1.259.521-1.737.057-.478-.463-.477-1.242.003-1.737zm6.879 33.363c.482-.497 1.259-.522 1.737-.058.478.464.478 1.241-.003 1.738-.48.495-1.259.52-1.737.057-.479-.463-.477-1.242.003-1.737zm23.102 25.876c.481-.497 1.258-.521 1.736-.058.479.464.479 1.241-.003 1.738-.48.495-1.258.521-1.737.057-.478-.463-.476-1.242.004-1.737zm11.018-9.894c-2.168 2.236-5.049 3.525-8.112 3.627-6.32.21-11.45-4.764-11.437-11.087v-.001l-.738.024a4.79 4.79 0 01-3.528-1.346 4.792 4.792 0 01-1.455-3.485l.084-41.61a5.138 5.138 0 011.47-3.58 5.143 5.143 0 013.534-1.58l.736-.026c.006-3.063 1.205-5.982 3.374-8.22 2.156-2.224 5.02-3.51 8.066-3.624a.746.746 0 01.045-.002c6.32-.21 11.45 4.764 11.437 11.087v.001l.738-.024a4.789 4.789 0 013.527 1.346 4.793 4.793 0 011.456 3.485l-.085 41.61c-.005 2.754-2.25 5.07-5.003 5.16l-.736.026c-.007 3.063-1.204 5.982-3.373 8.219zM36.124 27.34a3.452 3.452 0 00-.987 2.406l-.085 41.61a3.217 3.217 0 003.35 3.247l1.555-.051a.79.79 0 01.579.22.791.791 0 01.238.572l-.001.82a9.432 9.432 0 009.803 9.503c2.626-.088 5.095-1.192 6.954-3.11 1.859-1.917 2.885-4.419 2.89-7.045l.002-.817c0-.452.368-.831.82-.846l1.555-.053c1.85-.061 3.36-1.618 3.363-3.47l.085-41.609a3.218 3.218 0 00-3.349-3.247l-1.557.052a.785.785 0 01-.817-.792l.002-.82a9.431 9.431 0 00-9.804-9.503c-2.626.088-5.094 1.192-6.952 3.107-1.86 1.919-2.886 4.421-2.892 7.047l-.001.818c0 .452-.368.83-.82.846l-1.555.053a3.457 3.457 0 00-2.376 1.062z" fill="#222"/><path d="M61.835 66.956a.848.848 0 01-.58.259l-21.284.703a.785.785 0 01-.817-.792l.067-33.5a.854.854 0 01.82-.846l21.285-.706a.79.79 0 01.579.221.79.79 0 01.238.571l-.067 33.502a.848.848 0 01-.24.588zm-21.042-.703l19.647-.65.064-31.864-19.647.652-.064 31.862zm10.488-43.456a.846.846 0 01-.579.26.785.785 0 01-.817-.793l.018-8.648v-.043l.014-7.236c0-.452.368-.831.82-.846a.785.785 0 01.817.792l-.013 7.278c0 .014 0 .029-.002.043l-.017 8.606a.846.846 0 01-.24.587zM19.665 57.724c-3.198 3.299-8.392 3.47-11.577.383-3.186-3.088-3.175-8.285.023-11.584 3.198-3.3 8.392-3.471 11.577-.383 3.186 3.088 3.175 8.284-.023 11.584zM9.266 47.644C6.708 50.282 6.7 54.44 9.248 56.91c2.548 2.47 6.703 2.333 9.262-.306 2.558-2.64 2.566-6.797.018-9.267-2.548-2.47-6.703-2.333-9.262.306zm75.258-4.808c-1.919 1.98-5.035 2.083-6.946.23-1.912-1.853-1.906-4.97.013-6.95 1.92-1.98 5.036-2.083 6.947-.23 1.911 1.853 1.905 4.97-.014 6.95zm-5.777-5.6c-1.28 1.32-1.284 3.398-.01 4.633 1.275 1.236 3.352 1.167 4.632-.153 1.279-1.32 1.283-3.398.009-4.633-1.274-1.236-3.352-1.167-4.631.153z" fill="#222"/></svg>