<svg width="40" height="40" fill="none" xmlns="http://www.w3.org/2000/svg"><path d="M17.142 25.903l-3.045-3.045C8.993 28.84 4.87 28.483 1.155 33.726l-.053.09c-1.892 3.298 1.784 6.974 5.082 5.082l.09-.053c5.243-3.715 4.887-7.838 10.868-12.942z" fill="#0387D1"/><path d="M20.474 25.095c1.365-1.365 1.224-3.718-.314-5.256-1.538-1.538-3.891-1.678-5.256-.313-1.365 1.365-1.225 3.718.313 5.256 1.538 1.538 3.891 1.678 5.257.313z" fill="#4FC3F7"/><path d="M26.367 26.68c7.206 0 13.047-5.842 13.047-13.048S33.573.585 26.367.585c-7.205 0-13.047 5.841-13.047 13.047S19.162 26.68 26.367 26.68z" fill="#0387D1"/><path d="M26.367 22.41a8.777 8.777 0 100-17.555 8.777 8.777 0 000 17.555z" fill="#4FC3F7"/><path d="M21.723 18.277a8.78 8.78 0 01-.732-11.584A8.778 8.778 0 1033.307 19.01a8.779 8.779 0 01-11.584-.732z" fill="#46ADDB"/><path d="M26.368 4.285a9.303 9.303 0 00-6.621 2.743c-3.651 3.65-3.651 9.59 0 13.242a9.438 9.438 0 007.682 2.682.586.586 0 10-.132-1.165 8.156 8.156 0 01-6.722-2.346c-3.194-3.194-3.194-8.39 0-11.585a8.138 8.138 0 015.793-2.399c2.188 0 4.245.852 5.792 2.4a8.138 8.138 0 012.4 5.792 8.138 8.138 0 01-2.4 5.792 8.141 8.141 0 01-2.676 1.786.586.586 0 10.445 1.084 9.307 9.307 0 003.06-2.041 9.302 9.302 0 002.742-6.621 9.302 9.302 0 00-2.742-6.621 9.302 9.302 0 00-6.621-2.743z" fill="#000"/><path d="M26.367.016a13.543 13.543 0 00-9.639 3.993 13.543 13.543 0 00-3.993 9.64c0 2.094.47 4.117 1.36 5.947-.642.896-.847 2.022-.635 3.12-2.39 2.738-4.528 4.056-6.598 5.331-2.18 1.343-4.24 2.611-6.185 5.356-.904 1.277-.866 3.091-.102 4.41a4.344 4.344 0 006.038 1.527c2.745-1.946 4.013-4.005 5.356-6.186 1.276-2.07 2.594-4.21 5.334-6.6.274.054.551.082.829.082.84 0 1.637-.252 2.287-.714a13.58 13.58 0 005.948 1.36c3.642 0 7.065-1.419 9.64-3.994A13.543 13.543 0 0040 13.648c0-3.64-1.418-7.064-3.993-9.639a13.543 13.543 0 00-9.64-3.993zM10.971 32.54c-1.33 2.16-2.48 4.027-5.016 5.83a3.185 3.185 0 01-4.366-1.144c-.571-.986-.515-2.194.058-3.165 1.803-2.536 3.67-3.686 5.83-5.016C9.4 27.859 11.56 26.529 13.9 23.98a5.017 5.017 0 002.136 2.135c-2.549 2.339-3.88 4.5-5.065 6.424zm7.16-7.074c-.924-.003-1.846-.428-2.5-1.081-.91-.91-1.38-2.354-.874-3.584.34.55.722 1.079 1.143 1.581a13.304 13.304 0 001.734 1.735c.503.42 1.03.802 1.58 1.142-.35.143-.716.208-1.082.207zm17.047-3.006a12.379 12.379 0 01-8.81 3.65 12.4 12.4 0 01-5.715-1.383l-.032-.019a12.46 12.46 0 01-3.064-2.248 12.53 12.53 0 01-3.581-7.49c-.388-3.7.926-7.478 3.58-10.132a12.379 12.379 0 018.811-3.65c3.329 0 6.458 1.296 8.811 3.65a12.379 12.379 0 013.65 8.81 12.38 12.38 0 01-3.65 8.812z" fill="#000"/></svg>