<svg width="32" height="30" fill="none" xmlns="http://www.w3.org/2000/svg"><path d="M11.304 13.394c0 .996.802 1.802 1.79 1.802.99 0 1.79-.806 1.79-1.802 0 .996.803 1.802 1.791 1.802.99 0 1.79-.806 1.79-1.802 0 .996.803 1.802 1.791 1.802.99 0 1.79-.806 1.79-1.802 0 .996.803 1.802 1.79 1.802.255 0 .498-.053.717-.15v9.16H8.797v-9.16c1.171.516 2.507-.346 2.507-1.652z" fill="#C86D36"/><path d="M29.924 4.745c.792 0 1.433.645 1.433 1.442 0 .796-.641 1.441-1.433 1.441-.79 0-1.432-.645-1.432-1.441 0-.797.642-1.442 1.432-1.442zM2.889 11.592c1.088 0 1.97.888 1.97 1.982a1.976 1.976 0 01-1.97 1.982 1.976 1.976 0 01-1.97-1.982c0-1.094.883-1.982 1.97-1.982z" fill="#59D9A4"/><path d="M27.776 29.179v.433H5.574v-.433c0-.756.61-1.37 1.361-1.37h19.48c.752 0 1.36.614 1.36 1.37z" fill="#5C6887"/><path d="M25.985 26.008v1.802H7.365v-1.802h18.62z" fill="#7D89AA"/><path d="M16.675 24.206h7.878v1.802h-7.878v-1.802zm-7.878 0h2.507v1.802H8.797v-1.802z" fill="#A85120"/><path d="M16.675 24.206v1.802h-5.371V18.44h5.371v5.766z" fill="#414A56"/><path d="M21.688 18.8h2.865v2.883h-2.865V18.8z" fill="#94D4FF"/><path d="M18.823 18.8h2.865v2.883h-2.864V18.8z" fill="#BCE4FF"/><path d="M22.404 6.487v.06H10.946v-.06c0-1.161.935-2.102 2.089-2.102h7.281c1.154 0 2.088.94 2.088 2.102z" fill="#68CA44"/><path d="M20.972 6.547l1.074 6.847c0 .996-.8 1.802-1.79 1.802-.988 0-1.79-.806-1.79-1.802l-.359-6.847h2.865zm-5.729 0l-.358 6.847c0 .996-.802 1.802-1.79 1.802-.99 0-1.791-.806-1.791-1.802l1.074-6.847h2.865z" fill="#D0DCE7"/><path d="M24.09 7.515l1.537 5.88c0 .994-.8 1.801-1.79 1.801-.988 0-1.79-.806-1.79-1.802l-1.075-6.847h1.87c.587 0 1.1.398 1.248.968zm-5.982-.968l.358 6.847c0 .996-.802 1.802-1.79 1.802-.99 0-1.791-.806-1.791-1.802l.358-6.847h2.865zm-5.73 0l-1.074 6.847c0 .996-.802 1.802-1.79 1.802a1.796 1.796 0 01-1.791-1.802l1.538-5.88a1.29 1.29 0 011.247-.967h1.87z" fill="#FF5987"/><path d="M30.82 11.592c.297 0 .537.242.537.54 0 .3-.24.541-.537.541a.539.539 0 01-.538-.54.54.54 0 01.538-.54zm-2.865 9.01c.297 0 .537.242.537.54 0 .299-.24.541-.537.541a.54.54 0 01-.537-.54c0-.299.24-.541.537-.541zM25.09 1.501a.54.54 0 01.537.541c0 .298-.24.54-.537.54a.539.539 0 01-.537-.54c0-.298.24-.54.537-.54zM9.334.06c.297 0 .537.242.537.54 0 .299-.24.541-.537.541a.54.54 0 01-.537-.54c0-.299.24-.541.537-.541zM5.037 20.602c.297 0 .537.242.537.54 0 .299-.24.541-.537.541a.54.54 0 01-.537-.54c0-.299.24-.541.537-.541zM2.172 3.664c.298 0 .538.242.538.54 0 .299-.24.541-.538.541a.54.54 0 01-.537-.54c0-.299.24-.541.537-.541zm5.551 10.091a.36.36 0 01-.347-.452l1.538-5.88a1.651 1.651 0 011.594-1.237h.438a.36.36 0 01.358.36.36.36 0 01-.358.361h-.438a.933.933 0 00-.901.7l-1.538 5.879a.358.358 0 01-.346.269zm3.581 0a.359.359 0 01-.354-.417l1.074-6.847a.359.359 0 11.708.112l-1.075 6.847a.359.359 0 01-.353.305zm3.581 0l-.02-.001a.36.36 0 01-.338-.379l.358-6.847a.36.36 0 01.377-.341c.197.01.349.18.338.379l-.358 6.847a.36.36 0 01-.357.341zm3.58 0a.359.359 0 01-.357-.342l-.358-6.847a.36.36 0 01.338-.379.36.36 0 01.377.341l.358 6.847a.36.36 0 01-.358.38zm7.162 0a.359.359 0 01-.346-.27l-1.537-5.878a.934.934 0 00-.901-.7h-.439a.36.36 0 01-.358-.36c0-.2.16-.36.358-.36h.439a1.65 1.65 0 011.594 1.236l1.537 5.88a.36.36 0 01-.347.452zm-3.581 0a.359.359 0 01-.354-.305l-1.074-6.847a.359.359 0 11.707-.112l1.075 6.847a.36.36 0 01-.354.417z" fill="#000"/><path d="M9.513 15.556c-.299 0-.588-.06-.86-.18a2.164 2.164 0 01-1.288-1.982c0-.199.16-.36.358-.36a.36.36 0 01.358.36c0 .573.337 1.092.86 1.322.18.08.373.12.572.12a1.44 1.44 0 001.433-1.442c0-.199.16-.36.358-.36a.36.36 0 01.358.36 2.158 2.158 0 01-2.149 2.162z" fill="#000"/><path d="M13.094 15.556a2.158 2.158 0 01-2.148-2.162c0-.199.16-.36.358-.36a.36.36 0 01.358.36c0 .795.642 1.442 1.432 1.442a1.44 1.44 0 001.433-1.442c0-.199.16-.36.358-.36a.36.36 0 01.358.36 2.158 2.158 0 01-2.149 2.162z" fill="#000"/><path d="M16.675 15.556a2.158 2.158 0 01-2.148-2.162c0-.199.16-.36.358-.36a.36.36 0 01.358.36c0 .795.642 1.442 1.432 1.442a1.44 1.44 0 001.433-1.442c0-.199.16-.36.358-.36a.36.36 0 01.358.36 2.158 2.158 0 01-2.149 2.162z" fill="#000"/><path d="M20.256 15.556a2.158 2.158 0 01-2.149-2.162c0-.199.16-.36.358-.36a.36.36 0 01.359.36c0 .795.642 1.442 1.432 1.442.79 0 1.432-.647 1.432-1.442 0-.199.16-.36.358-.36a.36.36 0 01.358.36 2.158 2.158 0 01-2.148 2.162z" fill="#000"/><path d="M23.837 15.556a2.158 2.158 0 01-2.149-2.162c0-.199.16-.36.358-.36a.36.36 0 01.358.36 1.44 1.44 0 001.433 1.442c.2 0 .392-.04.572-.12.523-.23.86-.749.86-1.322 0-.199.16-.36.358-.36a.36.36 0 01.358.36c0 .86-.506 1.638-1.289 1.982-.27.12-.56.18-.86.18zM8.797 26.368a.36.36 0 01-.358-.36V15.046c0-.199.16-.36.358-.36a.36.36 0 01.358.36v10.962c0 .199-.16.36-.358.36zm15.756 0a.36.36 0 01-.358-.36v-4.325c0-.2.16-.36.358-.36a.36.36 0 01.358.36v4.325c0 .199-.16.36-.358.36z" fill="#000"/><path d="M24.553 19.16a.36.36 0 01-.358-.36v-3.754c0-.199.16-.36.358-.36a.36.36 0 01.358.36V18.8a.36.36 0 01-.358.36zm-7.878 7.208a.36.36 0 01-.358-.36V18.8h-4.655v7.208c0 .199-.16.36-.358.36a.36.36 0 01-.358-.36V18.44c0-.2.16-.36.358-.36h5.371a.36.36 0 01.358.36v7.568c0 .199-.16.36-.358.36zm5.013-4.324h-2.864a.36.36 0 01-.358-.36V18.8c0-.199.16-.36.358-.36h2.864a.36.36 0 01.359.36c0 .2-.16.36-.359.36h-2.506v2.163h2.506a.36.36 0 01.359.36.36.36 0 01-.359.36z" fill="#000"/><path d="M24.553 22.044h-2.865a.36.36 0 01-.358-.36V18.8c0-.199.16-.36.358-.36h2.865a.36.36 0 01.358.36v2.883a.36.36 0 01-.358.36zm-2.506-.721h2.148V19.16h-2.148v2.163zm-10.743 3.243H8.797a.36.36 0 01-.358-.36c0-.2.16-.36.358-.36h2.507a.36.36 0 01.358.36c0 .199-.16.36-.358.36zm13.249 0h-7.878a.36.36 0 01-.358-.36c0-.2.16-.36.358-.36h7.878a.36.36 0 01.358.36c0 .199-.16.36-.358.36zM22.405 6.907h-11.46a.36.36 0 01-.357-.36v-.06a2.458 2.458 0 012.447-2.463h7.281a2.458 2.458 0 012.447 2.463v.06a.36.36 0 01-.358.36zm-11.075-.72h10.69a1.737 1.737 0 00-1.704-1.442h-7.281c-.853 0-1.563.624-1.705 1.441zM25.985 28.17a.36.36 0 01-.358-.36v-1.442H7.723v1.442a.36.36 0 01-.358.36.36.36 0 01-.358-.36v-1.802c0-.2.16-.36.358-.36h18.62a.36.36 0 01.358.36v1.802a.36.36 0 01-.358.36z" fill="#000"/><path d="M27.776 29.972H5.574a.36.36 0 01-.358-.36v-.433c0-.954.771-1.73 1.72-1.73h19.48c.947 0 1.718.776 1.718 1.73v.433a.36.36 0 01-.358.36zm-21.844-.72h21.486v-.073c0-.556-.45-1.009-1.003-1.009H6.935c-.553 0-1.003.453-1.003 1.01v.071zM29.924 7.988c-.987 0-1.79-.808-1.79-1.802 0-.993.803-1.801 1.79-1.801.988 0 1.79.808 1.79 1.801 0 .994-.802 1.802-1.79 1.802zm0-2.883c-.592 0-1.074.485-1.074 1.081a1.08 1.08 0 001.074 1.082 1.08 1.08 0 001.075-1.082c0-.596-.482-1.08-1.075-1.08zM2.889 15.917A2.338 2.338 0 01.56 13.574a2.338 2.338 0 012.328-2.342 2.338 2.338 0 012.327 2.342 2.338 2.338 0 01-2.327 2.343zm0-3.964c-.889 0-1.612.727-1.612 1.621 0 .895.723 1.622 1.612 1.622.888 0 1.611-.727 1.611-1.622 0-.894-.723-1.621-1.611-1.621z" fill="#000"/></svg>