<svg width="43" height="45" fill="none" xmlns="http://www.w3.org/2000/svg"><path d="M38.35 18.734l-10.402-1.512-4.653-9.426c-.734-1.487-2.854-1.487-3.587 0l-4.653 9.426-10.403 1.512c-1.64.238-2.295 2.254-1.108 3.412l7.527 7.337-1.777 10.361c-.28 1.634 1.435 2.88 2.902 2.11l9.305-4.893 9.305 4.892c1.468.772 3.183-.475 2.902-2.109l-1.777-10.36 7.528-7.338c1.187-1.157.532-3.174-1.108-3.412z" fill="#FFCA28"/><path d="M21.501 6.68c-.713 0-1.426.372-1.793 1.116l-4.653 9.426-10.403 1.512c-1.64.238-2.295 2.255-1.108 3.412l7.527 7.337-1.777 10.362c-.28 1.634 1.435 2.88 2.902 2.108l9.305-4.892c-10.59-11.983 0-30.38 0-30.38z" fill="#E6B624"/><path d="M38.438 18.11l-10.075-1.463-4.506-9.13a2.614 2.614 0 00-2.359-1.466 2.614 2.614 0 00-2.358 1.466l-4.506 9.13L4.559 18.11a2.614 2.614 0 00-2.124 1.79 2.614 2.614 0 00.666 2.696l7.29 7.106-1.72 10.035a2.58 2.58 0 00.573 2.133 2.657 2.657 0 003.243.64l9.011-4.738 9.012 4.738a2.646 2.646 0 003.242-.64 2.58 2.58 0 00.574-2.133l-1.72-10.035 7.29-7.106a2.614 2.614 0 00.665-2.696 2.614 2.614 0 00-2.123-1.79zm.578 3.585l-7.527 7.337a.63.63 0 00-.181.558l1.777 10.361c.07.406-.036.8-.296 1.108a1.373 1.373 0 01-1.693.337l-9.304-4.892a.635.635 0 00-.587 0l-9.304 4.892a1.388 1.388 0 01-1.694-.337 1.34 1.34 0 01-.295-1.108L11.69 29.59a.63.63 0 00-.18-.558l-7.53-7.337a1.345 1.345 0 01-.346-1.405 1.345 1.345 0 011.106-.933l10.403-1.511a.63.63 0 00.474-.345l4.652-9.427a1.345 1.345 0 011.23-.764c.533 0 .992.286 1.228.764l4.653 9.427a.63.63 0 00.474.345l10.403 1.511c.528.077.941.426 1.106.933a1.345 1.345 0 01-.347 1.405zM8.933 12.787a.639.639 0 00.575-.369.63.63 0 00-.315-.833L.889 7.835a.63.63 0 00-.518 1.148l8.304 3.75a.614.614 0 00.258.054zM12.587.305a.63.63 0 00-.151.878l3.214 4.554a.64.64 0 00.878.151.63.63 0 00.151-.878L13.465.456a.63.63 0 00-.878-.15zm29.525 7.53l-8.304 3.75a.63.63 0 00-.315.833.637.637 0 00.834.315l8.303-3.75a.63.63 0 00-.518-1.148zM29.533.456L26.318 5.01a.63.63 0 00.152.878.638.638 0 00.878-.151l3.214-4.554a.63.63 0 00-1.03-.727z" fill="#222"/><circle cx="32" cy="35" r="9.5" fill="#F81157" stroke="#222"/></svg>