<svg width="128" height="21" fill="none" xmlns="http://www.w3.org/2000/svg"><g clip-path="url(#clip0)"><path d="M20.482 7.201l-5.797-.827-2.592-5.158c-.41-.814-1.59-.814-2 0L7.502 6.374l-5.797.827c-.914.13-1.28 1.234-.618 1.867l4.195 4.016-.99 5.67c-.156.893.8 1.575 1.617 1.153l5.185-2.677 5.185 2.677c.818.422 1.774-.26 1.617-1.154l-.99-5.67L21.1 9.069c.662-.633.297-1.736-.618-1.867z" fill="#FFCA28"/><path d="M11.093.605c-.397 0-.795.204-1 .61l-2.592 5.16-5.797.826c-.914.13-1.28 1.234-.618 1.867l4.195 4.016-.99 5.67c-.156.893.8 1.575 1.617 1.153l5.185-2.677c-5.901-6.557 0-16.625 0-16.625z" fill="#E6B624"/><path d="M20.533 6.86l-5.613-.8-2.511-4.996a1.46 1.46 0 00-1.314-.802 1.46 1.46 0 00-1.315.802L7.27 6.059l-5.615.801a1.45 1.45 0 00-1.183.98 1.413 1.413 0 00.37 1.475l4.063 3.889-.959 5.491c-.074.426.04.84.32 1.167a1.5 1.5 0 001.807.35l5.022-2.592 5.021 2.592a1.493 1.493 0 001.807-.35c.28-.326.394-.741.32-1.167l-.96-5.491 4.063-3.889a1.41 1.41 0 00.371-1.475 1.45 1.45 0 00-1.183-.98zm.322 1.961l-4.194 4.016a.34.34 0 00-.101.305l.99 5.67a.724.724 0 01-.165.606.775.775 0 01-.943.184l-5.185-2.677a.36.36 0 00-.327 0l-5.185 2.677a.784.784 0 01-.943-.184.724.724 0 01-.165-.606l.99-5.67a.34.34 0 00-.1-.305L1.332 8.82a.727.727 0 01-.194-.768.746.746 0 01.617-.51l5.797-.828a.35.35 0 00.264-.188l2.593-5.159a.75.75 0 01.685-.418.75.75 0 01.684.418l2.593 5.159a.35.35 0 00.264.188l5.797.827a.746.746 0 01.617.51.727.727 0 01-.194.77z" fill="#222"/></g><g clip-path="url(#clip1)"><path d="M46.935 7.201l-5.797-.827-2.592-5.158c-.409-.814-1.59-.814-2 0l-2.592 5.158-5.797.827c-.914.13-1.28 1.234-.617 1.867l4.194 4.016-.99 5.67c-.156.893.8 1.575 1.617 1.153l5.185-2.677 5.185 2.677c.818.422 1.774-.26 1.618-1.154l-.99-5.67 4.194-4.015c.662-.633.297-1.736-.617-1.867z" fill="#FFCA28"/><path d="M37.546.605c-.397 0-.795.204-1 .61l-2.592 5.16-5.797.826c-.914.13-1.28 1.234-.617 1.867l4.194 4.016-.99 5.67c-.156.893.8 1.575 1.617 1.153l5.185-2.677c-5.901-6.557 0-16.625 0-16.625z" fill="#E6B624"/><path d="M46.986 6.86l-5.614-.801-2.511-4.996a1.46 1.46 0 00-1.314-.802 1.46 1.46 0 00-1.315.802l-2.51 4.996-5.615.801a1.45 1.45 0 00-1.183.98 1.413 1.413 0 00.37 1.475l4.064 3.889-.96 5.491c-.074.426.04.84.32 1.167a1.5 1.5 0 001.807.35l5.022-2.592 5.021 2.592a1.493 1.493 0 001.807-.35c.28-.326.394-.741.32-1.167l-.96-5.491L47.8 9.315c.402-.385.544-.95.37-1.475a1.45 1.45 0 00-1.183-.98zm.323 1.961l-4.195 4.016a.34.34 0 00-.101.305l.99 5.67a.724.724 0 01-.164.606.775.775 0 01-.944.184l-5.185-2.677a.36.36 0 00-.327 0l-5.185 2.677a.784.784 0 01-.943-.184.724.724 0 01-.165-.606l.99-5.67a.34.34 0 00-.1-.305L27.785 8.82a.727.727 0 01-.193-.768.746.746 0 01.616-.51l5.797-.828a.35.35 0 00.264-.188l2.593-5.159a.75.75 0 01.685-.418.75.75 0 01.684.418l2.593 5.159a.35.35 0 00.264.188l5.797.827a.746.746 0 01.617.51.727.727 0 01-.194.77z" fill="#222"/></g><g clip-path="url(#clip2)"><path d="M73.39 7.201l-5.798-.827-2.593-5.158c-.408-.814-1.59-.814-1.999 0l-2.592 5.158-5.797.827c-.914.13-1.28 1.234-.618 1.867l4.195 4.016-.99 5.67c-.157.893.8 1.575 1.617 1.153L64 17.23l5.185 2.677c.818.422 1.773-.26 1.617-1.154l-.99-5.67 4.195-4.015c.661-.633.296-1.736-.618-1.867z" fill="#FFCA28"/><path d="M64 .605c-.398 0-.795.204-1 .61l-2.592 5.16-5.797.826c-.914.13-1.28 1.234-.618 1.867l4.195 4.016-.99 5.67c-.157.893.8 1.575 1.617 1.153L64 17.23C58.098 10.673 64 .605 64 .605z" fill="#E6B624"/><path d="M73.44 6.86l-5.615-.801-2.51-4.996A1.46 1.46 0 0064 .261a1.46 1.46 0 00-1.314.802l-2.51 4.996-5.615.801a1.45 1.45 0 00-1.184.98 1.413 1.413 0 00.371 1.475l4.063 3.889-.959 5.491c-.074.426.04.84.32 1.167a1.5 1.5 0 001.807.35L64 17.62l5.022 2.592a1.493 1.493 0 001.807-.35c.28-.326.394-.741.32-1.167l-.96-5.491 4.063-3.889a1.41 1.41 0 00.371-1.475 1.45 1.45 0 00-1.183-.98zm.322 1.961l-4.195 4.016a.34.34 0 00-.1.305l.99 5.67a.724.724 0 01-.165.606.775.775 0 01-.943.184l-5.185-2.677a.36.36 0 00-.327 0l-5.185 2.677a.784.784 0 01-.944-.184.724.724 0 01-.164-.606l.99-5.67a.34.34 0 00-.1-.305L54.237 8.82a.727.727 0 01-.193-.768.746.746 0 01.617-.51l5.797-.828a.35.35 0 00.264-.188l2.593-5.159A.75.75 0 0164 .95a.75.75 0 01.685.418l2.593 5.159a.35.35 0 00.264.188l5.797.827a.746.746 0 01.617.51.727.727 0 01-.194.77z" fill="#222"/></g><g clip-path="url(#clip3)"><path d="M99.843 7.201l-5.797-.827-2.593-5.158c-.409-.814-1.59-.814-1.999 0l-2.592 5.158-5.797.827c-.915.13-1.28 1.234-.618 1.867l4.194 4.016-.99 5.67c-.156.893.8 1.575 1.618 1.153l5.184-2.677 5.186 2.677c.817.422 1.773-.26 1.617-1.154l-.99-5.67 4.194-4.015c.662-.633.297-1.736-.617-1.867z" fill="#FFCA28"/><path d="M90.454.605c-.398 0-.795.204-1 .61l-2.592 5.16-5.797.826c-.915.13-1.28 1.234-.618 1.867l4.194 4.016-.99 5.67c-.156.893.8 1.575 1.618 1.153l5.185-2.677c-5.902-6.557 0-16.625 0-16.625z" fill="#E6B624"/><path d="M99.894 6.86l-5.615-.801-2.51-4.996a1.46 1.46 0 00-1.315-.802 1.46 1.46 0 00-1.314.802l-2.511 4.996-5.615.801a1.45 1.45 0 00-1.183.98 1.413 1.413 0 00.371 1.475l4.063 3.889-.96 5.491c-.074.426.04.84.32 1.167a1.5 1.5 0 001.807.35l5.022-2.592 5.022 2.592a1.493 1.493 0 001.806-.35 1.39 1.39 0 00.32-1.167l-.959-5.491 4.063-3.889c.402-.385.544-.95.371-1.475a1.45 1.45 0 00-1.183-.98zm.322 1.961l-4.195 4.016a.34.34 0 00-.101.305l.99 5.67a.724.724 0 01-.164.606.775.775 0 01-.944.184l-5.185-2.677a.36.36 0 00-.326 0l-5.185 2.677a.784.784 0 01-.944-.184.724.724 0 01-.164-.606l.99-5.67a.34.34 0 00-.101-.305L80.692 8.82a.727.727 0 01-.193-.768.746.746 0 01.616-.51l5.797-.828a.35.35 0 00.265-.188l2.592-5.159a.75.75 0 01.685-.418.75.75 0 01.685.418l2.592 5.159a.35.35 0 00.265.188l5.797.827a.746.746 0 01.616.51.726.726 0 01-.193.77z" fill="#222"/></g><g clip-path="url(#clip4)"><path d="M126.296 7.201l-5.797-.827-2.593-5.158c-.409-.814-1.59-.814-1.999 0l-2.592 5.158-5.797.827c-.915.13-1.28 1.234-.618 1.867l4.195 4.016-.991 5.67c-.156.893.8 1.575 1.618 1.153l5.185-2.677 5.185 2.677c.817.422 1.773-.26 1.617-1.154l-.99-5.67 4.195-4.015c.661-.633.296-1.736-.618-1.867z" fill="#FFCA28"/><path d="M116.907.605c-.398 0-.795.204-1 .61l-2.592 5.16-5.797.826c-.915.13-1.28 1.234-.618 1.867l4.195 4.016-.991 5.67c-.156.893.8 1.575 1.618 1.153l5.185-2.677c-5.902-6.557 0-16.625 0-16.625z" fill="#E6B624"/><path d="M126.347 6.86l-5.615-.801-2.511-4.996a1.458 1.458 0 00-1.314-.802c-.562 0-1.066.307-1.314.802l-2.511 4.996-5.615.801a1.45 1.45 0 00-1.183.98 1.415 1.415 0 00.371 1.475l4.063 3.889-.959 5.491c-.075.426.039.84.319 1.167a1.5 1.5 0 001.807.35l5.022-2.592 5.022 2.592a1.492 1.492 0 001.806-.35 1.39 1.39 0 00.32-1.167l-.959-5.491 4.063-3.889c.402-.385.544-.95.371-1.475a1.45 1.45 0 00-1.183-.98zm.322 1.961l-4.195 4.016a.342.342 0 00-.101.305l.99 5.67a.723.723 0 01-.164.606.776.776 0 01-.944.184l-5.185-2.677a.358.358 0 00-.326 0l-5.185 2.677a.785.785 0 01-.944-.184.722.722 0 01-.164-.606l.99-5.67a.342.342 0 00-.101-.305l-4.195-4.016a.726.726 0 01-.193-.768.746.746 0 01.616-.51l5.797-.828a.35.35 0 00.265-.188l2.592-5.159a.752.752 0 01.685-.418c.297 0 .553.156.685.418l2.592 5.159a.35.35 0 00.265.188l5.797.827a.746.746 0 01.616.51.726.726 0 01-.193.77z" fill="#222"/></g><defs><clipPath id="clip0"><path fill="#fff" d="M0 0h22.187v20.48H0z"/></clipPath><clipPath id="clip1"><path fill="#fff" transform="translate(26.453)" d="M0 0h22.187v20.48H0z"/></clipPath><clipPath id="clip2"><path fill="#fff" transform="translate(52.907)" d="M0 0h22.187v20.48H0z"/></clipPath><clipPath id="clip3"><path fill="#fff" transform="translate(79.36)" d="M0 0h22.187v20.48H0z"/></clipPath><clipPath id="clip4"><path fill="#fff" transform="translate(105.813)" d="M0 0h22.187v20.48H0z"/></clipPath></defs></svg>