<svg width="23" height="21" fill="none" xmlns="http://www.w3.org/2000/svg"><g clip-path="url(#clip0)"><path d="M21.296 7.201l-5.797-.827-2.593-5.158c-.409-.814-1.59-.814-1.999 0L8.315 6.374l-5.797.827c-.915.13-1.28 1.234-.618 1.867l4.195 4.016-.99 5.67c-.157.893.799 1.575 1.617 1.153l5.185-2.677 5.185 2.677c.818.422 1.773-.26 1.617-1.154l-.99-5.67 4.194-4.015c.662-.633.297-1.736-.617-1.867z" fill="#FFCA28"/><path d="M11.907.605c-.398 0-.795.204-1 .61l-2.592 5.16-5.797.826c-.915.13-1.28 1.234-.618 1.867l4.195 4.016-.99 5.67c-.157.893.799 1.575 1.617 1.153l5.185-2.677c-5.902-6.557 0-16.625 0-16.625z" fill="#E6B624"/><path d="M21.347 6.86l-5.615-.801-2.51-4.996a1.46 1.46 0 00-1.315-.802 1.46 1.46 0 00-1.314.802L8.082 6.059l-5.615.801a1.45 1.45 0 00-1.183.98 1.413 1.413 0 00.371 1.475l4.063 3.889-.96 5.491c-.074.426.04.84.32 1.167a1.5 1.5 0 001.807.35l5.022-2.592 5.022 2.592a1.493 1.493 0 001.806-.35 1.39 1.39 0 00.32-1.167l-.959-5.491 4.063-3.889c.402-.385.544-.95.37-1.475a1.45 1.45 0 00-1.182-.98zm.322 1.961l-4.195 4.016a.34.34 0 00-.1.305l.99 5.67a.724.724 0 01-.165.606.775.775 0 01-.944.184l-5.185-2.677a.36.36 0 00-.326 0l-5.185 2.677a.784.784 0 01-.944-.184.724.724 0 01-.164-.606l.99-5.67a.34.34 0 00-.101-.305L2.145 8.82a.727.727 0 01-.193-.768.746.746 0 01.616-.51l5.797-.828a.35.35 0 00.265-.188l2.592-5.159a.75.75 0 01.685-.418.75.75 0 01.685.418l2.592 5.159a.35.35 0 00.265.188l5.797.827a.746.746 0 01.616.51.727.727 0 01-.193.77z" fill="#222"/></g><defs><clipPath id="clip0"><path fill="#fff" transform="translate(.813)" d="M0 0h22.187v20.48H0z"/></clipPath></defs></svg>