<svg width="135" height="135" fill="none" xmlns="http://www.w3.org/2000/svg"><path d="M67.5 1.978c-22.186 0-40.235 18.049-40.235 40.234v35.175c0 10.905 8.841 19.746 19.747 19.746h40.975c10.906 0 19.748-8.84 19.748-19.747V42.212C107.734 20.027 89.685 1.978 67.5 1.978z" fill="#FF9800"/><path d="M37.021 77.386V42.212c0-20.534 15.463-37.523 35.357-39.938a40.47 40.47 0 00-4.878-.296c-22.186 0-40.235 18.049-40.235 40.234v35.175c0 10.905 8.841 19.746 19.747 19.746h9.756c-10.906 0-19.747-8.84-19.747-19.747z" fill="#E68900"/><path d="M31.302 46.422a9.646 9.646 0 00-9.646 9.647 9.646 9.646 0 009.646 9.646h8.013V46.423h-8.013zm72.396 0c5.327 0 9.646 4.319 9.646 9.647 0 5.327-4.319 9.646-9.646 9.646h-8.013V46.423h8.013z" fill="#EF5350"/><path d="M75.856 82.007H59.144V108.2h16.712V82.007z" fill="#FEC297"/><path d="M59.145 96.426a42.84 42.84 0 008.355.821c2.858 0 5.652-.284 8.355-.821v-14.42h-16.71v14.42z" fill="#E3AD87"/><path d="M92.225 36.258v-4.551H78.852c-6.27 0-11.352-5.083-11.352-11.353 0 6.27-5.083 11.353-11.353 11.353H42.774v4.551c0 5.614-4.55 10.164-10.164 10.164v8.026c0 19.269 15.62 34.89 34.89 34.89 19.268 0 34.889-15.621 34.889-34.89v-8.025c-5.613 0-10.164-4.551-10.164-10.165z" fill="#FEC297"/><path d="M54.216 74.737h-3.544a3.154 3.154 0 000 6.308h3.544a3.154 3.154 0 000-6.308z" fill="#EF5350"/><path d="M81.305 103.096a59.382 59.382 0 00-5.45-.242h-16.71a59.38 59.38 0 00-5.45.242l-4.101 16.131L67.5 133.023l17.906-16.291-4.1-13.636z" fill="#E6E6E6"/><path d="M81.305 103.096L67.5 133.022h42.528c0-8.959-3.413-27.533-28.59-29.914l-.133-.012zm-27.654.003c-25.258 2.346-28.68 20.954-28.68 29.923H67.5l-13.805-29.926-.044.003z" fill="#EF5350"/><path d="M53.695 103.095l-.016.002-.028.002c-25.258 2.346-28.68 20.954-28.68 29.923H35.52c0-7.678 2.51-22.418 19.076-27.974l-.9-1.953z" fill="#D44A47"/><path d="M54.595 105.046c2.785-.934 5.968-1.609 9.603-1.947l.044-.004a59.39 59.39 0 015.45-.241H59.144c-.961 0-1.895.021-2.803.061-.664.03-1.31.074-1.947.124-.233.019-.47.035-.7.056l.9 1.951z" fill="#CCC"/><path d="M54.411 54.145a3.468 3.468 0 100-6.935 3.468 3.468 0 000 6.935zm26.178 0a3.467 3.467 0 100-6.935 3.467 3.467 0 000 6.935zm-3.95 9.754a1.978 1.978 0 00-2.6 1.032c-.882 2.047-3.572 3.477-6.539 3.477-2.967 0-5.656-1.43-6.54-3.477a1.977 1.977 0 10-3.63 1.567c1.512 3.508 5.6 5.865 10.17 5.865s8.658-2.357 10.171-5.865a1.978 1.978 0 00-1.032-2.6z" fill="#000"/><path d="M87.987 99.111c11.98 0 21.725-9.746 21.725-21.725V66.011c3.36-2.04 5.609-5.733 5.609-9.943s-2.249-7.903-5.609-9.943v-3.913a42.149 42.149 0 00-10.498-27.828 1.977 1.977 0 10-2.971 2.61 38.199 38.199 0 019.514 25.218v2.415c-1.116-.202-2.239-.182-3.367-.182-4.514 0-8.187-3.673-8.187-8.187v-4.552a1.978 1.978 0 00-1.978-1.977H78.853c-5.17 0-9.375-4.206-9.375-9.375a1.978 1.978 0 00-3.955 0c0 5.17-4.206 9.375-9.375 9.375H42.775a1.978 1.978 0 00-1.978 1.977v4.552c0 4.514-3.672 8.187-8.187 8.187-1.066 0-2.11.003-3.169.15-.066.011-.132.02-.198.032v-2.415c0-21.095 17.162-38.257 38.257-38.257 8.478 0 16.516 2.73 23.246 7.896a1.978 1.978 0 002.408-3.137C85.728 3.014 76.857 0 67.5 0 44.224 0 25.288 18.936 25.288 42.212v3.913c-3.36 2.04-5.61 5.734-5.61 9.943 0 4.21 2.25 7.904 5.61 9.943v11.375c0 11.98 9.745 21.725 21.724 21.725h10.155v1.799a58.815 58.815 0 00-3.648.216l-.05.004c-11.626 1.08-20.13 5.573-25.278 13.356-4.521 6.835-5.197 14.547-5.197 18.536 0 1.093.886 1.978 1.978 1.978h85.056a1.977 1.977 0 001.977-1.978c0-3.982-.673-11.683-5.181-18.513-5.132-7.776-13.61-12.274-25.205-13.37l-.133-.012a59.707 59.707 0 00-3.653-.217v-1.799h10.154zm15.584-37.034a37.139 37.139 0 00.796-7.63v-6.016c.033-.159 1.595.321 1.751.369.251.076.494.174.733.28a7.678 7.678 0 014.515 6.989c0 3.123-1.878 5.814-4.563 7.008a7.657 7.657 0 01-3.105.66h-.512c.142-.55.268-1.104.385-1.66zm.127 5.615c.689 0 1.381-.06 2.059-.182v9.876c0 9.798-7.971 17.77-17.77 17.77H77.834v-5.318c11.046-3.23 19.96-11.502 24.072-22.146h1.793zm-69.11 3.356a36.927 36.927 0 002.876 4.756 3.766 3.766 0 01-2.876-3.653v-1.103zm-5.64-7.684a7.621 7.621 0 01-.754-.288c-2.684-1.195-4.56-3.885-4.56-7.008a7.677 7.677 0 014.513-6.987 7.67 7.67 0 012.486-.65v15.275c0 .046-1.551-.298-1.685-.342zm18.064 31.792c-9.798 0-17.77-7.971-17.77-17.77V67.51a11.46 11.46 0 001.39.161v4.48c0 4.255 3.463 7.717 7.718 7.717h2.472a36.919 36.919 0 0016.345 9.97v5.318H47.012zm2.484-17.265c0-.648.528-1.176 1.176-1.176h3.544a1.177 1.177 0 010 2.352h-3.544a1.177 1.177 0 01-1.175-1.176zm14.914 53.154H27.008c.223-3.773 1.175-9.379 4.481-14.377 4.26-6.441 11.325-10.292 21.004-11.457l11.917 25.834zm18.097-25.834c9.692 1.168 16.759 5.025 21.017 11.476 3.296 4.994 4.245 10.59 4.467 14.358H70.59l11.917-25.834zm-4.203-.331L67.5 128.301l-10.577-22.928-.227-.493a61.649 61.649 0 012.449-.049h16.71c.827 0 1.644.017 2.449.049zm-17.181-4.004V90.762a37.142 37.142 0 0012.755 0v10.114H61.123zm13.973-14.403c-.502.12-1.009.212-1.513.32-3.881.84-8.104.743-11.995.034a32.705 32.705 0 01-10.405-3.805h3.034a5.137 5.137 0 005.13-5.131 5.137 5.137 0 00-5.13-5.131h-3.544a5.138 5.138 0 00-4.734 3.153h-3.367a32.902 32.902 0 01-6.451-11.535 33.002 33.002 0 01-1.533-9.93v-6.209c0 .025 2.112-.537 2.295-.606 4.628-1.757 7.87-6.417 7.87-11.375v-2.574h11.395c4.792 0 9.002-2.543 11.352-6.35 2.35 3.807 6.56 6.35 11.352 6.35h11.396v2.574c0 2.78.991 5.53 2.748 7.682a12.228 12.228 0 007.416 4.299v6.208c0 3.27-.376 6.847-1.532 9.93-3.47 10.941-12.515 19.424-23.784 22.096z" fill="#000"/></svg>