<svg width="30" height="30" fill="none" xmlns="http://www.w3.org/2000/svg"><g clip-path="url(#clip0)"><path d="M24.481 16.239c-.465-.59-.331-.854 0-1.382.006-.006 3.843-5.34 4.238-7.15h.002c.198-.66 0-1.144-.95-1.144h-3.143c-.8 0-1.17.416-1.367.88 0 0-1.601 3.856-3.865 6.354-.731.723-1.067.954-1.467.954-.198 0-.503-.231-.503-.891-.186-6.075.504-7.297-.886-7.297h-4.941c-.503 0-.8.368-.8.712 0 .749 1.131.922 1.248 3.031v4.578c0 3.709-3.92-1.757-5.78-7.113-.31-.86-.613-1.207-1.42-1.207H1.705c-.898 0-1.079.416-1.079.881 0 .822 1.067 4.909 4.969 10.309 2.6 3.686 6.26 5.683 9.591 5.683 2.001 0 2.246-.443 2.246-1.207 0-3.523-.181-3.855.823-3.855.465 0 1.265.231 3.133 2.009 2.136 2.108 2.487 3.052 3.683 3.052h3.144c.896 0 1.35-.444 1.088-1.319-.598-1.838-4.638-5.625-4.82-5.878z" fill="#4B729F"/><path d="M15.181 24.375c4.34 0 2.793-2.747 3.128-3.538-.005-.59-.01-1.157.01-1.502.275.078.924.406 2.264 1.709 2.068 2.087 2.597 3.331 4.268 3.331h3.076c.976 0 1.483-.404 1.737-.742.245-.328.485-.903.222-1.798-.686-2.155-4.688-5.876-4.937-6.269a3.52 3.52 0 01.128-.219h-.002c.79-1.043 3.805-5.56 4.249-7.368a.023.023 0 00.002-.01c.24-.825.02-1.36-.207-1.663-.343-.452-.888-.681-1.624-.681h-3.076c-1.03 0-1.811.519-2.207 1.465-.66 1.681-2.518 5.139-3.91 6.363a80.033 80.033 0 01.008-4.042c.045-1.918.19-3.786-1.801-3.786h-4.835c-1.248 0-2.441 1.362-1.149 2.98 1.13 1.418.406 2.207.65 6.14-.95-1.019-2.64-3.77-3.835-7.286-.335-.951-.843-1.833-2.271-1.833H1.992C.745 5.626 0 6.306 0 7.445c0 2.557 5.661 16.93 15.181 16.93zM5.07 7.501c.271 0 .298 0 .5.571 1.224 3.604 3.968 8.937 5.974 8.937 1.506 0 1.506-1.544 1.506-2.125l-.002-4.628c-.082-1.531-.64-2.293-1.006-2.756l4.385.005c.003.021-.025 5.119.013 6.354 0 1.754 1.392 2.758 3.566.559 2.294-2.59 3.88-6.46 3.944-6.617.093-.225.175-.301.47-.301h3.088c0 .004 0 .008-.002.011-.281 1.313-3.057 5.495-3.986 6.794a.993.993 0 00-.043.063c-.409.667-.741 1.405.056 2.442h.002c.072.088.261.293.536.578.855.882 3.788 3.9 4.047 5.1-.172.027-.36.007-3.266.013-.618 0-1.102-.925-2.948-2.787-1.66-1.615-2.738-2.275-3.72-2.275-1.904 0-1.765 1.546-1.748 3.416.006 2.027-.006 1.386.008 1.514-.112.044-.43.131-1.262.131C7.25 22.5 2.085 9.911 1.886 7.505c.069-.006 1.015-.002 3.183-.004z" fill="#000"/></g><defs><clipPath id="clip0"><path fill="#fff" d="M0 0h30v30H0z"/></clipPath></defs></svg>