<svg width="40" height="40" fill="none" xmlns="http://www.w3.org/2000/svg"><path d="M17.764 26.621l7.478-20.748-12.25-4.416-7.48 20.749 12.252 4.415z" fill="#AED581"/><path d="M14.243 4.121L8.178 20.95l8.33 3.003 6.066-16.829-8.33-3.003z" fill="#66BB6A"/><path d="M15.378 16.444a2.405 2.405 0 100-4.811 2.405 2.405 0 000 4.81z" fill="#AED581"/><path d="M23.77 27.654L36.111 9.377 25.32 2.09 12.978 20.368l10.792 7.287z" fill="#66BB6A"/><path d="M25.879 4.98l-10.01 14.825 7.34 4.956L33.217 9.936l-7.34-4.956z" fill="#AED581"/><path d="M24.544 17.277a2.405 2.405 0 100-4.811 2.405 2.405 0 000 4.81z" fill="#66BB6A"/><path d="M17.677 13.405l-4.7 6.962 5.662 3.823 5.13 3.463 9.619-14.248H17.677z" fill="#58A15B"/><path d="M5.516 22.204l10.1 3.64 4.7-6.303 2.212-6.136H8.687l-3.171 8.8z" fill="#98BA71"/><path d="M8.178 20.95l8.33 3.003 3.802-10.548h-9.413l-2.72 7.546z" fill="#58A15B"/><path d="M17.71 13.448l-.012-.043h-4.64a2.406 2.406 0 104.652.042zm-1.84 6.358l7.338 4.955 7.667-11.356H20.191l-4.322 6.401z" fill="#98BA71"/><path d="M26.95 14.871c0-.552-.187-1.06-.5-1.466h-3.812a2.405 2.405 0 104.312 1.466z" fill="#58A15B"/><path d="M38.078 18.363v-.619a1.995 1.995 0 00-1.995-1.995H.586v2.614l.879.586-.88.586v15.222l.814.586-.813.585v2.615h35.497a1.995 1.995 0 001.995-1.995v-.62l-.879-.585.879-.587v-15.22l-.834-.587.834-.586z" fill="#DE9621"/><path d="M38.787 24.63h-5.975a2.515 2.515 0 000 5.031h5.975a.628.628 0 00.627-.628v-3.775a.628.628 0 00-.627-.627z" fill="#FFCA28"/><path d="M33.13 28.24a1.094 1.094 0 100-2.189 1.094 1.094 0 000 2.189zm-12.627-9.877H18.16a.586.586 0 000 1.172h2.343a.586.586 0 100-1.172zm-9.371 0H8.79a.586.586 0 000 1.172h2.343a.586.586 0 100-1.172zm4.686 0h-2.343a.586.586 0 000 1.172h2.343a.586.586 0 100-1.172zm-9.373 0H4.102a.586.586 0 000 1.172h2.343a.586.586 0 100-1.172zm25.774 1.172h2.343a.586.586 0 100-1.172h-2.343a.586.586 0 000 1.172zm-4.686 0h2.343a.586.586 0 100-1.172h-2.343a.586.586 0 000 1.172zm-2.343-1.172h-2.342a.586.586 0 000 1.172h2.343a.586.586 0 100-1.172zM11.132 34.756H8.79a.586.586 0 100 1.172h2.343a.586.586 0 000-1.172zm4.686 0h-2.343a.586.586 0 100 1.172h2.343a.586.586 0 000-1.172zm15.815.586c0 .324.262.586.586.586h2.343a.586.586 0 000-1.172h-2.343a.586.586 0 00-.586.586zm-1.757-.586h-2.343a.586.586 0 100 1.172h2.343a.586.586 0 000-1.172zm-23.431 0H4.102a.586.586 0 100 1.172h2.343a.586.586 0 000-1.172zm18.745 0h-2.342a.586.586 0 100 1.172h2.343a.586.586 0 000-1.172zm-4.687 0H18.16a.586.586 0 100 1.172h2.343a.586.586 0 000-1.172z" fill="#000"/><path d="M38.786 24.044h-.122v-6.3a2.584 2.584 0 00-2.581-2.581h-3.174l3.686-5.46a.592.592 0 00-.158-.813L25.645 1.604a.586.586 0 00-.814.157l-1.813 2.687L13.19.906a.59.59 0 00-.75.352L11.095 4.99a.586.586 0 001.103.397l1.146-3.18 8.998 3.244-.526.779-7.373-2.657a.59.59 0 00-.75.352l-4.05 11.239h-.969l2.698-7.486a.586.586 0 00-1.102-.398l-2.841 7.884H.586A.586.586 0 000 15.75v22.793c0 .324.262.586.586.586h35.497a2.584 2.584 0 002.58-2.58v-6.301h.123c.67 0 1.214-.545 1.214-1.214v-3.775c0-.67-.544-1.214-1.214-1.214zM25.475 2.903l9.82 6.63-3.8 5.63h-1.1l3.308-4.899a.592.592 0 00-.158-.813l-7.34-4.955a.586.586 0 00-.813.157l-7.095 10.51h-1.1l8.278-12.26zm-.932 8.977a2.995 2.995 0 00-2.977 3.283h-1.855l6.325-9.368 6.367 4.299-3.422 5.069H27.52a2.995 2.995 0 00-2.977-3.283zm1.82 2.991c0 .098-.008.196-.024.292h-3.592a1.818 1.818 0 011.796-2.111c1.003 0 1.82.816 1.82 1.819zM14.596 4.873l6.542 2.357-3.378 5.004a2.999 2.999 0 00-2.382-1.188c-1.913 0-3.37 1.872-2.901 3.726.033.133.076.264.128.39h-1.717l3.708-10.29zM17.04 13.3l-1.256 1.862h-1.837a1.82 1.82 0 01-.333-.678c-.287-1.133.598-2.267 1.765-2.267.723 0 1.374.434 1.661 1.083zm19.043 3.033c.777 0 1.409.633 1.409 1.41v.619h-.586a.586.586 0 100 1.172h.586v4.51h-4.68a3.107 3.107 0 00-3.101 3.1 3.105 3.105 0 003.1 3.102h4.681v4.51h-.586a.586.586 0 000 1.171h.586v.62a1.41 1.41 0 01-1.41 1.408H1.173v-2.028h.586a.586.586 0 000-1.172h-.586v-15.22h.586a.586.586 0 000-1.172h-.586v-2.029h34.91zm2.745 12.7a.042.042 0 01-.042.04h-5.974a1.95 1.95 0 01-1.93-1.928c0-1.064.866-1.93 1.93-1.93h5.974c.023 0 .042.02.042.042v3.775z" fill="#000"/></svg>