<svg width="326" height="88" viewBox="0 0 326 88" fill="none" xmlns="http://www.w3.org/2000/svg">
<path d="M2.52 18C2.172 18 1.89 17.898 1.674 17.694C1.47 17.478 1.368 17.196 1.368 16.848V6.444C1.368 6.108 1.47 5.838 1.674 5.634C1.89 5.418 2.172 5.31 2.52 5.31H9.234C9.57 5.31 9.84 5.394 10.044 5.562C10.248 5.73 10.35 5.952 10.35 6.228C10.35 6.504 10.248 6.732 10.044 6.912C9.84 7.08 9.57 7.164 9.234 7.164H3.654V10.242H6.678C8.058 10.242 9.114 10.56 9.846 11.196C10.59 11.832 10.962 12.768 10.962 14.004C10.962 14.808 10.782 15.51 10.422 16.11C10.074 16.71 9.57 17.178 8.91 17.514C8.262 17.838 7.488 18 6.588 18H2.52ZM6.3 16.2C7.104 16.2 7.716 16.008 8.136 15.624C8.556 15.24 8.766 14.7 8.766 14.004C8.766 13.32 8.568 12.822 8.172 12.51C7.788 12.186 7.188 12.024 6.372 12.024H3.654V16.2H6.3ZM16.8383 18.144C15.9383 18.144 15.1463 17.958 14.4623 17.586C13.7903 17.214 13.2683 16.68 12.8963 15.984C12.5243 15.288 12.3383 14.478 12.3383 13.554C12.3383 12.63 12.5243 11.826 12.8963 11.142C13.2683 10.446 13.7903 9.912 14.4623 9.54C15.1463 9.168 15.9383 8.982 16.8383 8.982C17.7383 8.982 18.5243 9.168 19.1963 9.54C19.8803 9.912 20.4023 10.446 20.7623 11.142C21.1343 11.826 21.3203 12.63 21.3203 13.554C21.3203 14.478 21.1343 15.288 20.7623 15.984C20.4023 16.68 19.8803 17.214 19.1963 17.586C18.5243 17.958 17.7383 18.144 16.8383 18.144ZM16.8203 16.398C17.5523 16.398 18.1103 16.158 18.4943 15.678C18.8783 15.198 19.0703 14.49 19.0703 13.554C19.0703 12.63 18.8783 11.928 18.4943 11.448C18.1103 10.956 17.5583 10.71 16.8383 10.71C16.1183 10.71 15.5603 10.956 15.1643 11.448C14.7803 11.928 14.5883 12.63 14.5883 13.554C14.5883 14.49 14.7803 15.198 15.1643 15.678C15.5483 16.158 16.1003 16.398 16.8203 16.398ZM25.9223 11.79C25.9223 13.626 25.6943 15.03 25.2383 16.002C24.7823 16.962 24.1283 17.646 23.2763 18.054C23.1443 18.114 22.9883 18.144 22.8083 18.144C22.5443 18.144 22.3283 18.066 22.1603 17.91C21.9923 17.742 21.9083 17.532 21.9083 17.28C21.9083 17.1 21.9563 16.932 22.0523 16.776C22.1483 16.608 22.2923 16.47 22.4843 16.362C23.0003 16.074 23.3543 15.594 23.5463 14.922C23.7503 14.25 23.8523 13.224 23.8523 11.844V10.332C23.8403 9.984 23.9303 9.708 24.1223 9.504C24.3143 9.3 24.5783 9.198 24.9143 9.198H29.6663C30.0143 9.186 30.2903 9.276 30.4943 9.468C30.6983 9.66 30.8003 9.924 30.8003 10.26V17.046C30.8003 17.37 30.6983 17.628 30.4943 17.82C30.2903 18.012 30.0143 18.108 29.6663 18.108C29.3303 18.108 29.0603 18.012 28.8563 17.82C28.6523 17.628 28.5503 17.37 28.5503 17.046V10.89H25.9223V11.79ZM40.0579 15.588C40.2619 15.588 40.4239 15.666 40.5439 15.822C40.6759 15.978 40.7419 16.188 40.7419 16.452C40.7419 16.824 40.5199 17.136 40.0759 17.388C39.6679 17.616 39.2059 17.802 38.6899 17.946C38.1739 18.078 37.6819 18.144 37.2139 18.144C35.7979 18.144 34.6759 17.736 33.8479 16.92C33.0199 16.104 32.6059 14.988 32.6059 13.572C32.6059 12.672 32.7859 11.874 33.1459 11.178C33.5059 10.482 34.0099 9.942 34.6579 9.558C35.3179 9.174 36.0619 8.982 36.8899 8.982C37.6819 8.982 38.3719 9.156 38.9599 9.504C39.5479 9.852 40.0039 10.344 40.3279 10.98C40.6519 11.616 40.8139 12.366 40.8139 13.23C40.8139 13.746 40.5859 14.004 40.1299 14.004H34.8199C34.8919 14.832 35.1259 15.444 35.5219 15.84C35.9179 16.224 36.4939 16.416 37.2499 16.416C37.6339 16.416 37.9699 16.368 38.2579 16.272C38.5579 16.176 38.8939 16.044 39.2659 15.876C39.6259 15.684 39.8899 15.588 40.0579 15.588ZM36.9439 10.566C36.3319 10.566 35.8399 10.758 35.4679 11.142C35.1079 11.526 34.8919 12.078 34.8199 12.798H38.8879C38.8639 12.066 38.6839 11.514 38.3479 11.142C38.0119 10.758 37.5439 10.566 36.9439 10.566ZM49.6204 15.588C49.8244 15.588 49.9864 15.666 50.1064 15.822C50.2384 15.978 50.3044 16.188 50.3044 16.452C50.3044 16.824 50.0824 17.136 49.6384 17.388C49.2304 17.616 48.7684 17.802 48.2524 17.946C47.7364 18.078 47.2444 18.144 46.7764 18.144C45.3604 18.144 44.2384 17.736 43.4104 16.92C42.5824 16.104 42.1684 14.988 42.1684 13.572C42.1684 12.672 42.3484 11.874 42.7084 11.178C43.0684 10.482 43.5724 9.942 44.2204 9.558C44.8804 9.174 45.6244 8.982 46.4524 8.982C47.2444 8.982 47.9344 9.156 48.5224 9.504C49.1104 9.852 49.5664 10.344 49.8904 10.98C50.2144 11.616 50.3764 12.366 50.3764 13.23C50.3764 13.746 50.1484 14.004 49.6924 14.004H44.3824C44.4544 14.832 44.6884 15.444 45.0844 15.84C45.4804 16.224 46.0564 16.416 46.8124 16.416C47.1964 16.416 47.5324 16.368 47.8204 16.272C48.1204 16.176 48.4564 16.044 48.8284 15.876C49.1884 15.684 49.4524 15.588 49.6204 15.588ZM46.5064 10.566C45.8944 10.566 45.4024 10.758 45.0304 11.142C44.6704 11.526 44.4544 12.078 44.3824 12.798H48.4504C48.4264 12.066 48.2464 11.514 47.9104 11.142C47.5744 10.758 47.1064 10.566 46.5064 10.566Z" fill="#222222"/>
<path d="M252.318 76.176C252.738 76.332 253.074 76.542 253.326 76.806C253.59 77.07 253.896 77.514 254.244 78.138L255.036 79.506C255.144 79.698 255.198 79.884 255.198 80.064C255.198 80.352 255.084 80.598 254.856 80.802C254.64 80.994 254.382 81.09 254.082 81.09C253.674 81.09 253.362 80.898 253.146 80.514L252.012 78.498C251.76 78.078 251.514 77.784 251.274 77.616C251.034 77.448 250.686 77.364 250.23 77.364H249.528V80.028C249.528 80.364 249.426 80.628 249.222 80.82C249.018 81.012 248.742 81.108 248.394 81.108C248.046 81.108 247.77 81.012 247.566 80.82C247.374 80.628 247.278 80.364 247.278 80.028V73.08C247.278 72.756 247.38 72.498 247.584 72.306C247.788 72.114 248.058 72.018 248.394 72.018C248.742 72.018 249.018 72.114 249.222 72.306C249.426 72.498 249.528 72.756 249.528 73.08V75.69H250.338L252.912 72.486C253.152 72.174 253.434 72.018 253.758 72.018C254.01 72.018 254.226 72.108 254.406 72.288C254.586 72.468 254.676 72.684 254.676 72.936C254.676 73.188 254.58 73.434 254.388 73.674L252.318 76.176ZM260.092 74.79C260.092 76.626 259.864 78.03 259.408 79.002C258.952 79.962 258.298 80.646 257.446 81.054C257.314 81.114 257.158 81.144 256.978 81.144C256.714 81.144 256.498 81.066 256.33 80.91C256.162 80.742 256.078 80.532 256.078 80.28C256.078 80.1 256.126 79.932 256.222 79.776C256.318 79.608 256.462 79.47 256.654 79.362C257.17 79.074 257.524 78.594 257.716 77.922C257.92 77.25 258.022 76.224 258.022 74.844V73.332C258.01 72.984 258.1 72.708 258.292 72.504C258.484 72.3 258.748 72.198 259.084 72.198H263.836C264.184 72.186 264.46 72.276 264.664 72.468C264.868 72.66 264.97 72.924 264.97 73.26V80.046C264.97 80.37 264.868 80.628 264.664 80.82C264.46 81.012 264.184 81.108 263.836 81.108C263.5 81.108 263.23 81.012 263.026 80.82C262.822 80.628 262.72 80.37 262.72 80.046V73.89H260.092V74.79ZM273.112 72.882C273.352 72.546 273.568 72.318 273.76 72.198C273.964 72.078 274.24 72.018 274.588 72.018C274.936 72.018 275.212 72.114 275.416 72.306C275.632 72.498 275.74 72.756 275.74 73.08V80.01C275.74 80.334 275.638 80.598 275.434 80.802C275.242 81.006 274.99 81.108 274.678 81.108C274.354 81.108 274.09 81.006 273.886 80.802C273.694 80.598 273.598 80.334 273.598 80.01V74.934L269.782 80.28C269.554 80.604 269.332 80.826 269.116 80.946C268.912 81.054 268.654 81.108 268.342 81.108C267.994 81.108 267.718 81.012 267.514 80.82C267.31 80.628 267.208 80.364 267.208 80.028V73.098C267.208 72.774 267.304 72.516 267.496 72.324C267.7 72.12 267.964 72.018 268.288 72.018C268.6 72.018 268.852 72.12 269.044 72.324C269.248 72.516 269.35 72.774 269.35 73.098V78.138L273.112 72.882ZM284.986 78.588C285.19 78.588 285.352 78.666 285.472 78.822C285.604 78.978 285.67 79.188 285.67 79.452C285.67 79.824 285.448 80.136 285.004 80.388C284.596 80.616 284.134 80.802 283.618 80.946C283.102 81.078 282.61 81.144 282.142 81.144C280.726 81.144 279.604 80.736 278.776 79.92C277.948 79.104 277.534 77.988 277.534 76.572C277.534 75.672 277.714 74.874 278.074 74.178C278.434 73.482 278.938 72.942 279.586 72.558C280.246 72.174 280.99 71.982 281.818 71.982C282.61 71.982 283.3 72.156 283.888 72.504C284.476 72.852 284.932 73.344 285.256 73.98C285.58 74.616 285.742 75.366 285.742 76.23C285.742 76.746 285.514 77.004 285.058 77.004H279.748C279.82 77.832 280.054 78.444 280.45 78.84C280.846 79.224 281.422 79.416 282.178 79.416C282.562 79.416 282.898 79.368 283.186 79.272C283.486 79.176 283.822 79.044 284.194 78.876C284.554 78.684 284.818 78.588 284.986 78.588ZM281.872 73.566C281.26 73.566 280.768 73.758 280.396 74.142C280.036 74.526 279.82 75.078 279.748 75.798H283.816C283.792 75.066 283.612 74.514 283.276 74.142C282.94 73.758 282.472 73.566 281.872 73.566ZM288.644 81.108C288.308 81.108 288.038 81.012 287.834 80.82C287.63 80.628 287.528 80.37 287.528 80.046V73.08C287.528 72.756 287.63 72.498 287.834 72.306C288.038 72.114 288.308 72.018 288.644 72.018C288.992 72.018 289.268 72.114 289.472 72.306C289.676 72.498 289.778 72.756 289.778 73.08V75.618H293.63V73.08C293.63 72.756 293.732 72.498 293.936 72.306C294.14 72.114 294.41 72.018 294.746 72.018C295.094 72.018 295.37 72.114 295.574 72.306C295.778 72.498 295.88 72.756 295.88 73.08L295.898 79.956C295.898 80.304 295.79 80.586 295.574 80.802C295.37 81.006 295.1 81.108 294.764 81.108C294.416 81.108 294.14 81.006 293.936 80.802C293.732 80.586 293.63 80.304 293.63 79.956V77.364H289.778V80.046C289.778 80.37 289.676 80.628 289.472 80.82C289.268 81.012 288.992 81.108 288.644 81.108ZM301.314 81.108C300.966 81.108 300.69 81.012 300.486 80.82C300.282 80.628 300.18 80.37 300.18 80.046V73.89H298.11C297.846 73.89 297.63 73.812 297.462 73.656C297.306 73.5 297.228 73.296 297.228 73.044C297.228 72.792 297.306 72.588 297.462 72.432C297.63 72.276 297.846 72.198 298.11 72.198H304.5C304.764 72.198 304.974 72.276 305.13 72.432C305.298 72.588 305.382 72.792 305.382 73.044C305.382 73.296 305.298 73.5 305.13 73.656C304.974 73.812 304.764 73.89 304.5 73.89H302.43V80.046C302.43 80.37 302.328 80.628 302.124 80.82C301.92 81.012 301.65 81.108 301.314 81.108ZM310.651 81.144C309.751 81.144 308.959 80.958 308.275 80.586C307.603 80.214 307.081 79.68 306.709 78.984C306.337 78.288 306.151 77.478 306.151 76.554C306.151 75.63 306.337 74.826 306.709 74.142C307.081 73.446 307.603 72.912 308.275 72.54C308.959 72.168 309.751 71.982 310.651 71.982C311.551 71.982 312.337 72.168 313.009 72.54C313.693 72.912 314.215 73.446 314.575 74.142C314.947 74.826 315.133 75.63 315.133 76.554C315.133 77.478 314.947 78.288 314.575 78.984C314.215 79.68 313.693 80.214 313.009 80.586C312.337 80.958 311.551 81.144 310.651 81.144ZM310.633 79.398C311.365 79.398 311.923 79.158 312.307 78.678C312.691 78.198 312.883 77.49 312.883 76.554C312.883 75.63 312.691 74.928 312.307 74.448C311.923 73.956 311.371 73.71 310.651 73.71C309.931 73.71 309.373 73.956 308.977 74.448C308.593 74.928 308.401 75.63 308.401 76.554C308.401 77.49 308.593 78.198 308.977 78.678C309.361 79.158 309.913 79.398 310.633 79.398ZM318.07 81C317.722 81.012 317.446 80.922 317.242 80.73C317.038 80.538 316.936 80.274 316.936 79.938V73.332C316.924 72.984 317.014 72.708 317.206 72.504C317.398 72.3 317.662 72.198 317.998 72.198H321.328C322.324 72.198 323.104 72.396 323.668 72.792C324.244 73.188 324.532 73.746 324.532 74.466C324.532 74.91 324.4 75.312 324.136 75.672C323.872 76.032 323.494 76.296 323.002 76.464C323.566 76.596 323.998 76.836 324.298 77.184C324.61 77.532 324.766 77.976 324.766 78.516C324.766 79.224 324.466 79.818 323.866 80.298C323.278 80.766 322.45 81 321.382 81H318.07ZM320.95 75.798C321.382 75.798 321.718 75.702 321.958 75.51C322.198 75.318 322.318 75.054 322.318 74.718C322.318 74.046 321.856 73.71 320.932 73.71H319.168V75.798H320.95ZM321.004 79.488C322.012 79.488 322.516 79.11 322.516 78.354C322.516 77.598 322.012 77.22 321.004 77.22H319.168V79.488H321.004Z" fill="#222222"/>
<path d="M29.881 79.7165C32.8322 79.7165 34.3078 80.9627 34.3078 83.4551C34.3078 86.0452 32.8322 87.3403 29.881 87.3403H4.94327C1.94288 87.3403 0.442682 86.0452 0.442682 83.4551C0.442682 80.9627 1.94288 79.7165 4.94327 79.7165H12.6164V46.2891L5.53351 50.6141C4.8449 51.0051 4.23006 51.2006 3.68901 51.2006C2.65609 51.2006 1.77072 50.7607 1.03292 49.8811C0.344308 49.0014 0 48.024 0 46.9488C0 45.5316 0.639429 44.432 1.91829 43.6501L13.3542 36.6127C14.8298 35.7331 16.2316 35.2932 17.5597 35.2932C18.9369 35.2932 20.0436 35.7086 20.8798 36.5394C21.716 37.3702 22.1341 38.5187 22.1341 39.9848V79.7165H29.881Z" fill="#F81157"/>
<path d="M59.2904 88C53.1421 88 48.4448 85.752 45.1984 81.2559C41.9521 76.7109 40.3289 70.1134 40.3289 61.4634C40.3289 52.8622 41.9521 46.3135 45.1984 41.8174C48.4448 37.2725 53.1421 35 59.2904 35C65.4388 35 70.1361 37.2725 73.3825 41.8174C76.6288 46.3135 78.252 52.8622 78.252 61.4634C78.252 70.0645 76.6288 76.6376 73.3825 81.1826C70.1361 85.7275 65.4388 88 59.2904 88ZM59.2904 80.5961C62.6351 80.5961 65.0699 79.0811 66.5947 76.0512C68.1195 72.9723 68.8819 68.1097 68.8819 61.4634C68.8819 54.7681 68.1195 49.9299 66.5947 46.9488C65.0699 43.9189 62.6351 42.4039 59.2904 42.4039C55.9457 42.4039 53.511 43.9189 51.9862 46.9488C50.4614 49.9788 49.699 54.817 49.699 61.4634C49.699 68.1097 50.4614 72.9723 51.9862 76.0512C53.511 79.0811 55.9457 80.5961 59.2904 80.5961Z" fill="#F81157"/>
<path d="M123.56 88C117.412 88 112.714 85.752 109.468 81.2559C106.222 76.7109 104.598 70.1134 104.598 61.4634C104.598 52.8622 106.222 46.3135 109.468 41.8174C112.714 37.2725 117.412 35 123.56 35C129.708 35 134.406 37.2725 137.652 41.8174C140.898 46.3135 142.521 52.8622 142.521 61.4634C142.521 70.0645 140.898 76.6376 137.652 81.1826C134.406 85.7275 129.708 88 123.56 88ZM123.56 80.5961C126.905 80.5961 129.339 79.0811 130.864 76.0512C132.389 72.9723 133.151 68.1097 133.151 61.4634C133.151 54.7681 132.389 49.9299 130.864 46.9488C129.339 43.9189 126.905 42.4039 123.56 42.4039C120.215 42.4039 117.78 43.9189 116.256 46.9488C114.731 49.9788 113.968 54.817 113.968 61.4634C113.968 68.1097 114.731 72.9723 116.256 76.0512C117.78 79.0811 120.215 80.5961 123.56 80.5961Z" fill="#F81157"/>
<path d="M167.799 88C161.651 88 156.954 85.752 153.707 81.2559C150.461 76.7109 148.838 70.1134 148.838 61.4634C148.838 52.8622 150.461 46.3135 153.707 41.8174C156.954 37.2725 161.651 35 167.799 35C173.948 35 178.645 37.2725 181.891 41.8174C185.138 46.3135 186.761 52.8622 186.761 61.4634C186.761 70.0645 185.138 76.6376 181.891 81.1826C178.645 85.7275 173.948 88 167.799 88ZM167.799 80.5961C171.144 80.5961 173.579 79.0811 175.103 76.0512C176.628 72.9723 177.391 68.1097 177.391 61.4634C177.391 54.7681 176.628 49.9299 175.103 46.9488C173.579 43.9189 171.144 42.4039 167.799 42.4039C164.454 42.4039 162.02 43.9189 160.495 46.9488C158.97 49.9788 158.208 54.817 158.208 61.4634C158.208 68.1097 158.97 72.9723 160.495 76.0512C162.02 79.0811 164.454 80.5961 167.799 80.5961Z" fill="#F81157"/>
<path d="M212.038 88C205.89 88 201.193 85.752 197.946 81.2559C194.7 76.7109 193.077 70.1134 193.077 61.4634C193.077 52.8622 194.7 46.3135 197.946 41.8174C201.193 37.2725 205.89 35 212.038 35C218.187 35 222.884 37.2725 226.131 41.8174C229.377 46.3135 231 52.8622 231 61.4634C231 70.0645 229.377 76.6376 226.131 81.1826C222.884 85.7275 218.187 88 212.038 88ZM212.038 80.5961C215.383 80.5961 217.818 79.0811 219.343 76.0512C220.868 72.9723 221.63 68.1097 221.63 61.4634C221.63 54.7681 220.868 49.9299 219.343 46.9488C217.818 43.9189 215.383 42.4039 212.038 42.4039C208.694 42.4039 206.259 43.9189 204.734 46.9488C203.209 49.9788 202.447 54.817 202.447 61.4634C202.447 68.1097 203.209 72.9723 204.734 76.0512C206.259 79.0811 208.694 80.5961 212.038 80.5961Z" fill="#F81157"/>
</svg>
