<svg width="124" height="88" viewBox="0 0 124 88" fill="none" xmlns="http://www.w3.org/2000/svg">
<path d="M11.286 5.22C11.634 5.22 11.91 5.328 12.114 5.544C12.318 5.748 12.42 6.024 12.42 6.372V16.938C12.42 17.286 12.312 17.568 12.096 17.784C11.892 18 11.622 18.108 11.286 18.108C10.938 18.108 10.662 18 10.458 17.784C10.254 17.568 10.152 17.286 10.152 16.938V12.492H3.654V16.938C3.654 17.286 3.546 17.568 3.33 17.784C3.126 18 2.85 18.108 2.502 18.108C2.166 18.108 1.89 18 1.674 17.784C1.47 17.568 1.368 17.286 1.368 16.938V6.372C1.368 6.024 1.47 5.748 1.674 5.544C1.878 5.328 2.154 5.22 2.502 5.22C2.85 5.22 3.126 5.328 3.33 5.544C3.546 5.748 3.654 6.024 3.654 6.372V10.62H10.152V6.372C10.152 6.024 10.254 5.748 10.458 5.544C10.662 5.328 10.938 5.22 11.286 5.22ZM18.7673 8.982C19.9913 8.982 20.8973 9.288 21.4853 9.9C22.0853 10.5 22.3853 11.418 22.3853 12.654V17.046C22.3853 17.37 22.2893 17.628 22.0973 17.82C21.9053 18 21.6413 18.09 21.3053 18.09C20.9933 18.09 20.7353 17.994 20.5313 17.802C20.3393 17.61 20.2433 17.358 20.2433 17.046V16.65C20.0393 17.118 19.7153 17.484 19.2713 17.748C18.8393 18.012 18.3353 18.144 17.7593 18.144C17.1713 18.144 16.6373 18.024 16.1572 17.784C15.6773 17.544 15.2993 17.214 15.0233 16.794C14.7473 16.374 14.6093 15.906 14.6093 15.39C14.6093 14.742 14.7713 14.232 15.0953 13.86C15.4313 13.488 15.9713 13.218 16.7153 13.05C17.4593 12.882 18.4853 12.798 19.7933 12.798H20.2433V12.384C20.2433 11.796 20.1173 11.37 19.8653 11.106C19.6133 10.83 19.2053 10.692 18.6413 10.692C18.2933 10.692 17.9393 10.746 17.5793 10.854C17.2193 10.95 16.7933 11.094 16.3013 11.286C15.9893 11.442 15.7613 11.52 15.6173 11.52C15.4013 11.52 15.2213 11.442 15.0773 11.286C14.9453 11.13 14.8793 10.926 14.8793 10.674C14.8793 10.47 14.9273 10.296 15.0233 10.152C15.1313 9.996 15.3053 9.852 15.5453 9.72C15.9653 9.492 16.4633 9.312 17.0393 9.18C17.6273 9.048 18.2033 8.982 18.7673 8.982ZM18.2093 16.524C18.8093 16.524 19.2953 16.326 19.6673 15.93C20.0513 15.522 20.2433 15 20.2433 14.364V13.986H19.9193C19.1153 13.986 18.4913 14.022 18.0473 14.094C17.6033 14.166 17.2853 14.292 17.0933 14.472C16.9013 14.652 16.8053 14.898 16.8053 15.21C16.8053 15.594 16.9373 15.912 17.2013 16.164C17.4773 16.404 17.8133 16.524 18.2093 16.524ZM33.258 9.018C33.606 9.018 33.882 9.114 34.086 9.306C34.29 9.498 34.392 9.756 34.392 10.08V17.064C34.392 17.364 34.296 17.616 34.104 17.82C33.912 18.012 33.666 18.108 33.366 18.108C33.066 18.108 32.814 18.012 32.61 17.82C32.418 17.616 32.322 17.364 32.322 17.064L32.34 12.528L30.54 15.876C30.432 16.068 30.288 16.224 30.108 16.344C29.928 16.452 29.73 16.506 29.514 16.506C29.058 16.506 28.71 16.296 28.47 15.876L26.67 12.528L26.688 17.064C26.688 17.364 26.586 17.616 26.382 17.82C26.19 18.012 25.944 18.108 25.644 18.108C25.344 18.108 25.098 18.012 24.906 17.82C24.714 17.616 24.618 17.364 24.618 17.064V10.152C24.618 9.804 24.708 9.528 24.888 9.324C25.08 9.12 25.344 9.018 25.68 9.018C26.004 9.018 26.274 9.072 26.49 9.18C26.706 9.276 26.898 9.486 27.066 9.81L29.514 14.436L31.872 9.954C32.064 9.606 32.256 9.366 32.448 9.234C32.652 9.09 32.922 9.018 33.258 9.018ZM41.6005 20.394C41.2885 20.394 41.0365 20.298 40.8445 20.106C40.6645 19.926 40.5745 19.668 40.5745 19.332V17.442C40.5625 17.094 40.6525 16.818 40.8445 16.614C41.0365 16.41 41.2885 16.308 41.6005 16.308H41.7985C42.1465 15.684 42.3865 14.982 42.5185 14.202C42.6625 13.422 42.7345 12.498 42.7345 11.43V10.332C42.7225 9.984 42.8125 9.708 43.0045 9.504C43.1965 9.3 43.4605 9.198 43.7965 9.198H48.2425C48.5905 9.186 48.8665 9.276 49.0705 9.468C49.2745 9.66 49.3765 9.924 49.3765 10.26V16.308H49.6645C50.0125 16.296 50.2885 16.386 50.4925 16.578C50.6965 16.77 50.7985 17.034 50.7985 17.37V19.332C50.7985 19.668 50.7025 19.926 50.5105 20.106C50.3305 20.298 50.0845 20.394 49.7725 20.394C49.4485 20.394 49.1965 20.298 49.0165 20.106C48.8365 19.926 48.7465 19.668 48.7465 19.332V18H42.6445V19.332C42.6445 19.668 42.5485 19.926 42.3565 20.106C42.1765 20.298 41.9245 20.394 41.6005 20.394ZM47.1445 10.89H44.6785V11.43C44.6785 12.57 44.5885 13.56 44.4085 14.4C44.2405 15.24 44.0005 15.876 43.6885 16.308H47.1445V10.89ZM56.1254 18.144C55.2254 18.144 54.4334 17.958 53.7494 17.586C53.0774 17.214 52.5554 16.68 52.1834 15.984C51.8114 15.288 51.6254 14.478 51.6254 13.554C51.6254 12.63 51.8114 11.826 52.1834 11.142C52.5554 10.446 53.0774 9.912 53.7494 9.54C54.4334 9.168 55.2254 8.982 56.1254 8.982C57.0254 8.982 57.8114 9.168 58.4834 9.54C59.1674 9.912 59.6894 10.446 60.0494 11.142C60.4214 11.826 60.6074 12.63 60.6074 13.554C60.6074 14.478 60.4214 15.288 60.0494 15.984C59.6894 16.68 59.1674 17.214 58.4834 17.586C57.8114 17.958 57.0254 18.144 56.1254 18.144ZM56.1074 16.398C56.8394 16.398 57.3974 16.158 57.7814 15.678C58.1654 15.198 58.3574 14.49 58.3574 13.554C58.3574 12.63 58.1654 11.928 57.7814 11.448C57.3974 10.956 56.8454 10.71 56.1254 10.71C55.4054 10.71 54.8474 10.956 54.4514 11.448C54.0674 11.928 53.8754 12.63 53.8754 13.554C53.8754 14.49 54.0674 15.198 54.4514 15.678C54.8354 16.158 55.3874 16.398 56.1074 16.398ZM63.5449 18C63.1969 18.012 62.9209 17.922 62.7169 17.73C62.5129 17.538 62.4109 17.274 62.4109 16.938V10.332C62.3989 9.984 62.4889 9.708 62.6809 9.504C62.8729 9.3 63.1369 9.198 63.4729 9.198H66.8029C67.7989 9.198 68.5789 9.396 69.1429 9.792C69.7189 10.188 70.0069 10.746 70.0069 11.466C70.0069 11.91 69.8749 12.312 69.6109 12.672C69.3469 13.032 68.9689 13.296 68.4769 13.464C69.0409 13.596 69.4729 13.836 69.7729 14.184C70.0849 14.532 70.2409 14.976 70.2409 15.516C70.2409 16.224 69.9409 16.818 69.3409 17.298C68.7529 17.766 67.9249 18 66.8569 18H63.5449ZM66.4249 12.798C66.8569 12.798 67.1929 12.702 67.4329 12.51C67.6729 12.318 67.7929 12.054 67.7929 11.718C67.7929 11.046 67.3309 10.71 66.4069 10.71H64.6429V12.798H66.4249ZM66.4789 16.488C67.4869 16.488 67.9909 16.11 67.9909 15.354C67.9909 14.598 67.4869 14.22 66.4789 14.22H64.6429V16.488H66.4789ZM79.0637 15.588C79.2677 15.588 79.4297 15.666 79.5497 15.822C79.6817 15.978 79.7477 16.188 79.7477 16.452C79.7477 16.824 79.5257 17.136 79.0817 17.388C78.6737 17.616 78.2117 17.802 77.6957 17.946C77.1797 18.078 76.6877 18.144 76.2197 18.144C74.8037 18.144 73.6817 17.736 72.8537 16.92C72.0257 16.104 71.6117 14.988 71.6117 13.572C71.6117 12.672 71.7917 11.874 72.1517 11.178C72.5117 10.482 73.0157 9.942 73.6637 9.558C74.3237 9.174 75.0677 8.982 75.8957 8.982C76.6877 8.982 77.3777 9.156 77.9657 9.504C78.5537 9.852 79.0097 10.344 79.3337 10.98C79.6577 11.616 79.8197 12.366 79.8197 13.23C79.8197 13.746 79.5917 14.004 79.1357 14.004H73.8257C73.8977 14.832 74.1317 15.444 74.5277 15.84C74.9237 16.224 75.4997 16.416 76.2557 16.416C76.6397 16.416 76.9757 16.368 77.2637 16.272C77.5637 16.176 77.8997 16.044 78.2717 15.876C78.6317 15.684 78.8957 15.588 79.0637 15.588ZM75.9497 10.566C75.3377 10.566 74.8457 10.758 74.4737 11.142C74.1137 11.526 73.8977 12.078 73.8257 12.798H77.8937C77.8697 12.066 77.6897 11.514 77.3537 11.142C77.0177 10.758 76.5497 10.566 75.9497 10.566ZM86.7182 8.982C87.4742 8.982 88.1462 9.174 88.7342 9.558C89.3342 9.942 89.7962 10.488 90.1202 11.196C90.4562 11.892 90.6242 12.696 90.6242 13.608C90.6242 14.52 90.4562 15.318 90.1202 16.002C89.7962 16.686 89.3402 17.214 88.7522 17.586C88.1642 17.958 87.4862 18.144 86.7182 18.144C86.0942 18.144 85.5362 18.012 85.0442 17.748C84.5522 17.484 84.1742 17.118 83.9102 16.65V20.322C83.9102 20.634 83.8082 20.88 83.6042 21.06C83.4002 21.24 83.1302 21.33 82.7942 21.33C82.4582 21.33 82.1822 21.234 81.9662 21.042C81.7622 20.85 81.6602 20.598 81.6602 20.286V10.08C81.6602 9.756 81.7562 9.498 81.9482 9.306C82.1522 9.114 82.4222 9.018 82.7582 9.018C83.0942 9.018 83.3642 9.114 83.5682 9.306C83.7722 9.498 83.8742 9.756 83.8742 10.08V10.53C84.1382 10.038 84.5162 9.66 85.0082 9.396C85.5122 9.12 86.0822 8.982 86.7182 8.982ZM86.1242 16.398C86.8322 16.398 87.3842 16.158 87.7802 15.678C88.1762 15.186 88.3742 14.496 88.3742 13.608C88.3742 12.696 88.1762 11.988 87.7802 11.484C87.3842 10.98 86.8322 10.728 86.1242 10.728C85.4042 10.728 84.8462 10.974 84.4502 11.466C84.0662 11.958 83.8742 12.66 83.8742 13.572C83.8742 14.472 84.0662 15.168 84.4502 15.66C84.8462 16.152 85.4042 16.398 86.1242 16.398ZM98.8788 18.108C98.5308 18.108 98.2548 18.012 98.0508 17.82C97.8588 17.628 97.7628 17.364 97.7628 17.028V15.03H97.1508C96.3588 15.03 95.7528 15.348 95.3328 15.984L94.1088 17.712C93.8568 18.072 93.5328 18.252 93.1368 18.252C92.8608 18.252 92.6148 18.156 92.3988 17.964C92.1948 17.772 92.0928 17.538 92.0928 17.262C92.0928 17.022 92.1588 16.806 92.2908 16.614L92.6868 16.002C92.9748 15.558 93.2868 15.186 93.6228 14.886C93.9708 14.586 94.3188 14.394 94.6668 14.31C93.9228 14.142 93.3648 13.854 92.9928 13.446C92.6328 13.026 92.4528 12.51 92.4528 11.898C92.4528 11.046 92.7288 10.386 93.2808 9.918C93.8448 9.438 94.6188 9.198 95.6028 9.198H98.8788C99.2148 9.186 99.4848 9.276 99.6888 9.468C99.8928 9.66 99.9948 9.918 99.9948 10.242V17.028C99.9948 17.364 99.8928 17.628 99.6888 17.82C99.4968 18.012 99.2268 18.108 98.8788 18.108ZM97.7628 10.764H96.1428C95.6268 10.764 95.2308 10.872 94.9548 11.088C94.6908 11.292 94.5588 11.628 94.5588 12.096C94.5588 12.588 94.7088 12.942 95.0088 13.158C95.3208 13.374 95.7048 13.482 96.1608 13.482H97.7628V10.764ZM110.163 18.144C108.951 18.144 107.973 17.808 107.229 17.136C106.497 16.464 106.059 15.534 105.915 14.346H104.421V17.046C104.421 17.37 104.319 17.628 104.115 17.82C103.923 18.012 103.659 18.108 103.323 18.108C102.987 18.108 102.717 18.012 102.513 17.82C102.321 17.628 102.225 17.37 102.225 17.046V10.08C102.225 9.756 102.321 9.498 102.513 9.306C102.717 9.114 102.987 9.018 103.323 9.018C103.659 9.018 103.923 9.114 104.115 9.306C104.319 9.498 104.421 9.756 104.421 10.08V12.654H105.915C106.083 11.49 106.533 10.59 107.265 9.954C108.009 9.306 108.975 8.982 110.163 8.982C111.519 8.982 112.581 9.396 113.349 10.224C114.129 11.04 114.519 12.15 114.519 13.554C114.519 14.97 114.129 16.092 113.349 16.92C112.581 17.736 111.519 18.144 110.163 18.144ZM110.163 16.398C110.883 16.398 111.411 16.164 111.747 15.696C112.095 15.216 112.269 14.502 112.269 13.554C112.269 11.658 111.567 10.71 110.163 10.71C108.759 10.71 108.057 11.658 108.057 13.554C108.057 14.502 108.225 15.216 108.561 15.696C108.909 16.164 109.443 16.398 110.163 16.398ZM119.456 18.108C119.108 18.108 118.832 18.012 118.628 17.82C118.424 17.628 118.322 17.37 118.322 17.046V10.89H116.252C115.988 10.89 115.772 10.812 115.604 10.656C115.448 10.5 115.37 10.296 115.37 10.044C115.37 9.792 115.448 9.588 115.604 9.432C115.772 9.276 115.988 9.198 116.252 9.198H122.642C122.906 9.198 123.116 9.276 123.272 9.432C123.44 9.588 123.524 9.792 123.524 10.044C123.524 10.296 123.44 10.5 123.272 10.656C123.116 10.812 122.906 10.89 122.642 10.89H120.572V17.046C120.572 17.37 120.47 17.628 120.266 17.82C120.062 18.012 119.792 18.108 119.456 18.108Z" fill="#222222"/>
<path d="M96.266 74.79C96.266 76.626 96.038 78.03 95.582 79.002C95.126 79.962 94.472 80.646 93.62 81.054C93.488 81.114 93.332 81.144 93.152 81.144C92.888 81.144 92.672 81.066 92.504 80.91C92.336 80.742 92.252 80.532 92.252 80.28C92.252 80.1 92.3 79.932 92.396 79.776C92.492 79.608 92.636 79.47 92.828 79.362C93.344 79.074 93.698 78.594 93.89 77.922C94.094 77.25 94.196 76.224 94.196 74.844V73.332C94.184 72.984 94.274 72.708 94.466 72.504C94.658 72.3 94.922 72.198 95.258 72.198H100.01C100.358 72.186 100.634 72.276 100.838 72.468C101.042 72.66 101.144 72.924 101.144 73.26V80.046C101.144 80.37 101.042 80.628 100.838 80.82C100.634 81.012 100.358 81.108 100.01 81.108C99.674 81.108 99.404 81.012 99.2 80.82C98.996 80.628 98.894 80.37 98.894 80.046V73.89H96.266V74.79ZM110.402 78.588C110.606 78.588 110.768 78.666 110.888 78.822C111.02 78.978 111.086 79.188 111.086 79.452C111.086 79.824 110.864 80.136 110.42 80.388C110.012 80.616 109.55 80.802 109.034 80.946C108.518 81.078 108.026 81.144 107.558 81.144C106.142 81.144 105.02 80.736 104.192 79.92C103.364 79.104 102.95 77.988 102.95 76.572C102.95 75.672 103.13 74.874 103.49 74.178C103.85 73.482 104.354 72.942 105.002 72.558C105.662 72.174 106.406 71.982 107.234 71.982C108.026 71.982 108.716 72.156 109.304 72.504C109.892 72.852 110.348 73.344 110.672 73.98C110.996 74.616 111.158 75.366 111.158 76.23C111.158 76.746 110.93 77.004 110.474 77.004H105.164C105.236 77.832 105.47 78.444 105.866 78.84C106.262 79.224 106.838 79.416 107.594 79.416C107.978 79.416 108.314 79.368 108.602 79.272C108.902 79.176 109.238 79.044 109.61 78.876C109.97 78.684 110.234 78.588 110.402 78.588ZM107.288 73.566C106.676 73.566 106.184 73.758 105.812 74.142C105.452 74.526 105.236 75.078 105.164 75.798H109.232C109.208 75.066 109.028 74.514 108.692 74.142C108.356 73.758 107.888 73.566 107.288 73.566ZM116.007 81.108C115.659 81.108 115.383 81.012 115.179 80.82C114.975 80.628 114.873 80.37 114.873 80.046V73.89H112.803C112.539 73.89 112.323 73.812 112.155 73.656C111.999 73.5 111.921 73.296 111.921 73.044C111.921 72.792 111.999 72.588 112.155 72.432C112.323 72.276 112.539 72.198 112.803 72.198H119.193C119.457 72.198 119.667 72.276 119.823 72.432C119.991 72.588 120.075 72.792 120.075 73.044C120.075 73.296 119.991 73.5 119.823 73.656C119.667 73.812 119.457 73.89 119.193 73.89H117.123V80.046C117.123 80.37 117.021 80.628 116.817 80.82C116.613 81.012 116.343 81.108 116.007 81.108Z" fill="#222222"/>
<path d="M29.7008 79.7326C32.6342 79.7326 34.1009 80.9875 34.1009 83.4972C34.1009 86.1054 32.6342 87.4095 29.7008 87.4095H4.91346C1.93116 87.4095 0.440011 86.1054 0.440011 83.4972C0.440011 80.9875 1.93116 79.7326 4.91346 79.7326H12.5403V46.0724L5.50014 50.4276C4.81568 50.8213 4.20455 51.0181 3.66676 51.0181C2.64007 51.0181 1.76004 50.5752 1.02669 49.6894C0.342231 48.8036 0 47.8194 0 46.7368C0 45.3097 0.635572 44.2024 1.90672 43.415L13.2737 36.3287C14.7404 35.4429 16.1337 35 17.4538 35C18.8227 35 19.9227 35.4183 20.7539 36.2549C21.585 37.0915 22.0006 38.2479 22.0006 39.7242V79.7326H29.7008Z" fill="#015AFE"/>
<path d="M61.6463 54.1184C64.873 54.1184 67.7086 54.8319 70.1531 56.2591C72.6465 57.637 74.5777 59.5808 75.9466 62.0905C77.3155 64.6003 78 67.4791 78 70.727C78 74.1226 77.2178 77.1244 75.6533 79.7326C74.1377 82.3408 71.9621 84.383 69.1264 85.8593C66.3397 87.2864 63.113 88 59.4462 88C56.415 88 53.4327 87.5079 50.4993 86.5237C47.6148 85.4903 45.1458 84.1124 43.0925 82.39C41.968 81.4058 41.4057 80.2493 41.4057 78.9206C41.4057 77.838 41.6991 76.9276 42.2858 76.1894C42.9213 75.402 43.6547 75.0084 44.4858 75.0084C44.9747 75.0084 45.4392 75.1068 45.8792 75.3036C46.3192 75.4513 46.8326 75.7219 47.4192 76.1156C49.3748 77.4935 51.2816 78.5515 53.1394 79.2897C54.9972 80.0279 56.9773 80.3969 59.0795 80.3969C62.3063 80.3969 64.7752 79.585 66.4864 77.961C68.1975 76.3371 69.0531 74.0241 69.0531 71.0223C69.0531 68.1189 68.1731 65.8306 66.413 64.1574C64.7019 62.435 62.3307 61.5738 59.2995 61.5738C57.3928 61.5738 55.6817 61.8445 54.1661 62.3858C52.6994 62.9271 51.1838 63.8375 49.6193 65.117C48.6904 65.7567 47.737 66.0766 46.7592 66.0766C45.7814 66.0766 44.9503 65.7813 44.2658 65.1908C43.5814 64.6003 43.2391 63.8129 43.2391 62.8287V39.7981C43.2391 38.4201 43.6302 37.3375 44.4125 36.5501C45.1947 35.7628 46.2948 35.3691 47.7126 35.3691H72.1332C75.0666 35.3691 76.5333 36.5994 76.5333 39.0599C76.5333 41.5204 75.0666 42.7507 72.1332 42.7507H52.4794V56.7758C54.9728 55.0042 58.0284 54.1184 61.6463 54.1184Z" fill="#015AFE"/>
</svg>
