<svg width="257" height="88" viewBox="0 0 257 88" fill="none" xmlns="http://www.w3.org/2000/svg">
<path d="M11.286 5.22C11.634 5.22 11.91 5.328 12.114 5.544C12.318 5.748 12.42 6.024 12.42 6.372V16.938C12.42 17.286 12.312 17.568 12.096 17.784C11.892 18 11.622 18.108 11.286 18.108C10.938 18.108 10.662 18 10.458 17.784C10.254 17.568 10.152 17.286 10.152 16.938V12.492H3.654V16.938C3.654 17.286 3.546 17.568 3.33 17.784C3.126 18 2.85 18.108 2.502 18.108C2.166 18.108 1.89 18 1.674 17.784C1.47 17.568 1.368 17.286 1.368 16.938V6.372C1.368 6.024 1.47 5.748 1.674 5.544C1.878 5.328 2.154 5.22 2.502 5.22C2.85 5.22 3.126 5.328 3.33 5.544C3.546 5.748 3.654 6.024 3.654 6.372V10.62H10.152V6.372C10.152 6.024 10.254 5.748 10.458 5.544C10.662 5.328 10.938 5.22 11.286 5.22ZM18.7673 8.982C19.9913 8.982 20.8973 9.288 21.4853 9.9C22.0853 10.5 22.3853 11.418 22.3853 12.654V17.046C22.3853 17.37 22.2893 17.628 22.0973 17.82C21.9053 18 21.6413 18.09 21.3053 18.09C20.9933 18.09 20.7353 17.994 20.5313 17.802C20.3393 17.61 20.2433 17.358 20.2433 17.046V16.65C20.0393 17.118 19.7153 17.484 19.2713 17.748C18.8393 18.012 18.3353 18.144 17.7593 18.144C17.1713 18.144 16.6373 18.024 16.1572 17.784C15.6773 17.544 15.2993 17.214 15.0233 16.794C14.7473 16.374 14.6093 15.906 14.6093 15.39C14.6093 14.742 14.7713 14.232 15.0953 13.86C15.4313 13.488 15.9713 13.218 16.7153 13.05C17.4593 12.882 18.4853 12.798 19.7933 12.798H20.2433V12.384C20.2433 11.796 20.1173 11.37 19.8653 11.106C19.6133 10.83 19.2053 10.692 18.6413 10.692C18.2933 10.692 17.9393 10.746 17.5793 10.854C17.2193 10.95 16.7933 11.094 16.3013 11.286C15.9893 11.442 15.7613 11.52 15.6173 11.52C15.4013 11.52 15.2213 11.442 15.0773 11.286C14.9453 11.13 14.8793 10.926 14.8793 10.674C14.8793 10.47 14.9273 10.296 15.0233 10.152C15.1313 9.996 15.3053 9.852 15.5453 9.72C15.9653 9.492 16.4633 9.312 17.0393 9.18C17.6273 9.048 18.2033 8.982 18.7673 8.982ZM18.2093 16.524C18.8093 16.524 19.2953 16.326 19.6673 15.93C20.0513 15.522 20.2433 15 20.2433 14.364V13.986H19.9193C19.1153 13.986 18.4913 14.022 18.0473 14.094C17.6033 14.166 17.2853 14.292 17.0933 14.472C16.9013 14.652 16.8053 14.898 16.8053 15.21C16.8053 15.594 16.9373 15.912 17.2013 16.164C17.4773 16.404 17.8133 16.524 18.2093 16.524Z" fill="#222222"/>
<path d="M95.976 75.748C95.868 75.94 95.736 76.084 95.58 76.18C95.424 76.276 95.268 76.324 95.112 76.324C94.896 76.324 94.704 76.246 94.536 76.09C94.38 75.934 94.302 75.736 94.302 75.496C94.302 75.292 94.362 75.088 94.482 74.884L101.034 63.562C101.142 63.37 101.274 63.226 101.43 63.13C101.586 63.034 101.742 62.986 101.898 62.986C102.114 62.986 102.3 63.064 102.456 63.22C102.624 63.376 102.708 63.574 102.708 63.814C102.708 64.018 102.648 64.222 102.528 64.426L95.976 75.748ZM93.978 70.888C92.97 70.888 92.184 70.558 91.62 69.898C91.056 69.238 90.774 68.272 90.774 67C90.774 65.74 91.056 64.78 91.62 64.12C92.184 63.46 92.97 63.13 93.978 63.13C94.986 63.13 95.772 63.46 96.336 64.12C96.912 64.78 97.2 65.74 97.2 67C97.2 68.272 96.912 69.238 96.336 69.898C95.772 70.558 94.986 70.888 93.978 70.888ZM93.978 69.43C94.434 69.43 94.764 69.244 94.968 68.872C95.184 68.488 95.292 67.864 95.292 67C95.292 66.16 95.184 65.548 94.968 65.164C94.752 64.78 94.422 64.588 93.978 64.588C93.534 64.588 93.204 64.78 92.988 65.164C92.784 65.536 92.682 66.148 92.682 67C92.682 67.864 92.784 68.488 92.988 68.872C93.204 69.244 93.534 69.43 93.978 69.43ZM103.032 76.126C102.024 76.126 101.238 75.796 100.674 75.136C100.11 74.476 99.828 73.504 99.828 72.22C99.828 70.96 100.11 70.006 100.674 69.358C101.25 68.698 102.036 68.368 103.032 68.368C104.04 68.368 104.826 68.698 105.39 69.358C105.954 70.018 106.236 70.978 106.236 72.238C106.236 73.51 105.954 74.476 105.39 75.136C104.826 75.796 104.04 76.126 103.032 76.126ZM103.032 74.668C103.476 74.668 103.806 74.482 104.022 74.11C104.238 73.726 104.346 73.102 104.346 72.238C104.346 71.398 104.238 70.786 104.022 70.402C103.806 70.018 103.476 69.826 103.032 69.826C102.588 69.826 102.258 70.018 102.042 70.402C101.826 70.786 101.718 71.398 101.718 72.238C101.718 73.102 101.826 73.726 102.042 74.11C102.258 74.482 102.588 74.668 103.032 74.668ZM117.248 76.144C115.772 76.144 114.656 75.664 113.9 74.704C113.144 73.744 112.766 72.448 112.766 70.816C112.766 69.496 112.892 68.404 113.144 67.54C113.408 66.664 113.798 65.962 114.314 65.434C114.842 64.894 115.526 64.456 116.366 64.12C116.822 63.928 117.398 63.73 118.094 63.526C118.874 63.286 119.45 63.1 119.822 62.968C120.026 62.908 120.188 62.878 120.308 62.878C120.572 62.878 120.782 62.956 120.938 63.112C121.094 63.268 121.172 63.46 121.172 63.688C121.172 63.856 121.112 64.03 120.992 64.21C120.884 64.378 120.716 64.522 120.488 64.642C120.2 64.798 119.852 64.948 119.444 65.092C119.048 65.224 118.652 65.35 118.256 65.47C117.752 65.614 117.374 65.728 117.122 65.812C116.234 66.1 115.58 66.526 115.16 67.09C114.752 67.654 114.524 68.476 114.476 69.556C114.74 68.872 115.178 68.326 115.79 67.918C116.414 67.51 117.11 67.306 117.878 67.306C119.114 67.306 120.074 67.684 120.758 68.44C121.442 69.196 121.784 70.264 121.784 71.644C121.784 72.496 121.598 73.264 121.226 73.948C120.854 74.632 120.326 75.172 119.642 75.568C118.958 75.952 118.16 76.144 117.248 76.144ZM117.248 74.398C117.992 74.398 118.556 74.146 118.94 73.642C119.336 73.126 119.534 72.484 119.534 71.716C119.534 70.84 119.342 70.186 118.958 69.754C118.574 69.31 118.052 69.088 117.392 69.088C116.66 69.088 116.09 69.334 115.682 69.826C115.286 70.306 115.088 70.942 115.088 71.734C115.088 72.538 115.262 73.186 115.61 73.678C115.97 74.158 116.516 74.398 117.248 74.398ZM127.651 76.144C126.751 76.144 125.959 75.958 125.275 75.586C124.603 75.214 124.081 74.68 123.709 73.984C123.337 73.288 123.151 72.478 123.151 71.554C123.151 70.63 123.337 69.826 123.709 69.142C124.081 68.446 124.603 67.912 125.275 67.54C125.959 67.168 126.751 66.982 127.651 66.982C128.551 66.982 129.337 67.168 130.009 67.54C130.693 67.912 131.215 68.446 131.575 69.142C131.947 69.826 132.133 70.63 132.133 71.554C132.133 72.478 131.947 73.288 131.575 73.984C131.215 74.68 130.693 75.214 130.009 75.586C129.337 75.958 128.551 76.144 127.651 76.144ZM127.633 74.398C128.365 74.398 128.923 74.158 129.307 73.678C129.691 73.198 129.883 72.49 129.883 71.554C129.883 70.63 129.691 69.928 129.307 69.448C128.923 68.956 128.371 68.71 127.651 68.71C126.931 68.71 126.373 68.956 125.977 69.448C125.593 69.928 125.401 70.63 125.401 71.554C125.401 72.49 125.593 73.198 125.977 73.678C126.361 74.158 126.913 74.398 127.633 74.398ZM136.735 69.79C136.735 71.626 136.507 73.03 136.051 74.002C135.595 74.962 134.941 75.646 134.089 76.054C133.957 76.114 133.801 76.144 133.621 76.144C133.357 76.144 133.141 76.066 132.973 75.91C132.805 75.742 132.721 75.532 132.721 75.28C132.721 75.1 132.769 74.932 132.865 74.776C132.961 74.608 133.105 74.47 133.297 74.362C133.813 74.074 134.167 73.594 134.359 72.922C134.563 72.25 134.665 71.224 134.665 69.844V68.332C134.653 67.984 134.743 67.708 134.935 67.504C135.127 67.3 135.391 67.198 135.727 67.198H140.479C140.827 67.186 141.103 67.276 141.307 67.468C141.511 67.66 141.613 67.924 141.613 68.26V75.046C141.613 75.37 141.511 75.628 141.307 75.82C141.103 76.012 140.827 76.108 140.479 76.108C140.143 76.108 139.873 76.012 139.669 75.82C139.465 75.628 139.363 75.37 139.363 75.046V68.89H136.735V69.79ZM144.984 76C144.636 76.012 144.36 75.922 144.156 75.73C143.952 75.538 143.85 75.274 143.85 74.938V68.08C143.85 67.756 143.952 67.498 144.156 67.306C144.36 67.114 144.63 67.018 144.966 67.018C145.314 67.018 145.59 67.114 145.794 67.306C145.998 67.498 146.1 67.756 146.1 68.08V70.114H147.774C150.066 70.114 151.212 71.062 151.212 72.958C151.212 73.618 151.044 74.176 150.708 74.632C150.384 75.088 149.952 75.43 149.412 75.658C148.872 75.886 148.296 76 147.684 76H144.984ZM147.18 74.452C147.672 74.452 148.092 74.338 148.44 74.11C148.788 73.87 148.962 73.498 148.962 72.994C148.962 72.49 148.8 72.142 148.476 71.95C148.152 71.758 147.72 71.662 147.18 71.662H146.082V74.452H147.18ZM153.826 76C153.478 76.012 153.202 75.922 152.998 75.73C152.794 75.538 152.692 75.274 152.692 74.938V68.08C152.692 67.756 152.788 67.498 152.98 67.306C153.184 67.114 153.454 67.018 153.79 67.018C154.138 67.018 154.414 67.114 154.618 67.306C154.822 67.498 154.924 67.756 154.924 68.08V74.308H157.66V68.08C157.66 67.756 157.75 67.498 157.93 67.306C158.122 67.114 158.386 67.018 158.722 67.018C159.07 67.018 159.346 67.114 159.55 67.306C159.754 67.498 159.856 67.756 159.856 68.08V74.308H162.592V68.08C162.592 67.756 162.688 67.498 162.88 67.306C163.084 67.114 163.354 67.018 163.69 67.018C164.038 67.018 164.314 67.114 164.518 67.306C164.722 67.498 164.824 67.756 164.824 68.08V74.866C164.824 75.214 164.728 75.49 164.536 75.694C164.344 75.898 164.086 76 163.762 76H153.826ZM174.074 73.588C174.278 73.588 174.44 73.666 174.56 73.822C174.692 73.978 174.758 74.188 174.758 74.452C174.758 74.824 174.536 75.136 174.092 75.388C173.684 75.616 173.222 75.802 172.706 75.946C172.19 76.078 171.698 76.144 171.229 76.144C169.814 76.144 168.692 75.736 167.864 74.92C167.036 74.104 166.622 72.988 166.622 71.572C166.622 70.672 166.802 69.874 167.162 69.178C167.522 68.482 168.026 67.942 168.674 67.558C169.334 67.174 170.078 66.982 170.906 66.982C171.698 66.982 172.388 67.156 172.976 67.504C173.564 67.852 174.02 68.344 174.344 68.98C174.668 69.616 174.83 70.366 174.83 71.23C174.83 71.746 174.602 72.004 174.146 72.004H168.836C168.908 72.832 169.142 73.444 169.538 73.84C169.934 74.224 170.51 74.416 171.266 74.416C171.65 74.416 171.986 74.368 172.274 74.272C172.574 74.176 172.91 74.044 173.282 73.876C173.642 73.684 173.906 73.588 174.074 73.588ZM170.96 68.566C170.348 68.566 169.856 68.758 169.484 69.142C169.124 69.526 168.908 70.078 168.836 70.798H172.904C172.88 70.066 172.7 69.514 172.364 69.142C172.028 68.758 171.56 68.566 170.96 68.566ZM182.619 76.108C182.283 76.108 182.013 76.012 181.809 75.82C181.605 75.628 181.503 75.37 181.503 75.046V68.332C181.491 67.984 181.581 67.708 181.773 67.504C181.965 67.3 182.229 67.198 182.565 67.198H188.595C188.943 67.186 189.219 67.276 189.423 67.468C189.627 67.66 189.729 67.924 189.729 68.26V75.046C189.729 75.37 189.627 75.628 189.423 75.82C189.219 76.012 188.949 76.108 188.613 76.108C188.265 76.108 187.989 76.012 187.785 75.82C187.581 75.628 187.479 75.37 187.479 75.046V68.89H183.753V75.046C183.753 75.37 183.651 75.628 183.447 75.82C183.243 76.012 182.967 76.108 182.619 76.108ZM197.074 66.982C197.83 66.982 198.502 67.174 199.09 67.558C199.69 67.942 200.152 68.488 200.476 69.196C200.812 69.892 200.98 70.696 200.98 71.608C200.98 72.52 200.812 73.318 200.476 74.002C200.152 74.686 199.696 75.214 199.108 75.586C198.52 75.958 197.842 76.144 197.074 76.144C196.45 76.144 195.892 76.012 195.4 75.748C194.908 75.484 194.53 75.118 194.266 74.65V78.322C194.266 78.634 194.164 78.88 193.96 79.06C193.756 79.24 193.486 79.33 193.15 79.33C192.814 79.33 192.538 79.234 192.322 79.042C192.118 78.85 192.016 78.598 192.016 78.286V68.08C192.016 67.756 192.112 67.498 192.304 67.306C192.508 67.114 192.778 67.018 193.114 67.018C193.45 67.018 193.72 67.114 193.924 67.306C194.128 67.498 194.23 67.756 194.23 68.08V68.53C194.494 68.038 194.872 67.66 195.364 67.396C195.868 67.12 196.438 66.982 197.074 66.982ZM196.48 74.398C197.188 74.398 197.74 74.158 198.136 73.678C198.532 73.186 198.73 72.496 198.73 71.608C198.73 70.696 198.532 69.988 198.136 69.484C197.74 68.98 197.188 68.728 196.48 68.728C195.76 68.728 195.202 68.974 194.806 69.466C194.422 69.958 194.23 70.66 194.23 71.572C194.23 72.472 194.422 73.168 194.806 73.66C195.202 74.152 195.76 74.398 196.48 74.398ZM206.84 76.144C205.94 76.144 205.148 75.958 204.464 75.586C203.792 75.214 203.27 74.68 202.898 73.984C202.526 73.288 202.34 72.478 202.34 71.554C202.34 70.63 202.526 69.826 202.898 69.142C203.27 68.446 203.792 67.912 204.464 67.54C205.148 67.168 205.94 66.982 206.84 66.982C207.74 66.982 208.526 67.168 209.198 67.54C209.882 67.912 210.404 68.446 210.764 69.142C211.136 69.826 211.322 70.63 211.322 71.554C211.322 72.478 211.136 73.288 210.764 73.984C210.404 74.68 209.882 75.214 209.198 75.586C208.526 75.958 207.74 76.144 206.84 76.144ZM206.822 74.398C207.554 74.398 208.112 74.158 208.496 73.678C208.88 73.198 209.072 72.49 209.072 71.554C209.072 70.63 208.88 69.928 208.496 69.448C208.112 68.956 207.56 68.71 206.84 68.71C206.12 68.71 205.562 68.956 205.166 69.448C204.782 69.928 204.59 70.63 204.59 71.554C204.59 72.49 204.782 73.198 205.166 73.678C205.55 74.158 206.102 74.398 206.822 74.398ZM213.216 78.394C212.904 78.394 212.652 78.298 212.46 78.106C212.28 77.926 212.19 77.668 212.19 77.332V75.442C212.178 75.094 212.268 74.818 212.46 74.614C212.652 74.41 212.904 74.308 213.216 74.308H213.414C213.762 73.684 214.002 72.982 214.134 72.202C214.278 71.422 214.35 70.498 214.35 69.43V68.332C214.338 67.984 214.428 67.708 214.62 67.504C214.812 67.3 215.076 67.198 215.412 67.198H219.858C220.206 67.186 220.482 67.276 220.686 67.468C220.89 67.66 220.992 67.924 220.992 68.26V74.308H221.28C221.628 74.296 221.904 74.386 222.108 74.578C222.312 74.77 222.414 75.034 222.414 75.37V77.332C222.414 77.668 222.318 77.926 222.126 78.106C221.946 78.298 221.7 78.394 221.388 78.394C221.064 78.394 220.812 78.298 220.632 78.106C220.452 77.926 220.362 77.668 220.362 77.332V76H214.26V77.332C214.26 77.668 214.164 77.926 213.972 78.106C213.792 78.298 213.54 78.394 213.216 78.394ZM218.76 68.89H216.294V69.43C216.294 70.57 216.204 71.56 216.024 72.4C215.856 73.24 215.616 73.876 215.304 74.308H218.76V68.89ZM227.771 66.982C228.995 66.982 229.901 67.288 230.489 67.9C231.089 68.5 231.389 69.418 231.389 70.654V75.046C231.389 75.37 231.293 75.628 231.101 75.82C230.909 76 230.645 76.09 230.309 76.09C229.997 76.09 229.739 75.994 229.535 75.802C229.343 75.61 229.247 75.358 229.247 75.046V74.65C229.043 75.118 228.719 75.484 228.275 75.748C227.843 76.012 227.339 76.144 226.763 76.144C226.175 76.144 225.641 76.024 225.161 75.784C224.681 75.544 224.303 75.214 224.027 74.794C223.751 74.374 223.613 73.906 223.613 73.39C223.613 72.742 223.775 72.232 224.099 71.86C224.435 71.488 224.975 71.218 225.719 71.05C226.463 70.882 227.489 70.798 228.797 70.798H229.247V70.384C229.247 69.796 229.121 69.37 228.869 69.106C228.617 68.83 228.209 68.692 227.645 68.692C227.297 68.692 226.943 68.746 226.583 68.854C226.223 68.95 225.797 69.094 225.305 69.286C224.993 69.442 224.765 69.52 224.621 69.52C224.405 69.52 224.225 69.442 224.081 69.286C223.949 69.13 223.883 68.926 223.883 68.674C223.883 68.47 223.931 68.296 224.027 68.152C224.135 67.996 224.309 67.852 224.549 67.72C224.969 67.492 225.467 67.312 226.043 67.18C226.631 67.048 227.207 66.982 227.771 66.982ZM227.213 74.524C227.813 74.524 228.299 74.326 228.671 73.93C229.055 73.522 229.247 73 229.247 72.364V71.986H228.923C228.119 71.986 227.495 72.022 227.051 72.094C226.607 72.166 226.289 72.292 226.097 72.472C225.905 72.652 225.809 72.898 225.809 73.21C225.809 73.594 225.941 73.912 226.205 74.164C226.481 74.404 226.817 74.524 227.213 74.524ZM239.364 76.108C239.04 76.108 238.776 76.006 238.572 75.802C238.368 75.598 238.266 75.328 238.266 74.992V72.274H237.564C237.12 72.274 236.772 72.394 236.52 72.634C236.28 72.874 236.052 73.234 235.836 73.714L235.116 75.424C235.02 75.652 234.882 75.826 234.702 75.946C234.534 76.054 234.348 76.108 234.144 76.108C233.844 76.108 233.58 76.012 233.352 75.82C233.124 75.616 233.01 75.364 233.01 75.064C233.01 74.92 233.046 74.77 233.118 74.614L233.676 73.354C233.952 72.73 234.228 72.256 234.504 71.932C234.78 71.608 235.14 71.374 235.584 71.23L233.784 68.584C233.652 68.38 233.586 68.176 233.586 67.972C233.586 67.708 233.682 67.486 233.874 67.306C234.078 67.114 234.312 67.018 234.576 67.018C234.96 67.018 235.26 67.204 235.476 67.576L237.528 70.78H238.266V68.134C238.266 67.798 238.368 67.528 238.572 67.324C238.776 67.12 239.04 67.018 239.364 67.018C239.688 67.018 239.946 67.12 240.138 67.324C240.342 67.516 240.444 67.78 240.444 68.116V70.78H241.182L243.216 67.594C243.456 67.222 243.768 67.036 244.152 67.036C244.416 67.036 244.644 67.126 244.836 67.306C245.04 67.474 245.142 67.69 245.142 67.954C245.142 68.158 245.076 68.362 244.944 68.566L243.126 71.23C243.582 71.374 243.942 71.608 244.206 71.932C244.482 72.244 244.758 72.718 245.034 73.354L245.592 74.632C245.652 74.764 245.682 74.908 245.682 75.064C245.682 75.364 245.562 75.616 245.322 75.82C245.094 76.012 244.836 76.108 244.548 76.108C244.344 76.108 244.158 76.054 243.99 75.946C243.822 75.838 243.696 75.67 243.612 75.442L242.874 73.714C242.67 73.246 242.442 72.892 242.19 72.652C241.95 72.4 241.608 72.274 241.164 72.274H240.444V74.992C240.444 75.328 240.342 75.598 240.138 75.802C239.946 76.006 239.688 76.108 239.364 76.108ZM253.219 67.882C253.459 67.546 253.675 67.318 253.867 67.198C254.071 67.078 254.347 67.018 254.695 67.018C255.043 67.018 255.319 67.114 255.523 67.306C255.739 67.498 255.847 67.756 255.847 68.08V75.01C255.847 75.334 255.745 75.598 255.541 75.802C255.349 76.006 255.097 76.108 254.785 76.108C254.461 76.108 254.197 76.006 253.993 75.802C253.801 75.598 253.705 75.334 253.705 75.01V69.934L249.889 75.28C249.661 75.604 249.439 75.826 249.223 75.946C249.019 76.054 248.761 76.108 248.449 76.108C248.101 76.108 247.825 76.012 247.621 75.82C247.417 75.628 247.315 75.364 247.315 75.028V68.098C247.315 67.774 247.411 67.516 247.603 67.324C247.807 67.12 248.071 67.018 248.395 67.018C248.707 67.018 248.959 67.12 249.151 67.324C249.355 67.516 249.457 67.774 249.457 68.098V73.138L253.219 67.882Z" fill="#222222"/>
<path d="M26.9765 60.8036C30.0553 61.5855 32.4011 63.0761 34.0138 65.2752C35.6754 67.4255 36.5062 70.1134 36.5062 73.3389C36.5062 77.7861 34.8691 81.3292 31.5947 83.9682C28.3204 86.6072 23.8976 87.9267 18.3264 87.9267C15.1498 87.9267 12.0954 87.438 9.16321 86.4606C6.23098 85.4832 3.73859 84.1148 1.68603 82.3555C0.56201 81.378 0 80.2296 0 78.9101C0 77.8349 0.293223 76.9308 0.879668 76.1978C1.51498 75.4159 2.24804 75.0249 3.07884 75.0249C3.56754 75.0249 4.00738 75.1226 4.39834 75.3181C4.7893 75.4647 5.32688 75.7335 6.01107 76.1245C8.06362 77.4928 10.0184 78.5436 11.8755 79.2766C13.7326 80.0097 15.7607 80.3762 17.9599 80.3762C21.1853 80.3762 23.58 79.7409 25.1438 78.4703C26.7077 77.1508 27.4896 75.1715 27.4896 72.5325C27.4896 69.9424 26.6588 68.0364 24.9972 66.8147C23.3845 65.544 20.8677 64.9087 17.4468 64.9087H13.2683C12.1443 64.9087 11.2646 64.5422 10.6293 63.8091C10.0429 63.0272 9.74965 62.1475 9.74965 61.1701C9.74965 60.1438 10.0429 59.2642 10.6293 58.5311C11.2646 57.7981 12.1443 57.4315 13.2683 57.4315H16.2006C22.8958 57.4315 26.2434 54.9147 26.2434 49.881C26.2434 47.5353 25.5348 45.7271 24.1176 44.4564C22.7003 43.1858 20.7455 42.5505 18.2531 42.5505C14.6856 42.5505 10.8737 43.9677 6.81743 46.8022C6.13324 47.1932 5.59567 47.4864 5.2047 47.6819C4.81374 47.8285 4.3739 47.9018 3.8852 47.9018C3.0544 47.9018 2.32135 47.5353 1.68603 46.8022C1.09959 46.0203 0.806362 45.0917 0.806362 44.0166C0.806362 43.2835 0.928538 42.6727 1.17289 42.184C1.46611 41.6464 1.90595 41.1088 2.49239 40.5712C4.54495 38.8608 6.98847 37.5168 9.82296 36.5394C12.7063 35.5131 15.6385 35 18.6196 35C23.7022 35 27.734 36.2462 30.7151 38.7386C33.745 41.231 35.26 44.5542 35.26 48.7082C35.2112 51.5426 34.4537 54.035 32.9875 56.1853C31.5703 58.2868 29.5666 59.8262 26.9765 60.8036Z" fill="#F81157"/>
<path d="M63.0142 88C56.9054 88 52.2383 85.752 49.0129 81.2559C45.7874 76.7109 44.1747 70.1134 44.1747 61.4633C44.1747 52.8621 45.7874 46.3135 49.0129 41.8174C52.2383 37.2725 56.9054 35 63.0142 35C69.123 35 73.7902 37.2725 77.0156 41.8174C80.2411 46.3135 81.8538 52.8621 81.8538 61.4633C81.8538 70.0645 80.2411 76.6376 77.0156 81.1826C73.7902 85.7275 69.123 88 63.0142 88ZM63.0142 80.5961C66.3374 80.5961 68.7565 79.0811 70.2715 76.0512C71.7865 72.9723 72.544 68.1097 72.544 61.4633C72.544 54.7681 71.7865 49.9299 70.2715 46.9488C68.7565 43.9189 66.3374 42.4039 63.0142 42.4039C59.691 42.4039 57.272 43.9189 55.757 46.9488C54.242 49.9788 53.4845 54.817 53.4845 61.4633C53.4845 68.1097 54.242 72.9723 55.757 76.0512C57.272 79.0811 59.691 80.5961 63.0142 80.5961Z" fill="#F81157"/>
</svg>
