<svg width="96" height="24" viewBox="0 0 96 24" fill="none" xmlns="http://www.w3.org/2000/svg">
<path d="M10.4503 15.64V18.968L9.21834 19.08L8.97834 17H2.11434L1.89034 18.968L0.642344 19.08V15.64H1.49034C1.93834 15.3947 2.29034 15.0213 2.54634 14.52C2.80234 14.0187 3.01034 13.3093 3.17034 12.392C3.33034 11.4747 3.48501 10.184 3.63434 8.52L3.81034 6.728H9.10634L9.04234 13.768L9.07434 15.64H10.4503ZM7.52234 13.912L7.45834 7.992H5.15434L5.07434 8.808C4.89301 10.856 4.66368 12.392 4.38634 13.416C4.10901 14.4293 3.71434 15.1707 3.20234 15.64H7.47434L7.52234 13.912ZM21.8426 17H20.1466L19.9066 15.848L19.4586 14.424L17.2826 14.376L15.3146 14.424L14.8346 15.768L14.5786 17H12.9306L16.5946 6.728H18.5306L21.8426 17ZM19.0426 13.08L17.5706 8.344H17.4586L15.7786 13.08L17.3946 13.112L19.0426 13.08ZM31.8542 13.768L31.9022 17H30.2542L30.3342 13.912L30.2702 7.992H27.9022L27.8222 8.808C27.6302 10.8987 27.4062 12.52 27.1502 13.672C26.9049 14.824 26.5902 15.6667 26.2062 16.2C25.8329 16.7333 25.3422 17.064 24.7342 17.192L24.2702 17.224L23.9662 15.896C24.4782 15.7253 24.8782 15.4053 25.1662 14.936C25.4649 14.4667 25.7049 13.7413 25.8862 12.76C26.0782 11.7787 26.2542 10.3653 26.4142 8.52L26.5902 6.76L26.5742 6.728H31.9342L31.8542 13.768ZM40.421 10.856C41.4343 10.856 42.2023 11.096 42.725 11.576C43.2476 12.0453 43.509 12.728 43.509 13.624C43.509 14.6907 43.141 15.5227 42.405 16.12C41.6796 16.7067 40.6556 17 39.333 17H36.661L36.741 13.928L36.661 6.728H38.325L38.277 10.856H40.421ZM39.877 15.832C40.5063 15.7467 40.981 15.5333 41.301 15.192C41.6316 14.8507 41.797 14.3973 41.797 13.832C41.797 13.256 41.6316 12.8133 41.301 12.504C40.981 12.1947 40.5116 12.0453 39.893 12.056L38.261 12.072L38.245 13.784L38.277 15.768L39.877 15.832ZM58.912 13.768L58.976 17H47.136L47.216 13.912L47.136 6.728H48.8L48.72 13.768L48.752 15.64H52.256L52.304 13.912L52.224 6.728H53.904L53.824 13.768L53.856 15.64H57.376L57.408 13.912L57.344 6.728H59.008L58.912 13.768ZM69.7843 15.592L69.8803 15.736L69.7683 17H63.7043L63.8163 13.912L63.7043 6.728H69.8003L69.8963 6.872L69.7683 8.136L67.3363 8.072L65.3843 8.088L65.3363 11.08L67.1923 11.112L68.8883 11.064L69.0003 11.192L68.8723 12.456L67.0643 12.408L65.3203 12.44L65.3043 13.768L65.3523 15.656L67.3043 15.672L69.7843 15.592Z" fill="#0D2839"/>
<path d="M87.3516 6L95.0002 12L87.3516 18" stroke="#0D2839" stroke-linecap="round" stroke-linejoin="round"/>
</svg>
