<svg width="82" height="24" viewBox="0 0 82 24" fill="none" xmlns="http://www.w3.org/2000/svg">
<path d="M33.3676 13.768L33.4156 17H31.7676L31.8476 13.912L31.8316 12.52L29.2076 12.504L26.8076 12.52L26.7916 13.768L26.8556 17H25.2236L25.2876 13.912L25.2236 6.728H26.8716L26.8236 11.144L29.3356 11.176L31.8156 11.144L31.7676 6.728H33.4476L33.3676 13.768ZM45.783 17H44.087L43.847 15.848L43.399 14.424L41.223 14.376L39.255 14.424L38.775 15.768L38.519 17H36.871L40.535 6.728H42.471L45.783 17ZM42.983 13.08L41.511 8.344H41.399L39.719 13.08L41.335 13.112L42.983 13.08ZM53.1066 11.64C54.504 11.992 55.2026 12.8133 55.2026 14.104C55.2026 15.0427 54.8453 15.784 54.1306 16.328C53.416 16.872 52.4453 17.144 51.2186 17.144C50.664 17.144 50.136 17.08 49.6346 16.952C49.1333 16.824 48.7066 16.6427 48.3546 16.408L48.6586 14.968L48.8026 14.92C49.1333 15.1867 49.5066 15.3947 49.9226 15.544C50.3493 15.6933 50.776 15.768 51.2026 15.768C51.896 15.768 52.456 15.6027 52.8826 15.272C53.32 14.9413 53.5386 14.5093 53.5386 13.976C53.5386 13.5493 53.4053 13.1973 53.1386 12.92C52.872 12.6427 52.4986 12.456 52.0186 12.36H49.8586L49.7306 12.232L49.8426 11.096L51.9066 11.128C52.248 10.9787 52.52 10.7493 52.7226 10.44C52.936 10.1307 53.0426 9.78933 53.0426 9.416C53.0426 8.49867 52.4453 8.04 51.2506 8.04C50.4186 8.04 49.56 8.312 48.6746 8.856L48.4826 8.776L48.6266 7.32C49.4693 6.85067 50.3653 6.616 51.3146 6.616C52.3706 6.616 53.2026 6.84533 53.8106 7.304C54.4186 7.752 54.7226 8.37067 54.7226 9.16C54.7226 9.704 54.5786 10.1947 54.2906 10.632C54.0133 11.0693 53.6186 11.4053 53.1066 11.64ZM66.7955 17H65.0995L64.8595 15.848L64.4115 14.424L62.2355 14.376L60.2675 14.424L59.7875 15.768L59.5315 17H57.8835L61.5475 6.728H63.4835L66.7955 17ZM63.9955 13.08L62.5235 8.344H62.4115L60.7315 13.08L62.3475 13.112L63.9955 13.08ZM78.7752 15.64V18.968L77.5431 19.08L77.3032 17H70.4392L70.2151 18.968L68.9671 19.08V15.64H69.8152C70.2632 15.3947 70.6152 15.0213 70.8712 14.52C71.1272 14.0187 71.3352 13.3093 71.4952 12.392C71.6552 11.4747 71.8098 10.184 71.9592 8.52L72.1352 6.728H77.4312L77.3672 13.768L77.3992 15.64H78.7752ZM75.8472 13.912L75.7832 7.992H73.4792L73.3992 8.808C73.2178 10.856 72.9885 12.392 72.7112 13.416C72.4338 14.4293 72.0392 15.1707 71.5272 15.64H75.7992L75.8472 13.912Z" fill="#0D2839"/>
<path d="M8.64844 6L0.999832 12L8.64844 18" stroke="#0D2839" stroke-linecap="round" stroke-linejoin="round"/>
</svg>
