<svg width="209" height="24" viewBox="0 0 209 24" fill="none" xmlns="http://www.w3.org/2000/svg">
<path d="M32.6928 12.768L32.7408 16H31.1088L31.1728 12.912L31.1248 7.024H26.8688L26.8048 12.768L26.8688 16H25.2208L25.3008 12.912L25.2208 5.728H32.7728L32.6928 12.768ZM40.9491 5.712C41.9837 5.712 42.7784 5.97867 43.3331 6.512C43.8984 7.03467 44.1811 7.792 44.1811 8.784C44.1811 9.936 43.8237 10.848 43.1091 11.52C42.4051 12.192 41.4344 12.528 40.1971 12.528H39.0611V12.768L39.1411 16H37.4611L37.5731 12.912L37.4611 5.728L40.9491 5.712ZM40.6771 11.248C41.2637 11.1307 41.7064 10.88 42.0051 10.496C42.3144 10.1013 42.4691 9.57867 42.4691 8.928C42.4691 8.288 42.3037 7.81333 41.9731 7.504C41.6531 7.19467 41.1624 7.02933 40.5011 7.008L39.1411 7.056L39.0771 11.216L40.6771 11.248ZM53.9067 14.592L54.0027 14.736L53.8907 16H47.8267L47.9387 12.912L47.8267 5.728H53.9227L54.0187 5.872L53.8907 7.136L51.4587 7.072L49.5067 7.088L49.4587 10.08L51.3147 10.112L53.0107 10.064L53.1227 10.192L52.9947 11.456L51.1867 11.408L49.4427 11.44L49.4267 12.768L49.4747 14.656L51.4267 14.672L53.9067 14.592ZM66.4696 14.64V17.968L65.2376 18.08L64.9976 16H58.1336L57.9096 17.968L56.6616 18.08V14.64H57.5096C57.9576 14.3947 58.3096 14.0213 58.5656 13.52C58.8216 13.0187 59.0296 12.3093 59.1896 11.392C59.3496 10.4747 59.5042 9.184 59.6536 7.52L59.8296 5.728H65.1256L65.0616 12.768L65.0936 14.64H66.4696ZM63.5416 12.912L63.4776 6.992H61.1736L61.0936 7.808C60.9122 9.856 60.6829 11.392 60.4056 12.416C60.1282 13.4293 59.7336 14.1707 59.2216 14.64H63.4936L63.5416 12.912ZM73.5098 9.856C74.4378 9.856 75.1472 10.096 75.6378 10.576C76.1392 11.0453 76.3898 11.728 76.3898 12.624C76.3898 13.6907 76.0432 14.5227 75.3498 15.12C74.6565 15.7067 73.6805 16 72.4218 16H69.9098L69.9898 12.928L69.9098 5.728H71.5738L71.5258 9.856H73.5098ZM79.3498 12.768L79.4298 16H77.7498L77.8618 12.912L77.7498 5.728H79.4458L79.3498 12.768ZM72.9658 14.832C73.5205 14.7467 73.9472 14.5333 74.2458 14.192C74.5445 13.8507 74.6938 13.3973 74.6938 12.832C74.6938 12.256 74.5445 11.8133 74.2458 11.504C73.9472 11.1947 73.5258 11.0453 72.9818 11.056L71.5098 11.072L71.4938 12.784L71.5258 14.768L72.9658 14.832ZM92.6383 14.64V17.968L91.4063 18.08L91.1663 16H84.3023L84.0783 17.968L82.8303 18.08V14.64H83.6783C84.1263 14.3947 84.4783 14.0213 84.7343 13.52C84.9903 13.0187 85.1983 12.3093 85.3583 11.392C85.5183 10.4747 85.673 9.184 85.8223 7.52L85.9983 5.728H91.2943L91.2303 12.768L91.2623 14.64H92.6383ZM89.7103 12.912L89.6463 6.992H87.3423L87.2623 7.808C87.081 9.856 86.8517 11.392 86.5743 12.416C86.297 13.4293 85.9023 14.1707 85.3903 14.64H89.6623L89.7103 12.912ZM103.791 5.744L100.815 12.832C100.409 13.728 100.036 14.3947 99.6946 14.832C99.3639 15.2693 98.9692 15.584 98.5106 15.776C98.0626 15.9573 97.4439 16.0747 96.6546 16.128L96.5106 16.112C96.3932 15.7387 96.2972 15.312 96.2226 14.832L96.3026 14.672C97.1239 14.576 97.7266 14.4533 98.1106 14.304C98.4946 14.144 98.8092 13.888 99.0546 13.536L95.1506 5.744L96.9266 5.728L97.2946 6.736L99.6786 11.776H99.8546L101.855 6.656L102.159 5.744H103.791ZM120.371 14.64V17.968L119.139 18.08L118.899 16H107.155L107.235 12.912L107.155 5.728H108.819L108.739 12.768L108.771 14.64H112.275L112.323 12.912L112.243 5.728H113.923L113.843 12.768L113.875 14.64H117.395L117.427 12.912L117.363 5.728H119.027L118.931 12.768L118.963 14.64H120.371ZM131.621 16H129.925L129.685 14.848L129.237 13.424L127.061 13.376L125.093 13.424L124.613 14.768L124.357 16H122.709L126.373 5.728H128.309L131.621 16ZM128.821 12.08L127.349 7.344H127.237L125.557 12.08L127.173 12.112L128.821 12.08ZM141.014 12.912L141.094 16H139.446L139.51 12.768V12.336H137.782C137.174 13.488 136.454 14.7147 135.622 16.016L135.43 16.144C134.854 16.1013 134.332 15.9893 133.862 15.808L133.846 15.616C134.774 14.4427 135.665 13.2267 136.518 11.968C135.121 11.3493 134.422 10.352 134.422 8.976C134.422 8.336 134.572 7.77067 134.87 7.28C135.169 6.77867 135.59 6.38933 136.134 6.112C136.678 5.83467 137.302 5.696 138.006 5.696L141.094 5.728L141.014 12.912ZM139.494 10.976L139.446 7.056L138.102 7.008C137.484 7.01867 136.998 7.18933 136.646 7.52C136.305 7.85067 136.134 8.33067 136.134 8.96C136.134 9.51467 136.268 9.96267 136.534 10.304C136.812 10.6453 137.233 10.8907 137.798 11.04L139.494 10.976ZM153.913 5.616C154.958 5.616 155.881 5.85067 156.681 6.32L156.377 7.776L156.217 7.824C155.502 7.26933 154.713 6.992 153.849 6.992C152.91 6.992 152.19 7.312 151.689 7.952C151.198 8.58133 150.953 9.52533 150.953 10.784C150.953 12.0747 151.203 13.056 151.705 13.728C152.206 14.4 152.921 14.736 153.849 14.736C154.297 14.736 154.739 14.6613 155.177 14.512C155.625 14.352 156.035 14.1333 156.409 13.856L156.569 13.952L156.441 15.456C155.523 15.904 154.617 16.128 153.721 16.128C152.281 16.128 151.171 15.68 150.393 14.784C149.614 13.888 149.225 12.6133 149.225 10.96C149.225 9.25333 149.63 7.936 150.441 7.008C151.262 6.08 152.419 5.616 153.913 5.616ZM166.467 5.872L166.371 7.12L164.515 7.024H163.651L163.571 12.768L163.651 16H161.987L162.083 12.912L162.003 7.024H161.139L159.251 7.12L159.139 6.976L159.267 5.728H166.371L166.467 5.872ZM176.59 16H174.894L174.654 14.848L174.206 13.424L172.03 13.376L170.062 13.424L169.582 14.768L169.326 16H167.678L171.342 5.728H173.278L176.59 16ZM173.79 12.08L172.318 7.344H172.206L170.526 12.08L172.142 12.112L173.79 12.08ZM185.198 5.872L185.102 7.12L183.246 7.024H182.382L182.302 12.768L182.382 16H180.718L180.814 12.912L180.734 7.024H179.87L177.982 7.12L177.87 6.976L177.998 5.728H185.102L185.198 5.872ZM192.293 9.856C193.307 9.856 194.075 10.096 194.597 10.576C195.12 11.0453 195.381 11.728 195.381 12.624C195.381 13.6907 195.013 14.5227 194.277 15.12C193.552 15.7067 192.528 16 191.205 16H188.533L188.613 12.928L188.533 5.728H190.197L190.149 9.856H192.293ZM191.749 14.832C192.379 14.7467 192.853 14.5333 193.173 14.192C193.504 13.8507 193.669 13.3973 193.669 12.832C193.669 12.256 193.504 11.8133 193.173 11.504C192.853 11.1947 192.384 11.0453 191.765 11.056L190.133 11.072L190.117 12.784L190.149 14.768L191.749 14.832ZM204.714 12.912L204.794 16H203.146L203.21 12.768V12.336H201.482C200.874 13.488 200.154 14.7147 199.322 16.016L199.13 16.144C198.554 16.1013 198.032 15.9893 197.562 15.808L197.546 15.616C198.474 14.4427 199.365 13.2267 200.218 11.968C198.821 11.3493 198.122 10.352 198.122 8.976C198.122 8.336 198.272 7.77067 198.57 7.28C198.869 6.77867 199.29 6.38933 199.834 6.112C200.378 5.83467 201.002 5.696 201.706 5.696L204.794 5.728L204.714 12.912ZM203.194 10.976L203.146 7.056L201.802 7.008C201.184 7.01867 200.698 7.18933 200.346 7.52C200.005 7.85067 199.834 8.33067 199.834 8.96C199.834 9.51467 199.968 9.96267 200.234 10.304C200.512 10.6453 200.933 10.8907 201.498 11.04L203.194 10.976Z" fill="#0D2839"/>
<path d="M8.65283 6L0.999771 12L8.65283 18" stroke="#0D2839" stroke-linecap="round" stroke-linejoin="round"/>
</svg>
