<svg width="198" height="24" viewBox="0 0 198 24" fill="none" xmlns="http://www.w3.org/2000/svg">
<path d="M6.35674 5.616C7.40208 5.616 8.32474 5.85067 9.12474 6.32L8.82074 7.776L8.66074 7.824C7.94608 7.26933 7.15674 6.992 6.29274 6.992C5.35408 6.992 4.63408 7.312 4.13274 7.952C3.64208 8.58133 3.39674 9.52533 3.39674 10.784C3.39674 12.0747 3.64741 13.056 4.14874 13.728C4.65008 14.4 5.36474 14.736 6.29274 14.736C6.74074 14.736 7.18341 14.6613 7.62074 14.512C8.06874 14.352 8.47941 14.1333 8.85274 13.856L9.01274 13.952L8.88474 15.456C7.96741 15.904 7.06074 16.128 6.16474 16.128C4.72474 16.128 3.61541 15.68 2.83674 14.784C2.05808 13.888 1.66874 12.6133 1.66874 10.96C1.66874 9.25333 2.07408 7.936 2.88474 7.008C3.70608 6.08 4.86341 5.616 6.35674 5.616ZM19.4706 12.768L19.5186 16H17.8706L17.9506 12.912L17.8866 6.992H15.5186L15.4386 7.808C15.2466 9.89867 15.0226 11.52 14.7666 12.672C14.5213 13.824 14.2066 14.6667 13.8226 15.2C13.4493 15.7333 12.9586 16.064 12.3506 16.192L11.8866 16.224L11.5826 14.896C12.0946 14.7253 12.4946 14.4053 12.7826 13.936C13.0813 13.4667 13.3213 12.7413 13.5026 11.76C13.6946 10.7787 13.8706 9.36533 14.0306 7.52L14.2066 5.76L14.1906 5.728H19.5506L19.4706 12.768ZM30.3414 14.592L30.4374 14.736L30.3254 16H24.2614L24.3734 12.912L24.2614 5.728H30.3574L30.4534 5.872L30.3254 7.136L27.8934 7.072L25.9414 7.088L25.8934 10.08L27.7494 10.112L29.4454 10.064L29.5574 10.192L29.4294 11.456L27.6214 11.408L25.8774 11.44L25.8614 12.768L25.9094 14.656L27.8614 14.672L30.3414 14.592ZM42.9042 14.64V17.968L41.6722 18.08L41.4322 16H34.5682L34.3442 17.968L33.0962 18.08V14.64H33.9442C34.3922 14.3947 34.7442 14.0213 35.0002 13.52C35.2562 13.0187 35.4642 12.3093 35.6242 11.392C35.7842 10.4747 35.9389 9.184 36.0882 7.52L36.2642 5.728H41.5602L41.4962 12.768L41.5282 14.64H42.9042ZM39.9762 12.912L39.9122 6.992H37.6082L37.5282 7.808C37.3469 9.856 37.1176 11.392 36.8402 12.416C36.5629 13.4293 36.1682 14.1707 35.6562 14.64H39.9282L39.9762 12.912ZM54.0565 5.744L51.0805 12.832C50.6752 13.728 50.3018 14.3947 49.9605 14.832C49.6298 15.2693 49.2352 15.584 48.7765 15.776C48.3285 15.9573 47.7098 16.0747 46.9205 16.128L46.7765 16.112C46.6592 15.7387 46.5632 15.312 46.4885 14.832L46.5685 14.672C47.3898 14.576 47.9925 14.4533 48.3765 14.304C48.7605 14.144 49.0752 13.888 49.3205 13.536L45.4165 5.744L47.1925 5.728L47.5605 6.736L49.9445 11.776H50.1205L52.1205 6.656L52.4245 5.744H54.0565ZM65.1167 5.6C66.4287 5.6 67.4421 6.04267 68.1567 6.928C68.8714 7.80267 69.2287 9.04533 69.2287 10.656C69.2287 12.4053 68.8447 13.76 68.0767 14.72C67.3194 15.6693 66.2367 16.144 64.8287 16.144C63.6021 16.144 62.6367 15.744 61.9327 14.944C61.2287 14.1333 60.8341 12.992 60.7487 11.52L59.8527 11.504L59.0367 11.52L59.0207 12.768L59.0847 16H57.4207L57.5007 12.912L57.4207 5.728H59.1007L59.0527 10.16L59.9327 10.176L60.7647 10.16C60.8821 8.688 61.3141 7.56267 62.0607 6.784C62.8074 5.99467 63.8261 5.6 65.1167 5.6ZM64.9727 14.864C65.8367 14.864 66.4767 14.5547 66.8927 13.936C67.3087 13.3067 67.5167 12.32 67.5167 10.976C67.5167 9.57867 67.3087 8.56 66.8927 7.92C66.4874 7.26933 65.8527 6.944 64.9887 6.944C64.1247 6.944 63.4847 7.25333 63.0687 7.872C62.6634 8.49067 62.4607 9.456 62.4607 10.768C62.4607 12.1867 62.6634 13.2267 63.0687 13.888C63.4741 14.5387 64.1087 14.864 64.9727 14.864ZM86.4086 14.64V17.968L85.1766 18.08L84.9366 16H73.1926L73.2726 12.912L73.1926 5.728H74.8566L74.7766 12.768L74.8086 14.64H78.3126L78.3606 12.912L78.2806 5.728H79.9606L79.8806 12.768L79.9126 14.64H83.4326L83.4646 12.912L83.4006 5.728H85.0646L84.9686 12.768L85.0006 14.64H86.4086ZM97.659 16H95.963L95.723 14.848L95.275 13.424L93.099 13.376L91.131 13.424L90.651 14.768L90.395 16H88.747L92.411 5.728H94.347L97.659 16ZM94.859 12.08L93.387 7.344H93.275L91.595 12.08L93.211 12.112L94.859 12.08ZM107.052 12.912L107.132 16H105.484L105.548 12.768V12.336H103.82C103.212 13.488 102.492 14.7147 101.66 16.016L101.468 16.144C100.892 16.1013 100.37 15.9893 99.9002 15.808L99.8842 15.616C100.812 14.4427 101.703 13.2267 102.556 11.968C101.159 11.3493 100.46 10.352 100.46 8.976C100.46 8.336 100.61 7.77067 100.908 7.28C101.207 6.77867 101.628 6.38933 102.172 6.112C102.716 5.83467 103.34 5.696 104.044 5.696L107.132 5.728L107.052 12.912ZM105.532 10.976L105.484 7.056L104.14 7.008C103.522 7.01867 103.036 7.18933 102.684 7.52C102.343 7.85067 102.172 8.33067 102.172 8.96C102.172 9.51467 102.306 9.96267 102.572 10.304C102.85 10.6453 103.271 10.8907 103.836 11.04L105.532 10.976ZM119.95 5.616C120.996 5.616 121.918 5.85067 122.718 6.32L122.414 7.776L122.254 7.824C121.54 7.26933 120.75 6.992 119.886 6.992C118.948 6.992 118.228 7.312 117.726 7.952C117.236 8.58133 116.99 9.52533 116.99 10.784C116.99 12.0747 117.241 13.056 117.742 13.728C118.244 14.4 118.958 14.736 119.886 14.736C120.334 14.736 120.777 14.6613 121.214 14.512C121.662 14.352 122.073 14.1333 122.446 13.856L122.606 13.952L122.478 15.456C121.561 15.904 120.654 16.128 119.758 16.128C118.318 16.128 117.209 15.68 116.43 14.784C115.652 13.888 115.262 12.6133 115.262 10.96C115.262 9.25333 115.668 7.936 116.478 7.008C117.3 6.08 118.457 5.616 119.95 5.616ZM132.504 5.872L132.408 7.12L130.552 7.024H129.688L129.608 12.768L129.688 16H128.024L128.12 12.912L128.04 7.024H127.176L125.288 7.12L125.176 6.976L125.304 5.728H132.408L132.504 5.872ZM142.628 16H140.932L140.692 14.848L140.244 13.424L138.068 13.376L136.1 13.424L135.62 14.768L135.364 16H133.716L137.38 5.728H139.316L142.628 16ZM139.828 12.08L138.356 7.344H138.244L136.564 12.08L138.18 12.112L139.828 12.08ZM151.236 5.872L151.14 7.12L149.284 7.024H148.42L148.34 12.768L148.42 16H146.756L146.852 12.912L146.772 7.024H145.908L144.02 7.12L143.908 6.976L144.036 5.728H151.14L151.236 5.872ZM158.331 9.856C159.344 9.856 160.112 10.096 160.635 10.576C161.158 11.0453 161.419 11.728 161.419 12.624C161.419 13.6907 161.051 14.5227 160.315 15.12C159.59 15.7067 158.566 16 157.243 16H154.571L154.651 12.928L154.571 5.728H156.235L156.187 9.856H158.331ZM157.787 14.832C158.416 14.7467 158.891 14.5333 159.211 14.192C159.542 13.8507 159.707 13.3973 159.707 12.832C159.707 12.256 159.542 11.8133 159.211 11.504C158.891 11.1947 158.422 11.0453 157.803 11.056L156.171 11.072L156.155 12.784L156.187 14.768L157.787 14.832ZM170.752 12.912L170.832 16H169.184L169.248 12.768V12.336H167.52C166.912 13.488 166.192 14.7147 165.36 16.016L165.168 16.144C164.592 16.1013 164.07 15.9893 163.6 15.808L163.584 15.616C164.512 14.4427 165.403 13.2267 166.256 11.968C164.859 11.3493 164.16 10.352 164.16 8.976C164.16 8.336 164.31 7.77067 164.608 7.28C164.907 6.77867 165.328 6.38933 165.872 6.112C166.416 5.83467 167.04 5.696 167.744 5.696L170.832 5.728L170.752 12.912ZM169.232 10.976L169.184 7.056L167.84 7.008C167.222 7.01867 166.736 7.18933 166.384 7.52C166.043 7.85067 165.872 8.33067 165.872 8.96C165.872 9.51467 166.006 9.96267 166.272 10.304C166.55 10.6453 166.971 10.8907 167.536 11.04L169.232 10.976Z" fill="#0D2839"/>
<path d="M189 6L196.653 12L189 18" stroke="#0D2839" stroke-linecap="round" stroke-linejoin="round"/>
</svg>
