<svg width="55" height="55" viewBox="0 0 55 55" fill="none" xmlns="http://www.w3.org/2000/svg">
<path d="M49.9787 24.3152C51.001 26.0855 51.001 28.2674 49.9787 30.0377L49.2088 31.3731C48.7053 32.2429 48.4414 33.2303 48.4414 34.2344V35.7757C48.4414 37.8204 47.3504 39.7097 45.5801 40.7322L44.2447 41.5022C43.3749 42.0043 42.6528 42.7277 42.1507 43.5973L41.3794 44.9316C40.357 46.7031 38.4676 47.7942 36.4228 47.7942H34.8817C33.8773 47.7942 32.89 48.0582 32.0204 48.5603L30.6861 49.3316C28.9145 50.3538 26.7339 50.3538 24.9623 49.3316L23.628 48.5603C22.7584 48.0582 21.771 47.7942 20.7667 47.7942H19.2254C17.1807 47.7942 15.2913 46.7031 14.269 44.9316L13.4977 43.5973C12.9956 42.7276 12.2735 42.0042 11.4038 41.5022L10.0683 40.7322C8.29794 39.7099 7.207 37.8204 7.207 35.7757V34.2344C7.207 33.2302 6.943 32.2428 6.43959 31.3731L5.6696 30.0377C4.64724 28.2673 4.64724 26.0854 5.6696 24.3152L6.43959 22.9796C6.943 22.11 7.207 21.1226 7.207 20.1183V18.577C7.207 16.5323 8.29794 14.6429 10.0683 13.6206L11.4038 12.8506C12.2735 12.3485 12.9956 11.625 13.4977 10.7554L14.269 9.42116C15.2913 7.64951 17.1807 6.55857 19.2254 6.55857H20.7667C21.771 6.55857 22.7584 6.29457 23.628 5.79245L24.9623 5.02116C26.7339 3.99881 28.9145 3.99881 30.6861 5.02116L32.0204 5.79245C32.8901 6.29457 33.8774 6.55857 34.8817 6.55857H36.4228C38.4676 6.55857 40.3569 7.64951 41.3794 9.42116L42.1507 10.7554C42.6528 11.625 43.3749 12.3485 44.2447 12.8506L45.5801 13.6206C47.3506 14.6429 48.4414 16.5323 48.4414 18.577V20.1183C48.4414 21.1226 48.7053 22.11 49.2088 22.9796L49.9787 24.3152Z" fill="#FFCC66"/>
<path d="M51.7645 3.23529C53.1945 3.23529 54.3527 4.39353 54.3527 5.82353C54.3527 7.25353 53.1945 8.41176 51.7645 8.41176C50.3358 8.41176 49.1763 7.25353 49.1763 5.82353C49.1763 4.39353 50.3358 3.23529 51.7645 3.23529Z" fill="#68CA44"/>
<path d="M6.47023 46.5883C8.61458 46.5883 10.3526 48.3263 10.3526 50.4706C10.3526 52.615 8.61458 54.353 6.47023 54.353C4.32718 54.353 2.58789 52.615 2.58789 50.4706C2.58789 48.3263 4.32718 46.5883 6.47023 46.5883Z" fill="#68CA44"/>
<path d="M27.8232 12.3109C36.0342 12.3109 42.6887 18.9666 42.6887 27.1764C42.6887 35.3863 36.0342 42.042 27.8232 42.042C19.6133 42.042 12.959 35.3863 12.959 27.1764C12.959 18.9666 19.6133 12.3109 27.8232 12.3109Z" fill="#32438C"/>
<path d="M30.4113 26.5294V36.2353C30.4113 37.6653 29.2531 38.8235 27.8231 38.8235C26.3944 38.8235 25.2349 37.6653 25.2349 36.2353V26.5294C25.2349 25.0994 26.3944 23.9412 27.8231 23.9412C28.5374 23.9412 29.1845 24.231 29.6531 24.6995C30.1214 25.168 30.4113 25.815 30.4113 26.5294Z" fill="#BCE4FF"/>
<path d="M29.6531 16.9348C30.1214 17.4033 30.4113 18.0503 30.4113 18.7647C30.4113 19.479 30.1214 20.1261 29.6531 20.5946C29.1845 21.063 28.5374 21.3529 27.8231 21.3529C26.3944 21.3529 25.2349 20.1947 25.2349 18.7647C25.2349 18.0503 25.5247 17.4033 25.9932 16.9348C26.4617 16.4663 27.1087 16.1765 27.8231 16.1765C28.5374 16.1765 29.1845 16.4663 29.6531 16.9348Z" fill="#BCE4FF"/>
<path d="M54.0292 37.5294C54.5662 37.5294 54.9998 37.9642 54.9998 38.5C54.9998 39.0358 54.5662 39.4706 54.0292 39.4706C53.4933 39.4706 53.0586 39.0358 53.0586 38.5C53.0586 37.9642 53.4933 37.5294 54.0292 37.5294Z" fill="black"/>
<path d="M44.9706 51.1177C45.5077 51.1177 45.9412 51.5525 45.9412 52.0883C45.9412 52.624 45.5077 53.0589 44.9706 53.0589C44.4347 53.0589 44 52.624 44 52.0883C44 51.5525 44.4347 51.1177 44.9706 51.1177Z" fill="black"/>
<path d="M43.0292 0C43.5662 0 43.9998 0.434824 43.9998 0.970589C43.9998 1.50635 43.5662 1.94118 43.0292 1.94118C42.4933 1.94118 42.0586 1.50635 42.0586 0.970589C42.0586 0.434824 42.4933 0 43.0292 0Z" fill="black"/>
<path d="M17.7938 50.4706C18.3309 50.4706 18.7644 50.9054 18.7644 51.4412C18.7644 51.9769 18.3309 52.4118 17.7938 52.4118C17.2581 52.4118 16.8232 51.9769 16.8232 51.4412C16.8232 50.9054 17.2581 50.4706 17.7938 50.4706Z" fill="black"/>
<path d="M13.2645 0C13.8016 0 14.2351 0.434824 14.2351 0.970589C14.2351 1.50635 13.8016 1.94118 13.2645 1.94118C12.7288 1.94118 12.2939 1.50635 12.2939 0.970589C12.2939 0.434824 12.7288 0 13.2645 0Z" fill="black"/>
<path d="M3.55848 36.8823C4.09553 36.8823 4.52906 37.3171 4.52906 37.8529C4.52906 38.3887 4.09553 38.8235 3.55848 38.8235C3.02271 38.8235 2.58789 38.3887 2.58789 37.8529C2.58789 37.3171 3.02271 36.8823 3.55848 36.8823Z" fill="black"/>
<path d="M0.970586 13.5883C1.50764 13.5883 1.94117 14.0231 1.94117 14.5588C1.94117 15.0946 1.50764 15.5294 0.970586 15.5294C0.434823 15.5294 0 15.0946 0 14.5588C0 14.0231 0.434823 13.5883 0.970586 13.5883Z" fill="black"/>
<path d="M27.8233 42.6891C19.2703 42.6891 12.312 35.7302 12.312 27.1765C12.312 18.6227 19.2703 11.6639 27.8233 11.6639C36.377 11.6639 43.3358 18.6227 43.3358 27.1765C43.3358 35.7302 36.377 42.6891 27.8233 42.6891ZM27.8233 12.958C19.9839 12.958 13.6061 19.3364 13.6061 27.1765C13.6061 35.0166 19.9839 41.3949 27.8233 41.3949C35.6633 41.3949 42.0417 35.0166 42.0417 27.1765C42.0417 19.3363 35.6633 12.958 27.8233 12.958Z" fill="black"/>
<path d="M20.0577 35.5895C19.892 35.5895 19.7265 35.5264 19.6001 35.3999C15.0656 30.8655 15.0656 23.4875 19.6001 18.953C19.8528 18.7004 20.2624 18.7004 20.5151 18.953C20.7679 19.2057 20.7679 19.6155 20.5151 19.8681C18.5632 21.82 17.4881 24.4156 17.4881 27.1765C17.4881 29.9375 18.5631 32.533 20.5151 34.485C20.7679 34.7376 20.7679 35.1473 20.5151 35.3999C20.3888 35.5263 20.2233 35.5895 20.0577 35.5895Z" fill="black"/>
<path d="M35.5909 35.5895C35.4254 35.5895 35.2597 35.5264 35.1334 35.3999C34.8807 35.1473 34.8807 34.7376 35.1334 34.485C37.0854 32.533 38.1605 29.9375 38.1605 27.1765C38.1605 24.4156 37.0854 21.82 35.1334 19.8681C34.8807 19.6153 34.8807 19.2056 35.1334 18.953C35.3861 18.7004 35.7957 18.7004 36.0485 18.953C38.2448 21.1494 39.4544 24.0699 39.4544 27.1765C39.4544 30.283 38.2447 33.2036 36.0485 35.3999C35.922 35.5263 35.7564 35.5895 35.5909 35.5895Z" fill="black"/>
<path d="M27.8241 50.7455C26.7078 50.7455 25.6062 50.4505 24.6388 49.8922L23.3041 49.1206C22.5346 48.6762 21.657 48.4414 20.7666 48.4414H19.2253C16.9566 48.4414 14.8427 47.2204 13.7084 45.2551L12.9374 43.9211C12.4918 43.1494 11.8497 42.5068 11.0802 42.0627L9.74491 41.2929C7.78006 40.1581 6.55984 38.0442 6.55984 35.7758V34.2345C6.55984 33.3437 6.32457 32.4664 5.87952 31.6974L5.109 30.361C3.97471 28.3968 3.97471 25.9561 5.10913 23.9916L5.87887 22.6564C6.32457 21.8866 6.55984 21.0092 6.55984 20.1183V18.577C6.55984 16.3085 7.78019 14.1946 9.74452 13.0602L11.0804 12.2899C11.8495 11.8458 12.4917 11.2032 12.9371 10.4318L13.7085 9.0972C14.8424 7.13234 16.9564 5.91147 19.2252 5.91147H20.7665C21.6569 5.91147 22.5345 5.67659 23.3043 5.23206L24.6382 4.46102C25.6061 3.90248 26.7077 3.60742 27.824 3.60742C28.9404 3.60742 30.0418 3.90248 31.0093 4.46076L32.3439 5.23232C33.1135 5.67672 33.9912 5.9116 34.8814 5.9116H36.4226C38.6915 5.9116 40.8055 7.13247 41.9395 9.09785L42.7107 10.4317C43.1562 11.2035 43.7983 11.846 44.568 12.2903L45.903 13.0602C47.868 14.1949 49.0882 16.3087 49.0882 18.5771V20.1184C49.0882 21.0093 49.3233 21.8867 49.7685 22.6555L50.539 23.9921C51.6735 25.9561 51.6735 28.3969 50.5388 30.3614L49.7692 31.6964C49.3235 32.4664 49.0882 33.3437 49.0882 34.2345V35.7758C49.0882 38.0442 47.8679 40.1581 45.9035 41.2926L44.5676 42.0629C43.7985 42.5069 43.1564 43.1495 42.7108 43.9209L41.9393 45.2555C40.8054 47.2205 38.6914 48.4414 36.4226 48.4414H34.8815C33.9912 48.4414 33.1136 48.6762 32.3438 49.1208L31.0099 49.8919C30.0419 50.4505 28.9404 50.7455 27.8241 50.7455ZM19.2253 7.20559C17.4175 7.20559 15.733 8.17851 14.8292 9.74452L14.0577 11.0791C13.4991 12.0468 12.6932 12.8531 11.7272 13.4109L10.3913 14.1811C8.82635 15.085 7.85395 16.7694 7.85395 18.577V20.1183C7.85395 21.2367 7.5585 22.3381 6.99945 23.3038L6.23009 24.6384C5.32603 26.2041 5.32603 28.1488 6.22997 29.7143L7.00009 31.0501C7.5585 32.0149 7.85408 33.1164 7.85408 34.2345V35.7758C7.85408 37.5835 8.82648 39.2679 10.3918 40.1719L11.727 40.9417C12.6932 41.4997 13.4991 42.3059 14.0579 43.2738L14.829 44.6079C15.733 46.1743 17.4175 47.1472 19.2253 47.1472H20.7666C21.8838 47.1472 22.9853 47.442 23.9514 48.0001L25.2861 48.7715C26.0567 49.2163 26.9345 49.4514 27.8241 49.4514C28.7137 49.4514 29.5915 49.2163 30.3626 48.7712L31.6965 48.0002C32.663 47.442 33.7643 47.1472 34.8815 47.1472H36.4227C38.2307 47.1472 39.915 46.1743 40.8189 44.6083L41.5904 43.2737C42.149 42.3059 42.955 41.4997 43.9211 40.9419L45.2569 40.1717C46.8218 39.268 47.7942 37.5835 47.7942 35.7758V34.2345C47.7942 33.1163 48.0897 32.0149 48.6486 31.0491L49.4181 29.7146C50.3223 28.1487 50.3223 26.204 49.4183 24.6387L48.6481 23.3026C48.0898 22.338 47.7942 21.2365 47.7942 20.1182V18.5769C47.7942 16.7692 46.8217 15.0847 45.2563 14.1808L43.9213 13.4109C42.955 12.853 42.1492 12.0466 41.5902 11.0788L40.8192 9.74478C39.9151 8.17838 38.2307 7.20546 36.4227 7.20546H34.8815C33.7642 7.20546 32.6629 6.91053 31.6967 6.35263L30.3621 5.58121C29.5915 5.13655 28.7137 4.90141 27.8241 4.90141C26.9344 4.90141 26.0567 5.13655 25.2855 5.58147L23.9517 6.3525C22.9851 6.91066 21.8838 7.20559 20.7665 7.20559H19.2253Z" fill="black"/>
<path d="M51.7646 9.05884C49.9806 9.05884 48.5293 7.60749 48.5293 5.82355C48.5293 4.03961 49.9806 2.58826 51.7646 2.58826C53.5485 2.58826 54.9999 4.03961 54.9999 5.82355C54.9999 7.60749 53.5485 9.05884 51.7646 9.05884ZM51.7646 3.88237C50.6942 3.88237 49.8234 4.75319 49.8234 5.82355C49.8234 6.89392 50.6942 7.76473 51.7646 7.76473C52.8349 7.76473 53.7058 6.89392 53.7058 5.82355C53.7058 4.75319 52.8349 3.88237 51.7646 3.88237Z" fill="black"/>
<path d="M6.47081 55C3.9733 55 1.94141 52.9681 1.94141 50.4706C1.94141 47.9731 3.9733 45.9412 6.47081 45.9412C8.96832 45.9412 11.0002 47.9731 11.0002 50.4706C11.0002 52.9681 8.96832 55 6.47081 55ZM6.47081 47.2353C4.68687 47.2353 3.23552 48.6866 3.23552 50.4706C3.23552 52.2545 4.68687 53.7059 6.47081 53.7059C8.25475 53.7059 9.7061 52.2545 9.7061 50.4706C9.7061 48.6866 8.25475 47.2353 6.47081 47.2353Z" fill="black"/>
<path d="M27.8237 39.4706C26.0397 39.4706 24.5884 38.0192 24.5884 36.2353V26.5294C24.5884 24.7455 26.0397 23.2941 27.8237 23.2941C28.6874 23.2941 29.4997 23.6307 30.1111 24.2419C30.7224 24.8533 31.059 25.6656 31.059 26.5294V36.2353C31.059 38.0192 29.6076 39.4706 27.8237 39.4706ZM27.8237 24.5882C26.7533 24.5882 25.8825 25.4591 25.8825 26.5294V36.2353C25.8825 37.3057 26.7533 38.1765 27.8237 38.1765C28.894 38.1765 29.7648 37.3057 29.7648 36.2353V26.5294C29.7648 26.0113 29.5628 25.5239 29.1959 25.157C28.8292 24.7903 28.3418 24.5882 27.8237 24.5882Z" fill="black"/>
<path d="M27.8237 22C26.0397 22 24.5884 20.5487 24.5884 18.7647C24.5884 17.9009 24.925 17.0884 25.5362 16.4772C26.1475 15.866 26.9598 15.5294 27.8237 15.5294C28.6874 15.5294 29.4997 15.866 30.1111 16.4772C30.7224 17.0886 31.059 17.9009 31.059 18.7647C31.059 19.6285 30.7222 20.4409 30.1111 21.0521C29.4997 21.6634 28.6874 22 27.8237 22ZM27.8237 16.8235C27.3055 16.8235 26.8181 17.0255 26.4513 17.3924C26.0845 17.7592 25.8825 18.2467 25.8825 18.7647C25.8825 19.8351 26.7533 20.7059 27.8237 20.7059C28.3418 20.7059 28.8292 20.5039 29.1961 20.137C29.5628 19.7702 29.7648 19.2827 29.7648 18.7647C29.7648 18.2467 29.5628 17.7592 29.1959 17.3923C28.8292 17.0255 28.3418 16.8235 27.8237 16.8235Z" fill="black"/>
</svg>
